<svg xmlns="http://www.w3.org/2000/svg" xmlns:xlink="http://www.w3.org/1999/xlink" x="0" y="0" enable-background="new 0 0 128.3 98.5" version="1.1" viewBox="0 0 128.3 98.5" xml:space="preserve"><g id="Layer_1" display="none"><path fill="#EF3E3D" d="M77.5,31.8c-1.1-0.6-3.2-0.4-5.7,0.1c-1.2,1.1-2.3,2.2-3.2,3.3c-6.3,3.7-7.9,7.6-14,11.8 c-2.6,2-4.8,3.8-7,5.6l-1.1,0.9c-0.2,0.2-0.4,0.3-0.6,0.5c-0.4,0.3-0.9,0.6-1.2,0.7c-0.6,1.2-1.3,2-2.1,2.7c-0.7,0.6-1.4,1-1.9,1.2 c0.5-0.9,0.9-1.7,1.1-2.2c0.2-0.5,0.2-0.8,0-1c0.1-0.2,0-0.2,0-0.2c0,0-0.1-0.1-0.1-0.2c-0.1-0.1-0.2-0.2-0.3-0.3 c-0.2-0.2-0.5-0.1-1.1,0.9c0.3-0.8,0.6-1.3,0.8-1.7c0.1-0.2,0.2-0.3,0.3-0.5c0.1-0.2,0.2-0.3,0.3-0.5c0.2-0.3,0.4-0.6,0.6-1 c0.1-0.2,0.2-0.5,0.3-0.8c0.1-0.4,0.3-0.8,0.5-1.3c0,0,0,0.4,0,0.9c0,0.4,0.1,0.7,0.1,0.7c0.2-0.4,0.8-1.4,1.4-2.5 c0.5-1.1,1.1-2.3,1.6-3.5c0,0,0.1-0.6,0.1-1.1c0-0.5,0-0.9,0-0.9c0.5-0.9,0.9-1.7,1.2-2.4c0.3-0.7,0.6-1.3,0.8-1.9 c0.5-1.1,0.8-2.1,1-2.9c0.3-0.9,0.5-1.6,0.8-2.6c0.4-1,0.9-2.2,1.8-4l0,0c0,0,0,0,0,0c-1.7,3.2-1.4,2.4-1.4,1.9 c-0.8,0.8-1.6,1.7-2,2.4c0.1-0.5-2.1,1.4-0.9,0c-1.6,1.3-3.8,3.7-5.4,5.3c-1.7,1.7-2.8,2.8-3.6,2.9L37,43.7c-1.1,1.3-2,2-3,2.8 c-0.5,0.4-1,0.7-1.5,1.1c-0.5,0.3-0.9,0.6-1.4,1l0,0.5c-0.9,1.1-3.2,3.1-4.1,3.4c-1.3,1-2.5,2.4-4.2,4.2c-0.9,1-1.8,2-2.7,3 c-0.2,0.3-0.5,0.6-0.7,0.8c-0.2,0.2-0.5,0.5-0.7,0.7c-0.4,0.4-0.9,0.8-1.3,1.2c-0.2,0.1-0.3,0.3-0.5,0.4c-0.2,0-0.4,0-0.6,0 c-0.1,0-0.2,0-0.3,0l-0.1,0c0,0-0.1,0-0.1,0c0-0.1,0.1-0.2,0.1-0.3c0.1-0.4,0.1-0.5,0-0.5c-0.1-0.1-0.3,0-0.5-1 c0.1-0.3,0.1-0.6,0.1-0.9c0.6-1.5,1.1-3.1,1.6-4.6c0.5-1.5,1-2.9,1.6-3.7c-0.6,1.8-0.6,2.7-0.6,3.3c0,0.7,0.1,1.2-0.5,2.7 c-0.1,0.2-0.1,0.3-0.2,0.5c0.5-1,0.2,0.2,0,1c-0.2,0.8-0.2,1.2,0.8-0.7c0-0.5,0.2-1.1,0.4-2c0.6-2.2,1.6-5.1,2.5-7.8 c0.4-1.3,0.9-2.8,1.2-4.2c0.3-1.4,0.6-2.8,0.7-4c0.2,0.2,0.6-0.3,0.9-1.1l0.2,0l2-2.6l0,0.5l2.4-2.9L25.4,33c0-0.5,0.1-0.9,0.1-1.4 l0.1-1.2l-0.7,1c-0.3,0.4-0.5,0.7-0.7,0.9l-0.3,0c0,0-0.1,0.1-0.1,0.1l-3.1-1.2l0,0.1c-0.1,1.9,0.2,2.2,0.4,2.6 c-0.1,0.8-0.2,1.5-0.3,2.2c-0.1,0.2-0.3,0.4-0.4,0.6l-0.1-1.1l-0.5,1.6c0.2-0.4,0.2-0.3,0.2,0.1c-0.2,0.3-0.4,0.7-0.7,1.1 c-2.6,3.5-5.2,7-7.9,9.5c-3.9,3.8-7,9.6-7.9,11.9c4.8-4.7,7.5-10.5,11.9-13.4c-3.1,3.5-3,3.9-4.8,7l1.4-1.3l-0.8,1.3 c0.8-0.4-0.2,1.4,0.2,1.4l3.4-4.4c-2.1,2.1-1.2,0.3-1-0.6l1.9-2.2c-0.6,0.4-1.8,1.7-0.7-0.1c0.8-0.9,1.5-2.2,2.5-3l-0.8,2.3 c0.2-0.4,0.5-0.8,0.8-1.2c-0.1,0.4-0.3,0.9-0.4,1.3c-0.2,0.6-0.4,1.1-0.6,1.7c-0.7,2.1-1.3,3.7-0.9,3.6c-0.4,1.1-0.9,2.2-1.3,3.3 c-0.5,1.1-0.9,2.3-1.4,3.5c-1,2.5-2,4.9-3,7.4c0.5,0,0.9,0.1,1.4,0.1c0.3,0,0.7,0.1,1,0.1c0.2,0,0.5,0,0.7,0.1l0.1,0l0.3,0l0.6,0 l0.5,0l0.2,0c0,0,1.3-0.6,1.3-0.6c0.2,0,0.3,0,0.5,0c0.2,0,0.4,0,0.6,0l0.3,0l0.1,0l0.2-0.1c0.3-0.1,0.5-0.2,0.8-0.3 c0.5-0.2,1-0.4,1.6-0.7c0.1-0.1,0.2-0.1,0.4-0.2l0.5-0.5l1-1c2.8-2.7,5.5-5.3,9.1-8.7l-0.5,0.7c0,0,0.2-0.3,0.6-0.6 c0.2-0.2,0.4-0.5,0.6-0.8c0.5-0.6,0.9-1.2,0.9-1.2c0.8-0.6,1.5-1.2,2.1-1.8c0.1-0.1,0.3-0.3,0.4-0.4l0.2-0.2c0.1-0.1,0-0.1,0.1-0.1 l0.2-0.3c0.2-0.4,0.7-0.9,1-0.9c0.4-0.2,0.7-0.6,1.4-1.5c1.1-1.6,2-2.8,2.9-4c0.9-1.1,1.5-1.6,1.8-1.7c-0.6,1.1-1.3,2.3-1.5,2.9 c0,0-0.5,0.3-0.5,0.3L39.7,47c0,0.3-0.2,0.7-0.4,1c-0.1,0.2-0.1,0.3-0.2,0.5c0,0,0,0.1,0,0.1c0,0,0,0,0,0c0,0,0.1,0,0.1,0 c-0.2,0.2-0.2,0.2-0.1,0.3c0.1,0.1,0.2,0.1,0.3,0.4c0,0.9,0.3,1.4,0.1,2.7c0,0-0.2,0.3-0.5,0.8c-0.4,0.7-0.9,1.7-1.4,2.7 c-1.2,2.3-2.4,4.5-2.4,4.5l0.4-0.4c0,0.2-0.1,0.4-0.1,0.6c0,0.1,0,0.3,0,0.4c0,0.3-0.1,0.5-0.1,0.7c-0.1,0.4-0.2,0.9-0.5,1.5 c-0.5,1.2-1.5,3.3-3.1,7.2c0.3-0.3,0.8-0.6,1.3-1l0.9-1.4c0.6,0,1.7-1,2.9-2.1c1.2-1.1,2.5-2.3,4-3.5c0.7-0.6,2.1-1.3,3.8-2.5 c0.9-0.6,1.8-1.2,2.7-1.9c0.9-0.7,1.8-1.5,2.1-2c5-3.1,6.3-6.2,10.3-9.2c2.7-1.5,3.8-3.6,4.8-3.2l-0.4,0.3l1.5,0L65.3,43 c1.6-0.9,3.5-2.7,5.2-3.1l2.6-3.5c-0.8,0.7-1.7,1.4-2.7,2l0.2,0.1c-0.9,0.7-2.9,2.4-4.1,3l1.1-1.1c-1.5,0.9-0.5-0.2-0.2-0.6 c3-1.9,1.8-1.8,3.9-3.6c0.5-0.3,1.5-0.9,1.3-0.5c1.2-1.1,4.8-3.2,4.5-3.8C77.3,31.8,77.4,31.8,77.5,31.8z" display="inline"/></g><g id="Layer_2"><g><path fill="#EF3E3D" d="M15,95.8L15,95.8l0.8-0.2c0,0,0,0,0,0L15,95.8z"/><polygon fill="#EF3E3D" points="14.4 95.9 15 95.8 14.4 95.2"/><path fill="#EF3E3D" d="M10.8,39.2c0,0-0.1,0-0.1,0.1C10.7,39.3,10.7,39.3,10.8,39.2C10.8,39.2,10.8,39.2,10.8,39.2z"/><path fill="#EF3E3D" d="M123.4,54.3c-0.8-1.6,0.3-3.6,0.2-5l0.7,0.9l0.6-1.2c-0.5-2,0.1-2.2-1-4.7c0.2-3.7-2.5-2.7-3.7-4 c0,0,0.3-0.9,0.5-1.8c0.3-0.9,0.5-1.8,0.5-1.8l-0.4,0.1c-2.3-1.6-1.1-1.3-2.2-5.9l-1,0.5c0.8-1.8-1-2.1-1.4-4 c-0.3-0.9,0.8-4.3-1-5.6c0.1-3.7-3.5-4.4-4.2-7.3c0.3-2-2-2.6-0.4-3.5l0.1,0.3l1.5-1.2l-1.3,0.3c0.1-1.2-0.8-2.5,0.2-3.9 c0,0-0.8-0.4-1.6-0.8c-0.8-0.4-1.6-0.8-1.6-0.8c0.4,0.5,0.5,1.2,0.6,1.9l0.3-0.2c0.3,0.6,1.1,2,0.8,2.9l-0.7-0.7 c0,1.1-0.8,0.5-1.1,0.3c-0.1-2.2-1.1-1.2-1.9-2.6c0-0.4-0.1-1.1,0.4-1c-0.5-0.8-0.6-3.4-1.8-2.9c0-0.1,0.1-0.1,0.1-0.2 c-1.9,1.3-3.7,2.9-5.3,4.8c0.6,0.7,1.3,1.4,2.1,1.9c-0.4,4.4,4.3,5.1,4.8,9.5c1.1,3.7,2.8,6.1,2.8,9.9c2.1,0.1,2.4,1.9,2.5,3.9 c0.1,2,0,4.2,1.6,5.3c0.8,1.7,2.5,2.4,2.9,0.9c0.6,2.5-1.2,2.2-0.2,4.2l-0.2-0.1c0,0,0,0,0,0c-0.4-0.2-0.9-0.3-1.3-0.4l0,0 c0,0,0,0,0,0c-0.6-0.1-1.3-0.1-1.9,0c-1.1,0.2-2,0.6-2.9,1c-1.7,0.9-3.1,1.8-5.5,1.6c1.4-0.8,2.1-1.3,2.6-1.9 c0.3-0.3,0.5-0.6,0.8-1c0.3-0.4,0.6-0.8,1.1-1.4c0,0-0.4,0-0.8,0c-0.4,0-0.8,0-0.8,0l0.9-0.9c-0.4-0.2-0.4-0.6-0.2-1.1 c0.2-0.4,0.4-0.9,0.2-1.2c0,0-0.3,0.1-0.7,0.3c-0.4,0.2-1,0.5-1.5,0.7c-0.5,0.3-1,0.6-1.4,0.8c-0.4,0.2-0.6,0.4-0.6,0.4 c1.2-0.4,1.6-0.2,1.6,0.2c0,0.4-0.2,1.1-0.3,1.6c0,0-0.5,0.3-1,0.5c-0.5,0.3-0.9,0.6-0.9,0.6c0.6-0.1,1.8-0.6,0.9,0.7 c-0.4,0.2-0.7,0.6-1.1,0.9c-0.4,0.3-0.7,0.7-1.2,0.8c0,0,0-0.6,0-1.2c0.1-0.6,0.1-1.2,0.1-1.2c-0.3,0.7-0.7,1.1-1.2,1.5 c-0.5,0.4-1,0.6-1.6,0.9c-1.1,0.6-2.2,1.3-2.5,2.8c0,0-0.5,0-0.9-0.1c-0.5,0-0.9-0.1-0.9-0.1s-0.3,0.6-0.6,1.2 c-0.3,0.6-0.6,1.2-0.6,1.2l-0.4-0.5c0,0-0.1,0.2-0.3,0.5c-0.2,0.3-0.4,0.7-0.6,1c-0.4,0.8-0.7,1.6-0.7,1.6 c-0.4,1.9,0.3,2.4,0.8,2.8c-0.3,1.4-0.2,2.8-0.6,3.4c0,0-0.2-0.5-0.4-0.9c-0.2-0.5-0.4-1-0.4-1s-0.6,1.6-0.5,1.6 c0.4-1.2,0.5,1.5,0.9,1.9c-0.1,2,0.1,2.7,0,3.3c0,0.6-0.1,1-0.1,2.5c0.1,0.2,0.3,0.5,0.4,0.8c-0.2,0.1-0.5,0.2-0.7,0.3 c-1.1,0.5-2.6,0.9-3.9-0.2c-1.3-0.6-2.5-1.1-3.7-1.8c-1.1-0.7-2.1-1.5-2.8-2.9c-1.6,1-2.6-0.1-3.2-1.4c0-0.3,0-0.5-0.1-0.8 c0,0,0.2,0.2,0.4,0.4c0.2,0.2,0.4,0.4,0.4,0.4s0.1-0.4,0.2-0.7c0.1-0.4,0.1-0.7,0.1-0.7c-0.5-1-0.6-1.6-0.8-2.3 c-0.2-0.6-0.6-1.3-1.4-2.5c-0.7-2.7-2.2-2.5-3.5-2.5l-10.5,0.1c-0.3-0.1-0.5-0.1-0.5-0.1s0.3-0.2,0.6-0.3c0.3-0.1,0.7-0.2,0.7-0.2 c-0.4-0.3-0.1-0.7,0.2-1.1c0.4-0.4,0.8-0.7,0.7-1.1c0,0-0.4,0-0.9,0c-0.5,0-1.3,0.1-2,0.2c-0.4,0.1-0.7,0.1-1,0.2 c-0.3,0.1-0.6,0.2-0.9,0.2c-0.5,0.2-0.9,0.3-0.9,0.3c1.6-0.1,1.9,0.2,1.8,0.6c-0.1,0.4-0.7,1-0.9,1.5c0,0-0.2,0-0.4,0.1 c-0.2,0.1-0.5,0.2-0.9,0.3c-0.6,0.2-1.2,0.5-1.2,0.5c0.7,0,2.2-0.3,0.8,0.8c-0.9,0.3-1.8,1.4-2.8,1.7c0,0,0-0.2,0.1-0.4 c0-0.2,0.1-0.5,0.2-0.8c0.2-0.6,0.4-1.3,0.4-1.3c-0.5,0.7-1.1,1.2-1.6,1.6c-0.6,0.4-1.2,0.7-1.8,1c-1.2,0.7-2.4,1.5-2.5,3 c0,0-0.5,0-0.9-0.1c-0.5,0-0.9,0-0.9,0s-0.3,0.6-0.6,1.2c-0.2,0.6-0.5,1.1-0.5,1.1l-0.4-0.5c0,0-0.4,0.6-0.7,1.3c0,0,0,0,0,0 c-0.1-0.1-0.1-0.2-0.2-0.3c-1.5-2.1-3.4-3.7-5.4-4.8c-2-1.2-4.1-1.9-6.3-2.4c-2.2-0.5-4.4-0.7-6.8-0.7c-0.4,0.6-0.9,1-1.6,1.4 c0.4-1.2,0.9-2.6,0.6-4.2c0,0-0.4-0.5-0.7-1.1c-0.4-0.5-0.8-1-0.8-1c0.5-2.7-0.3-4.9-1.2-6.8c-1-2-2.1-3.9-3.3-6.7 c0.3,1,0.3,1.4,0.2,1.5c-0.1,0.1-0.3-0.2-0.7-0.5c-0.6-0.6-1.6-1.5-1.9-1c0-0.5-0.6-1.5-1.1-2.2c-0.5-0.7-0.9-1.3-0.3-1 c-1-0.9-2.4-1.6-3.8-1.8c-1.4-0.1-2.8,0.1-3.8,0.6c-0.5,0.2-1,0.5-1.5,0.8c-0.5,0.3-0.8,0.5-1.2,0.7L5.3,33l-0.1,0.1l-0.1,0l0,0 l0,0l0,0l0,0l-0.1,0.1l0,0c-0.2,0.1-0.4,0.3-0.6,0.4c-0.4,0.2-0.9,0.4-1.3,0.6c0,0-0.2,0.5-0.3,1.1c-0.1,0.3-0.1,0.5-0.1,0.7 c0,0.2,0,0.3,0,0.3c-0.3,1.7-0.5,3-0.8,4.3c-0.1,0.7-0.3,1.3-0.4,2c-0.1,0.7-0.2,1.4-0.2,2.1L2.1,45c0.3,0.9,0.6,2.1,0.8,3.3 c0.2,1.2,0.3,2.4,0.2,3.2C3.3,53.2,4,55,5,56.8c0.6,1.9,1.4,3.6,2.1,5.2c1.5,3.1,2.9,6,2.7,9.3c-1.9-5-2.7-4.9-5.4-8.3 c0,0,0.1,0.6,0.1,1.2c0.1,0.6,0.2,1.1,0.2,1.1s-0.3-0.4-0.6-0.7c-0.3-0.4-0.6-0.8-0.6-0.8c-0.3,1.2-1.8-0.9-2.4-0.3 c0,0,0.2,0.4,0.4,1c0.2,0.6,0.6,1.4,1,2.1c0.7,1.5,1.5,3,1.5,3c-1-3.4,0.8-1.7,1.9-1.2c0,0,0.3,0.8,0.6,1.6 c0.3,0.8,0.6,1.5,0.6,1.5c0-0.8-0.7-2.8,0.8-0.9c0.3,0.8,1,1.7,1.4,2.6l-0.3,1l-1.8-1.1c0.7,0.7,1.2,1.5,1.5,2.3l-2,7.2l3.3-2.8 c0.3,1.1,0.8,2.2,1.7,3.1c0,0-0.2,0.4-0.5,0.9c-0.3,0.4-0.5,0.9-0.5,0.9s0.4,0.8,0.8,1.5c0.2,0.4,0.4,0.8,0.5,1 c0.1,0.3,0.2,0.5,0.2,0.5l-0.7-0.1c0,0,0.3,0.9,0.7,1.8c0.3,0.9,0.5,1.8,0.5,1.8c0.9,1.8,1.7,1.9,2.3,2.1c0.3,0.9,0.5,1.7,0.7,2.4 l6-1.5c0,0,0,0,0,0l-6,1.5c0,0,0,0,0,0l6-1.5c0,0.1,0.1,0.2,0.1,0.4l0.9-0.2c0.4,0.4,0.9,0.8,1.5,1.2c1.9,0.2,3.7,0.2,5.4-0.2 c1.7-0.4,3.1-1,4.2-1.7c3.4-0.7,5.7-2.3,7.4-4c1.7-1.7,2.9-3.6,3.8-5.5c0.4-0.9,0.7-1.8,1.1-2.7c0.2,0.4,0.5,0.7,0.7,0.9 c0.3,0.3,0.6,0.3,0.9,0.2c1.3,2.1,3.3,3.9,5.7,5c2.4,1.1,5.1,1.6,7.6,1.5c0,0,0.1-0.1,0.3-0.1c0.2-0.1,0.4-0.2,0.7-0.3 c0.5-0.2,0.9-0.5,0.9-0.5c2.6,0.2,4.3-0.5,5.8-1.3c0.8-0.5,1.5-0.9,2.3-1.6c0.4-0.3,0.8-0.6,1.2-1c0.4-0.4,0.8-0.7,1.3-1.1 l-0.1,0.5c0,0,0.1-0.2,0.2-0.4c0.1-0.2,0.3-0.5,0.5-0.9c0.3-0.7,0.6-1.3,0.6-1.3c1.5-1.1,2.1-2.3,2.6-3.6c0.2-0.6,0.5-1.3,0.8-2 c0.3-0.7,0.7-1.5,1.3-2.4c0.2-0.4,0.3-0.7,0.4-1.1c1,0.7,2.1,0.9,3.1,0.9c1.4,0,2.7-0.2,4,0.3c0.7,0.7,1.5,0.6,2.1,0.6 c0.6,0,0.9,0,0.9,1l-0.3,0c0,0,0.1,0.5,0.2,1c0.1,0.5,0.2,1,0.2,1l0.3-1.3c1,0.7,2.6,0.3,3.7,1.7c0,0,0.2-0.1,0.4-0.4 c0.2-0.3,0.6-0.6,0.8-0.9c0.6-0.7,1-1.4,1-1.4c-0.5,0.3-1.2,0.3-1.9,0.2l0.1,0.4c-0.3,0.1-0.9,0.1-1.4,0.2c-0.6,0-1.2-0.1-1.5-0.4 c0,0,0.2-0.1,0.5-0.2c0.2-0.1,0.4-0.2,0.4-0.2c-1-0.4-0.1-0.9,0.2-1.1c1.8,0.6,1.3-0.7,2.6-1.1c0.1,0,0.3,0.1,0.4,0.1 c0.6,0.9,1.4,1.7,2.2,2.4c0.5,0.4,1,0.8,1.5,1.2l0.8,0.5l1,0.5c0.6,0.3,1.4,0.5,1.7,0.7c0.4,0.2,0.9,0.3,1.4,0.5 c0.9,0.3,2.3,0.6,3.5,0.7c0,0,0.6-0.1,1.2-0.3c0.6-0.2,1.1-0.4,1.1-0.4c3,0.5,5.2-0.2,7-1.3c1.8-1.1,3.4-2.7,5.1-5.1l0,0.6 c0,0,0.3-0.8,0.5-1.6c0.2-0.8,0.3-1.6,0.3-1.6c0.7-0.8,1-1.8,1.3-2.5c0.2-0.7,0.2-1.3,0.3-1.9c0.1-1.2,0.1-2.4,0.9-4.1 C126.6,56.9,125.1,55.3,123.4,54.3z M9.6,39.8c0-0.2,0.1-0.2,0.1-0.3c-0.1,0.2-0.1,0.4-0.2,0.4C9.6,39.9,9.6,39.8,9.6,39.8z M18,78.5c-0.3-0.6-0.7-1.1-1-1.5c-0.4-0.7-0.8-1.5-1.2-2.2l0.7-0.6C17.3,75.9,18.1,77.5,18,78.5z M18.2,58.7 c-0.7,0.4-1.4,0.8-2.1,1.4c-0.6-2.7-1.4-4.5-2.2-6.3c-0.9-1.8-1.8-3.7-2.5-6.3l0.5,0.3c0,0-0.4-0.6-0.8-1.3 c-0.4-0.6-0.8-1.3-0.8-1.3c0.1-1.9-0.3-3.1-0.5-4.1c-0.1-0.4-0.1-0.9-0.1-1.2l0,0l0,0c0.3-0.2,0.6-0.4,0.8-0.5 c0.1,0,0.1-0.1,0.2-0.1c0,0,0,0,0,0c0,0,0,0,0-0.1c0-0.1-0.1-0.3-0.1-0.4c0,0,0-0.1,0-0.1c0-0.1,0-0.2,0-0.3 c0-0.1,0.1-0.2,0.1-0.2l0.2-0.2c0.3-0.3,0.7-0.5,1.1-0.7c0.9,0.1,1.6,1.1,2.1,2.2c0.5,1.1,0.7,2.4,1,3.4c0,0-0.3-0.3-0.5-0.5 c-0.3-0.2-0.5-0.5-0.5-0.5s0,0.4,0,0.9c0,0.5,0,0.9,0,0.9c0.6,1.3,0.8,2.1,1,3c0.2,0.9,0.4,1.9,1,3.8c-0.1,2.8,0.2,3.9,0.9,4.7 c0.6,0.8,1.6,1.3,1.9,2.7C18.6,57.8,18.4,58.2,18.2,58.7z M24.2,55.7c0.1,0.1,0.1,0.2,0.2,0.3c-0.2,0.1-0.5,0.2-0.8,0.3 c0-0.4,0-0.9,0-1.4C23.6,54.9,23.9,55.3,24.2,55.7z M29.7,92.2C29.7,92.1,29.7,92.1,29.7,92.2l0.7-0.2c0,0,0,0,0,0L29.7,92.2z M35.8,85.7c-1.9,1-2.6,1.4-3.1,2c-0.5,0.5-0.9,1.2-2.8,1.6c-0.1,0-0.2,0-0.3,0c-0.3-0.5-0.7-1-0.9-1.1c-0.2-0.5-0.3-0.8-0.4-1.2 c1.1-0.2,2.3-0.3,3.5-0.7l-0.3-0.3c0.6-0.2,1.5-0.7,2.4-1.3c0.9-0.6,1.8-1.2,2.5-1.5c0,0-0.2,0.4-0.5,0.7 c-0.3,0.4-0.5,0.7-0.5,0.7C37.1,83.6,36.2,85.2,35.8,85.7z M41.9,75.4c-0.9,1.5-1.4,2.9-1.8,4c-0.5,1-1,1.7-1.9,1.4l0.3-0.5 c0,0-0.6,0-1.1-0.1c-0.6-0.1-1.1-0.1-1.1-0.1l0.9,1c-0.8,0.6-1.7,1.4-2.6,2c-1,0.6-2,1-3,0.6c0,0-0.2,0.2-0.4,0.6 c-0.3,0.3-0.6,0.8-1.1,1.2c-0.2,0.2-0.5,0.4-0.7,0.6c-0.2,0.2-0.5,0.4-0.7,0.5c-0.2,0.1-0.4,0.3-0.6,0.3c-0.5-1.4-0.8-1.9-0.9-2.4 c-0.2-0.6-0.2-1-0.4-2.5c-1.9-2.4-2.3-6.1-3.6-5.7c-0.7-2.3-1.6-4.5-2.5-6.7c0.6-0.9,1-1.8,1.1-2.7c0.4-1,0.7-2,0.8-2.8 c0-0.4,0.1-0.7,0-1c0.8-0.7,1.8-1.5,3.5-1.8c0.8-0.2,2.7,0,4.4,0.6c1.8,0.5,3.4,1.2,5,1.3c1.1,1,2,1.8,2.8,2.6 c0.8,0.8,1.6,1.6,2.2,2.5C42.1,70,42.9,72.6,41.9,75.4z M58.5,55.7c0.3-0.1,0.6-0.2,0.9-0.3c0.5-0.2,0.9-0.4,1.3-0.6 c0.4-0.2,0.7-0.5,1.2-0.8c0.3-0.2,0.6-0.4,1-0.6l3.6,1.4c0.5,0.2,0.9,0.4,1.3,0.8c0,0-0.1,0.2-0.1,0.6c0,0,0,0,0,0l-0.7,0 c0,0,0,0,0,0c-1.1-0.3-2.3-0.4-3.4-0.3c-2,0.2-3.5,0.6-6,0.1C57.9,55.9,58.2,55.8,58.5,55.7z M71.8,67.5c0.1,0.2,0.1,0.5,0.2,0.7 c0.1,0.2,0.1,0.5,0.1,0.7c0.1,0.5,0.1,0.9,0,1.3c-0.2,0.3-0.5,0.6-1,0.7c0,0,0.1,0.2,0.2,0.4c0.1,0.2,0.1,0.4,0.1,0.4 c0.1,0.7-0.1,1.3-0.6,1.7c-0.2,0.2-0.5,0.4-0.7,0.5c-0.3,0.1-0.5,0.3-0.8,0.5l0.5,0.6c-0.1,0.5-0.5,0.9-0.9,1.3 c-0.4,0.3-1,0.5-1.5,0.4c-0.5,0.2-0.9,0.5-1.4,0.9c-0.5,0.3-0.9,0.8-1.4,1.2c-1,0.9-2.2,1.7-3.4,2.2c-1.2-0.4-1.6-0.1-2,0.4 c-0.4,0.4-0.9,1.1-2.3,1c-0.2-0.1-0.4-0.2-0.6-0.3c-0.2-0.1-0.5-0.2-0.7-0.3c-0.3-0.1-0.5-0.2-0.8-0.3c-0.2-0.1-0.5-0.3-0.7-0.4 c-0.2-0.1-0.5-0.3-0.7-0.4c-0.2-0.2-0.4-0.3-0.5-0.5c-0.3-0.3-0.5-0.7-0.4-1.1c0.8,0.8,1.7,0.8,2.5,0.7c0.8,0,1.5-0.2,2.3,0.4 c-0.2-0.4,0.7-0.4,1.4-0.4c0.7-0.1,1.3-0.3,0.6-0.9c-0.9,0.3-1.9,0.2-2.8-0.1c-0.9-0.4-1.8-0.9-2.3-1.7c-0.7-0.7-1-1.7-1.4-2.5 c-0.3-0.9-0.6-1.8-1-2.7c0.5,0,0.9-0.2,1.1-0.6c0.3-0.4,0.4-0.9,0.5-1.5c0.1-0.6,0.3-1.3,0.4-1.9c0.1-0.6,0.3-1.2,0.3-1.6l0.6,0.1 c0.8-1.1,1.2-1.8,1.7-3.9c0.6-1,1.2-2.1,2.1-2.7c0.9-0.7,2-1,3-0.8c1.5,0.3,2.5,0.1,4-0.3c0.6-0.2,1.1-0.3,1.7-0.5 c0,0.1,0.1,0.1,0.1,0.1c0,0,0,0,0,0c0,0.2,0,0.3,0,0.4c0,0.4,0,0.6,0,0.6l0.3-0.2c0.8,0.4,1.2,0.6,1.5,0.9 c0.1,0.3,0.3,0.6,0.6,0.9c0.2,0.6,0.5,1.5,1.4,2.9c0,0.1,0,0.2,0,0.3c0-0.1,0.1-0.1,0.1-0.2c0.1,0.2,0.3,0.5,0.5,0.7l0.6-0.6 c0.1,0.1,0.2,0.1,0.2,0.2c0,0.3,0.1,0.5,0.3,0.7c-0.2,0.6-0.4,1.2-0.7,0.9C71.6,66.6,71.6,67,71.8,67.5z M117.7,57.4 c0.2,1,0.2,1.9-0.8,2.4l0.5,0.9c0.6,1.5-0.8,2.5-1.4,3.4l0.6,0.4c0.1,0.9-0.8,2.3-1.7,2.2c-0.8,0.6-1.4,1.5-2.4,2.3 c-1,0.8-2.3,1.5-3.6,1.8c-1.2-0.6-1.6-0.3-2.1,0.1c-0.4,0.4-1,1-2.2,0.8c-0.2-0.1-0.4-0.2-0.6-0.3c-0.2-0.1-0.5-0.3-0.7-0.4 c-0.2-0.1-0.5-0.2-0.7-0.3c-0.2-0.1-0.5-0.3-0.7-0.4c-0.5-0.3-0.9-0.6-1.2-1c-0.3-0.3-0.5-0.7-0.5-1.1c0.4,0.4,0.9,0.6,1.3,0.7 c0.4,0.1,0.8,0.1,1.2,0.1c0.8,0,1.5-0.1,2.3,0.5c-0.2-0.5,0.7-0.3,1.4-0.3c0.8,0,1.4-0.1,0.7-0.9c-0.5,0.1-1,0.1-1.5,0 c-0.5,0-0.9-0.2-1.4-0.4c-0.9-0.4-1.8-1.1-2.4-1.9c-1.3-1.6-1.9-3.5-2.8-5.3c1,0.1,1.3-1,1.5-2.2c0.2-1.2,0.4-2.8,0.6-3.5l0.5,0.1 c0.8-1.1,1.3-1.8,1.9-3.9c1.3-2.1,3-4.2,5.4-4.4c1.6-0.2,2.8-1,4-1.9c0.4-0.3,0.9-0.7,1.4-1c0,0.2,0,0.4,0.1,0.6l1.5,0.8 c-1.2,2.7,1.6,3.8,0.8,6.6c0.9-1.8,0.8,0.8,1.9,0.5c-0.5,0.4-0.8,2.1-1.2,1.5C117,55.3,117.4,56.4,117.7,57.4z"/></g></g></svg>