<?xml version="1.0" encoding="utf-8"?>
<!-- Generator: Adobe Illustrator 18.1.1, SVG Export Plug-In . SVG Version: 6.00 Build 0)  -->
<!DOCTYPE svg PUBLIC "-//W3C//DTD SVG 1.1//EN" "http://www.w3.org/Graphics/SVG/1.1/DTD/svg11.dtd">
<svg version="1.1" id="Layer_1" xmlns="http://www.w3.org/2000/svg" xmlns:xlink="http://www.w3.org/1999/xlink" x="0px" y="0px"
	 viewBox="0 0 200 100" enable-background="new 0 0 200 100" xml:space="preserve">
<path fill="#EF3E3D" d="M90.5,77.7c-0.1-0.7-0.3-1.2-0.7-1.5c-0.3-0.4-0.8-0.6-1.3-0.8c-0.5-0.2-1-0.4-1.5-0.7
	c-0.5-0.3-0.9-0.7-1.2-1.3c-0.4-0.4-0.8-0.8-1.3-1.1c-0.2-0.2-0.4-0.3-0.6-0.5c-0.2-0.2-0.5-0.3-0.7-0.5c-1-0.7-2-1.3-3.1-2.1
	c-1,1.1-2.1,0.6-3.6,0.3c-0.8-0.2-1.6-0.2-2.3-0.1c-0.7,0.2-1.4,0.5-1.6,1.2c-0.3,0.2-0.5,0.5-0.6,0.7c-0.1,0.2-0.1,0.5-0.1,0.7
	c0,0.4,0.3,0.7,0.8,0.7c-1.1,0.8-1.5-0.4-2.2,0.8c0,0-0.1-0.3-0.1-0.5c-0.1-0.3-0.1-0.5-0.1-0.5c-0.5,0.1-1.2,0-1.5,0.5
	c0,0,0.1,0.3,0.1,0.6c0.1,0.3,0.1,0.6,0.1,0.6c-0.9,0.1-1.1,0.7-1.3,1.2c-0.2,0.6-0.3,1.2-1,1.5c1.2-0.2,0.2,0.7,0.8,1.1
	c-0.4-0.1-1.1,0.5-1.2,0c-1,0.8-0.3,2.7-1.8,2.3l0.1,0.6c0,1-0.9,1-1.5,1.4l0.4,0.4c0,0.5-0.6,1.2-1.2,1.2c-1,0.7-0.9,2.6-1.3,4
	c-1.3,0.5,0.3,1.2-0.3,2.3c-0.4,0.1-0.7,0.6-1,0.9c-0.3,0.4-0.8,0.8-1.2,0.6c0.5-0.4,0.5-0.9,0.4-1.4c0-0.5,0-0.8,0.5-1.1
	c-0.6-0.1,0.8-1.6-0.4-1.5c-0.2,1.1-1,1.9-1.8,2.5c-0.8,0.6-1.5,1.3-2.4,2.1c0-0.8-0.6-0.9-1.1-1c-0.6,0-1.3-0.1-1.7-0.2l0.1-0.4
	c-0.5-0.5-0.7-0.8-1.7-1.1c-0.4-0.4-0.9-0.7-1.3-1.2c-0.2-0.2-0.4-0.5-0.6-0.8c-0.2-0.3-0.3-0.6-0.6-1c-0.2-0.3-0.7-0.5-1.3-0.5
	c-0.1,0-0.2,0-0.2,0c-0.2-2.4-2.9-2.8-3.2-5.3c-0.8-2.2-2-3.5-2.2-5.8c-3,0.4-1.1-4.2-3.5-5c-0.7-0.9-2-1-2.1-0.1
	c-0.7-1.4,0.6-1.5-0.3-2.4l1.1,0c0.1-0.5,0.4-1.1,0-1.5l-1.2-0.2c0.2-0.6,0-1-0.3-1.4c0.6-0.6,0.9-1.4,2.4-0.6
	c-0.9,0.3-0.6,0.7-0.7,1.7l0.6,0.1l0,0.4c0.5,0.3,0.4,0.9,0.8,1.3l0.8-0.7c-0.7,0-0.8-0.7-1.1-1.2l0.5-0.2c-0.3-0.1-0.7-0.1-0.6-0.6
	c0.2-0.1,0.3-0.5,0.7-0.4l0.4,1.1c-0.1-1.1,1.8,0.2,1.7-0.9l0.9,0.8l0.4-0.5l0.2,0.4l0.7-0.3c0.2-0.4-0.1-0.9-0.3-1.2
	c0.2-0.2,0.3-0.6,0.6-0.4l0.2,0.8l0.4,0c-0.3,0-0.1-0.5-0.2-0.8c0.7-0.3,0.4-0.3,1.2-0.1c0.1-0.7,1.1-0.4,0.5-1.1
	c1-0.1,1.7-0.7,2.4-1.1l-0.1-0.7c1.2,0,1-1,1.7-1.7l0.1,0.3l0-0.9c0.9,0,0.4-1.3,1.5-1.1c1-0.2,0.8-1.2,0.4-2.4
	c0.1-0.7,1-0.3,1.4-0.4l0,0.5l0.5,0.3c0.4-0.5,0.6-0.1,1-0.9c1.1,0,0.1-1.7,0.1-2.6c0,0,0.4,0.2,0.7,0.3c0.3,0.2,0.7,0.3,0.7,0.3
	l-0.1-0.2c0-0.8,0-1,0.2-1c0.1,0,0.2,0,0.4-0.1c0.2,0,0.4-0.1,0.6-0.2l-0.3-0.7c0.3,0.3,0.4,0.2,0.5,0c0.1-0.2,0.2-0.6,0.5-0.7
	c0.1-0.1,0.4,0.2,0.7,0.3c0.3,0.1,0.5,0.2,0.8-0.5c0.4,0.3,0.7-0.2,1.3-0.8c0.3-0.4,0.5-0.5,0.7-0.6c0.2,0,0.4,0,0.5,0.2
	c0,0.5,0.3,0.5,0.5,0.6c0.2,0.1,0.3,0.2-0.1,0.8l-0.1-0.1c0,0-0.2,0.3-0.3,0.7c-0.2,0.3-0.3,0.7-0.3,0.7l0.6-0.8
	c-0.1,0.6,0.4,0.7-0.2,1.6c0,0,0.4-0.2,0.8-0.4c0.4-0.2,0.9-0.3,0.9-0.3c-0.2-0.1-0.3-0.3-0.3-0.6l-0.2,0.2
	c-0.1-0.2-0.5-0.4-0.4-0.9l0.4,0c-0.1-0.5,0.4-0.6,0.6-0.6c0.1,1,0.6,0.1,1.2,0.5c0,0.2,0.1,0.5-0.2,0.6c0.1,0,0.2,0.2,0.2,0.3
	c0,0.1,0.1,0.2,0.1,0.3c0.1,0.2,0.3,0.3,0.6-0.1c0,0,0,0.1-0.1,0.1c1.1-1.3,2.3-2.4,3.4-3.5c0,0,0,0,0,0l-0.1-0.1l-0.2-0.1
	c-0.1-0.1-0.3-0.1-0.4-0.2c-0.3-0.1-0.6-0.2-0.8-0.3c-0.3-1.6-1.2-2.1-2.1-2.2c-0.9-0.2-1.7-0.2-2.3-1.3l-0.1-0.1l-0.1-0.1
	c0,0-0.1,0-0.1,0c-0.1,0-0.2,0.1-0.4,0.1c-0.2,0.1-0.5,0.1-0.7,0.2c-0.4,0.1-0.9,0.3-1.3,0.4c-0.8,0.2-1.6,0.5-2.6,0.4
	c-0.2,1.6-0.9,1.6-1.9,1.7c-0.2,0-0.5,0.1-0.8,0.1c-0.1,0-0.2,0-0.3,0.1c-0.1,0-0.2,0-0.3,0.1c-0.3,0.1-0.6,0.4-0.6,0.9
	c-0.4,0.6-0.2,1.8,0.4,2c-0.7,0.5-1.1-0.7-1.5,0l-0.2-1c-0.3-0.1-0.8-0.4-1-0.1l0.2,1c-1.3-0.5-0.8,1.4-1.9,1.3
	c0.9,0.3,0.1,0.6,0.5,1.3c-0.3-0.3-0.9-0.1-0.9-0.5c-0.8,0.2-0.5,2-1.6,1l0,0.5c-0.1,0.8-0.8,0.4-1.3,0.4l0.3,0.5
	c-0.1,0.4-0.5,0.7-1,0.4c-0.8,0.2-0.9,1.8-1.1,2.8c-1,0,0.3,1.1-0.1,1.8c-0.6,0-0.7,1.1-1.4,0.7c0.4-0.4-0.4-1.7,0.3-1.8
	c-0.5-0.2,0.5-1.1-0.4-1.3c-0.2,1.8-2.2,1.9-2.3,3.6c-0.9-1.2-1.7,0.3-1.9,0.7l-0.3-0.3c-0.5,0.1-0.8,0.3-1,1.1
	c-0.6,0.6-1,1.4-2.1,1.2c-0.7-0.1-1,0.4-1.2,0.9c-0.1-0.2-0.1-0.4-0.1-0.7c-0.2,1.3-0.7-0.2-1.4,0.2c0.3-0.4,0.1-1.4,0.5-1.2
	C32,60,29.9,59.4,31,58.2l-0.6-0.3c-0.9-0.6-0.4-1.5-0.5-2.3l-0.5,0.1c-0.5-0.4-0.8-1.3-0.5-1.9c-0.2-1.4-2-2.5-3.1-3.6
	c0-1.5-1.2-0.4-2-1.4c0-0.9-1.2-1.9-0.7-2.7c0.5,1,1.9,0.6,2.1,1.8c0.3-0.6,1.3,1.7,1.5,0.4c-2-1.7-2-4.7-3.9-6.2
	c0.9-0.2,0.6-1.2,0.2-2.1l0.7,0.1l-0.2,0.4c0,0,0.4,0.1,0.7,0.2c0.4,0.1,0.8,0.1,0.8,0.1c0.9-0.2,1-0.7,1.1-1.1
	c0.6,0,1.2-0.3,1.5-0.1c0,0-0.2,0.2-0.3,0.4c-0.2,0.2-0.4,0.4-0.4,0.4l0.7,0.2c-0.5-0.2,0.5-0.5,0.7-0.8c1.6-0.1,1.1-0.2,2.2,0.2
	c0.8-0.7,2.3-0.4,2-1.3c1.8-0.3,3.5-1.3,4.7-2.4c0,0,0-0.2,0.1-0.4c0-0.2,0.1-0.4,0.1-0.4c0.9-0.4,1.3-0.9,1.6-1.4
	c0.3-0.6,0.6-1.2,1-1.9l0.1,0.3l0-1.2c0.6-0.3,0.7-0.8,0.8-1.3c0.1-0.5,0.2-0.9,0.9-1.3c1.1-1.1,0.5-2.2-0.4-3.1
	c-0.2-0.9,0.9-1.3,1.2-1.8l0.2,0.5l0.7-0.3c0.1-0.9,0.6-0.8,0.5-2c1.1-1.3-0.9-1.8-1.4-2.6c0,0,0.4-0.2,0.8-0.5
	c0.4-0.2,0.8-0.5,0.8-0.5l-0.3-0.1c-1.1-1.3-0.3-0.8,0.2-2.7l-0.8-0.1c1-0.4-0.1-1,0.2-1.8c0.1-0.4,1.7-1.3,0.9-2.3
	c1.1-1.3-1-2.5-0.6-3.7c0.7-0.6-0.5-1.4,0.8-1.3l0,0.1l1.4,0L45,6c0.4-0.4,0.2-1.1,1.3-1.3l-1.5-1.4c0.1,0.3,0,0.6-0.2,0.8l0.3,0
	c0,0.3,0.1,1-0.4,1.2L44.2,5c-0.3,0.4-0.7-0.1-0.8-0.2C44.1,4,43.1,4.1,43,3.4c0.1-0.1,0.3-0.4,0.6-0.2c-0.1-0.4,0.7-1.3-0.2-1.5
	c0.1,0,0.1,0,0.1-0.1c-1.7-0.1-3.4,0.1-5,0.3c0.2,0.4,0.4,0.8,0.8,1.2c-1.6,1.4,1.3,2.9,0.3,4.5c-0.3,1.6,0,2.8-1,4.1
	c1.3,0.6,1,1.3,0.5,2c-0.5,0.7-1.1,1.5-0.4,2.3c0.1,0.8,1,1.6,1.7,1.2c-0.3,1.1-1.3,0.4-1.2,1.4l-0.8-0.6c-0.3,0.2-0.9,0.3-0.9,0.7
	l0.8,0.8c-1.4,0.5,0.1,1.9-1,2.6c1-0.4,0.4,0.6,1.1,0.8c-0.4,0-0.9,0.5-1.1,0.2c-0.4,0.4-0.3,0.9-0.3,1.4c0,0.5-0.2,0.8-0.9,0.7
	l0.2,0.5c0.2,0.8-0.7,0.8-1.2,1.2l0.4,0.4c0,0.5-0.4,1-1,0.9c-0.4,0.3-0.6,0.8-0.7,1.5c-0.1,0.6-0.2,1.4-0.4,2
	c-1.2,0.2,0.2,1.2-0.5,2.1c-0.4,0-0.7,0.4-1.1,0.7c-0.4,0.3-0.7,0.4-1.1,0.2c0.8-0.5,0.2-1.8,1.1-2.1c-0.3-0.1,0-0.4,0.1-0.7
	c0.2-0.3,0.2-0.6-0.3-0.7c-0.1,0.5-0.4,0.8-0.7,1.2c-0.3,0.3-0.7,0.5-1.1,0.7c-0.4,0.2-0.8,0.4-1.2,0.6c-0.4,0.2-0.7,0.4-1.1,0.8
	c-0.1-0.7-0.6-0.9-1.1-0.9c-0.5,0.1-1.2,0.2-1.5,0.3l0-0.4c-0.3-0.1-0.5-0.3-0.7-0.3c-0.3,0-0.6,0-1.1,0.1c-1-0.1-2.2-0.4-2.6-1.5
	c-0.1-0.3-0.3-0.5-0.5-0.7c-0.2-1.8-2.3-3-3.5-3.2c-0.1,1.3,0.6,2.2,1,3.1c-0.3,0.1-0.6,0.2-0.9,0.3c0.3,0.8,0.8,1.1,1.4,1.4
	c0,0.4-0.2,0.9-0.5,1.4c-0.2-1.6-0.8-1.5-2-2.3l-0.2,0.8l-0.5-0.3c-0.4,0.4-1.1,0-1.5,0.3l0.7,1.7c0-1.1,0.8-0.7,1.5-0.7l0.2,1
	c0.1-0.3,0.1-0.9,0.7-0.4c0.1,0.4,0.5,0.8,0.4,1.3l-1.3-0.3c1.3,0.7-0.4,2.4,0.8,3.2l-1,0.8l0.5,1l-0.4,0l0.3,1.3
	c0.4,0.6,1,0.5,1.4,0.5c0.2,0.5,0.6,0.9,0.5,1.3l-0.9-0.3l0,0.6c0.1-0.5,0.6,0.3,0.9,0.3c0.3,1.3,0.3,0.9,0,1.9
	c0.8,0.6,0.4,2,1.3,1.7c0.1,1.7,0.7,3.3,1.2,4.7l0.8,0.4c0,1.9,1.2,2.4,2,4.1l-0.3,0l1.1,0.7c0,1.5,1.5,1.5,1.4,3.4
	c0.3,1.8,1.6,2.2,2.9,2.2c0.9,0.6,0.5,1.9,0.8,2.6l-0.6-0.3l-0.2,0.8c0.3,0.4,0.4,0.7,0.5,1c0.1,0.3,0.3,0.7,0.8,1.2
	c0.2,2,2,1,3,1.5l-0.4,2.2l0.2-0.1c1.7,0.5,0.9,0.6,1.9,3l0.7-0.4c-0.5,1.2,0.8,1.1,1.2,2.1c0.2,0.5-0.4,2.6,0.9,3.2
	c0,2.2,2.5,2.3,3,4c-0.2,1.2,1.3,1.4,0.1,2l-0.1-0.2l-1.1,0.8l0.9-0.3c-0.1,0.7,0.4,1.5-0.4,2.2c0,0,0.5,0.2,1,0.4
	c0.5,0.2,1,0.5,1,0.5C41,89.1,41,88.7,41,88.3l-0.2,0.1c-0.1-0.4-0.6-1.2-0.4-1.7l0.5,0.4c0-0.6,0.6-0.3,0.8-0.2
	c-0.1,1.3,0.7,0.7,1.2,1.6c-0.1,0.2-0.1,0.7-0.4,0.6c0.1,0.1,0.1,0.3,0.1,0.6c0,0.3,0,0.5,0,1c0,0,0,0.1,0,0.2c0,0.1,0,0.1-0.1,0.3
	c-0.1,0.1-0.1,0.2-0.2,0.3c-0.1,0.2-0.3,0.3-0.5,0.4c-0.2,0.1-0.4,0.1-0.6,0.1c-0.1,0-0.2,0-0.4-0.1c-0.1,0-0.2,0-0.2-0.1l-0.2-0.1
	c-0.3-0.1-0.5-0.1-0.7,0c0-0.1,0-0.1,0-0.2c-0.2,0.4-0.4,0.7-0.5,1.2c0,0.1,0,0.3,0,0.4l0,0.2c0,0,0,0.1,0,0.1l0.1,0.1
	c0.1,0.2,0.3,0.4,0.4,0.6c0.1,0.1,0.4,0.3,0.6,0.4c0.1,0.1,0.3,0.1,0.4,0.1l0.2,0.1c0.1,0,0.1,0,0.3,0c0.5,0,1,0,1.6-0.1
	c0.5-0.1,1-0.4,1.4-0.7c0.2-0.2,0.4-0.3,0.6-0.5c0.2-0.2,0.3-0.3,0.4-0.4c0.2-0.2,0.4-0.5,0.5-0.8l0.1-0.2c0,0.1,0,0.2,0.1,0.4
	c0.2,0.7,0.6,1.6,1.6,1.8c0,0-0.1,0.3-0.1,0.7c0,0.3-0.1,0.7-0.1,0.7s0.4,0.3,0.8,0.5c0.4,0.2,0.8,0.4,0.8,0.4L48.5,97
	c0,0,0.5,0.3,1,0.6c0.2,0.1,0.5,0.3,0.7,0.3c0.2,0.1,0.3,0.1,0.3,0.1c1.2,0.2,1.5-0.4,1.7-0.7c0.8,0.1,1.7,0,2,0.2
	c0,0-0.3,0.2-0.5,0.4c-0.3,0.2-0.5,0.3-0.5,0.3s0.2,0.1,0.5,0.1c0.2,0.1,0.5,0.1,0.5,0.1c-0.3-0.1-0.1-0.2,0.2-0.4
	c0.3-0.1,0.7-0.3,0.8-0.5c1-0.1,1.4-0.2,1.7-0.2c0.3,0,0.5,0.1,1.2,0.1c0.6-0.5,1.3-0.8,1.8-1.1c0.5-0.3,0.9-0.6,0.7-1.1
	c0.6-0.3,1.2-0.6,1.7-1l0.6-0.4c0.2-0.1,0.4-0.3,0.5-0.4c0.3-0.3,0.6-0.6,1-0.9c0.3-0.3,0.6-0.6,0.8-0.9c0,0,0-0.2,0-0.4
	c0-0.2,0-0.4,0-0.4c1.7-0.9,1.5-2.1,2.4-3.5l0.1,0.3c0,0,0-0.3,0-0.6c0-0.3,0-0.6,0-0.6c1.2-0.6,0.4-1.9,1.9-2.5
	c1.2-0.9,0.8-2,0.1-3.2c0-0.9,1.2-1.1,1.7-1.4l0.1,0.6c0,0,0.2,0,0.3,0c0.2,0,0.3,0,0.3,0c0.2-0.4,0.4-0.5,0.6-0.7
	c0.2-0.2,0.3-0.4,0.5-0.9c1.3-0.5-0.1-1.8,0-2.8c0,0,0.1,0,0.3,0c0.2,0,0.4,0.1,0.6,0.1c0.4,0.1,0.8,0.3,0.8,0.3l-0.1-0.2
	c0-0.8,0.1-1,0.3-1c0.3-0.1,0.6,0,1.4,0l-0.1-0.8c0.3,0.5,0.5,0.3,0.8,0.2c0.1-0.1,0.3-0.2,0.5-0.2c0.2-0.1,0.4-0.1,0.6,0
	c0.2,0.1,0.5,0.5,0.8,0.9c0.1,0.2,0.3,0.4,0.5,0.5c0.2,0.1,0.4,0.2,0.7,0.1c0.1,0.2,0.2,0.3,0.3,0.5c0.1,0.1,0.3,0.2,0.4,0.3
	c0.3,0.1,0.7,0.2,1.1,0.2c0.7,0.1,1.6,0.2,2,0.8c0.1,1.1,1.6,0.8,0.6,1.7l-0.1-0.1l-0.9,1l0.8-0.5c0,0.6,0.7,1.1,0.1,2
	c0,0,0.5,0,1.1,0c0.5,0,1.1,0.1,1.1,0.1c-0.3-0.2-0.4-0.5-0.5-0.9l-0.2,0.2c-0.2-0.3-0.8-0.8-0.7-1.3l0.5,0.2
	c-0.1-0.6,0.5-0.4,0.7-0.4c0.2,1.1,0.8,0.4,1.4,1c0,0.2,0.1,0.6-0.2,0.6c0.4,0.3,0.4,1.8,1.3,1.3c0,0.1,0,0.1-0.1,0.1
	c1.4-1,2.5-2.3,3.5-3.7C91.7,78.2,91.2,77.9,90.5,77.7z M22.1,38.7c0,0,0,0.1,0,0.1C22.1,38.8,22.1,38.7,22.1,38.7
	C22.1,38.7,22.1,38.7,22.1,38.7z M47.6,89.2C47.6,89.2,47.6,89.2,47.6,89.2C47.6,89.2,47.6,89.2,47.6,89.2
	C47.6,89.2,47.6,89.2,47.6,89.2z M48.3,89.7c0,0-0.1-0.1-0.3-0.2C48.2,89.6,48.3,89.7,48.3,89.7z M47.9,89.4
	C47.9,89.4,47.9,89.4,47.9,89.4C47.9,89.4,47.9,89.4,47.9,89.4z M47.7,89.3C47.7,89.3,47.7,89.3,47.7,89.3
	C47.7,89.3,47.7,89.3,47.7,89.3C47.8,89.3,47.7,89.3,47.7,89.3z"/>
<path fill="#EF3E3D" d="M120.3,79.9c0.2-1.7,0.1-3.6-0.2-5.4c-0.3-1.8-0.9-3.6-1.5-5.1c-0.3-1.3-0.2-2.1,0-2.8
	c0.2-0.7,0.4-1.4,0.5-2.1l0.4,1.5c0,0,0.1-0.2,0.3-0.4c0.1-0.2,0.3-0.4,0.3-0.4c-0.1-1.3,0-1.9,0-2.6c0-0.7,0-1.6-0.2-3.2
	c0.6-4-1.4-3.9-2.1-5.2l1.3-2.5l-0.3,0.1c-1.4-1.5-0.6-1.1-0.7-4.6l-0.8,0.2c0.9-1.2-0.4-1.7-0.4-3.2c0-0.4,0.3-1.1,0.5-2
	c0.2-0.8,0.2-1.7-0.3-2.4c0.3-1.4-0.2-2.3-0.7-3.2c-0.5-0.9-1.2-1.7-1.3-2.8c0.5-1.4-1.1-2.2,0.2-2.6l0.1,0.2l1.2-0.7l-0.9,0.1
	c0.1-0.4,0-0.9,0.1-1.4c0-0.5,0.1-1,0.5-1.4c0,0-0.5-0.4-1-0.8c-0.3-0.2-0.5-0.4-0.7-0.5c-0.2-0.1-0.3-0.2-0.3-0.2
	c0.3,0.4,0.3,0.9,0.3,1.5l0.3-0.1c0.1,0.5,0.6,1.6,0.3,2.3c0,0-0.1-0.2-0.2-0.3c-0.1-0.2-0.2-0.3-0.2-0.3c-0.1,0.8-0.6,0.2-0.8,0.1
	c0.1-1.6-0.7-1-1.1-2.1c0.1-0.3,0.1-0.8,0.4-0.7c-0.3-0.6-0.1-2.6-1-2.4c0-0.1,0.1-0.1,0.1-0.2c-1.5,0.7-3,1.9-4.3,3.1
	c0.4,0.6,0.8,1.1,1.3,1.6c-0.2,0.8-0.1,1.4,0.1,2c0.2,0.6,0.5,1.1,0.9,1.6c0.7,1,1.4,2.2,1.3,3.8c0.3,2.8,1.1,4.8,0.5,7.6
	c1.5,0.4,1.4,1.8,1.1,3.3c-0.2,1.5-0.6,3.2,0.3,4.2c0.3,1.4,1.4,2.2,1.9,1.1c0.1,1.9-1.2,1.5-0.7,2.8c0,0-1-0.6-1-0.5
	c-0.2,0.3-0.8,0.5-0.6,0.9c0,0,0.2,0.2,0.5,0.4c0.2,0.2,0.5,0.5,0.5,0.5c-0.6,0.3-0.4,0.8-0.1,1.6c0.2,0.7,0.5,1.8,0.2,2.1
	c0.4,0,0.5,0.3,0.6,0.7c0.1,0.4,0.3,1.1,0.7,1.6c-0.4-0.2-0.6,0.5-0.9-0.3c-0.2,0.4,0.2,1.7,0.3,2.8c0.2,1.1,0.2,1.9-0.4,0.6
	l0.4,1.6c0.3,1.2,0.2,1.6,0.1,1.6c-0.1,0.1-0.4-0.2-0.5-0.1l0.5,1.7c0.1,0.4,0.1,0.7,0.1,1c0,0.4,0,0.7,0,0.8l0,0c0,0,0-0.1,0-0.1
	l-0.1-0.2c-0.1-0.1-0.1-0.3-0.2-0.4c-0.1-0.3-0.3-0.6-0.4-1c-0.6-1-0.9-1-1.2-0.8c-0.2,0.1-0.3,0.2-0.5,0.3c-0.2,0.1-0.4,0.1-0.6,0
	c-1.2-2.7-0.4,1.1-1.5,0.2c-0.4-0.8-0.9-1.4-1.3-2c-0.5-0.6-0.9-1.3-1.1-2.2c0.5,0.7,0.8,0.5,1.1,0.3c0.3-0.2,0.5-0.3,1,0.6
	c-0.2-0.7,0.2-0.4,0.4-0.3c0.3,0.1,0.4,0,0.1-1.3c-0.6,0.2-1.5-1.1-2.4-2.4c-0.9-1.3-1.6-2.4-2.8-3.1c0.5-0.6,0.2-1.4-0.3-2.1
	c-0.2-0.4-0.6-0.8-0.9-1.2c-0.3-0.4-0.7-0.7-0.9-0.9l0.3-0.3c-0.4-1-0.8-1.7-2.2-2.7c-1.3-1.5-2.7-2.9-3.2-4.7
	c-0.4-1.3-1.5-2.2-2.6-2.8c-1.1-0.5-2.3-0.7-3-0.7c0.3,0.8,0.8,1.3,1.3,1.8c0.5,0.5,1,1,1.5,1.4c0.5,0.4,0.9,0.9,1.2,1.5
	c0.3,0.6,0.4,1.2,0.3,2c-0.5-0.9-0.9-1.3-1.3-1.5c-0.5-0.2-1-0.3-1.8-0.6c0,0,0,0.2,0.1,0.5c0,0.2,0.1,0.5,0.1,0.5s-0.2-0.1-0.3-0.1
	c-0.2-0.1-0.3-0.1-0.3-0.1C93,50.2,92,50,91.7,50.4c0,0,0.4,0.4,0.8,0.8c0.4,0.4,0.8,0.8,0.8,0.8c-0.5-1.2,0.5-1,1.2-1.1
	c0,0,0.2,0.3,0.3,0.5c0.2,0.3,0.3,0.5,0.3,0.5c0-0.4-0.3-1.1,0.5-0.6c0.2,0.4,0.9,0.8,0.9,1.4l-1.5,0c1.7,0.6,0.6,2.8,2.2,3.4
	l-0.7,1.1l0.9,1.1L97,58.4l0.8,1.5c0.7,0.6,1.2,0.4,1.6,0.3c0.1,0.1,0.2,0.3,0.3,0.4c0.2,0.3,0.4,0.5,0.5,0.7
	c0.3,0.4,0.6,0.8,0.6,1.2c0,0-0.4-0.2-0.7-0.4c-0.4-0.2-0.7-0.4-0.7-0.4l0.7,1.4c-0.4-1,1,0.8,1.4,0.8c0.9,1.5,1.2,2,1.4,2.4
	c0.2,0.4,0.3,0.8,0.7,2c0.7,0.7,1.4,1.8,1.9,2.7c0.5,0.8,0.9,1.4,1.1,0.7c0.5,1,1.1,2,1.6,2.9c0.5,0.9,1.1,1.7,1.7,2.6
	c1.1,1.7,2.2,3.1,3.2,4.5c0,0,0.7-0.1,0.7-0.1c1.3,2.3,2.2,3.4,3,4.2c0.4,0.4,0.8,0.8,1.2,1.2c0.4,0.4,0.9,1,1.5,1.7l0,0.5
	c0,0,0.1,0,0.1,0c0.1,0,0.1-0.2,0.2-0.3c0.1-0.2,0.2-0.6,0.2-0.6l0,0.1c0.3-0.8,0.1-2.6-0.1-4.3C120,82.4,119.8,80.9,120.3,79.9z"/>
<g>
	<path fill="#EF3E3D" d="M148.1,60c-0.3,0-0.7,0-1.1,0.2c0.2-0.7-0.3-0.8-1-0.7c-0.6,0-1.4,0.1-1.4-0.5c-0.5-0.7-1.4-0.9-1.3-2
		c-1.3,0.6-1.5,0.2-1.5-0.4c0-0.6,0.1-1.2-0.9-1.1c-0.5-0.2-1.6,0-1.9,0.6c-0.4-0.5,0.8-0.9,0.1-1.2l1-0.3c0.1-0.3,0.5-0.7,0.2-0.8
		l-1,0.2c0.7-1.1-1.2-0.5-0.9-1.5c-0.5,0.7-0.6,0-1.3,0.4c0.3-0.3,0.3-0.7,0.6-0.7c0-0.7-1.8-0.5-0.6-1.4l-0.5,0
		c-0.7-0.1-0.1-0.7-0.1-1.1l-0.5,0.2c-0.4-0.1-0.5-0.5-0.1-0.9c0.1-0.7-1.4-0.9-2.2-1.3c0.3-0.8-1.1,0-1.6-0.4
		c0.2-0.5-0.8-0.8-0.1-1.3c0.3,0.4,1.7,0,1.6,0.6c0.4-0.4,0.8,0.6,1.4-0.1c-1.5-0.5-0.9-2.1-2.4-2.5c1.4-0.4,0.4-1.4,0.1-1.7
		l0.4-0.2c0.1-0.4,0.1-0.7-0.6-1c-0.3-0.6-0.8-1.1-0.2-1.9c0.7-1.2-1.2-1.5-2.2-1.5c-0.9,1.4,1.5,1.5-0.5,3.1
		c0.2-0.8-0.4-0.7-1.3-0.9l-0.4,0.4l-0.4-0.1c-0.4,0.3-1,0.2-1.5,0.4l0.3,0.8c0.3-0.6,0.9-0.5,1.5-0.6l0,0.5
		c0.2-0.2,0.3-0.5,0.7-0.3c0,0.2,0.3,0.3,0,0.6l-1.2,0.1c1,0.2-0.9,1.3,0.1,1.5l-1.1,0.6l0.2,0.4l-0.4,0.1l0,0.6
		c0.3,0.2,0.8,0.1,1.2,0c0.1,0.2,0.4,0.4,0.2,0.6l-0.8,0l-0.1,0.3c0.2-0.3,0.5,0.1,0.8,0c0.1,0.6,0.1,0.4-0.4,1
		c0.6,0.2-0.1,1,0.8,0.7c-0.3,0.9,0,1.6,0.2,2.3l0.7,0.1c-0.3,1,0.6,1.1,1.1,1.8l-0.3,0l0.9,0.2c-0.3,0.8,1.1,0.5,0.6,1.5
		c0,0.9,1,0.9,2.3,0.6c0.7,0.1,0.1,0.9,0.2,1.3l-0.5,0l-0.3,0.5c0.4,0.4,0.1,0.6,0.8,1c-0.1,1.1,1.7,0,2.5,0.1l-0.7,1.3l0.2-0.1
		c1.5-0.2,0.7,0.1,1.4,1.1l0.7-0.4c-0.6,0.8,0.6,0.3,0.8,0.8c0.2,0.2-0.6,1.6,0.5,1.4c-0.2,1.2,2.1,0.3,2.4,1
		c-0.2,0.7,1.1,0.2,0.1,1l-0.1-0.1l-1,0.9l0.8-0.5c-0.1,0.4,0.4,0.6-0.3,1.4c0,0,0.4-0.1,0.9-0.3c0.4-0.1,0.9-0.3,0.9-0.3
		c-0.2,0-0.3-0.2-0.3-0.4l-0.2,0.2c-0.1-0.1-0.5-0.3-0.4-0.7l0.4,0c0-0.3,0.5-0.4,0.7-0.5c0,0.7,0.6,0,1,0.2c0,0.1,0,0.3-0.3,0.5
		c0.3,0.1,0.1,1,0.9,0.4c0,0,0,0.1-0.1,0.1C146,62.5,147.1,61.2,148.1,60z"/>
</g>
<g>
	<path fill="#EF3E3D" d="M121.6,22c0.2-0.1,0.5-0.2,0.9-0.4c-1.2,0.5,1.7-0.5,1.2-0.2c0.1,0.1,0.7,0,0.2,0.4
		c1.4-0.3,1.3-0.2,1.1-0.1c-0.2,0.2-0.6,0.3,0.4,0.2c0.4,0,1.5-0.1,1.9-0.3c0.1,0.1-1.1,0.3-0.6,0.4l-1,0.1
		c-0.2,0.1-0.7,0.2-0.5,0.2l1-0.1c-1.1,0.3,0.9,0.1,0.2,0.4c0.7-0.2,0.6,0,1.4-0.1c-0.4,0.1-0.6,0.2-0.9,0.2c-0.3,0.2,1.4,0.1,0,0.4
		l0.4,0c0.6,0-0.1,0.2-0.3,0.3l0.5,0c0.3,0,0.3,0.1-0.2,0.2c-0.3,0.2,0.9,0.3,1.6,0.4c-0.6,0.2,1,0,1.4,0.2
		c-0.3,0.1,0.5,0.2-0.3,0.3c-0.1-0.1-1.6-0.1-1.3-0.2c-0.5,0.1-0.6-0.2-1.3,0c1.3,0.2,0.1,0.6,1.4,0.8c-1.5,0-0.9,0.3-0.7,0.4
		l-0.4,0c-0.2,0.1-0.3,0.2,0.2,0.3c0.1,0.2,0.4,0.3-0.5,0.5c-1.1,0.2,0.6,0.5,1.6,0.6c1.3-0.3-0.9-0.5,1.6-0.7
		c-0.4,0.2,0.1,0.2,0.9,0.3l0.5-0.1l0.3,0.1c0.5,0,1,0,1.5,0l0-0.2c-0.5,0.1-1.1,0-1.6,0l0.2-0.1c-0.3,0-0.5,0.1-0.8,0
		c0.1,0-0.2-0.1,0.2-0.2l1.1,0.1c-0.9-0.1,1.3-0.3,0.4-0.4l1.2-0.1l-0.1-0.1l0.4,0l0.2-0.2c-0.2-0.1-0.7-0.1-1.2-0.1
		c0-0.1-0.2-0.1,0-0.2l0.7,0.1l0.2-0.1c-0.2,0.1-0.4-0.1-0.7-0.1c0.2-0.2,0.1-0.1,0.7-0.3c-0.5-0.1,0.4-0.3-0.6-0.2
		c0.5-0.2,0.5-0.5,0.6-0.7l-0.6-0.1c0.7-0.3-0.2-0.4-0.4-0.6l0.3,0l-0.8-0.1c0.5-0.2-0.8-0.2,0-0.5c0.4-0.3-0.6-0.3-1.9-0.2
		c-0.6,0,0.2-0.3,0.3-0.4l0.4,0l0.5-0.2c-0.2-0.1,0.2-0.2-0.4-0.3c0.5-0.4-1.5,0-2.2,0l1.1-0.5l-0.3,0.1c-1.4,0.1-0.6,0-0.8-0.3
		l-0.8,0.2c0.8-0.3-0.4-0.1-0.4-0.2c-0.1,0,1.2-0.6,0.2-0.5c0.7-0.5-1.6,0.1-1.5-0.1c0.5-0.3-0.8,0.1,0.4-0.4l0,0l1.2-0.5l-0.9,0.3
		c0.3-0.2,0-0.2,0.9-0.7c0,0-0.4,0.1-0.8,0.3c-0.4,0.1-0.8,0.3-0.8,0.3c0.2,0,0.1,0.1,0,0.1l0.2-0.1c0,0,0.3,0.1-0.1,0.2l-0.3,0.1
		c-0.2,0.1-0.6,0.3-0.8,0.3c0.4-0.3-0.5,0.1-0.7,0.1c0.1-0.1,0.2-0.1,0.4-0.2c-0.2,0,0.4-0.4-0.5,0c0,0,0.1,0,0.1-0.1
		C124.5,20.6,123,21.4,121.6,22z"/>
</g>
<g>
	<path fill="#EF3E3D" d="M186.6,74.8c-0.6-0.3-1.3-0.5-1.9-0.6c-0.3-0.7-0.7-1.3-1.1-1.6c-0.5-0.4-1-0.6-1.6-0.9
		c-0.6-0.3-1.2-0.5-1.7-0.9c-0.5-0.4-1-0.9-1.4-1.6c-1.7-2.3-3.4-3.6-4.3-6.3c-1.5,0.4-2.1-0.8-2.6-2.3c-0.6-1.4-1-3-2.3-3.5
		c-1-1.1-2.3-1.2-2.2,0c-1-1.7,0.3-1.8-0.9-3l1.1,0c0-0.6,0.1-1.3-0.3-1.9l-1.2-0.3c0.1-2.2-2.1-2.4-2.4-4.6
		c-0.1,1.6-0.8-0.3-1.5,0.2c0.2-0.5-0.1-1.7,0.3-1.4c-0.5-1.7-2.7-2.6-1.8-4.1l-0.7-0.4c-1-0.8-0.7-1.9-0.9-2.9l-0.6,0.1
		c-0.5-0.5-1-1.7-0.7-2.4c-0.4-1.8-2.4-3.4-3.7-4.9c-0.2-1.9-1.3-0.6-2.3-2c-0.1-1.1-1.5-2.6-1-3.4c0.6,1.4,2.1,1,2.3,2.6
		c0.3-0.7,1.5,2.2,1.7,0.7c-2.3-2.3-2.5-6.2-4.6-8.3c1.5-0.3-0.4-3.5-1-4.6l0.4-0.2c-0.2-1-0.3-1.8-1.4-3.2
		c-0.8-1.8-1.7-3.6-1.5-5.4c0.2-2.7-2.4-4.8-3.7-5.4c-0.2,3.2,2.9,5.1,1.3,8c-0.3-2.1-0.9-2-2.2-3.3l-0.2,1l-0.5-0.5
		c-0.4,0.5-1.1-0.2-1.6,0.1l0.9,2.3c0-1.4,0.8-0.8,1.5-0.6l0.3,1.3c0.1-0.4,0.1-1.2,0.7-0.4c0.1,0.5,0.6,1.1,0.5,1.7l-1.4-0.6
		c1.4,1.2-0.3,3,1.1,4.2l-1,0.9l0.6,1.4l-0.4,0l0.5,1.7c0.5,0.8,1.1,0.8,1.5,0.8c0.3,0.7,0.7,1.3,0.6,1.7l-1-0.6l0.1,0.8
		c0-0.6,0.6,0.5,1,0.6c0.5,1.7,0.4,1.2,0.2,2.5c0.9,0.9,0.5,2.6,1.5,2.3c0.2,2.2,1.1,4.3,1.8,6.2l0.9,0.6c0.3,2.5,1.5,3.2,2.6,5.4
		l-0.3-0.1l1.2,1c0.2,2,1.8,2.1,1.9,4.4c0.6,2.3,1.9,2.9,3.4,3.1c1,0.8,0.9,2.4,1.2,3.4l-0.7-0.4l-0.1,1c0.8,1.2,0.5,1.5,1.8,3
		c0.7,2.6,2.3,1.3,3.5,2l0.1,2.8l0.2-0.2c2,0.6,1.1,0.7,2.9,3.7l0.6-0.5c-0.1,1.5,1.2,1.3,1.9,2.6c0.2,0.3,0.3,1.1,0.6,1.9
		c0.3,0.8,0.7,1.6,1.5,1.9c0.4,1.3,1.3,1.9,2.3,2.4c0.9,0.5,1.9,0.8,2.6,1.8c0.4,1.4,2.1,1.3,1.2,2.3l-0.2-0.2l-0.7,1.2l0.8-0.6
		c0.3,0.9,1.3,1.5,1,2.8c0,0,0.7,0.1,1.3,0.1c0.6,0,1.3,0.1,1.3,0.1c-0.4-0.2-0.7-0.7-1-1.1l-0.2,0.2c-0.4-0.3-1.3-1.1-1.4-1.8
		l0.7,0.3c-0.4-0.7,0.4-0.5,0.7-0.5c0.7,1.5,1.1,0.5,2.1,1.2c0.1,0.3,0.4,0.7,0,0.8c0.6,0.4,1.5,2.1,2.2,1.5c0,0.1,0,0.1,0,0.2
		C185.6,78.3,186.2,76.5,186.6,74.8z"/>
</g>
</svg>
