<?xml version="1.0" encoding="utf-8"?>
<!-- Generator: Adobe Illustrator 18.1.1, SVG Export Plug-In . SVG Version: 6.00 Build 0)  -->
<!DOCTYPE svg PUBLIC "-//W3C//DTD SVG 1.1//EN" "http://www.w3.org/Graphics/SVG/1.1/DTD/svg11.dtd">
<svg version="1.1" id="Layer_1" xmlns="http://www.w3.org/2000/svg" xmlns:xlink="http://www.w3.org/1999/xlink" x="0px" y="0px"
	 viewBox="0 0 400 600" enable-background="new 0 0 400 600" xml:space="preserve">
<g>
	<g>
		<g>
			<g>
				<path fill="#FFFFFF" d="M175.4,574.1c-58.9-5.2-60.2-10.1-60.9-13c-0.2-0.9-0.4-2.6,1.3-4.2c0.7-4,3.8-18.9,11.6-33.7
					c1.9-3.6,4.4-8.9,4.1-12.2c-11.8-37.1-1.9-51.3,25.2-77l0.2-0.2c-0.5-1.6-1-3.3-1.5-5.4c-0.1-0.3-0.1-0.5-0.2-0.8
					c-8.3,2.3-16,4.1-23.6,5.3c-13,2.2-26.8,2.5-42.1,1.2c-9.2-0.8-19.1-2.3-30.4-4.5c-8.7-1.7-18.1-4.4-22.4-11.5
					c-3.6-6.1-1.7-14.1-0.2-20.4l0.2-0.7l-0.7-0.1c-0.9-0.1-2-0.7-2.4-1.9c-1.1-3.3-0.1-6.2,1.1-9.1c0.2-0.4,0.4-0.9,0.6-1.4
					c0.5-1,1.7-3.7,1.5-4.3c0,0-0.1,0-0.3-0.1c-0.2,0-0.7,0-1.4,0.1c-0.3,0.1-0.6,0.1-0.9,0.1c-0.9-0.1-1.8-0.6-2.2-1.5
					c-0.5-0.9-0.5-2.1,0-3.1c2.7-4.9,5.3-9.8,7.6-14.8c-0.1,0-0.1,0-0.2,0c-2,0.3-3.9,0.6-5.7,1.3c-0.5,0.2-1,0.3-1.5,0.3h0
					c-1-0.1-1.9-0.7-2.3-1.6c-0.5-0.9-0.5-2.1,0.1-3c2.1-3.6,5-6.4,7.9-9c-1,0.4-2,0.8-3,1.4c-0.5,0.3-1.1,0.4-1.6,0.4
					c-1.2-0.1-2.1-0.9-2.5-2.1c-0.4-1.2,0-2.4,0.9-3.2c0.7-0.6,1.5-1.3,2.4-2c6.3-5.5,14.9-13.1,23.3-12.3c1.8,0.2,3.5,0.7,5.1,1.7
					c16-23.8,42.3-40.4,72.5-45.8c0-0.6,0-1.2-0.1-1.8c-1-12.7-4-20.2-9-22.4c-0.4-0.2-0.9-0.3-1.3-0.3c-2-0.2-4.3,1.1-6.8,3.7
					c2.4,3.7,3.5,8.6,3,13.7c-0.2,1.8-0.5,3.1-1,4c-0.8,1.6-2.3,2.5-4,2.3c-1.6-0.1-2.8-1.1-4.3-2.2c-1.4-1-2.9-2.2-4.3-2.3
					c-1.4-0.1-3.1,0.8-4.7,1.5c-1.6,0.8-3,1.6-4.6,1.4c-2.9-0.3-4.2-2.6-3.8-7.1c0.9-9.9,7.4-17.4,14.5-17.1c0.5-1.6,0.9-3,1.3-4.4
					L90,270.4l-5.5-9.7l28.1-12.2c0.7-1.7,1.2-3.1,1.8-4.5c1.5-3.4,6.1-13.7,13.9-13.1c0.4,0,0.8,0.1,1.2,0.2
					c3.3,0.7,5.7,2.9,7.8,5.5l25.9,7.1c5.3-8.3,10.8-12.2,16.5-11.7c1.9,0.2,3.8,0.9,5.7,2.1c3.9,2.5,6.2,6.9,8.3,11.2
					c2.9,6.1,4.7,12.6,6.5,20.6c2.1,9.4,3.1,19.2,3,29c3.7,1.6,7.3,3.4,10.6,5.2c14.2,8,26,19.1,34.8,33.1c1.6,0.2,3.1,0.5,4.7,0.8
					c0.5,0.1,1,0.3,1.5,0.4c1.3,0.3,2.6,0.6,3.9,1.2l0.9,0.3c0.6,0.2,1.2,0.4,1.8,0.7l2.5,1.1c0.9,0.4,1.6,0.8,2.4,1.2
					c0,0,0.8,0.4,1,0.6c0.6,0.3,1.1,0.6,1.7,1l0.5,0.3c1.4,0.9,2.8,1.9,4,3c1.1,0.9,2.2,1.8,3.2,2.8c0.4,0.3,0.7,0.7,1.2,1.1
					c0.4,0.4,0.7,0.8,1.1,1.2c0.9,0.9,1.8,1.9,2.6,2.9c1.3,1.5,2.4,3,3.4,4.4c4.4,6.1,8,12.5,11.3,18.6l7.7,14l-12.3-10.3
					c0,0-3-2.5-3.6-3l-2.9-1.9l0.3,0.5c0.5,1,1,1.9,1.6,3l0.7,1.6c0.5,1,0.9,2,1.4,3.1l1.8,4.8l1.4,5l0.9,5.2l0.6,12l-5.3-4.6
					c-2.3-2-4.3-4.2-6.2-6.3c-1.1-1.2-2.1-2.4-3.3-3.5c-0.3-0.3-0.5-0.5-0.8-0.8l0.3,1.7l0.2,1.9c0,1.3,0,2.7-0.1,3.9
					c-0.2,1.3-0.4,2.6-0.8,3.9c-0.4,1.3-0.9,2.5-1.5,3.7c-0.2,0.4-0.5,0.8-0.7,1.2l-0.4,0.6c-0.3,0.4-0.6,0.8-0.8,1.1l-3.8,5
					l-1.7-5.6l-0.6-2c0,0-0.7-1.6-0.8-1.9l-0.4-0.8c-0.2-0.4-0.4-0.8-0.6-1.1l-0.5-0.7c-0.3-0.4-0.5-0.7-0.7-1l-0.6-0.7
					c-0.3-0.3-0.6-0.7-0.8-0.9c0,0-1.3-1.2-1.5-1.4c-0.1,0.3-0.2,0.7-0.3,1l-0.3,0.9c-0.2,0.6-0.4,1.2-0.6,1.9l-0.3,0.9
					c-0.2,0.6-0.5,1.2-0.7,1.8c-0.5,1.3-1.2,2.6-1.9,4.1c32.3,11.6,42.1,46.1,47.8,81.9c1,0.7,2.7,2,5.8,4.4
					c9.2,6.9,33.5,25.2,37.3,26.5c29.3,10.1,37.3,17.3,39.1,34.9l0,0.1c0.5,1.8,0.8,4.6,0.7,8.5c-0.2,12.5-6.7,14.1-9.5,14.3
					C343.3,583,242,580,175.4,574.1L175.4,574.1z M179.3,261.1l-11.1-5.7c-0.4,0.3-0.7,0.7-1.1,1c1.9,3.6,2.7,7.9,2.3,12.5
					c-0.2,1.8-0.5,3.1-1,4c-0.8,1.6-2.3,2.5-4,2.3c-1.6-0.1-2.8-1.1-4.3-2.2c-1.4-1-2.9-2.2-4.3-2.3c-1.4-0.1-3.1,0.8-4.7,1.5
					c-0.4,0.2-0.7,0.3-1,0.5c0.2,3.9,0.1,8-0.2,12.7c5.6-0.3,11.3-0.2,16.9,0.3c6.9,0.6,13.7,1.8,20.3,3.6c0.1-7-0.4-13.6-1.7-19.9
					l-0.1-0.3c-0.6-3.2-1.8-9.2-4.2-13.4L179.3,261.1z M140.4,241c2.6,4.1,4.8,8.9,6.6,14.2c2.6-3.6,6.1-5.6,9.8-5.7L140.4,241z"/>
			</g>
		</g>
		<g>
			<g>
				<path fill="#FFFFFF" d="M179.5,233.5c1.6,0.1,3.3,0.7,5,1.8c3.7,2.3,5.9,6.8,7.8,10.6c3.1,6.4,4.8,13.4,6.3,20.2
					c2.1,9.7,3.1,19.7,3,29.7c3.9,1.6,7.7,3.5,11.4,5.5c14.6,8.2,26.2,19.6,34.7,33.1c1.8,0.3,3.5,0.5,5.2,0.9
					c1.8,0.5,3.6,0.8,5.3,1.5c0.9,0.3,1.7,0.6,2.6,0.9l2.5,1.1c0.9,0.4,1.7,0.8,2.5,1.3c0.8,0.5,1.6,0.9,2.4,1.4
					c1.5,1,3.1,2,4.5,3.2c1.5,1.1,2.8,2.4,4.1,3.7c1.2,1.3,2.6,2.6,3.7,4.1c1.2,1.4,2.3,2.8,3.4,4.3c4.3,5.9,7.8,12.1,11.2,18.4
					l3.8,7l-6.2-5.2l0,0c-1.2-1-2.5-2-3.7-3.1l-4.1-2.7l-3.8-2.1c0.8,1.2,1.6,2.5,2.3,3.7c0.8,1.5,1.6,2.9,2.3,4.4
					c0.7,1.5,1.4,3,2.1,4.6l1.7,4.7l1.3,4.9l0.8,5l0.3,5.1l0.2,3.4l-2.6-2.3c-3.6-3.1-6.3-6.7-9.3-9.8c-1.5-1.6-3.1-3-4.8-4.2
					c-0.1-0.1-0.2-0.1-0.2-0.1l0.5,1l0.7,1.8l0.5,1.8l0.3,1.8l0.2,1.8c0,1.2,0,2.5-0.1,3.7c-0.2,1.2-0.4,2.4-0.7,3.6
					c-0.4,1.2-0.8,2.4-1.4,3.5c-0.3,0.6-0.6,1.1-1,1.6c-0.4,0.5-0.8,1-1.1,1.5l-1.7,2.2l-0.9-2.9l-0.7-2.1c-0.3-0.7-0.6-1.4-0.9-2.1
					c-0.4-0.6-0.7-1.3-1.1-2c-0.4-0.6-0.9-1.2-1.3-1.8c-0.5-0.6-1-1.2-1.5-1.7c-0.6-0.5-1.1-1.1-1.7-1.6l-1.8-1.4h0
					c0,0.1,0,0.3-0.1,0.4c-0.2,0.9-0.4,1.9-0.7,2.8c-0.3,0.9-0.6,1.8-0.9,2.7c-0.3,0.9-0.7,1.8-1,2.6c-0.8,1.9-1.7,3.7-2.7,5.6
					c30.6,10.1,42,40.3,48.5,81.8c0.8,0.6,2.6,1.9,6.2,4.7c10.1,7.6,33.7,25.4,37.8,26.8c28.6,9.9,36.4,16.8,38.1,33.6l-0.1,0
					c0.7,1.9,0.8,5.4,0.8,8.4c-0.2,10.8-5.1,12.7-8,12.8c-36.2,1.8-137.3-1.1-203.9-7c0,0,0,0,0,0c-57.9-5.1-59.1-9.8-59.6-11.9
					c-0.2-0.8-0.1-2,1.2-3.1c0.6-3.2,3.5-18.6,11.5-33.8c2.2-4.2,4.7-9.5,4.3-13.2c-11.6-36.4-1.9-50.4,24.9-75.7
					c0.3-0.3,0.5-0.6,0.7-0.8c-0.6-2-1.2-4-1.7-6.1c-0.2-0.8-0.3-1.5-0.4-2.3c-8.2,2.3-16.5,4.3-25,5.7c-13.9,2.3-27.8,2.4-41.7,1.2
					c-10.1-0.9-20.2-2.5-30.3-4.5c-7.4-1.4-17.2-3.8-21.4-10.8c-3.6-6-1.3-14.2,0.2-20.5c0.1-0.3,0.2-0.7,0.3-1
					c-0.8-0.1-1.5-0.2-2.3-0.4c-0.5-0.1-1-0.3-1.2-0.8c-0.9-2.8,0-5.4,1.1-8c1-2.5,4-7.5,0.5-7.8c-0.5,0-1.1,0-1.8,0.2
					c-0.2,0-0.3,0-0.5,0c-1.1-0.1-1.5-1.4-1-2.4c3.1-5.7,6.2-11.4,8.7-17.4c-3,0.6-6.1,0.7-8.9,1.9c-0.3,0.1-0.5,0.2-0.8,0.1
					c-1-0.1-1.7-1.3-1.1-2.3c3-5.1,7.6-8.5,11.8-12.3c-3.1,0.2-5.9,1-8.9,2.7c-0.3,0.2-0.5,0.2-0.8,0.2c-1.1-0.1-1.9-1.8-0.8-2.7
					c5.9-5,15.7-14.8,24.6-14c2,0.2,3.9,0.9,5.7,2.2c16.8-25.8,44.1-41.7,73.6-46.6c0-1-0.1-2.1-0.1-3.1c-0.6-7.4-2.2-20.3-9.9-23.7
					c-0.6-0.3-1.2-0.4-1.8-0.5c-3.1-0.3-6.2,2.1-8.9,5.1c2.5,3.3,3.9,8.3,3.5,13.7c-0.1,1.6-0.4,2.7-0.8,3.5
					c-0.6,1.1-1.5,1.6-2.6,1.5c-1.2-0.1-2.2-0.9-3.5-1.9c-1.5-1.2-3.2-2.5-5.1-2.6c-1.8-0.2-3.8,0.8-5.5,1.7
					c-1.5,0.8-2.7,1.4-3.8,1.3c-2.9-0.3-2.6-4.1-2.4-5.5c0.8-9.3,6.8-16.3,13.3-15.7c0.3,0,0.5,0.1,0.8,0.1c0.9-3.3,1.9-6.6,3.1-9.9
					l-22.3,15.9l-3.9-6.8l27.1-11.8c0.6-1.7,1.3-3.3,2-5c2.1-4.8,6.2-12.7,12.4-12.2c0.3,0,0.7,0.1,1,0.2c3.9,0.9,6.6,4.3,8.7,7.4
					c3.9,5.6,6.7,12.1,8.5,18.7c2.5-5,6.7-8.2,11.2-7.8c1,0.1,2,0.4,2.9,0.8c0.3-0.5,0.5-1.1,0.8-1.6l-21.8-11.3l24.3,6.7
					C168.1,238.7,173.4,233,179.5,233.5 M188.7,291.3c0.3-7.4-0.2-14.8-1.6-22.1c-0.8-4-2.4-12.2-6.1-16.5l-2.5,6.3l-10.5-5.4
					c-0.9,0.8-1.8,1.7-2.7,2.6c2,3.3,3.1,7.8,2.7,12.6c-0.1,1.6-0.4,2.7-0.8,3.5c-0.6,1.1-1.5,1.6-2.6,1.5c-1.2-0.1-2.2-0.9-3.5-1.9
					c-1.5-1.2-3.2-2.5-5.1-2.6c-1.8-0.2-3.8,0.8-5.5,1.7c-0.7,0.4-1.3,0.7-1.9,0.9c0.3,5,0.2,10.1-0.3,15.3
					c6.1-0.4,12.3-0.3,18.4,0.2C174.2,287.9,181.5,289.3,188.7,291.3 M249.4,409.7c-0.2-0.3-0.4-0.7-0.6-1c-0.6-1-1.3-2-2.1-3.1
					c-0.3-0.5-0.7-1-1-1.4l-0.7,1l-1.8,2.9l-0.3,0.5C245.2,408.9,247.3,409.3,249.4,409.7 M179.8,230.6c-6-0.5-11.8,3.3-17.2,11.5
					l-22.2-6.1l-2.1-0.6c-2.2-2.6-4.8-4.8-8.3-5.6c-0.5-0.1-0.9-0.2-1.4-0.2c-2.4-0.2-4.4,0.4-6.2,1.5l-9-2.5l7.2,3.7
					c-4,3.4-6.4,8.8-7.4,11.1c-0.5,1.2-1.1,2.5-1.6,3.9l-26,11.3l-3,1.3l1.6,2.9l3.9,6.8l1.6,2.9l2.7-1.9l2.8-2
					c-1.3,2.6-2.2,5.6-2.4,8.9c-0.6,7.1,2.9,8.5,5.1,8.7c2,0.2,3.7-0.7,5.4-1.6c1.3-0.7,2.9-1.5,3.8-1.4c1,0.1,2.4,1.2,3.6,2
					c1.6,1.2,3.1,2.3,5.1,2.5c2.3,0.2,4.4-1,5.5-3.1c0.6-1.1,0.9-2.5,1.1-4.6c0.4-5-0.5-9.8-2.6-13.6c1.9-1.7,3.5-2.6,4.8-2.5
					c0.3,0,0.6,0.1,0.8,0.2c4.5,2,7.2,9.1,8.1,21.2c0,0.1,0,0.3,0,0.4C103.8,291.5,78,307.8,62,331c-1.4-0.7-2.9-1.1-4.5-1.2
					c-9-0.8-17.9,7-24.4,12.7c-0.8,0.7-1.6,1.4-2.3,2c-1.4,1.2-1.9,3-1.3,4.7c0.5,1.6,1.7,2.7,3.2,3.1c-1.4,1.5-2.7,3.2-3.8,5.1
					c-0.8,1.4-0.9,3-0.1,4.4c0.7,1.4,2,2.3,3.5,2.4c0.7,0.1,1.5-0.1,2.2-0.4c0.8-0.4,1.8-0.6,2.7-0.8c-2,4.1-4.1,8.1-6.3,12.2
					c-0.8,1.4-0.8,3.1,0,4.5c0.7,1.3,2,2.1,3.4,2.3c0.3,0,0.6,0,0.8,0c-0.3,0.7-0.7,1.6-0.9,2.1c-0.2,0.5-0.5,1-0.7,1.5
					c-1.3,3-2.4,6.3-1.1,10.1c0.4,1.2,1.4,2.2,2.7,2.6c-1.5,6.5-3.2,14.3,0.6,20.7c5.1,8.7,17.4,11.1,23.4,12.2
					c11.4,2.2,21.4,3.7,30.6,4.5c15.4,1.4,29.3,1,42.5-1.2c7.1-1.2,14.5-2.8,22.2-4.9c0.4,1.4,0.7,2.7,1,3.9
					c-26.6,25.3-37,40.6-25.2,77.9c0.2,3.3-2.9,9.3-4,11.2c-7.7,14.5-10.8,29.1-11.7,33.7c-1.3,1.5-1.8,3.4-1.3,5.3
					c0.7,2.7,2.7,4.8,10.4,6.9c9.4,2.6,26.8,5,51.8,7.2c66.6,5.9,168,8.8,204.3,7.1c3.2-0.2,10.6-2,10.9-15.7
					c0.1-3.9-0.2-6.8-0.7-8.8l0,0c-1.8-18.1-10.5-25.9-40.1-36.1c-2.4-0.8-14.8-9.7-37-26.4c-2.6-1.9-4.2-3.2-5.3-4
					c-4.9-30.3-12.8-59.7-34.8-75.3l1.2-1.5l1.7-2.2l0.3-0.4c0.3-0.4,0.6-0.8,0.9-1.2l0.1-0.1l0.1-0.1l0.3-0.5
					c0.3-0.4,0.5-0.9,0.8-1.3c0.6-1.3,1.2-2.6,1.6-4c0.4-1.3,0.7-2.7,0.8-4.1c0.1-1.1,0.2-2.3,0.2-3.5c0.3,0.4,0.6,0.7,1,1.1
					c1.9,2.2,3.9,4.4,6.3,6.5l2.6,2.3l5.3,4.6l-0.4-7l-0.2-3.4l-0.3-5.1l0-0.2l0-0.2l-0.8-5l0-0.1l0-0.1l-1.3-4.9l0-0.1l0-0.1
					l-1.7-4.7l0-0.1l0-0.1c-0.4-0.9-0.8-1.8-1.2-2.6c0.5,0.4,0.9,0.8,1.4,1.2l0,0l6.2,5.2l12.2,10.3l-7.7-14l-3.8-7
					c-3.3-6.1-7-12.6-11.4-18.7c-1-1.4-2.2-2.9-3.5-4.4c-0.9-1.1-1.8-2.1-2.7-3c-0.4-0.4-0.7-0.8-1.1-1.1l-0.1-0.1l-0.1-0.1
					c-0.4-0.3-0.7-0.7-1-1c-1-0.9-2-1.9-3.2-2.8c-1.4-1.2-2.8-2.1-4.2-3.1l-0.5-0.3c-0.6-0.4-1.3-0.8-1.8-1.1
					c-0.3-0.1-0.5-0.3-0.8-0.5l-0.2-0.1c-0.8-0.4-1.6-0.9-2.5-1.3l-2.5-1.1l-0.1,0l-0.1,0c-0.6-0.2-1.2-0.4-1.8-0.7
					c-0.3-0.1-0.6-0.2-0.8-0.3c-1.4-0.6-2.8-0.9-4.1-1.2c-0.5-0.1-1-0.2-1.5-0.4l-0.1,0l-0.1,0c-1.4-0.3-2.7-0.5-4-0.7
					c-9-13.9-20.7-25-35-33c-3.1-1.7-6.4-3.4-9.9-4.9c0-9.6-1-19.1-3.1-28.3c-1.8-8-3.6-14.7-6.6-20.9c-2.2-4.5-4.6-9.1-8.8-11.8
					C184.1,231.5,182,230.8,179.8,230.6L179.8,230.6L179.8,230.6z M152.4,248.9c-1.8,0.7-3.4,1.9-4.9,3.3c-1-2.7-2.1-5.2-3.3-7.6
					L152.4,248.9L152.4,248.9z M180.1,263.2l1.2-3.1l0.2-0.5c1.3,3.5,2.1,7.5,2.6,9.9l0.1,0.3c1.1,5.7,1.7,11.5,1.7,17.7
					c-6.1-1.5-12.4-2.6-18.7-3.2c-5.1-0.5-10.3-0.6-15.4-0.4c0.2-3.7,0.3-7.1,0.1-10.3c0.1,0,0.1-0.1,0.2-0.1
					c1.3-0.7,2.9-1.5,3.8-1.4c1,0.1,2.4,1.2,3.6,2c1.6,1.2,3.1,2.3,5.1,2.5c2.3,0.2,4.4-1,5.5-3.1c0.6-1.1,0.9-2.5,1.1-4.6
					c0.4-4.1-0.2-8-1.6-11.4l7.8,4L180.1,263.2L180.1,263.2z M264.1,404.1c0.2,0.3,0.5,0.6,0.7,1c0.2,0.2,0.3,0.4,0.5,0.6
					c0.2,0.3,0.4,0.7,0.6,1c0.1,0.2,0.3,0.5,0.4,0.7c0.2,0.3,0.3,0.7,0.5,1c0.1,0.2,0.2,0.5,0.3,0.7l0.6,2l0.8,2.7
					c-2.6-1.5-5.3-2.8-8.2-3.9c0.5-1,0.9-1.8,1.2-2.7c0.3-0.6,0.5-1.2,0.7-1.8l0.4-0.9c0.2-0.5,0.3-1,0.5-1.4
					c0.2,0.2,0.3,0.4,0.5,0.6C263.8,403.7,263.9,403.9,264.1,404.1L264.1,404.1z"/>
			</g>
		</g>
	</g>
	<g>
		<g>
			<g>
				<path fill="#FAF9D7" d="M213.2,284c2.3,1.6,5.6,3.9,10.1,6.5c4.5,2.5,10.1,5.4,16.8,7.8c3.3,1.3,7,2.3,10.9,3.2
					c3.9,0.9,8,1.5,12.3,1.8c4.3,0.2,8.7,0,12.9-0.8c4.2-1,8.3-2.7,11.1-5.3c0.4-0.3,0.7-0.7,1-1c0.4-0.3,0.6-0.7,0.8-0.9l0.3-0.4
					l0.5-0.8l0.6-0.8c0.2-0.3-0.2,0.2-0.1,0.2l0-0.1l0.1-0.2l0.1-0.3c0.8-1.6,1.3-3.4,1.5-5.2c0.4-3.7-0.4-8-2-12.3
					c-1.5-4.3-3.8-8.7-6.7-12.9c-1.4-2.1-2.9-4.2-4.5-6.2c-1.6-2-3.3-4.1-5-6c-7-7.9-15.1-15.3-23.8-21.9c-8.7-6.6-18-12.4-27.5-17
					c-2.4-1.2-4.8-2.2-7.2-3.2c-2.4-1-4.8-1.8-7.2-2.6c-4.8-1.6-9.6-2.7-14.1-3c-2.3-0.1-4.5-0.1-6.6,0.1c-2.1,0.2-4,0.7-5.8,1.3
					c-0.9,0.3-1.7,0.7-2.5,1.2c-0.4,0.2-0.7,0.4-1,0.6c-0.2,0.1-0.3,0.1-0.5,0.3l-0.7,0.7c-1.3,1.1-2.4,2.6-3.3,4.3
					c-1.8,3.4-2.3,7.8-2.1,12.1c0.3,4.3,1.3,8.6,2.7,12.7c1.4,4,3,7.9,5,11.3c1.9,3.5,3.9,6.7,6,9.6c4.1,5.8,8.4,10.5,12,14.1
					c3.7,3.7,6.8,6.2,8.9,8c2.2,1.7,3.3,2.7,3.3,2.7S211,282.4,213.2,284z M205.6,280c-2.2-1.8-5.4-4.4-9.2-7.9
					c-3.8-3.6-8.2-8.1-12.8-13.8c-4.5-5.7-9.2-12.5-12.9-20.8c-1.8-4.1-3.3-8.6-4.2-13.5c-0.8-4.8-0.9-10.1,0.9-15.2
					c1.7-5.1,5.4-9.6,10.3-12.4c4.9-2.8,10.6-4,16.2-4.2c11.4-0.3,22.9,2.7,33.8,7.2c10.9,4.5,21.3,10.7,30.9,17.9
					c9.5,7.3,18.2,15.6,25.5,25c7.2,9.3,13.2,19.6,16,30.7c1.3,5.5,1.7,11.3,0.3,16.8c-0.7,2.7-1.8,5.3-3.4,7.5
					c-0.2,0.3-0.4,0.5-0.6,0.9l-0.6,0.7c-0.4,0.5-0.8,1-1.4,1.5c-1,1-2,1.8-3.1,2.6c-4.4,3-9.5,4.3-14.4,4.9
					c-4.9,0.5-9.6,0.2-14.1-0.4c-8.9-1.3-16.8-4-23.5-6.9c-6.7-2.9-12.3-5.9-16.7-8.6c-4.5-2.7-7.8-5.1-10.1-6.7
					c-2.2-1.7-3.4-2.6-3.4-2.6S207.8,281.7,205.6,280z"/>
			</g>
		</g>
	</g>
	<g>
		<g>
			<g>
				<path fill="#F6EA82" d="M63.4,336.6c-8.3-7.7-22.4,6-28.9,11.4c4.2-2.6,8.3-3.2,13.2-2.8c-3.3,3.7-10.7,8-14.2,14.7
					c3.1-1.7,9.1-1.2,12.2-2.9c-2.6,6.6-10.1,20.6-10.1,20.6s5.8-1.3,5.8,2.2c0.1,3-5.8,10.7-4,14.3c0,0,42.2,6.7,45.4,4
					C86,395.4,63.4,336.6,63.4,336.6z"/>
			</g>
		</g>
		<g>
			<g>
				<g>
					<path fill="#1F1219" d="M62.5,337.8c-8.5-7-20.9,6.1-27.1,11.3c-0.5-0.8-1.1-1.7-1.6-2.5c4.4-2.5,8.9-3.3,14-2.9
						c1.4,0.1,1.7,1.7,0.8,2.6c-4.7,4.9-10.4,8.4-14,14.4c-0.6-0.7-1.2-1.5-1.8-2.2c3.9-1.7,8.3-1.2,12.2-2.9c1.2-0.5,2.5,0.6,2,1.9
						c-2.9,7.2-6.6,14.1-10.3,20.9c-0.5-0.8-1-1.5-1.5-2.3c5.7-1.2,8.8,1.9,6.6,7.4c-0.7,1.8-1.6,3.5-2.4,5.3
						c-0.4,1-1.7,3.8-1.5,3.8c2,0.3,4,0.6,6,0.9c7.2,1.1,14.4,2,21.6,2.8c3.3,0.4,6.6,0.6,9.9,0.8c1.1,0.1,5.8,0.5,6.2,0
						c0.9-1-1.9-9.2-2.5-11c-2.1-7.1-4.5-14-6.9-21c-3.3-9.3-6.7-18.6-10.3-27.8c-0.7-1.8,2-3.1,2.7-1.3c3.1,8,6,16,8.9,24.1
						c3.9,11,8.4,22.3,10.6,33.8c0.4,2,1,5-1.5,5.8c-4.1,1.3-9.4,0.3-13.6-0.1c-10.7-0.9-21.3-2.5-31.9-4.2c-0.5-0.1-1-0.3-1.2-0.8
						c-0.9-2.8,0-5.4,1.1-8c1.2-2.8,4.9-8.9-1.3-7.6c-1.4,0.3-2.1-1.3-1.5-2.3c3.6-6.6,7.2-13.3,10-20.2c0.7,0.6,1.4,1.2,2,1.9
						c-3.9,1.7-8.3,1.2-12.2,2.9c-1.4,0.6-2.6-1-1.8-2.2c3.7-6.2,9.6-9.8,14.5-14.9c0.3,0.9,0.5,1.7,0.8,2.6
						c-4.6-0.3-8.4,0.4-12.4,2.7c-1.5,0.9-2.8-1.4-1.6-2.5c7.3-6.2,20.6-19.8,30.7-11.4C65.7,336.6,64,339.1,62.5,337.8z"/>
				</g>
			</g>
		</g>
	</g>
	<g>
		<g>
			<path fill="#303030" d="M119.5,558.6L119.5,558.6c0,0,2.6-17.2,11.5-33.9c2.9-5.6,4.9-10.5,4.4-14.3
				c-11.6-36.1-1.6-49.6,24.5-74.4c15.6-16.8,10-20.8,52.7-25.2c63.4-8.7,82.3,23.5,91.7,83.5c1.3,0.7,39.2,30,44.9,32
				c28.5,9.8,35.5,16.6,37.1,32.4c0.1,0,3.6,19.1-5.9,19.6C321.4,581.2,100.2,571.7,119.5,558.6z"/>
		</g>
		<g>
			<path fill="#1F1219" d="M116.9,560.9c-0.2-0.8-0.1-2,1.2-3.1c0.6-3.2,3.5-18.6,11.5-33.8c2.2-4.2,4.7-9.5,4.3-13.2
				c-11.6-36.4-1.9-50.4,24.9-75.7c2.8-3.1,5-5.7,6.8-8c8.5-10.5,11.3-14,46.7-17.7c10.4-1.4,19.9-1.8,28.2-1
				c43.4,3.9,57.4,36.8,65,85.1c0.8,0.6,2.6,1.9,6.2,4.7c10.1,7.6,33.7,25.4,37.8,26.8c28.6,9.9,36.4,16.8,38.1,33.6l-0.1,0
				c0.7,1.9,0.8,5.4,0.8,8.4c-0.2,10.8-5.1,12.7-8,12.8c-36.2,1.8-137.3-1.1-203.9-7c0,0,0,0,0,0
				C118.6,567.6,117.4,562.9,116.9,560.9z M384.9,560.1l-0.1-1.2c-1.5-14.5-6.9-21-36.1-31.1c-4.2-1.4-22.1-14.8-38.6-27.2
				c-3.3-2.5-6.2-4.7-6.6-4.9l-0.6-0.4l-0.1-0.7c-7.4-47.3-20.8-79.6-62.4-83.3c-8.1-0.7-17.4-0.4-27.6,1
				c-34.2,3.5-36.6,6.6-44.7,16.6c-1.9,2.3-4.1,5-7,8.2c-26.4,25.1-35.3,37.8-24.1,72.8l0.1,0.2c0.5,3.6-0.9,8.1-4.6,15.1
				c-7.8,14.7-10.7,29.6-11.2,32.8l0.6,0.7l-1.3,0.9c-0.3,0.2-0.4,0.3-0.5,0.4c0.8,1,7.1,5.1,56.9,9.5c66.4,5.9,167.4,8.8,203.5,7
				c1.4-0.1,2.4-0.6,3.2-1.7c2.7-3.7,2-12,1.5-15L384.9,560.1z"/>
		</g>
	</g>
	<g>
		<g>
			<path fill="#6755A4" d="M253.6,369.1c-6.4,1.7-13.2,3.7-17.4,9.8c-23,34.2,11.4,62.5-46.9,71.5c-21.5,3.3-26.5-7.9-30.1-22.6
				c-1.9-7.6-0.8-15.9-6.7-24.1c-2.7-3.7-7.3-6.6-12.3-9.2c-5-2.7-10.5-5.1-15.4-8c6.4,2.6,13.1,4.9,19.8,6.8
				c37.5,10.4,68.3-14,101.5-22.3C251.9,369.6,253.6,369.1,253.6,369.1z"/>
		</g>
		<g>
			<path fill="#1F1219" d="M157.8,428.1c-0.6-2.4-0.9-4.8-1.2-7.2c-0.7-5.4-1.4-11-5.3-16.4c-2.7-3.7-7.5-6.5-11.8-8.8
				c-1.8-1-3.7-1.9-5.6-2.8c-3.3-1.6-6.7-3.3-9.9-5.2l1.3-2.7c6.7,2.7,13.3,4.9,19.6,6.7c4,1.1,8.1,1.8,12.1,2.2
				c20.4,1.8,39.4-6,57.7-13.5c10-4.1,20.4-8.4,30.9-11c3.4-0.8,5.4-1.3,6.5-1.5l1-0.3l0.8,2.9c0,0-0.3,0.1-1.1,0.3
				c-5.5,1.5-11.8,3.5-15.5,8.9c-8.5,12.6-8.9,24.5-9.3,34.9c-0.7,17.6-1.2,31.5-38.5,37.2c-3.8,0.6-7.2,0.7-10.2,0.5
				C164.6,451,160.6,439.7,157.8,428.1z M216,383.2c-18.7,7.7-38,15.6-59.1,13.7c-4.2-0.4-8.5-1.1-12.6-2.3
				c-0.4-0.1-0.7-0.2-1.1-0.3c4,2.2,8,5,10.6,8.5c4.4,6,5.1,12,5.9,17.8c0.3,2.4,0.6,4.6,1.1,6.8c3.2,13.1,7.3,20.9,19,22
				c2.8,0.2,5.9,0.1,9.5-0.4c35-5.4,35.4-17.6,36-34.4c0.4-10.8,0.9-23.1,9.9-36.5c0.8-1.2,1.7-2.2,2.7-3.1
				C230.4,377.3,223.1,380.3,216,383.2z"/>
		</g>
	</g>
	<g>
		<g>
			<g>
				<path fill="#6755A4" d="M200,311c2.7-18.7,0.5-38.8-5-56.2c-12.6-37.9-28.7-13.5-37.8,10.6c12.4-16.8,24.3-26.7,31-1.2
					c6.1,21.4,1.9,46-3.9,66.3L200,311z"/>
			</g>
		</g>
		<g>
			<g>
				<g>
					<path fill="#1F1219" d="M198.5,310.8c1.7-12.4,1.3-24.7-0.6-37c-1.7-11.3-4.4-24.6-11.8-33.7c-11.6-14.3-24.7,18.5-27.5,25.8
						c-0.9-0.5-1.7-0.9-2.6-1.4c4.5-6,10.4-14.9,18.2-17c7.5-1.9,11.5,4.9,13.8,10.9c8.8,23,4.1,49.6-2.3,72.5
						c-0.9-0.5-1.7-0.9-2.6-1.4c5.2-6.5,10.4-13,15.7-19.5c1.2-1.5,3.6,0.2,2.4,1.7c-5.2,6.5-10.4,13-15.7,19.5
						c-1.1,1.3-3.1,0.2-2.6-1.4c5.5-19.6,9-40.4,5-60.7c-1.1-5.7-3.9-20.4-12.4-19c-7.2,1.2-13.2,10.7-17.1,16
						c-1,1.3-3.2,0.2-2.6-1.4c3.6-9.4,14.7-38.9,29.6-29.4c3.7,2.3,5.9,6.8,7.8,10.6c3.1,6.4,4.8,13.4,6.3,20.2
						c3.2,14.6,3.9,29.9,1.9,44.8C201.2,313,198.3,312.7,198.5,310.8z"/>
				</g>
			</g>
		</g>
	</g>
	<g>
		<g>
			<g>
				<path fill="#6755A4" d="M145.3,311.1c1.8-20.7,6.6-41.2-2.5-60.9c-18.4-39.5-28.2,3.5-34.1,24.8c9.3-15.1,21-24,28-1.5
					c5.3,18.4,0.7,47.8-4.8,65.3L145.3,311.1z"/>
			</g>
		</g>
		<g>
			<g>
				<g>
					<path fill="#1F1219" d="M143.8,310.9c1.3-14.1,3.9-28.1,2.5-42.3c-0.7-7.4-3-14.3-6.3-20.9c-2.1-4.2-5-9.9-9.7-11.9
						c-10.9-4.7-18.5,33.5-20.2,39.6c-0.9-0.5-1.7-0.9-2.6-1.4c3.9-6.1,9.2-14.4,17-15.7c8.3-1.3,12.3,10,14,16
						c2.9,10.6,2.4,22.2,1.3,33c-1.1,10.8-3.3,21.6-6.5,31.9c-0.9-0.3-1.9-0.7-2.8-1c4.5-9.2,8.9-18.4,13.4-27.7
						c0.8-1.7,3.6-0.7,2.8,1c-4.5,9.2-8.9,18.4-13.4,27.7c-0.8,1.7-3.4,0.8-2.8-1c5.2-16.8,8.1-35.2,6.8-52.9
						c-0.6-7.4-2.2-20.3-9.9-23.7c-7.1-3.1-14.6,9.6-17.5,14.2c-1,1.5-3,0.1-2.6-1.4c2.7-10,5.2-20.2,9.4-29.7
						c2.2-5,6.6-13.6,13.5-12c3.9,0.9,6.6,4.3,8.7,7.4c4.1,5.9,7,12.8,8.8,19.7c4.5,16.7,0.6,34.6-0.9,51.4
						C146.6,313.1,143.6,312.8,143.8,310.9z"/>
				</g>
			</g>
		</g>
	</g>
	<g>
		<g>
			<path fill="none" stroke="#000000" stroke-width="1.5" stroke-miterlimit="10" d="M218.8,246.4"/>
		</g>
	</g>
	<g>
		<g>
			<path fill="#505DA9" d="M78.2,343.8c-5.8-8.7-21.9-0.7-29,2.2c4.4-1.1,8.3-0.6,12.7,1c-3.9,2.3-11.6,4.1-16.4,8.8
				c3.3-0.6,8.6,1.3,11.8,0.7c-3.9,5-14,14.9-14,14.9s5.5,0.4,4.8,3.4c-0.6,2.6-7.7,7.6-6.9,11.2c0,0,37,16.7,40.6,15.2
				C85.5,399.6,78.2,343.8,78.2,343.8z"/>
		</g>
	</g>
	<g>
		<g>
			<g>
				<path fill="#505DA9" d="M263.1,385.2c-6.5-117-174.4-131.9-209.8-24.6c-3.8,9.6-17.9,44.2-13.8,54.5c5,11.4,27.8,12.4,37.5,14.3
					c48.9,9.3,87.1-6.2,133.5-24"/>
			</g>
		</g>
		<g>
			<g>
				<g>
					<path fill="#1F1219" d="M261.6,385.5c-2-33.9-19-63.9-48.6-81.1c-26.9-15.7-60.6-18.6-90.2-9.8c-32.5,9.7-57.4,34.6-68.1,66.6
						c-2.6,7.7-6,15.2-8.5,22.9c-2.9,8.6-6.4,18.3-5.9,27.6c0.6,10.1,15,12.7,22.7,14.1c11,2,22.2,3.9,33.3,4.7
						c39.7,2.8,77.2-12.4,113.6-26.3c1.8-0.7,3.1,2,1.3,2.7c-25.7,9.9-51.5,20.2-78.8,24.7c-24.1,4-48.2,1.3-72-3.3
						c-7.4-1.4-17.2-3.8-21.4-10.8c-3.6-6-1.3-14.2,0.2-20.5c2.2-9.5,5.6-18.8,9.1-27.9c2.8-7.3,5.3-14.7,8.6-21.8
						c27.2-58.2,102.6-76.2,157-45.8c30.6,17.2,48.5,48.8,50.6,83.5C264.7,386.9,261.7,387.4,261.6,385.5L261.6,385.5z"/>
				</g>
			</g>
		</g>
	</g>
	<g>
		<g>
			<path fill="#D1D2D1" d="M213.6,452.5l-30.3,56.9l-19.2-49.3C164.1,460.2,203.9,439.8,213.6,452.5z"/>
		</g>
		<g>
			<path fill="#1F1219" d="M162.2,459.5l1.2-0.6c1.1-0.5,26.1-13.3,41.5-11.9c4.5,0.4,7.8,2,9.8,4.7l0.6,0.8L183,513L162.2,459.5z
				 M204.7,449.9c-12.7-1.1-33.5,8.5-38.7,11l17.5,45l28.3-53.2C210.2,451.2,207.8,450.2,204.7,449.9z"/>
		</g>
	</g>
	<g>
		<g>
			<polygon fill="#FFFFFF" points="164.1,460.2 213.6,452.5 223.9,433.5 165,442 			"/>
		</g>
		<g>
			<path fill="#1F1219" d="M163.6,440.7l62.9-9.1l-12,22.3l-52.1,8L163.6,440.7z M221.1,435.4l-54.7,7.9l-0.8,15.1l47-7.3
				L221.1,435.4z"/>
		</g>
	</g>
	<g>
		<g>
			<path d="M180.9,457c1.7-0.5,41.4-11.2,43.9-23.3c2.7-13,9.6-28.3,15.3-29.6l-0.4-1.9c-7.4,1.6-14.5,19.5-16.8,31.1
				c-1.9,9-31.3,18.8-42.5,21.7L180.9,457z"/>
		</g>
	</g>
	<g>
		<g>
			<path fill="#241416" d="M146.7,266.9c-0.8,8.5,4.6,0.4,10.4,0.9c5.7,0.5,9.6,9.4,10.4,0.9c0.8-8.5-3.3-15.7-9-16.2
				C152.7,252,147.4,258.5,146.7,266.9z"/>
		</g>
		<g>
			<path fill="#1F1219" d="M165.5,273.9c-1.2-0.1-2.2-0.9-3.5-1.9c-1.5-1.2-3.2-2.5-5.1-2.6c-1.8-0.2-3.8,0.8-5.5,1.7
				c-1.5,0.8-2.7,1.4-3.8,1.3c-2.9-0.3-2.6-4.1-2.4-5.5c0.8-9.3,6.8-16.3,13.3-15.7c6.5,0.6,11.2,8.6,10.4,17.8
				c-0.1,1.6-0.4,2.7-0.8,3.5C167.6,273.4,166.6,274,165.5,273.9L165.5,273.9z M148.2,267c-0.1,1.2-0.1,1.9,0,2.2
				c0.5-0.1,1.3-0.6,1.9-0.9c2-1,4.4-2.3,7.1-2c2.7,0.2,4.9,1.9,6.6,3.2c0.6,0.4,1.3,1,1.7,1.2c0.1-0.3,0.3-0.9,0.4-2.2
				c0.7-7.6-2.8-14.2-7.7-14.6C153.4,253.6,148.8,259.4,148.2,267z"/>
		</g>
	</g>
	<g>
		<g>
			<path fill="#241416" d="M97.9,278c-0.8,8.5,4.6,0.4,10.4,0.9c5.7,0.5,9.6,9.4,10.4,0.9c0.8-8.5-3.3-15.7-9-16.2
				C103.9,263.1,98.7,269.5,97.9,278z"/>
		</g>
		<g>
			<path fill="#1F1219" d="M116.8,285c-1.2-0.1-2.2-0.9-3.5-1.9c-1.5-1.2-3.2-2.5-5.1-2.6c-1.8-0.2-3.8,0.8-5.5,1.7
				c-1.5,0.8-2.7,1.4-3.8,1.3c-2.9-0.3-2.6-4.1-2.4-5.5c0.8-9.3,6.8-16.3,13.3-15.7c6.5,0.6,11.2,8.6,10.4,17.8
				c-0.1,1.6-0.4,2.7-0.8,3.5C118.8,284.5,117.9,285.1,116.8,285L116.8,285z M99.4,278.1c-0.1,1.2-0.1,1.9,0,2.2
				c0.5-0.1,1.3-0.6,1.9-0.9c2-1,4.4-2.3,7.1-2c2.7,0.2,4.9,1.9,6.6,3.2c0.6,0.4,1.3,1,1.7,1.2c0.1-0.3,0.3-0.9,0.4-2.2
				c0.7-7.6-2.8-14.2-7.7-14.6C104.6,264.7,100.1,270.5,99.4,278.1z"/>
		</g>
	</g>
	<g>
		<g>
			<g>
				<path fill="#2A120C" d="M203.4,362.5c-1.5,11-11.9,20.7-20.1,27.4c-11.9,9.8-26.2,9.4-40.8,7.5c-8.4-1.1-16.5-3.5-25-3.9
					c-9.6-0.5-18.5,3.1-27.4,6.2c-16.7,5.9-33.4,12.4-51,14.3c-1.9,0.2-2.4-2.7-0.5-2.9c16.9-1.8,32.8-7.8,48.7-13.5
					c7.1-2.5,14.3-5.4,21.8-6.6c7.2-1.2,14.7-0.1,21.8,1.3c15.3,2.9,33.3,7.2,47.3-2.2c4.9-3.3,9.3-7.6,13.2-12
					c3.9-4.4,8.2-9.8,9-15.8C200.7,360.4,203.6,360.6,203.4,362.5L203.4,362.5z"/>
			</g>
		</g>
	</g>
	<g>
		<g>
			<polygon fill="#FFFFFF" points="151,463.1 166.3,465.1 168.8,454.5 180.7,456 178.2,466.7 193.5,468.7 192.1,474.6 176.8,472.6 
				170.6,499.2 158.8,497.6 164.9,471.1 149.6,469.1 			"/>
		</g>
		<g>
			<path d="M157.6,498.5l6.2-26.6l-15.3-2l1.8-7.9l15.3,2l2.5-10.7l13.9,1.8l-2.5,10.7l15.3,2l-1.8,7.9l-15.3-2l-6.2,26.6
				L157.6,498.5z M191.4,473.5l0.9-4l-15.3-2l2.5-10.7l-9.9-1.3l-2.5,10.7l-15.3-2l-0.9,4l15.3,2l-6.2,26.6l9.9,1.3l6.2-26.6
				L191.4,473.5z"/>
		</g>
	</g>
	<g>
		<g>
			<path d="M167.8,454.7l1.9-0.4c-0.4-1.7-3.7-16.6-8.9-18.2c-0.9-0.3-2.3-0.3-3.7,1.1l1.4,1.4c0.8-0.8,1.4-0.8,1.8-0.7
				C163.4,438.9,166.5,448.7,167.8,454.7z"/>
		</g>
	</g>
	<g>
		<g>
			<g>
				<path fill="#F6EA82" d="M175.5,419.3c11-1,24.4-5.8,35.4-5.8c-2.4,4.8-3.8,9.6-4.3,14.5c8.3-4.2,15-11.6,20.6-19.1
					c2.6,4.2,4.1,10.3,3.6,15.3c7.5-6.3,10.3-15,15.9-22.5c2.6,4.2,6.3,7.5,6.8,13.5c3.6-6.6,7.2-13.3,7.8-20.2
					c5.7,3.5,10.2,8.9,11.6,15c5.6-6.5,5.7-19.4-1.8-25l0,0c8.8,1.8,13.9,11.2,20.4,16.7c0.2-12.9-6.6-26.5-13.7-36.1
					c5.7,2.5,12.4,6.1,17,10.5c-11.2-19.9-21.6-36.8-46.2-39.9c-5.9-0.5-19.8-0.8-21.1,2.1L175.5,419.3z"/>
			</g>
		</g>
		<g>
			<g>
				<path fill="#1F1219" d="M174.3,418.5c1.7-1.3,3.1-2.8,4.3-4.4c1.2-1.6,2.2-3.3,3.3-5l6.5-10.1l13-20.2l6.5-10.1l3.2-5.1
					c1.1-1.7,1.9-3.5,2.7-5.4c0.8-1.9,1.7-3.7,2.8-5.4l3.2-5.1l6.4-10.2l-0.1,0.2c0.2-0.4,0.5-0.7,0.8-1c0.3-0.2,0.5-0.4,0.8-0.6
					c0.5-0.2,1-0.5,1.5-0.6c1-0.3,1.9-0.5,2.8-0.6c1.8-0.3,3.7-0.4,5.5-0.5c1.8-0.1,3.6-0.1,5.4-0.1c1.8,0,3.6,0.1,5.4,0.2
					c1.9,0.3,3.7,0.5,5.5,0.9c1.8,0.5,3.6,0.8,5.3,1.5c0.9,0.3,1.7,0.6,2.6,0.9l2.5,1.1c0.9,0.4,1.7,0.8,2.5,1.3
					c0.8,0.5,1.6,0.9,2.4,1.4c1.5,1,3.1,2,4.5,3.2c1.5,1.1,2.8,2.4,4.1,3.7c1.2,1.3,2.6,2.6,3.7,4.1c1.2,1.4,2.3,2.8,3.4,4.3
					c4.3,5.9,7.8,12.1,11.2,18.4l3.8,7l-6.2-5.2l0,0c-1.2-1-2.5-2.1-3.7-3.1l-4.1-2.7l-4.3-2.3l-4.5-2.1l1.8-2.2
					c0.9,1.4,1.9,2.7,2.8,4.1c0.9,1.4,1.8,2.8,2.6,4.3c0.8,1.5,1.6,2.9,2.3,4.4c0.7,1.5,1.4,3,2.1,4.6l1.7,4.7l1.3,4.9l0.8,5
					l0.3,5.1l0.2,3.4l-2.6-2.3c-3.5-3.1-6.3-6.7-9.3-9.8c-1.5-1.6-3.1-3-4.8-4.2c-0.9-0.6-1.8-1.1-2.7-1.5l-1.4-0.5l-1.5-0.4
					l1.2-2.6l1.5,1.3l1.3,1.4l1.1,1.6l0.9,1.7l0.7,1.8l0.5,1.8l0.3,1.8l0.2,1.8c0,1.2,0,2.5-0.1,3.7c-0.2,1.2-0.4,2.4-0.7,3.6
					c-0.4,1.2-0.8,2.4-1.4,3.5c-0.3,0.6-0.6,1.1-1,1.6c-0.4,0.5-0.8,1-1.1,1.5l-1.7,2.2l-0.9-2.9l-0.7-2.1c-0.3-0.7-0.6-1.4-0.9-2.1
					c-0.4-0.6-0.7-1.3-1.1-2c-0.4-0.6-0.9-1.2-1.3-1.8c-0.5-0.6-1-1.2-1.5-1.7c-0.6-0.5-1.1-1.1-1.7-1.6l-1.8-1.4l-1.9-1.3l2.3-1.1
					c-0.1,1-0.3,1.9-0.4,2.9c-0.2,0.9-0.4,1.9-0.7,2.8c-0.3,0.9-0.6,1.8-0.9,2.7c-0.3,0.9-0.7,1.8-1,2.6c-1.5,3.4-3.2,6.7-4.9,9.9
					l-2.1,3.9l-0.7-4.5l-0.3-1.7c0-0.3-0.1-0.6-0.2-0.8l-0.2-0.8c-0.2-0.6-0.4-1.1-0.7-1.6c-0.2-0.5-0.6-1-0.8-1.6
					c-0.6-1-1.3-2-2.1-3.1c-0.8-1-1.5-2.1-2.2-3.2l2.4,0.1l-1.9,2.8l-1.8,2.9l-3.5,6l-1.9,3c-0.7,1-1.4,1.9-2.1,2.9
					c-0.8,0.9-1.5,1.8-2.3,2.7l-2.6,2.5l-2.4,2.2l-0.1-3.5c0-1.2,0-2.5,0-3.7l-0.6-3.7l-1.1-3.6c-0.5-1.1-1.1-2.2-1.6-3.3l2.4,0.1
					c-1.4,1.9-2.9,3.8-4.5,5.6l-2.4,2.7l-2.5,2.6l-2.7,2.5l-2.8,2.3l-3,2.1l-3.2,1.8l-2.6,1.5l0.4-2.9c0.2-1.3,0.4-2.6,0.6-3.9
					c0.3-1.3,0.6-2.6,0.9-3.8c0.4-1.2,0.8-2.5,1.3-3.7l1.6-3.6l1.3,2.2l0,0c-1.4,0.1-2.9,0.1-4.3,0.2c-1.5,0.2-2.9,0.3-4.4,0.6
					c-2.9,0.5-5.8,1.1-8.7,1.7l-8.8,1.9l-4.5,0.8l-9.5,1.2L174.3,418.5z M179.7,417.3l4.3-0.8l8.7-1.9c2.9-0.6,5.9-1.2,8.9-1.8
					c1.5-0.2,3-0.4,4.5-0.6c1.5-0.1,3.1-0.2,4.6-0.3l0,0l2.4-0.1l-1,2.3l-1.5,3.4c-0.4,1.1-0.8,2.3-1.2,3.5
					c-0.3,1.2-0.6,2.4-0.9,3.6c-0.2,1.2-0.3,2.4-0.5,3.6l-2.2-1.5l3-1.7l2.8-1.9l2.7-2.2l2.5-2.3l2.4-2.5l2.3-2.6
					c1.5-1.8,3-3.6,4.4-5.5l1.4-1.9l1,2c0.6,1.3,1.3,2.5,1.9,3.8l1.3,4l0.7,4.1c0,1.4,0,2.8,0,4.2l-2.4-1.3l2.4-2.3
					c0.7-0.8,1.4-1.7,2.2-2.5c0.7-0.9,1.3-1.8,2-2.7l1.8-2.9l3.5-6l1.9-3l2-2.9l1.2-1.8l1.2,1.9c0.7,1,1.4,2,2.1,3.1
					c0.8,1,1.5,2.1,2.2,3.3c0.3,0.6,0.7,1.2,1,1.8c0.3,0.6,0.6,1.3,0.8,1.9l0.3,1c0.1,0.3,0.2,0.7,0.3,1l0.3,2.1l-2.8-0.6
					c1.7-3.2,3.4-6.4,4.8-9.6c0.3-0.8,0.6-1.6,1-2.5c0.3-0.8,0.5-1.7,0.8-2.5c0.2-0.8,0.4-1.7,0.6-2.5c0.1-0.8,0.2-1.7,0.4-2.5
					l0.4-2.4l1.9,1.3l2.1,1.4l2,1.6c0.6,0.6,1.2,1.2,1.9,1.8c0.6,0.6,1.1,1.3,1.7,1.9c0.5,0.7,1,1.4,1.5,2.1
					c0.5,0.7,0.9,1.5,1.3,2.2c0.4,0.8,0.7,1.6,1.1,2.4c0.3,0.8,0.5,1.7,0.8,2.5l-2.6-0.6l0.9-1.2c0.3-0.5,0.5-0.9,0.8-1.4
					c0.5-0.9,0.9-1.9,1.2-2.9c0.3-1,0.5-2.1,0.6-3.1c0.1-1.1,0.2-2.1,0.1-3.2l-0.1-1.6l-0.3-1.6l-0.4-1.5l-0.6-1.5l-0.7-1.4
					l-0.9-1.3l-1-1.2l-1.2-1l-4.9-4.2l6.1,1.6l1.8,0.5l1.7,0.7c1.1,0.5,2.2,1.1,3.1,1.8c2,1.3,3.7,2.9,5.3,4.6
					c3.2,3.3,5.9,6.8,9.1,9.6l-2.5,1.1l-0.2-4.7l-0.8-4.7l-1.3-4.6l-1.6-4.5c-0.6-1.5-1.3-2.9-2-4.4c-0.7-1.4-1.5-2.8-2.3-4.2
					c-0.8-1.4-1.7-2.7-2.5-4.1c-0.9-1.3-1.8-2.6-2.7-4l-3.2-4.6l4.9,2.3l4.6,2.2l4.5,2.4l4.3,2.8c1.4,1.1,2.7,2.2,4,3.3l0,0
					l-2.3,1.8c-3.6-6.1-7.1-12.3-11.3-17.9c-1-1.4-2.1-2.8-3.3-4.1c-1.1-1.4-2.3-2.6-3.5-3.9c-1.3-1.2-2.5-2.4-3.9-3.4
					c-1.3-1.1-2.7-2.1-4.2-3c-0.7-0.5-1.5-0.9-2.2-1.3c-0.7-0.4-1.5-0.9-2.3-1.2l-2.3-1.1c-0.8-0.3-1.6-0.6-2.4-0.9
					c-1.6-0.6-3.3-1-5-1.4c-1.7-0.4-3.5-0.7-5-0.9c-1.8-0.2-3.5-0.3-5.3-0.3c-1.8-0.1-3.5-0.1-5.3,0c-1.7,0-3.5,0.1-5.2,0.4
					c-0.8,0.1-1.7,0.3-2.4,0.5c-0.4,0.1-0.7,0.3-1,0.4c-0.1,0.1-0.2,0.1-0.3,0.2c0,0.1,0,0-0.1,0l-0.1,0.2l-6.6,10.1l-3.3,5
					c-1.1,1.7-2.4,3.2-3.7,4.7c-1.4,1.5-2.7,3.1-3.8,4.7l-3.3,5.1l-6.5,10.1l-13,20.2l-6.5,10.1c-1.1,1.7-2.2,3.3-3.2,5.1
					c-0.6,1.1-1.1,2.2-1.5,3.4L179.7,417.3z"/>
			</g>
		</g>
	</g>
	<g>
		<g>
			<path fill="#505DA9" d="M175.9,414.3c9-2,25.5-15.4,34.5-16.7c-1.4,3.6-2,7.1-1.8,10.6c6.4-3.9,10.9-9.9,14.7-15.7
				c2.7,2.6,4.6,6.7,4.9,10.2c5.4-5.3,6.7-11.7,10.4-17.5c2.7,2.6,6.1,4.5,7.3,8.6c2.1-5.1,4.3-10.1,3.9-15c5.1,1.7,9.5,4.9,11.4,9
				c3.8-5.2,2.3-14.2-4.5-17.2l0,0c7.5,0.2,12.9,6.1,18.9,9.2c-1.5-9-8.7-17.6-15.8-23.4c5.1,1,11,2.7,15.3,5.2
				c-11.7-12.5-22.4-22.9-43.1-22.2c-5,0.3-10.9,2.1-11.6,4.3L175.9,414.3z"/>
		</g>
	</g>
	<g>
		<g>
			<polygon fill="#382210" points="140.5,239 182.8,250.5 179.4,259.1 			"/>
		</g>
	</g>
	<g>
		<g>
			<polygon fill="#382210" points="121.6,246.7 87.5,261.5 91.4,268.3 			"/>
		</g>
	</g>
</g>
</svg>
