<svg xmlns="http://www.w3.org/2000/svg" xmlns:xlink="http://www.w3.org/1999/xlink" id="Layer_1" x="0" y="0" enable-background="new 0 0 400 600" version="1.1" viewBox="0 0 400 600" xml:space="preserve"><g><g><path fill="#FFF" d="M223.5,149.4l7.8,11.3c3,4.4,5.7,8.8,8.4,13.3c0.9,1.6,1.9,3.2,2.8,4.8c0,0,0,0,0,0 c0.9-2.5,1.9-4.9,3.8-7.3c1-1.2,2.1-2.4,3.8-3.2c1.1-0.6,2.5-0.8,3.7-0.8c0.6,0,1.2,0.1,1.8,0.2c3.6,0.8,5.7,2.9,7.6,4.7 c1.9,1.9,3.4,4,4.8,6.1c2.8,4.2,5.1,8.5,7.2,12.9c8.4,17.6,14.3,35.9,19.9,54.3c2.8,9.2,5.3,18.5,7.8,27.7l7.7,27.7l8.1,27.5 c2.8,9.1,5.8,18.2,8.7,27.3c3.2,9,6.1,18.1,9.5,27c3.2,9,6.8,17.8,10.5,26.6c3.8,8.7,7.6,17.4,11.9,25.9c1,2.1,2.1,4.3,3.3,6.3 c1.1,2.1,2.2,4.2,3.5,6.2c1.2,2.1,2.5,4,3.9,6c0.6,0.8,1.3,1.6,2,2.4c1,0.9,1.9,1.8,2.9,2.8c0,0-0.1-0.1-0.4-0.2 c-2.1-1-3.8-2.6-5.4-4.1c-0.8-0.8-1.5-1.6-2.2-2.4c-10.1-8.4-20.1-16.9-29.9-25.6l-9.3-8.4c-2.8-2.5-5.5-5-8.2-7.6l37.4,61 c0,0-0.3-0.1-0.9-0.3c-7.1-1.9-14-4.6-20.7-7.9c-6.9-3.4-13.6-7.4-19.7-12.2c-3.1-2.4-6.1-4.9-8.8-7.7c-2-2-3.8-4-5.6-6.2 l9.3,31.2c0,0-0.9-0.2-2.3-0.8c-3.9-1.4-7.5-3.6-10.8-6.1c-3.9-3.1-7.3-6.8-10.2-10.9c-5.8-8.2-9.2-17.9-11-27.7 c-0.9-4.9-1.4-9.9-1.6-14.9l-0.4-7.4c-0.3-2.4-0.5-4.8-0.9-7.2c-0.6-3.4-1.4-6.8-2.4-10.1c-6.9,6.4-13.3,13.5-17.9,22.9 c-1.5,1.6-3.2,3.2-5,4.7c-24.6,21.3-62.1,25.6-90.8,25.6c-13.1,0-25.5-3.3-36.7-9.2c-1.8,6.9-4.4,13.5-8.3,19.4 c-2.7,4.2-6,8-9.8,11.2c-3.2,2.6-6.7,4.9-10.5,6.4c-1.4,0.6-2.3,0.9-2.3,0.9l8.2-31.5c-1.7,2.2-3.5,4.4-5.4,6.4 c-2.7,2.9-5.6,5.5-8.6,8c-6,5-12.5,9.2-19.3,12.9c-6.6,3.5-13.4,6.4-20.4,8.6c-0.5,0.2-0.8,0.3-0.8,0.3L78.5,408 c-2.6,2.6-5.2,5.3-7.9,7.8l-9,8.7c-9.5,9-19.2,17.9-29,26.6c-0.7,0.8-1.4,1.6-2.2,2.4c-1.6,1.6-3.2,3.3-5.3,4.3 c-0.2,0.2-0.4,0.2-0.4,0.2c0.9-0.9,1.9-1.9,2.8-2.9c0.6-0.8,1.3-1.7,1.9-2.5c1.3-2,2.6-4,3.7-6.1c1.2-2,2.3-4.2,3.3-6.3 c1.1-2.1,2.1-4.2,3.1-6.4c4-8.6,7.5-17.4,11-26.3c3.4-8.9,6.7-17.8,9.6-26.9c2.9-8.4,5.4-17.1,8-25.6c-1.5-6.4-2.6-12.9-3.1-19.7 c-0.5-3.3-0.9-6.7-1.1-10c-0.1-1.2-0.1-2.3-0.1-3.5c0-1.1,0-2.1,0-3.2c0-7.5,0-13.9,1.4-19.6c0.2-1.2,0.4-2.5,0.6-3.7 c2.4-13.7,7.1-26.1,14.6-38.2c-1-1-1.9-2.1-2.4-3.1c-0.9-1.6-1.3-3.1-1.7-4.8c-0.3-1.4-0.5-3-0.7-4.5c-0.2-3-0.3-6,0-8.9 c1-11.7,4.7-22.6,9.3-33c2.3-5.2,4.8-10.2,7.6-15.2c2.8-4.9,5.6-9.7,9.1-14.3l9.6-12.4l-3.8,14.9c-0.5,5.1-1.2,10.2-1.8,15.3 c-0.6,5.1-0.9,10.2-0.9,15.2c0,2.7,0.1,5.4,0.5,7.9c2.9-9.1,6.2-18.2,10-27.1c2-4.5,4.1-8.9,6.8-13.2c1.4-2.1,2.8-4.2,4.6-6.2 c1.9-1.9,3.9-4,7.4-5c0.7-0.2,1.4-0.3,2.1-0.3c1.2,0,2.4,0.2,3.4,0.7c1.7,0.7,2.9,1.9,3.9,3c2,2.3,3.1,4.8,4,7.2 c1.8,4.9,2.8,9.8,3.5,14.6c1,7.8,1.3,15.6,0.8,23.4c1.8-0.1,3.6-0.2,5.4-0.2c22.4,0,47.1,2.6,67.7,13.9c0.5-1.3,0.8-2.6,1.1-3.9 c0.7-3.1,0.6-6.3,1.2-9.4c0.5-3.2,0.6-6.4,0.8-9.7c0.2-6.5,0-13.1-0.4-19.6c-0.5-6.6-1.1-13.2-2.1-19.6L223.5,149.4 M215.8,129.7 l2.9,20.5l2,13.7c0.9,6.1,1.6,12.6,2,19.3c0.5,7.1,0.6,13.4,0.4,19.2c-0.1,2.9-0.3,6-0.7,9c-0.3,1.7-0.5,3.3-0.6,4.9 c-0.1,0.8-0.1,1.5-0.2,2.2c-17-7.8-38.2-11.7-64.5-11.7c-0.1,0-0.3,0-0.4,0c0.1-6.4-0.2-12.8-1-19c-0.6-4.3-1.6-10-3.7-15.7 c-1.1-2.9-2.5-5.8-4.9-8.6c-1.3-1.5-3-3.2-5.7-4.4c-1.6-0.7-3.4-1.1-5.4-1.1c-1.1,0-2.3,0.1-3.3,0.4c-4.8,1.3-7.6,4.2-9.7,6.3 c-2.3,2.5-3.9,4.9-5.2,7c-2.2,3.6-4.3,7.6-6.5,12.4c0.3-2.4,0.6-4.7,0.8-7.1l3.7-14.5l5.8-22.6l-14.3,18.4l-9.6,12.4 c-3.9,5-6.9,10.1-9.5,14.9c-3,5.4-5.5,10.5-7.8,15.6c-5.8,13.3-8.8,23.9-9.7,34.6c-0.3,2.9-0.3,6.1,0,9.7l0,0.1l0,0.1l0.1,0.5 c0.2,1.4,0.3,3,0.7,4.5c0.4,1.6,0.9,3.7,2.1,5.9c0.2,0.5,0.5,0.9,0.8,1.3c-6.7,11.7-11.1,23.8-13.5,36.9c-0.2,1.2-0.4,2.4-0.6,3.6 c-1.6,6.3-1.6,13.2-1.5,20.5c0,1,0,2.2,0,3.3c0,1.2,0.1,2.4,0.1,3.7c0.2,3.3,0.6,6.8,1.1,10.3c0.5,6.3,1.5,12.7,2.9,19 c-0.6,2-1.2,3.9-1.8,5.9c-1.8,6-3.7,12.3-5.8,18.3c-3.2,9.9-6.8,19.5-9.5,26.8l-0.2,0.6c-3.3,8.4-6.8,17.1-10.6,25.4 c-1,2.2-1.9,4.3-2.9,6.2l-0.7,1.3c-0.8,1.7-1.6,3.3-2.5,4.7l-0.1,0.1l-0.1,0.1c-0.9,1.7-1.9,3.4-3.3,5.5l-0.4,0.5 c-0.4,0.5-0.8,1-1.2,1.5c-0.4,0.4-0.8,0.8-1.1,1.2c-0.5,0.5-1,1-1.4,1.5L5,471l21.7-8.5c0,0,0.3-0.1,0.8-0.4 c2.7-1.4,4.7-3.5,6.4-5.2l0.1-0.1l0.1-0.1c0.7-0.8,1.4-1.5,2.1-2.3c7.9-7,15-13.5,21.7-19.7L39,467.9l-6,10.6l11.7-3.6 c0,0,0.4-0.1,1-0.3c6.8-2.1,13.9-5.1,21.1-8.9c7.5-4,14.3-8.5,20.2-13.4c0.5-0.4,1-0.8,1.5-1.2l-3.5,13.4l-2.2,8.2l8.2-2.4 c0.2-0.1,1.3-0.4,2.9-1.1c3.9-1.6,7.9-4,11.7-7.1c4.1-3.4,7.7-7.6,10.8-12.3c2.9-4.5,5.4-9.6,7.3-15.2c10.8,4.8,22.1,7.2,33.7,7.2 c41.8,0,73.4-9,94-26.7c1.9-1.6,3.6-3.3,5.3-5l0.5-0.5l0.3-0.7c2.7-5.5,6.2-10.5,10.9-15.6c0.1,0.5,0.2,1,0.3,1.5 c0.4,1.9,0.6,3.8,0.8,5.7l0.1,1l0.4,7.2c0.2,5.7,0.8,10.8,1.7,15.6c2.2,11.6,6.2,21.5,11.8,29.5c3.2,4.6,7,8.6,11.2,11.9 c3.9,3,8,5.3,12.1,6.8c1.5,0.6,2.6,0.9,2.8,1l8.3,2.1l-2.4-8.2l-4-13.3c0.5,0.4,1,0.8,1.5,1.2c6,4.7,12.9,9,20.6,12.7 c7.4,3.6,14.6,6.3,21.6,8.2c0.5,0.1,0.8,0.2,0.8,0.2l11.8,3.2l-6.4-10.4l-19.9-32.5c6.9,6,14.3,12.2,22.4,19 c0.7,0.8,1.4,1.5,2.1,2.2l0.1,0.1l0.1,0.1c1.7,1.6,3.8,3.6,6.5,4.9c0.5,0.3,0.8,0.4,0.8,0.4l21.8,7.6l-16.7-15.6 c-0.5-0.5-1-0.9-1.5-1.4c-0.4-0.4-0.8-0.8-1.2-1.1c-0.4-0.5-0.8-1-1.2-1.5l-0.4-0.5c-1.5-2.1-2.6-3.8-3.5-5.4l-0.1-0.1l-0.1-0.1 c-0.9-1.4-1.8-3-2.7-4.6l-0.6-1.2c-1.2-2-2.2-4-3.2-6.1c-4.2-8.2-7.9-16.7-11.5-25l-0.3-0.7c-3-7.1-6.9-16.6-10.4-26.3 c-2.3-6-4.4-12.1-6.4-18c-1-3-2-6-3.1-8.9l-0.2-0.6c-2.8-8.7-5.7-17.7-8.4-26.6l-8.1-27.4l-7.7-27.6c-2.9-10.6-5.4-19.5-7.9-27.8 c-5.1-16.8-11.2-36.3-20.2-55c-2.6-5.4-5-9.7-7.6-13.5c-1.4-2.1-3.2-4.5-5.4-6.8l-0.1-0.1l-0.1-0.1c-2.1-2-5-4.8-9.9-5.9 c-0.9-0.2-1.9-0.3-2.9-0.3c-2.1,0-4.1,0.5-5.9,1.3c-2.6,1.2-4.3,3-5.4,4.4c-0.1,0.1-0.2,0.3-0.3,0.4c-2.4-4-4.7-7.5-6.9-10.8 l-7.8-11.3L215.8,129.7L215.8,129.7z"/></g><g><g><path fill="#333330" d="M217.7,299.1c0,0,37.5-27.9,27.2-68.2c-10.2-40.4,7.3-131.7,54.9,42.9c47.6,174.6,75,185.2,75,185.2 s-46-39.8-71.8-68.8l53.9,81.7c0,0-51.6-13.9-66.4-58.7l20,55.6c0,0-34.1-8.6-34.6-62.9c-0.2-25.3-12.9-50.2-26.3-69.6 c-5.6-8.1-26.8,14.6-46.6-10.7C194.8,314.9,217.7,299.1,217.7,299.1z"/></g><g><path fill="#3D2D30" d="M215.9,296.8c7.1-5.6,13.4-12.8,18.2-20.6c4.8-7.8,8.2-16.5,9.2-25.5c0.5-4.5,0.4-9.1-0.3-13.5 c-0.3-2.3-0.8-4.3-1.4-6.8c-0.6-2.4-1-4.9-1.4-7.3c-1.4-9.8-1.6-19.6-0.7-29.4c0.5-4.9,1.3-9.8,3-14.8c0.9-2.5,1.9-4.9,3.8-7.3 c1-1.2,2.1-2.4,3.8-3.2c1.7-0.8,3.8-1,5.5-0.6c3.6,0.8,5.7,2.9,7.6,4.7c1.9,1.9,3.4,4,4.8,6.1c2.8,4.2,5.1,8.5,7.2,12.9 c8.4,17.6,14.3,35.9,19.9,54.3c2.8,9.2,5.3,18.5,7.8,27.7l7.7,27.7l8.1,27.5c2.8,9.1,5.8,18.2,8.7,27.3c3.2,9,6.1,18.1,9.5,27 c3.2,9,6.8,17.8,10.5,26.6c3.8,8.7,7.6,17.4,11.9,25.9c1,2.1,2.1,4.3,3.3,6.3c1.1,2.1,2.2,4.2,3.5,6.2c1.2,2.1,2.5,4,3.9,6 c1.5,1.8,2.9,3.8,4.8,5.2l0,0c-12.9-10.5-25.5-21.3-38-32.3l-9.3-8.4c-3.1-2.8-6.1-5.6-9.2-8.5c-3-2.9-6.1-5.7-9-8.7l-8.8-8.9 l5.1-3.9v0l51.2,83.4l0,0l0,0c-7.4-1.9-14.6-4.8-21.6-8.1c-6.9-3.4-13.6-7.4-19.7-12.2c-3.1-2.4-6.1-4.9-8.8-7.7 c-2.8-2.8-5.4-5.7-7.8-8.8c-1.2-1.5-2.3-3.2-3.5-4.8c-1-1.7-2.2-3.3-3.1-5.1c-1-1.7-1.9-3.5-2.7-5.3c-0.9-1.8-1.5-3.7-2.3-5.5 l6.1-2.1v0l17,56.7l0,0l0,0c-4.8-1.3-9.2-3.9-13.1-6.9c-3.9-3.1-7.3-6.8-10.2-10.9c-5.8-8.2-9.2-17.9-11-27.7 c-0.9-4.9-1.4-9.9-1.6-14.9l-0.4-7.4c-0.3-2.4-0.5-4.8-0.9-7.2c-0.8-4.8-2-9.5-3.5-14.1c-1.5-4.6-3.3-9.2-5.3-13.6 c-4.1-8.8-9.1-17.3-14.5-25.4l-2.1-3l-0.1-0.2c0.3,0.4,0.1,0.1,0.1,0.1l0,0l-0.1-0.1l-0.3-0.3c-0.2-0.3-0.2,0-0.2-0.2 c-0.2-0.1-0.5-0.2-0.8-0.3c-1.6-0.2-4,0.4-6.3,1c-4.7,1.3-9.8,2.7-15.2,2.6c-5.4-0.1-10.9-1.8-15.3-5c-2.2-1.5-4.2-3.3-6-5.2 c-0.9-0.9-1.7-2-2.6-3c-0.6-0.9-0.7-0.9-1.2-1.9c-0.5-0.8-0.7-1.6-0.9-2.4c-0.8-3.3,0.1-6.5,1.3-9c1.2-2.6,2.8-4.8,4.5-6.8 C208,303.2,211.8,299.8,215.9,296.8L215.9,296.8z M219.3,301.5c-3.8,2.7-7.5,5.9-10.5,9.3c-3,3.4-5.5,7.6-4.7,10.9 c0.1,0.4,0.2,0.8,0.4,1.1c0,0.1,0.6,1,0.7,1.2c0.8,0.9,1.4,1.8,2.2,2.7c1.5,1.7,3.3,3.2,5.1,4.6c3.6,2.7,7.9,4.1,12.4,4.2 c4.5,0.2,9.1-1,13.9-2.2c2.5-0.5,4.9-1.4,8.3-1c0.9,0.2,1.7,0.4,2.6,1c0.4,0.3,1.1,0.8,1.2,1l0.3,0.4l0.3,0.4l0.1,0.2l2.1,3.1 c5.5,8.3,10.4,17.1,14.3,26.3c2,4.6,3.7,9.3,5.1,14.1c1.5,4.8,2.5,9.7,3.3,14.7c0.4,2.5,0.6,5,0.8,7.5l0.2,7.4 c0.1,4.9,0.4,9.8,1.2,14.6c1.5,9.6,4.4,19.1,9.7,27.4c2.6,4.1,5.8,7.9,9.6,11c3.7,3.2,7.9,5.9,12.6,7.4l0,0l0,0l-23-54.5l0,0 l6.1-2.1c0.6,1.7,1.1,3.5,1.8,5.2c0.6,1.7,1.3,3.4,2.1,5.1c0.7,1.7,1.7,3.3,2.5,4.9c1,1.6,1.9,3.2,2.9,4.7c2,3.1,4.3,6.1,6.8,8.9 c2.5,2.8,5.1,5.5,8,8c5.6,5,11.9,9.4,18.4,13.3c6.6,3.8,13.5,7.1,20.8,9.6l0,0l0,0l-56.6-79.9l0,0l5.1-3.9l8.1,9.3 c2.7,3.1,5.6,6.1,8.4,9.1c2.8,3,5.6,6.1,8.5,9l8.7,8.9c11.7,11.8,23.6,23.3,35.7,34.6l0,0l0,0c-2.3-0.9-4.1-2.7-5.8-4.3 c-1.7-1.7-3.4-3.5-4.8-5.4c-3-3.8-5.8-7.8-8.2-12c-2.6-4.1-4.7-8.4-7-12.7c-2.2-4.3-4.1-8.7-6.2-13.1 c-3.8-8.8-7.5-17.7-10.8-26.7c-3.5-8.9-6.5-18.1-9.8-27.1c-3-9.1-6-18.2-8.9-27.4l-8.4-27.5l-7.9-27.6c-2.6-9.2-5.2-18.4-8-27.5 c-2.8-9.1-5.8-18.2-9-27.1c-3.2-8.9-6.6-17.8-10.6-26.3c-2-4.2-4.2-8.4-6.7-12.2c-1.3-1.9-2.6-3.7-4.1-5.2 c-1.4-1.5-3.1-2.7-4.3-2.9c-0.6-0.1-1-0.1-1.5,0.1c-0.5,0.2-1.1,0.7-1.6,1.4c-1.1,1.4-2,3.4-2.7,5.4c-1.4,4.2-2.2,8.7-2.7,13.3 c-0.9,9.2-0.7,18.7,0.5,27.9c0.3,2.3,0.7,4.5,1.3,6.8c0.5,2.2,1.2,4.8,1.5,7.3c0.7,5,0.8,10.1,0.3,15.1 c-1.1,10.1-4.9,19.6-10.1,28C233.8,287.7,227.3,295.1,219.3,301.5L219.3,301.5L219.3,301.5z"/></g></g><g><g><path fill="#333330" d="M176.5,292.9c0,0-38.4-26.6-29.6-67.3c8.8-40.7-11.9-131.4-53.4,44.7C51.9,446.5,24.8,458.1,24.8,458.1 s44.6-41.3,69.4-71.2l-51,83.5c0,0,51.1-15.6,64.4-60.9l-18.1,56.3c0,0,33.8-9.7,32.4-64.1c-0.6-25.3,11.2-50.6,23.9-70.4 c5.3-8.3,27.3,13.7,46.2-12.3C199.9,308,176.5,292.9,176.5,292.9z"/></g><g><path fill="#3D2D30" d="M174.8,295.3c-8.1-6-14.9-13.2-20.5-21.4c-5.5-8.2-9.7-17.6-11.1-27.7c-0.7-5-0.8-10.1-0.3-15.1 c0.2-2.5,0.8-5.1,1.2-7.3c0.4-2.3,0.8-4.5,1-6.8c1-9.2,0.8-18.7-0.4-27.9c-0.7-4.6-1.6-9.1-3.2-13.2c-0.8-2-1.8-4-2.9-5.3 c-0.6-0.6-1.2-1.2-1.7-1.3c-0.5-0.2-0.9-0.2-1.5-0.1c-1.2,0.2-2.8,1.6-4.2,3.1c-1.4,1.6-2.7,3.4-3.9,5.3 c-2.4,3.9-4.4,8.1-6.3,12.4c-3.7,8.6-6.8,17.6-9.7,26.6c-2.9,9-5.6,18.2-8.1,27.4c-2.5,9.2-4.8,18.4-7.1,27.8l-6.9,27.9L82,327.4 c-2.6,9.2-5.3,18.4-8,27.6c-2.9,9.1-5.6,18.4-8.8,27.4c-3,9.1-6.4,18.1-9.9,27.1c-1.9,4.4-3.7,8.9-5.7,13.3 c-2.1,4.3-4.1,8.7-6.6,12.9c-2.3,4.2-4.9,8.3-7.8,12.3c-1.4,2-3,3.8-4.7,5.6c-1.7,1.7-3.4,3.5-5.7,4.5l0,0l0,0 c11.7-11.7,23.3-23.7,34.5-35.8l8.4-9.2c2.8-3,5.5-6.2,8.2-9.3c2.7-3.1,5.5-6.2,8-9.4l7.8-9.6l5.2,3.7l0,0l-53.8,81.8l0,0l0,0 c7.2-2.7,14-6.2,20.5-10.3c6.4-4.1,12.5-8.7,18-13.9c2.7-2.6,5.3-5.3,7.7-8.3c2.4-2.9,4.6-5.9,6.5-9.1c1-1.6,1.9-3.2,2.8-4.8 c0.8-1.7,1.7-3.3,2.3-5c0.7-1.7,1.4-3.4,2-5.2c0.7-1.7,1-3.5,1.6-5.3l6.2,1.9v0l-21.1,55.3l0,0l0,0c4.6-1.7,8.8-4.6,12.4-7.9 c3.6-3.3,6.7-7.2,9.2-11.4c5-8.4,7.7-18,8.8-27.7c0.6-4.8,0.8-9.7,0.7-14.6l-0.1-7.4c0.1-2.5,0.2-5.1,0.5-7.6 c0.6-5,1.5-9.9,2.8-14.8c1.3-4.8,2.8-9.6,4.7-14.3c3.6-9.3,8.2-18.3,13.4-26.8l2-3.2l0.1-0.2l0.3-0.4l0.3-0.4 c0.1-0.2,0.8-0.8,1.2-1.1c0.9-0.6,1.7-0.9,2.6-1.1c3.4-0.5,5.8,0.3,8.3,0.7c4.9,1.1,9.5,2.1,14,1.8c4.5-0.3,8.7-1.9,12.3-4.7 c1.8-1.4,3.4-2.9,4.9-4.7c0.8-0.8,1.4-1.8,2.2-2.7c0.1-0.2,0.7-1.1,0.7-1.2c0.1-0.2,0.2-0.7,0.3-1.1c0.6-3.2-2-7.4-5.1-10.7 c-3.1-3.4-7-6.4-10.8-9L174.8,295.3L174.8,295.3z M178,290.5c4.3,3,8.2,6.2,11.8,10.1c1.8,2,3.4,4.1,4.7,6.6 c1.3,2.5,2.2,5.6,1.6,8.9c-0.2,0.8-0.4,1.6-0.8,2.4c-0.5,1-0.6,1.1-1.2,2c-0.8,1-1.6,2.1-2.5,3.1c-1.7,2-3.7,3.8-5.8,5.4 c-4.3,3.3-9.7,5.3-15.1,5.5c-5.4,0.3-10.6-0.9-15.3-2.1c-2.3-0.5-4.8-1.1-6.3-0.8c-0.4,0.1-0.7,0.2-0.8,0.3c0,0.1,0-0.1-0.2,0.2 l-0.3,0.4l-0.1,0.1l0,0c0.1-0.1-0.2,0.2,0.1-0.1l-0.1,0.2l-2,3.1c-5.2,8.3-9.8,16.9-13.6,25.9c-1.9,4.5-3.5,9.1-4.9,13.7 c-1.4,4.7-2.4,9.4-3,14.2c-0.4,2.4-0.5,4.8-0.7,7.2l-0.1,7.4c0,5-0.3,10-1.1,14.9c-1.5,9.9-4.6,19.6-10.1,28 c-2.7,4.2-6,8-9.8,11.2c-3.8,3.2-8.1,5.8-12.8,7.3l0,0l0,0l15-57.3v0l6.2,1.9c-0.7,1.9-1.3,3.8-2.1,5.6c-0.8,1.8-1.6,3.7-2.5,5.4 c-0.9,1.8-1.9,3.5-2.9,5.2c-1.1,1.7-2.1,3.4-3.3,4.9c-2.3,3.2-4.8,6.3-7.5,9.1c-2.7,2.9-5.6,5.5-8.6,8c-6,5-12.5,9.2-19.3,12.9 c-6.8,3.6-13.9,6.7-21.3,8.9l0,0l0,0l48.3-85.1v0l5.2,3.7l-8.5,9.2c-2.8,3.1-5.8,6-8.7,9c-2.9,3-5.8,5.9-8.9,8.8l-9,8.7 c-12.1,11.4-24.3,22.6-36.8,33.5l0,0c1.9-1.4,3.3-3.4,4.7-5.3c1.3-2,2.6-4,3.7-6.1c1.2-2,2.2-4.2,3.3-6.3 c1.1-2.1,2.1-4.2,3.1-6.4c4-8.6,7.5-17.4,11-26.3c3.4-8.9,6.7-17.8,9.6-26.9c3.1-9,5.7-18.2,8.6-27.3c2.6-9.2,5.2-18.4,7.7-27.6 l7.2-27.7l6.7-27.9c2.2-9.3,4.4-18.7,6.9-27.9c4.9-18.6,10.2-37.1,18-55c2-4.5,4.1-8.9,6.8-13.2c1.4-2.1,2.8-4.2,4.6-6.2 c1.9-1.9,3.9-4,7.4-5c1.7-0.5,3.8-0.3,5.5,0.4c1.7,0.7,2.9,1.9,3.9,3c2,2.3,3.1,4.8,4,7.2c1.8,4.9,2.8,9.8,3.5,14.6 c1.3,9.8,1.4,19.6,0.3,29.4c-0.3,2.4-0.7,4.9-1.1,7.4c-0.5,2.4-0.9,4.5-1.2,6.8c-0.5,4.5-0.5,9,0.2,13.5c1.2,9,4.9,17.6,10,25.2 c5.1,7.6,11.7,14.6,18.9,20L178,290.5z"/></g></g><g><g><path fill="#EE312E" d="M115.5,228.6c-23.1,7.4-11.2-53.2-11.2-53.2s-29.6,42.1-25,71.7C83.9,276.6,122,226.5,115.5,228.6z"/></g><g><path fill="#3D2D30" d="M110.9,232.4c-1.6-0.1-3.3-0.5-4.7-1.4c-1.6-1-2.9-2.3-3.8-3.7c-0.9-1.4-1.6-2.8-2.1-4.2 c-2-5.7-2.3-11.2-2.5-16.6c-0.1-5.4,0.2-10.8,0.7-16.1c0.3-2.7,0.5-5.3,1-7.9c0.4-2.6,1-5.2,1.7-7.8l0,0l5.8,2.5 c-2.7,4.6-5.6,9.3-8.3,14c-2.7,4.8-5.2,9.6-7.4,14.6c-4.4,9.9-8,20.3-8.9,30.7c-0.3,2.6-0.2,5.2,0,7.7c0.2,1.3,0.3,2.5,0.5,3.8 c0.2,1,0.6,2.2,1,3c1,1.7,1.7,2.1,3.5,2c1.8-0.2,4.1-1.3,6.2-2.7c4.2-2.8,8.1-6.6,11.6-10.6c1.8-2,3.5-4.1,5-6.2 C110.4,233.1,110.6,232.7,110.9,232.4z M114.5,225.5c0.3-0.1,0.6-0.1,0.9-0.2c0.5,0,1-0.1,1.7,0.2c0.9,0.4,1.6,1,2,1.7 c0.2,0.4,0.3,0.7,0.3,0.9c0,0.2,0.1,0.5,0.1,0.7c0,1.3-0.3,1.7-0.4,2.2c-0.4,0.9-0.7,1.6-1.1,2.3c-0.8,1.4-1.6,2.6-2.4,3.8 c-1.7,2.4-3.5,4.6-5.4,6.8c-3.8,4.3-7.9,8.4-12.9,11.8c-2.5,1.6-5.3,3.3-9,3.8c-1.9,0.2-4.1,0-6-1.1c-1.9-1.1-3.2-2.8-4.1-4.4 c-0.9-1.6-1.3-3.1-1.7-4.8c-0.3-1.4-0.5-3-0.7-4.5c-0.2-3-0.3-6,0-8.9c1-11.7,4.7-22.6,9.3-33c2.3-5.2,4.8-10.2,7.6-15.2 c2.8-4.9,5.6-9.7,9.1-14.3l9.6-12.4l-3.8,14.9l0,0c-0.5,5.1-1.2,10.2-1.8,15.3c-0.6,5.1-0.9,10.2-0.9,15.2c0,5,0.4,10.1,1.8,14.3 c0.7,2.1,1.8,3.8,3,4.6c0.6,0.4,1.3,0.6,2.1,0.6c0.4,0,0.9,0,1.3-0.1l0.6-0.1l0.9-0.3L114.5,225.5z"/></g></g><g><path fill="#66BC46" d="M297.7,337.2c4.1,6,4.4,12,2.5,17.5c-0.7,1.9-1.6,3.6-2.7,5.4c-14.7,15.7-34,25.3-44.5,46.6 c-1.5,1.6-3.2,3.2-5,4.7c-24.6,21.3-62.1,25.6-90.8,25.6c-51.1,0-92.6-50.5-92.6-112.7c0-62.2,41.5-112.7,92.6-112.7 c38.3,0,83.3,7.7,103.5,53c0.6,1.3,1.1,2.5,1.6,3.9c1.3,3.9,2.6,7.9,4.2,12.2c9.8,14.7,9.8,34,21.9,45.4c2.2,2,4.4,4.4,6.2,7.4 C295.7,334.6,296.7,335.9,297.7,337.2z"/><path fill="#36221A" d="M157.2,440.1c-52.8,0-95.8-52-95.8-115.9c0-63.9,43-115.9,95.8-115.9c35.2,0,84.5,5.7,106.4,54.9 c0.6,1.3,1.1,2.6,1.7,4c1.4,4.3,2.7,8.1,4.1,11.9c4.4,6.7,6.8,14.1,9.2,21.2c3,9,5.8,17.4,12,23.3c2.3,2.2,4.7,4.6,6.7,7.9 c1,1.3,2,2.5,2.9,3.7c4.4,6.4,5.4,13.5,3,20.5c-0.7,2.1-1.7,4.1-3,6.1l-0.4,0.5c-5.2,5.5-10.9,10.3-16.4,14.9 c-10.8,9-20.9,17.5-27.6,30.9l-0.6,0.8c-1.6,1.7-3.3,3.3-5.2,4.9C229.9,431.3,198.6,440.1,157.2,440.1z M157.2,214.7 c-49.3,0-89.4,49.1-89.4,109.5c0,60.4,40.1,109.5,89.4,109.5c39.8,0,69.7-8.3,88.7-24.8c1.6-1.3,3-2.7,4.4-4.1 c7.2-14.4,18.3-23.6,29-32.5c5.3-4.4,10.8-9,15.7-14.1c0.9-1.5,1.7-3,2.2-4.5c1.7-5.1,1-10-2.1-14.6c-0.8-1.1-1.8-2.4-2.9-3.6 l-0.3-0.4c-1.6-2.7-3.7-4.8-5.7-6.7c-7.4-7-10.6-16.6-13.7-25.9c-2.3-6.9-4.6-14-8.7-20l-0.3-0.7c-1.5-4-2.9-8-4.3-12.3 c-0.4-1.1-1-2.3-1.5-3.5C237.3,220,190.6,214.7,157.2,214.7z"/></g><g><defs><path id="SVGID_1_" d="M238.5,337.1c-2.1,53.3-48.5,79.7-89.4,79.7s-74.3-41-79.7-96.6c0-53.4,43.7-96.6,84.6-96.6 C195,223.6,242.1,246.5,238.5,337.1z"/></defs><use fill="#BEDFB2" overflow="visible" xlink:href="#SVGID_1_"/><clipPath id="SVGID_2_"><use overflow="visible" xlink:href="#SVGID_1_"/></clipPath><g clip-path="url(#SVGID_2_)"><g><defs><path id="SVGID_3_" d="M233.2,336c-2,50-45.4,74.7-83.7,74.7c-38.3,0-69.6-38.4-74.7-90.5c0-50,41-90.5,79.3-90.5 C192.4,229.6,236.6,251.1,233.2,336z"/></defs><clipPath id="SVGID_4_"><use overflow="visible" xlink:href="#SVGID_3_"/></clipPath><g clip-path="url(#SVGID_4_)"><g><defs><rect id="SVGID_5_" width="80.5" height="80.5" x="181.6" y="203.5"/></defs><clipPath id="SVGID_6_"><use overflow="visible" xlink:href="#SVGID_5_"/></clipPath><g clip-path="url(#SVGID_6_)"><g><path fill="#9ECF7A" d="M265,203.5c0.7,1.7,0,6.4-4.1,8.5c-4.1,2.1,12.4,3.5,12.4,3.5L265,203.5z"/></g></g><g clip-path="url(#SVGID_6_)"><g><path fill="#9ECF7A" d="M193.4,261.8c1.6,0.8,4.3,4.7,2.7,9c-1.5,4.3,11.5-5.8,11.5-5.8L193.4,261.8z"/></g><g><path fill="#9ECF7A" d="M184.5,203.5c0.7,1.7,0,6.4-4.1,8.5c-4.1,2.1,12.4,3.5,12.4,3.5L184.5,203.5z"/></g><g><path fill="#9ECF7A" d="M243.7,233.7c1-1.6,5.1-3.8,9.2-1.9c4.1,2-4.7-12-4.7-12L243.7,233.7z"/></g><g><path fill="#9ECF7A" d="M201.9,215.5c2.7,1.3,7,7.7,4.5,14.7c-2.5,7,18.7-9.5,18.7-9.5L201.9,215.5z"/></g><g><path fill="#9ECF7A" d="M248.6,265.7c1.5-1,6.2-1.3,9.2,2.3c2.9,3.5,0.9-12.8,0.9-12.8L248.6,265.7z"/></g><g><path fill="#9ECF7A" d="M221.4,261.8c-0.3-1.8,1.3-6.2,5.8-7.5c4.4-1.2-11.4-6-11.4-6L221.4,261.8z"/></g><g><path fill="#77C043" d="M192.3,228.3c0.5,1.8-0.7,6.3-5,8c-4.3,1.7,11.9,4.8,11.9,4.8L192.3,228.3z"/></g><g><path fill="#A0CC40" d="M225.7,272.5c1.8,0.5,5.1,3.9,4.3,8.4c-0.7,4.5,10.2-7.8,10.2-7.8L225.7,272.5z"/></g><g><path fill="#77C263" d="M222.7,241.3c1.2-1.4,5.6-3.1,9.4-0.6c3.8,2.5-3-12.5-3-12.5L222.7,241.3z"/></g></g></g></g><g clip-path="url(#SVGID_4_)"><g><defs><rect id="SVGID_7_" width="80.5" height="80.5" x="181.6" y="284"/></defs><clipPath id="SVGID_8_"><use overflow="visible" xlink:href="#SVGID_7_"/></clipPath><g clip-path="url(#SVGID_8_)"><g><path fill="#9ECF7A" d="M265,284c0.7,1.7,0,6.4-4.1,8.5c-4.1,2.1,12.4,3.5,12.4,3.5L265,284z"/></g></g><g clip-path="url(#SVGID_8_)"><g><path fill="#9ECF7A" d="M193.4,342.3c1.6,0.8,4.3,4.7,2.7,9c-1.5,4.3,11.5-5.8,11.5-5.8L193.4,342.3z"/></g><g><path fill="#9ECF7A" d="M184.5,284c0.7,1.7,0,6.4-4.1,8.5c-4.1,2.1,12.4,3.5,12.4,3.5L184.5,284z"/></g><g><path fill="#9ECF7A" d="M243.7,314.2c1-1.6,5.1-3.8,9.2-1.9c4.1,2-4.7-12-4.7-12L243.7,314.2z"/></g><g><path fill="#9ECF7A" d="M201.9,296c2.7,1.3,7,7.7,4.5,14.7c-2.5,7,18.7-9.5,18.7-9.5L201.9,296z"/></g><g><path fill="#9ECF7A" d="M248.6,346.2c1.5-1,6.2-1.3,9.2,2.3c2.9,3.5,0.9-12.8,0.9-12.8L248.6,346.2z"/></g><g><path fill="#9ECF7A" d="M221.4,342.3c-0.3-1.8,1.3-6.2,5.8-7.5c4.4-1.2-11.4-6-11.4-6L221.4,342.3z"/></g><g><path fill="#77C043" d="M192.3,308.8c0.5,1.8-0.7,6.3-5,8c-4.3,1.7,11.9,4.8,11.9,4.8L192.3,308.8z"/></g><g><path fill="#A0CC40" d="M225.7,353c1.8,0.5,5.1,3.9,4.3,8.4c-0.7,4.5,10.2-7.8,10.2-7.8L225.7,353z"/></g><g><path fill="#77C263" d="M222.7,321.8c1.2-1.4,5.6-3.1,9.4-0.6c3.8,2.5-3-12.5-3-12.5L222.7,321.8z"/></g></g></g></g><g clip-path="url(#SVGID_4_)"><g><defs><rect id="SVGID_9_" width="80.5" height="80.5" x="181.6" y="364.6"/></defs><clipPath id="SVGID_10_"><use overflow="visible" xlink:href="#SVGID_9_"/></clipPath><g clip-path="url(#SVGID_10_)"><g><path fill="#9ECF7A" d="M265,364.6c0.7,1.7,0,6.4-4.1,8.5c-4.1,2.1,12.4,3.5,12.4,3.5L265,364.6z"/></g></g><g clip-path="url(#SVGID_10_)"><g><path fill="#9ECF7A" d="M193.4,422.8c1.6,0.8,4.3,4.7,2.7,9c-1.5,4.3,11.5-5.8,11.5-5.8L193.4,422.8z"/></g><g><path fill="#9ECF7A" d="M184.5,364.6c0.7,1.7,0,6.4-4.1,8.5c-4.1,2.1,12.4,3.5,12.4,3.5L184.5,364.6z"/></g><g><path fill="#9ECF7A" d="M243.7,394.7c1-1.6,5.1-3.8,9.2-1.9c4.1,2-4.7-12-4.7-12L243.7,394.7z"/></g><g><path fill="#9ECF7A" d="M201.9,376.5c2.7,1.3,7,7.7,4.5,14.7c-2.5,7,18.7-9.5,18.7-9.5L201.9,376.5z"/></g><g><path fill="#9ECF7A" d="M248.6,426.7c1.5-1,6.2-1.3,9.2,2.3c2.9,3.5,0.9-12.8,0.9-12.8L248.6,426.7z"/></g><g><path fill="#9ECF7A" d="M221.4,422.8c-0.3-1.8,1.3-6.2,5.8-7.5c4.4-1.2-11.4-6-11.4-6L221.4,422.8z"/></g><g><path fill="#77C043" d="M192.3,389.4c0.5,1.8-0.7,6.3-5,8c-4.3,1.7,11.9,4.8,11.9,4.8L192.3,389.4z"/></g><g><path fill="#A0CC40" d="M225.7,433.5c1.8,0.5,5.1,3.9,4.3,8.4c-0.7,4.5,10.2-7.8,10.2-7.8L225.7,433.5z"/></g><g><path fill="#77C263" d="M222.7,402.3c1.2-1.4,5.6-3.1,9.4-0.6c3.8,2.5-3-12.5-3-12.5L222.7,402.3z"/></g></g></g></g><g clip-path="url(#SVGID_4_)"><g><defs><rect id="SVGID_11_" width="80.5" height="80.5" x="101.1" y="203.5"/></defs><clipPath id="SVGID_12_"><use overflow="visible" xlink:href="#SVGID_11_"/></clipPath><g clip-path="url(#SVGID_12_)"><g><path fill="#9ECF7A" d="M184.5,203.5c0.7,1.7,0,6.4-4.1,8.5c-4.1,2.1,12.4,3.5,12.4,3.5L184.5,203.5z"/></g></g><g clip-path="url(#SVGID_12_)"><g><path fill="#9ECF7A" d="M112.9,261.8c1.6,0.8,4.3,4.7,2.7,9c-1.5,4.3,11.5-5.8,11.5-5.8L112.9,261.8z"/></g><g><path fill="#9ECF7A" d="M104,203.5c0.7,1.7,0,6.4-4.1,8.5c-4.1,2.1,12.4,3.5,12.4,3.5L104,203.5z"/></g><g><path fill="#9ECF7A" d="M163.2,233.7c1-1.6,5.1-3.8,9.2-1.9c4.1,2-4.7-12-4.7-12L163.2,233.7z"/></g><g><path fill="#9ECF7A" d="M121.3,215.5c2.7,1.3,7,7.7,4.5,14.7c-2.5,7,18.7-9.5,18.7-9.5L121.3,215.5z"/></g><g><path fill="#9ECF7A" d="M168.1,265.7c1.5-1,6.2-1.3,9.2,2.3c2.9,3.5,0.9-12.8,0.9-12.8L168.1,265.7z"/></g><g><path fill="#9ECF7A" d="M140.9,261.8c-0.3-1.8,1.3-6.2,5.8-7.5c4.4-1.2-11.4-6-11.4-6L140.9,261.8z"/></g><g><path fill="#77C043" d="M111.8,228.3c0.5,1.8-0.7,6.3-5,8c-4.3,1.7,11.9,4.8,11.9,4.8L111.8,228.3z"/></g><g><path fill="#A0CC40" d="M145.2,272.5c1.8,0.5,5.1,3.9,4.3,8.4c-0.7,4.5,10.2-7.8,10.2-7.8L145.2,272.5z"/></g><g><path fill="#77C263" d="M142.1,241.3c1.2-1.4,5.6-3.1,9.4-0.6c3.8,2.5-3-12.5-3-12.5L142.1,241.3z"/></g></g></g></g><g clip-path="url(#SVGID_4_)"><g><defs><rect id="SVGID_13_" width="80.5" height="80.5" x="101.1" y="284"/></defs><clipPath id="SVGID_14_"><use overflow="visible" xlink:href="#SVGID_13_"/></clipPath><g clip-path="url(#SVGID_14_)"><g><path fill="#9ECF7A" d="M184.5,284c0.7,1.7,0,6.4-4.1,8.5c-4.1,2.1,12.4,3.5,12.4,3.5L184.5,284z"/></g></g><g clip-path="url(#SVGID_14_)"><g><path fill="#9ECF7A" d="M112.9,342.3c1.6,0.8,4.3,4.7,2.7,9c-1.5,4.3,11.5-5.8,11.5-5.8L112.9,342.3z"/></g><g><path fill="#9ECF7A" d="M104,284c0.7,1.7,0,6.4-4.1,8.5c-4.1,2.1,12.4,3.5,12.4,3.5L104,284z"/></g><g><path fill="#9ECF7A" d="M163.2,314.2c1-1.6,5.1-3.8,9.2-1.9c4.1,2-4.7-12-4.7-12L163.2,314.2z"/></g><g><path fill="#9ECF7A" d="M121.3,296c2.7,1.3,7,7.7,4.5,14.7c-2.5,7,18.7-9.5,18.7-9.5L121.3,296z"/></g><g><path fill="#9ECF7A" d="M168.1,346.2c1.5-1,6.2-1.3,9.2,2.3c2.9,3.5,0.9-12.8,0.9-12.8L168.1,346.2z"/></g><g><path fill="#9ECF7A" d="M140.9,342.3c-0.3-1.8,1.3-6.2,5.8-7.5c4.4-1.2-11.4-6-11.4-6L140.9,342.3z"/></g><g><path fill="#77C043" d="M111.8,308.8c0.5,1.8-0.7,6.3-5,8c-4.3,1.7,11.9,4.8,11.9,4.8L111.8,308.8z"/></g><g><path fill="#A0CC40" d="M145.2,353c1.8,0.5,5.1,3.9,4.3,8.4c-0.7,4.5,10.2-7.8,10.2-7.8L145.2,353z"/></g><g><path fill="#77C263" d="M142.1,321.8c1.2-1.4,5.6-3.1,9.4-0.6c3.8,2.5-3-12.5-3-12.5L142.1,321.8z"/></g></g></g></g><g clip-path="url(#SVGID_4_)"><g><defs><rect id="SVGID_15_" width="80.5" height="80.5" x="101.1" y="364.6"/></defs><clipPath id="SVGID_16_"><use overflow="visible" xlink:href="#SVGID_15_"/></clipPath><g clip-path="url(#SVGID_16_)"><g><path fill="#9ECF7A" d="M184.5,364.6c0.7,1.7,0,6.4-4.1,8.5c-4.1,2.1,12.4,3.5,12.4,3.5L184.5,364.6z"/></g></g><g clip-path="url(#SVGID_16_)"><g><path fill="#9ECF7A" d="M112.9,422.8c1.6,0.8,4.3,4.7,2.7,9c-1.5,4.3,11.5-5.8,11.5-5.8L112.9,422.8z"/></g><g><path fill="#9ECF7A" d="M104,364.6c0.7,1.7,0,6.4-4.1,8.5c-4.1,2.1,12.4,3.5,12.4,3.5L104,364.6z"/></g><g><path fill="#9ECF7A" d="M163.2,394.7c1-1.6,5.1-3.8,9.2-1.9c4.1,2-4.7-12-4.7-12L163.2,394.7z"/></g><g><path fill="#9ECF7A" d="M121.3,376.5c2.7,1.3,7,7.7,4.5,14.7c-2.5,7,18.7-9.5,18.7-9.5L121.3,376.5z"/></g><g><path fill="#9ECF7A" d="M168.1,426.7c1.5-1,6.2-1.3,9.2,2.3c2.9,3.5,0.9-12.8,0.9-12.8L168.1,426.7z"/></g><g><path fill="#9ECF7A" d="M140.9,422.8c-0.3-1.8,1.3-6.2,5.8-7.5c4.4-1.2-11.4-6-11.4-6L140.9,422.8z"/></g><g><path fill="#77C043" d="M111.8,389.4c0.5,1.8-0.7,6.3-5,8c-4.3,1.7,11.9,4.8,11.9,4.8L111.8,389.4z"/></g><g><path fill="#A0CC40" d="M145.2,433.5c1.8,0.5,5.1,3.9,4.3,8.4c-0.7,4.5,10.2-7.8,10.2-7.8L145.2,433.5z"/></g><g><path fill="#77C263" d="M142.1,402.3c1.2-1.4,5.6-3.1,9.4-0.6c3.8,2.5-3-12.5-3-12.5L142.1,402.3z"/></g></g></g></g><g clip-path="url(#SVGID_4_)"><g><defs><rect id="SVGID_17_" width="80.5" height="80.5" x="20.6" y="203.5"/></defs><clipPath id="SVGID_18_"><use overflow="visible" xlink:href="#SVGID_17_"/></clipPath><g clip-path="url(#SVGID_18_)"><g><path fill="#9ECF7A" d="M104,203.5c0.7,1.7,0,6.4-4.1,8.5c-4.1,2.1,12.4,3.5,12.4,3.5L104,203.5z"/></g></g><g clip-path="url(#SVGID_18_)"><g><path fill="#9ECF7A" d="M32.4,261.8c1.6,0.8,4.3,4.7,2.7,9c-1.5,4.3,11.5-5.8,11.5-5.8L32.4,261.8z"/></g><g><path fill="#9ECF7A" d="M23.5,203.5c0.7,1.7,0,6.4-4.1,8.5c-4.1,2.1,12.4,3.5,12.4,3.5L23.5,203.5z"/></g><g><path fill="#9ECF7A" d="M82.6,233.7c1-1.6,5.1-3.8,9.2-1.9c4.1,2-4.7-12-4.7-12L82.6,233.7z"/></g><g><path fill="#9ECF7A" d="M40.8,215.5c2.7,1.3,7,7.7,4.5,14.7c-2.5,7,18.7-9.5,18.7-9.5L40.8,215.5z"/></g><g><path fill="#9ECF7A" d="M87.6,265.7c1.5-1,6.2-1.3,9.2,2.3c2.9,3.5,0.9-12.8,0.9-12.8L87.6,265.7z"/></g><g><path fill="#9ECF7A" d="M60.4,261.8c-0.3-1.8,1.3-6.2,5.8-7.5c4.4-1.2-11.4-6-11.4-6L60.4,261.8z"/></g><g><path fill="#77C043" d="M31.3,228.3c0.5,1.8-0.7,6.3-5,8c-4.3,1.7,11.9,4.8,11.9,4.8L31.3,228.3z"/></g><g><path fill="#A0CC40" d="M64.7,272.5c1.8,0.5,5.1,3.9,4.3,8.4c-0.7,4.5,10.2-7.8,10.2-7.8L64.7,272.5z"/></g><g><path fill="#77C263" d="M61.6,241.3c1.2-1.4,5.6-3.1,9.4-0.6c3.8,2.5-3-12.5-3-12.5L61.6,241.3z"/></g></g></g></g><g clip-path="url(#SVGID_4_)"><g><defs><rect id="SVGID_19_" width="80.5" height="80.5" x="20.6" y="284"/></defs><clipPath id="SVGID_20_"><use overflow="visible" xlink:href="#SVGID_19_"/></clipPath><g clip-path="url(#SVGID_20_)"><g><path fill="#9ECF7A" d="M104,284c0.7,1.7,0,6.4-4.1,8.5c-4.1,2.1,12.4,3.5,12.4,3.5L104,284z"/></g></g><g clip-path="url(#SVGID_20_)"><g><path fill="#9ECF7A" d="M32.4,342.3c1.6,0.8,4.3,4.7,2.7,9c-1.5,4.3,11.5-5.8,11.5-5.8L32.4,342.3z"/></g><g><path fill="#9ECF7A" d="M23.5,284c0.7,1.7,0,6.4-4.1,8.5c-4.1,2.1,12.4,3.5,12.4,3.5L23.5,284z"/></g><g><path fill="#9ECF7A" d="M82.6,314.2c1-1.6,5.1-3.8,9.2-1.9c4.1,2-4.7-12-4.7-12L82.6,314.2z"/></g><g><path fill="#9ECF7A" d="M40.8,296c2.7,1.3,7,7.7,4.5,14.7c-2.5,7,18.7-9.5,18.7-9.5L40.8,296z"/></g><g><path fill="#9ECF7A" d="M87.6,346.2c1.5-1,6.2-1.3,9.2,2.3c2.9,3.5,0.9-12.8,0.9-12.8L87.6,346.2z"/></g><g><path fill="#9ECF7A" d="M60.4,342.3c-0.3-1.8,1.3-6.2,5.8-7.5c4.4-1.2-11.4-6-11.4-6L60.4,342.3z"/></g><g><path fill="#77C043" d="M31.3,308.8c0.5,1.8-0.7,6.3-5,8c-4.3,1.7,11.9,4.8,11.9,4.8L31.3,308.8z"/></g><g><path fill="#A0CC40" d="M64.7,353c1.8,0.5,5.1,3.9,4.3,8.4c-0.7,4.5,10.2-7.8,10.2-7.8L64.7,353z"/></g><g><path fill="#77C263" d="M61.6,321.8c1.2-1.4,5.6-3.1,9.4-0.6c3.8,2.5-3-12.5-3-12.5L61.6,321.8z"/></g></g></g></g><g clip-path="url(#SVGID_4_)"><g><defs><rect id="SVGID_21_" width="80.5" height="80.5" x="20.6" y="364.6"/></defs><clipPath id="SVGID_22_"><use overflow="visible" xlink:href="#SVGID_21_"/></clipPath><g clip-path="url(#SVGID_22_)"><g><path fill="#9ECF7A" d="M104,364.6c0.7,1.7,0,6.4-4.1,8.5c-4.1,2.1,12.4,3.5,12.4,3.5L104,364.6z"/></g></g><g clip-path="url(#SVGID_22_)"><g><path fill="#9ECF7A" d="M32.4,422.8c1.6,0.8,4.3,4.7,2.7,9c-1.5,4.3,11.5-5.8,11.5-5.8L32.4,422.8z"/></g><g><path fill="#9ECF7A" d="M23.5,364.6c0.7,1.7,0,6.4-4.1,8.5c-4.1,2.1,12.4,3.5,12.4,3.5L23.5,364.6z"/></g><g><path fill="#9ECF7A" d="M82.6,394.7c1-1.6,5.1-3.8,9.2-1.9c4.1,2-4.7-12-4.7-12L82.6,394.7z"/></g><g><path fill="#9ECF7A" d="M40.8,376.5c2.7,1.3,7,7.7,4.5,14.7c-2.5,7,18.7-9.5,18.7-9.5L40.8,376.5z"/></g><g><path fill="#9ECF7A" d="M87.6,426.7c1.5-1,6.2-1.3,9.2,2.3c2.9,3.5,0.9-12.8,0.9-12.8L87.6,426.7z"/></g><g><path fill="#9ECF7A" d="M60.4,422.8c-0.3-1.8,1.3-6.2,5.8-7.5c4.4-1.2-11.4-6-11.4-6L60.4,422.8z"/></g><g><path fill="#77C043" d="M31.3,389.4c0.5,1.8-0.7,6.3-5,8c-4.3,1.7,11.9,4.8,11.9,4.8L31.3,389.4z"/></g><g><path fill="#A0CC40" d="M64.7,433.5c1.8,0.5,5.1,3.9,4.3,8.4c-0.7,4.5,10.2-7.8,10.2-7.8L64.7,433.5z"/></g><g><path fill="#77C263" d="M61.6,402.3c1.2-1.4,5.6-3.1,9.4-0.6c3.8,2.5-3-12.5-3-12.5L61.6,402.3z"/></g></g></g></g></g></g><g clip-path="url(#SVGID_2_)"><g><path fill="#FDFCEF" d="M256.8,347.5c-2-0.6-4-1.3-6-1.9c-0.7-0.2-1.3-0.4-2-0.6c-7.9-1.5-1.4-4.7-3.1-8.2 c0.2-1.1,0.3-2.3,0.4-3.4c0.6-5.7,0.9-11.2,1-16.4c0.4-16.1-3.2-31.1-9.8-44.9c-0.9-2-1.9-3.9-3-5.8c0.7-0.5,1.4-0.9,2.1-1.4 c0.7-0.4,1.4-0.9,2.1-1.3c5.4-3.1-3-3.4-5.6-2c-0.3,0.2-0.6,0.4-1,0.6c-4-9-13.7-12.2-17.6-22.7c-0.7-0.8-1.4-1.6-2.2-2.4 c-6.8-7.3-15-15.1-24-19.3c-1.1-0.5-2.2-1-3.3-1.4c-5.3-5.2-15,1.3-24.3-2.3c-0.9,0.2-1.9,0.6-2.8,1.2 c-10.6,6.9-29.5,5.7-41.8,9.1c-1,0.3-2,0.6-3,0.9c-1,0.4-1.9,0.8-2.8,1.2c-7.9,4-14.3,10.5-21.3,18.1c-0.8,1-1.6,2.1-2.4,3.1 c-11.2,15.2-17.8,30.4-20.8,47.5c-0.2,1.2-0.4,2.5-0.6,3.7c-1.5,5.7-1.5,12.1-1.4,19.6c0,1.1,0,2.1,0,3.2c0,1.2,0.1,2.3,0.1,3.5 c0.7,12.7,3.9,25.3,9.1,37c0.5,1.1,1,2.1,1.5,3.1c2.1,3.7,5.3,6.9,8.5,10.1c0,6.4-9.7,0-9.7,6.4c6.4,0,12.9-3.2,16.1,6.9 c0.7,0.9,1.5,1.7,2.2,2.6c6.1,6.8,13,12.8,20.7,17.8c1,0.7,2.1,1.3,3.2,1.9c9.3,3,19,9.5,27.8,10.7c1.2,0.2,2.5,0.5,3.7,0.7 c3.8,0.6,7.6,0.9,11.6,0.9c10.4,0.1,21.2-3,31.4-7.9c1.1-0.5,2.3-1.1,3.3-1.8c2.4-2.8,2.4-6,5.7-6c6.4,0,0,9.7,7.2,10.8 c0.5,0.7,1.5,1,2.6,1.1c2.2,0.1,5-1,6-2.5c0.5-0.7,0.6-1.6,0-2.4c-6.2-0.5-3-10.2-9.4-10.2c3.2-3.2,6.4-6.4,11.5-6.9 c0.7-0.6,1.4-1.3,2.1-1.9c2.1-1.9,4.1-3.9,5.9-5.8c7.7-8.2,12.8-19.1,16.2-30.7c0.3-1.1,0.6-2.1,0.9-3.2 c5.2,0.3-1.2-9.3,4.3-5.6c0.9,0.3,1.9,0.6,2.8,0.9C251.4,352,259.8,348.5,256.8,347.5z M229.6,328.2c-3,7.5-7.9,6.6-13.3,5.4 c-1.1-0.2-2.2-0.5-3.3-0.7c-10.6,0.9-20.3-8.7-32-5.4c-1.2,0-2.5-0.1-3.7-0.2c-7.2-0.6-13-3.6-7.3-13.9c0.8-0.6,1.6-1.2,2.3-1.7 c1.5-1,2.8-1.8,3.7-2.4c0.7-0.6,1.4-1.1,2.1-1.7c0.5-0.4,1.1-0.9,1.6-1.3c9.7-8.1,25.8-11.3,31.7-22.6c1.1-0.6,2.1-1.1,3.2-1.5 c5.4-2.1,10.9-1.7,12.2,6.2c0.3,1.1,0.6,2.1,0.9,3.2c2.6,9.9,3.4,20.3,3.1,30.7c0,1-0.1,2.1-0.3,3.1 C230.4,326.4,230,327.4,229.6,328.2z M214.1,269.6c1.1,3.1,1.1,3.1,0.6,5.1c-0.3,0.8-0.9,1.5-1.5,2.1c-1,1-2.4,1.9-3.8,2.7 c-0.7,0.4-1.4,0.8-2.1,1.1c-5,11.5-24.3,11.5-31.5,22.8c-0.9,0.7-1.7,1.3-2.6,2c-3.1,2.8-9.5,9.2-12.7,6c0-3.2-3.2-9.7,1.7-11.4 c0.2-1,0.3-2,0.5-3c0.1-1,0.3-1.9,0.4-2.9c0.1-1,0.3-1.9,0.4-2.9c3.1-11,0.7-22.8,4.9-35.5c0.4-1.2,0.8-2.3,1.3-3.5 c0.1-1.1,0.2-2,0.3-2.9c-3.1-8.7,6.6-8.7,8.6-14.7c1-0.5,2.1-0.9,3.3-1.1c1.2-0.2,2.6-0.1,4.2,0.2c1.1,0.3,2.2,0.7,3.3,1.3 c0.9,0.5,1.8,1.1,2.6,1.8c10.4,6.9,16.8,16.6,20.4,29.5c0.4,0.7,0.7,1.4,0.8,2.1C213.5,268.8,213.8,269.2,214.1,269.6z M159.9,237.2c0.6,3.3,7,6.5,3.6,13.5c-0.3,1-0.8,2-1.6,3.2c-0.3,0.8-0.6,1.6-1,2.4c-0.4,0.7-0.9,1.4-1.4,2 c-0.3,0.9-0.5,1.8-0.7,2.7c-1.5,6.5-1.7,13.6-2.6,19.6c-0.2,1.1-0.3,2.2-0.5,3.3c-0.7,4.4-1.3,8.8-2,13.2 c-0.2,1-0.3,2.1-0.5,3.1c0.9,8,0.9,11.2-4,6.3c-0.9-0.8-1.8-1.7-2.3-2.6c-0.5-0.9-0.7-1.8-0.1-2.8c-0.5-1-1.1-2.1-1.6-3.1 c-3.2-6.2-6.6-12.3-10.1-18.4c-0.6-1-1.2-2-1.7-3c-11.5-7.1-30.8-36.1-1.3-39.3c0.8-0.1,1.6-0.2,2.3-0.3c1-0.1,2.1-0.2,3.1-0.4 c1.1-0.4,2.2-0.8,3.4-1.2c1.2-0.4,2.4-0.8,3.7-1.1c3,2.9,9.4-3.5,13.4,2.1C158.6,236.9,159.2,237.2,159.9,237.2z M108.7,255.5 c0.6,0.7,1,1.5,1.5,2.3c1.9,8.4,8.4,14.9,14,20.9c0.6,0.9,1.3,1.9,1.9,2.8c0.6,0.9,1.2,1.9,1.8,2.9c3.4,5.4,5.9,10.5,8.2,15.4 c0.5,1,0.9,2,1.3,2.9c0.3,1.1,0.4,2.4,0.9,3.9c0.2,0.7,0.6,1.5,1,2.3c0.5,0.6,0.8,1.2,1.1,1.9c0.3,0.7,0.4,1.4,0.6,2.2 c0.1,0.8,0.2,1.9,0.2,2.9c0,1,0,1.8,0.1,1.8c-1.7,0-2.5,0-3.4,0c-0.9,0-2,0-4.2-0.1c-1.1-0.2-2.2-0.4-3.3-0.5 c-2.2-0.3-4.4-0.3-6.3,0.4c-0.9-0.1-1.9-0.2-3-0.3c-1.1-0.1-2.2-0.2-3.4-0.3c-0.8-0.1-1.6-0.2-2.4-0.2c-0.8-0.1-1.6-0.2-2.4-0.2 c-1-0.1-1.9-0.2-2.9-0.3c-7.4-1.6-13.9,1.6-20.8-4c-0.8-0.4-1.5-0.7-2.3-1.2c-2.1-1.2-3.8-2.8-3.9-5.8c-0.4-1-0.7-2-0.9-3.2 c-0.4-2.2-0.5-4.8-0.2-7.6c0.2-1.2,0.5-2.3,0.7-3.5c2.6-10.4,7.5-20.4,13.8-29.3c0.7-1,1.4-2,2.2-2.8c0.7-2.2,3.9-2.2,6.5-2.6 C106.3,256,107.5,255.7,108.7,255.5z M87.8,320.5c1,0.1,2.1,0.1,3.1,0.1c1.1,0,2.1,0.1,3.2,0.1c6.6,0.2,13.8,0.5,20.8,1.4 c1,0.1,2.1,0.2,3.1,0.3c1.2,0.1,2.3,0.2,3.5,0.3c1.2,0.1,2.3,0.2,3.5,0.3c1.1,0.2,2.1,0.3,3.2,0.3c1.1,0,2.1-0.1,3.2-0.2 c0.5,0.2,1.3,0.2,2.3,0.2c0.9,0,2.1,0,3.2,0c1,0.2,2,0.3,2.9,0.4c7.7,0.3,1.2,3.6,5,5.7c-0.3,0.8-0.8,1.5-1.4,2.1 c-1.7,1.8-4.3,3.1-6.3,3.9c-0.8,0.4-1.6,0.6-2.3,0.3c-0.8,0.6-1.6,1.2-2.4,1.8c-7.1,5.5-14.3,10.8-21.7,16 c-0.7,0.5-1.4,1-2.1,1.5c-3,1.1-6.2,7.6-13.5,3.8c-0.8-0.3-1.7-0.6-2.6-1c-0.9-0.4-1.9-0.9-2.9-1.4c-6.4-6.7-12.9-26.1-3-33.5 C87,322.3,87.5,321.5,87.8,320.5z M98.7,370c3.8-3.9,10.2-7.1,14.4-11.4c0.8-0.6,1.5-1.1,2.3-1.7c6.9-5.1,13.8-10.1,20.8-15.1 c0.9-0.6,1.8-1.3,2.7-1.9c1.7-2.1,4-2.6,6.3-2.8c0.8,0,1.6,0,2.4,0c-3.2,3.2-3.2,6.4-4.3,10.2c-0.3,1.1-0.6,2.2-0.8,3.4 c-1,4-2,8.1-3,12.1c-0.2,1-0.5,2-0.7,3c-0.8,3.5-0.8,6.7-2.1,9.1c-0.2,1-0.4,2-0.6,3c-0.2,1-0.4,2-0.6,3.1 c-3.9,4.3,5.8,14-7.3,13.9c-0.9,0-1.7,0-2.6-0.1c-1.7-0.1-3.4-0.1-4.9-0.3c-1-0.5-1.9-1.1-2.8-1.8c-0.8-0.6-1.6-1.2-2.4-1.8 c-0.8-0.6-1.6-1.3-2.4-1.9c-4.1-7-13.8-7-14.2-15.3C98.7,372.6,98.7,371.3,98.7,370z M141.5,402.8c-0.4-4.5-0.4-10.9,1.1-14.1 c0.2-1.1,0.4-2.1,0.6-3.2c2.1-9.5,5.6-18.1,7.8-27.2c0.1-1,0.2-2,0.2-3.1c0.2-5.4-0.1-11.7,5.9-11.7c9.7,3.2,6.4,16.1,11.3,21.4 c0.4,0.6,0.8,1.3,1.2,1.9c1.2,1.9,2.4,3.8,3.7,5.7c0.7,1,1.4,2.1,2.1,3.1c4.3,9.7,17.2,19.4,5,26.2c-1,0.5-2.2,1-3.3,1.3 c-2.4,0.8-4.9,1.5-7.4,2.1c-0.8,0.2-1.7,0.4-2.5,0.5c-6.9,2.2-16.5,5.4-23-0.5C143.3,404.5,142.4,403.7,141.5,402.8z M206.5,385.6c-10.7,9.5-17.1-3.4-21-12.1c-0.7-1-1.3-2.1-2-3.1c-2.5-3.8-4.9-7.6-7.2-11.4c-0.5-0.8-0.9-1.5-1.4-2.3 c-4.8-6.6-4.8-16.3-10-23.4c-0.3-0.9-0.6-1.7-1-2.6c-0.2-1.1-0.2-2.1-0.2-3.2c4.8,1.6,8.9,3.2,13,4.4c1,0.3,2.1,0.6,3.2,0.8 c9.6-1.9,19.2,7.7,29.6,7.4c1.2,0.1,2.3,0.2,3.4,0.4c8.8,1.6,14.4,6,11.4,17.8c-0.4,1-0.8,2.1-1.2,3.1 c-3.4,8.3-8.2,16-14.4,22.2C208,384.3,207.2,384.9,206.5,385.6z"/></g></g></g><g><g><path fill="#EE312E" d="M214,232.5c26.5,7.5,14.7-69.8,14.7-69.8s38.8,55.2,32.8,94c-2.1,13.3-7.3,14.9-13.6,11.3"/></g><g><path fill="#3D2D30" d="M214,232.5c1.7,0.2,3.3,0.2,4.8-0.3c1.5-0.5,2.7-1.3,3.7-2.4c1.9-2.2,2.8-5.2,3.5-8.3 c0.7-3.1,0.6-6.3,1.2-9.4c0.5-3.2,0.7-6.4,0.8-9.7c0.2-6.5,0-13.1-0.4-19.6c-0.5-6.6-1.1-13.2-2.1-19.6l-2-13.7l7.8,11.3 c3,4.4,5.7,8.8,8.4,13.3c2.7,4.5,5.2,9.1,7.6,13.7c4.8,9.3,9,18.9,12.3,28.9c1.6,5,3,10.1,4,15.3c1,5.2,1.6,10.6,1.6,16 c-0.1,2.7,0.1,5.5-0.7,8.1c-0.3,1.5-0.7,2.5-1.1,3.9c-0.5,1.4-1,2.7-1.6,3.9c-1.2,2.5-3.1,5.2-6.2,6.2c-1.5,0.5-3.1,0.3-4.4-0.3 c-1.3-0.5-2.4-1.3-3.4-2c2.4,1,5.2,1.4,6.9,0.2c1.7-1.1,2.5-3.4,3-5.6c0.3-1.2,0.4-2.3,0.5-3.5c0.1-1.1,0.2-2.7,0.2-3.7 c-0.1-2.4,0.4-4.8,0.3-7.3c0-4.9-0.6-9.8-1.5-14.7c-1-4.9-2.3-9.8-3.8-14.6c-3.2-9.6-7.3-18.9-11.9-28c-2.3-4.5-4.8-9-7.4-13.4 c-2.6-4.4-5.3-8.7-8.1-12.8l5.8-2.3c1,6.7,1.6,13.4,2.1,20.1c0.5,6.7,0.7,13.5,0.5,20.3c-0.1,3.4-0.4,6.8-0.8,10.3 c-0.1,1.7-0.5,3.4-1.1,5.1c-0.5,1.7-1.1,3.4-1.8,5c-1.4,3.2-3.3,6.6-6.5,8.8c-1.5,1.1-3.4,1.8-5.2,1.8 C217.3,233.6,215.5,233.1,214,232.5z"/></g></g><g><g><path fill="#3D2D30" d="M89.9,282.5c14.6,16,37,8.5,52.6,21.5c2.3,2,10.9-1.6,8.7-3.5c-15.7-13.1-38.3-5.8-52.6-21.5 C96.6,276.8,87.7,280.2,89.9,282.5L89.9,282.5z"/></g></g><g><g><path fill="#3D2D30" d="M161.3,297.8c7.4,1.9,12.8,0.5,15.9-6.8c1.6-3.8,5-6.7,6.6-10.6c4.3-10.1,18-5.1,22.1,2.4 c1.9,3.5,10.8,0.2,8.6-4c-6.3-11.7-21.4-12.6-32.4-7.3c-4.1,1.9-6.1,5.5-7.8,9.4c-1,2.5-2.9,4-4.3,6.2c-0.7,0.9-1.3,1.9-1.7,3 c-1.3,2.6-0.4,2-1.6,1.6C162.9,290.7,155.7,296.3,161.3,297.8L161.3,297.8z"/></g></g><g><path fill="#3D2D30" d="M124.3,303.3c-2.1,3.2-4.3,15,3.2,12.9c6.4-1.1,7.5-17.2-2.1-12.9"/></g><g><path fill="#3D2D30" d="M174.7,296.9c-2.1,4.3,1.1,19.3,9.7,14c9.7-5.4-1.1-21.5-8.6-20.4"/></g><g><path fill="#3D2D30" d="M192.3,346.3c0,0-0.9,4.7-1.8,9.4c-0.6,2.4-1,4.7-1.6,6.5c-0.6,1.7-0.9,2.8-0.9,2.8s-0.2-1.2-0.6-2.9 c-0.3-1.7-1.1-4-1.7-6.2c-1.5-4.5-3-9.1-3-9.1L192.3,346.3z"/></g><g><path fill="none" d="M130.1,363.8"/></g><g><path fill="none" d="M130.6,345.3"/></g><g><g><path fill="#3D2D30" d="M119,351.3c6.5-10.4,26.7,0.8,36,2.8c7.6,1.6,15.3,0.5,22.7-1.3c18.5-4.3,31.2-17.5,40.6-33.3 c1-1.6-7.8-1-9.2,1.5c-7.9,13.2-17.1,23.7-32.3,28.3c-13.7,4.2-26-3.7-39-5.7c-11.9-1.9-21.1-1.7-28,9.2 C108.7,354.3,117.4,353.7,119,351.3L119,351.3z"/></g></g><g><path fill="#36221A" d="M149.1,418.4c-41.5,0-75.7-41.2-81.3-98.1c0-56.4,45.5-98.4,86.2-98.4c17.2,0,41.6,4.1,60.2,23.4 c18.8,19.6,27.5,50.5,25.9,91.8C238,390.5,192.7,418.4,149.1,418.4z M154.1,225.2c-38.4,0-83,41.5-83,95c5.4,55,38.2,95,78.1,95 c42.1,0,85.7-26.8,87.8-78.2c1.6-40.4-6.8-70.5-25-89.4C194.1,229.1,170.6,225.2,154.1,225.2z"/></g></g></svg>