<?xml version="1.0" encoding="utf-8"?>
<!-- Generator: Adobe Illustrator 18.1.1, SVG Export Plug-In . SVG Version: 6.00 Build 0)  -->
<!DOCTYPE svg PUBLIC "-//W3C//DTD SVG 1.1//EN" "http://www.w3.org/Graphics/SVG/1.1/DTD/svg11.dtd">
<svg version="1.1" id="Layer_1" xmlns="http://www.w3.org/2000/svg" xmlns:xlink="http://www.w3.org/1999/xlink" x="0px" y="0px"
	 viewBox="0 0 400 600" enable-background="new 0 0 400 600" xml:space="preserve">
<g>
	<g>
		<g>
			<defs>
				<path id="SVGID_1_" d="M314.7,370.9c0,0-1.7-79.5-4.1-104.9c-2.9-30.8-23.6-119.9-23.6-119.9l-50.7,13.9
					c0,0,5.1,69.2,18.8,124.2c9.7,39,30.4,66.5,27.5,86.5c-2.5,17.4-18.3,50.8-31.5,81.8c-9.5,22.3-16.2,43.4-22.4,56.6
					c-9,4.3-16.6,13.5-22.5,19.9c-6,7.8-19.2,17-19,28c12.1-4.7,22.1-7.7,33.1-16.6c-4.3,10.6-13.3,26-7.9,37.3
					c17-1.4,26.9-9.4,33.8-22.7c-2.3,9.4-1.4,20.6,1.9,28.6c14.6-10,21.6-14.2,25.8-34.4c1.7-10.6,12.8-65.5,19.2-87.4
					c9-30.6,14.1-60.2,14.1-60.2s7.6-9,9.4-12.8C318.6,384.4,314.7,370.9,314.7,370.9z"/>
			</defs>
			<clipPath id="SVGID_2_">
				<use xlink:href="#SVGID_1_"  overflow="visible"/>
			</clipPath>
			<g clip-path="url(#SVGID_2_)">
				<g>
					<path fill="#FEF6FA" d="M314.7,370.9c0,0-1.7-79.5-4.1-104.9c-2.9-30.8-23.6-119.9-23.6-119.9l-50.7,13.9
						c0,0,5.1,69.2,18.8,124.2c9.7,39,30.4,66.5,27.5,86.5c-2.5,17.4-18.3,50.8-31.5,81.8c-9.5,22.3-16.2,43.4-22.4,56.6
						c-9,4.3-16.6,13.5-22.5,19.9c-6,7.8-19.2,17-19,28c12.1-4.7,22.1-7.7,33.1-16.6c-4.3,10.6-13.3,26-7.9,37.3
						c17-1.4,26.9-9.4,33.8-22.7c-2.3,9.4-1.4,20.6,1.9,28.6c14.6-10,21.6-14.2,25.8-34.4c1.7-10.6,12.8-65.5,19.2-87.4
						c9-30.6,14.1-60.2,14.1-60.2s7.6-9,9.4-12.8C318.6,384.4,314.7,370.9,314.7,370.9z"/>
				</g>
			</g>
			<g clip-path="url(#SVGID_2_)">
				<polygon fill="#9A90C5" points="192.7,528.8 287.5,565.7 252.2,598.6 191.5,583.7 178,549.9 				"/>
			</g>
		</g>
		<g>
			<g>
				<g>
					<path fill="#343434" d="M316.8,370.8c-0.8-36.7-0.1-74.2-4.7-110.7c-4.8-38.5-14.2-76.7-23-114.5c-0.2-1-1.7-1.1-2.5-0.8
						c-16.9,4.6-33.8,9.3-50.7,13.9c-1,0.3-1.8,0.9-1.7,2c1.7,23.6,4.7,47.2,8.3,70.6c3,19.7,6.6,39.4,11.8,58.6
						c5,18.2,13.1,35.2,20.1,52.6c5.5,13.8,7.6,25.3,3.4,39.6C272,402,262.7,421,254.5,440c-8.6,19.8-15.9,40.1-23.9,60.2
						c-1.2,3-2.2,7.4-5.1,9.1c-3.3,2-6.4,4.3-9.3,7c-6.4,6-11.8,12.8-17.9,19.1c-6,6.2-12.7,12.8-13.2,21.9c-0.1,1.6,2.1,1.4,3.1,1
						c12-4.6,23.4-8.9,33.6-16.9c-1.1-0.4-2.3-0.8-3.4-1.1c-4.8,11.7-13.2,25.2-8,38.1c0.3,0.8,1.1,1,1.9,0.9
						c16.3-1.6,28.2-9.6,36-24c-1.4,0-2.8,0-4.2,0c-2.1,9.7-1.5,19.6,1.9,29c0.5,1.4,2.6,1,3.5,0.4c7.5-5.1,14.9-10,20-17.7
						c4.8-7.2,6.1-16.2,7.7-24.5c4-21.3,8.5-42.5,13.5-63.6c5.8-24.2,13-48,17.6-72.5c1.2-6.3,4.7-8.8,8.9-15.2
						c3.9-5.9,1.2-14.5-0.6-20.8c-0.5-1.9-4.8-0.8-4.2,1.1c2.4,8.4,3.8,15.3-1.7,22.6c-3.6,4.9-5.7,6.7-6.7,12.5
						c-4.4,23.4-11.2,46.2-16.9,69.3c-5,20.1-9.1,40.3-13.1,60.6c-1.6,8.2-2.7,16.4-5.7,24.2c-4,10.3-13.1,16.1-21.7,22
						c1.2,0.1,2.3,0.2,3.5,0.4c-3.4-9.1-3.9-18.7-1.9-28.2c0.4-2.1-3.5-1.2-4.2,0c-6.9,12.8-17,20-31.6,21.4
						c0.6,0.3,1.3,0.6,1.9,0.9c-4.9-12.4,3.2-25.3,7.8-36.5c0.8-2-2.4-1.9-3.4-1.1c-9.9,7.8-21,11.9-32.6,16.4c1,0.3,2,0.7,3.1,1
						c0.5-9.1,7.8-15.6,13.8-21.8c6.6-6.8,12.3-14.2,19.6-20.3c2.1-1.7,6.9-3.1,8-5.4c1.6-3.5,3.1-7.1,4.6-10.8
						c4-10,7.6-20.1,11.4-30.1c8.1-20.9,17.6-41.1,26.1-61.8c5.2-12.5,13-28,12.1-42c-1-14.8-8.5-28.9-14.2-42.4
						c-7.9-18.6-13.6-37.5-17.7-57.2c-6.8-32.2-11-65-13.9-97.7c-0.2-2.7-0.5-5.4-0.7-8c-0.6,0.7-1.2,1.3-1.7,2
						c16.9-4.6,33.8-9.3,50.7-13.9c-0.8-0.3-1.7-0.6-2.5-0.8c8.6,37,17.4,74.4,22.7,112.1c3,21.2,3,42.9,3.7,64.3
						c0.5,16,1,32,1.3,48C312.6,373.3,316.9,372.6,316.8,370.8z"/>
				</g>
			</g>
		</g>
	</g>
	<g>
		<g>
			<defs>
				<path id="SVGID_3_" d="M192.7,528.8c5.7-14.8,17.4-46.6,24.8-74.7c7.4-28.1,10.3-52.5,10.3-52.5s7.6-9,9.4-12.8
					c2.1-4.4-1.9-17.9-1.9-17.9s-0.2-79.5-2.6-104.9c-2.9-30.8-19.2-119.9-19.2-119.9l-50.7,13.9c0,0,5.1,69.2,18.8,124.2
					c9.7,39,30.4,66.5,27.5,86.5c-2.6,18-17.5,46.7-29.4,72c-11.9,25.3-20.8,47.2-23.2,51.6c-3.1,0.8-6.2,2.4-9.2,5.2l-29.4,11.2
					c-7.5,6.3-15.3,14.9-20.9,22.9c8.6,1.9,23.8-6.3,31.1-11.2c-7.3,4.9-16,8.9-18,18.2c11,5.9,30.8,1.3,39.5-7.8
					c-5.6,8.8-13.6,29.1,2.8,17.4C161.1,544.9,189.8,538.7,192.7,528.8z"/>
			</defs>
			<clipPath id="SVGID_4_">
				<use xlink:href="#SVGID_3_"  overflow="visible"/>
			</clipPath>
			<g clip-path="url(#SVGID_4_)">
				<g>
					<path fill="#FEF6FA" d="M192.7,528.8c5.7-14.8,17.4-46.6,24.8-74.7c7.4-28.1,10.3-52.5,10.3-52.5s7.6-9,9.4-12.8
						c2.1-4.4-1.9-17.9-1.9-17.9s-0.2-79.5-2.6-104.9c-2.9-30.8-19.2-119.9-19.2-119.9l-50.7,13.9c0,0,5.1,69.2,18.8,124.2
						c9.7,39,30.4,66.5,27.5,86.5c-2.6,18-17.5,46.7-29.4,72c-11.9,25.3-20.8,47.2-23.2,51.6c-3.1,0.8-6.2,2.4-9.2,5.2l-29.4,11.2
						c-7.5,6.3-15.3,14.9-20.9,22.9c8.6,1.9,23.8-6.3,31.1-11.2c-7.3,4.9-16,8.9-18,18.2c11,5.9,30.8,1.3,39.5-7.8
						c-5.6,8.8-13.6,29.1,2.8,17.4C161.1,544.9,189.8,538.7,192.7,528.8z"/>
				</g>
			</g>
			<g clip-path="url(#SVGID_4_)">
				<path fill="#9A90C5" d="M86.7,496.3c0,0,101.9,47.8,90.4,65.3C165.6,579.1,54.5,537.2,86.7,496.3z"/>
			</g>
		</g>
		<g>
			<g>
				<g>
					<g>
						<path fill="#343434" d="M194.7,528.9c13.8-35.7,25.7-72.1,32.5-109.8c1-5.5,1.9-10.9,2.6-16.4c0.3-2.1,4.3-6.1,6.5-9.1
							c6.2-8.4,1.2-15.1,1.2-23.7c-0.2-44.8,0.2-89.7-6.5-134.1c-4.5-30.1-9.8-60.2-15.3-90.2c-0.2-1-1.8-0.9-2.5-0.7
							c-16.9,4.6-33.8,9.3-50.7,13.9c-0.9,0.2-1.9,0.8-1.8,1.8c1.7,23.6,4.7,47.2,8.3,70.6c3,19.7,6.6,39.4,11.8,58.6
							c4.9,18.2,13.1,35.2,20.1,52.6c2.5,6.2,4.7,12.6,5.8,19.2c1.3,7.4-0.7,14.6-2.9,21.7c-6.2,19.8-16.3,38.4-25.2,57.1
							c-7.9,16.5-15,33.4-22.5,50.1c-0.8,1.7-1,2.7-2.6,3.4c-2.6,1.1-5,3.7-7.4,4.6c-3.8,1.4-7.5,2.9-11.3,4.3
							c-5.9,2.3-11.8,4.5-17.7,6.8c-3.3,1.2-6.3,5.3-8.7,7.7c-5.1,5-9.5,10.5-13.6,16.3c-0.6,0.9,0.5,1.4,1.2,1.5
							c11.6,1.8,24-5.7,33.2-11.8c2.4-1.6-1.2-2.6-2.7-1.6c-7.9,5.2-16.1,9.5-18.8,19.2c-0.1,0.4,0.2,0.8,0.5,0.9
							c13.6,6.6,32.4,1.8,42.9-8.5c-1.2-0.2-2.5-0.4-3.7-0.6c-3.4,5.5-7.5,12.7-7.1,19.4c0.4,6,9.2,1.4,11.5,0.1
							c8.3-5,17.9-7.5,26.9-11.3c6-2.5,13.6-5.9,16-12.4c0.6-1.7-3.7-1.2-4.3,0.4c-2.1,5.7-10,8.4-15.1,10.5
							c-6.1,2.6-12.5,4.6-18.6,7.1c-2,0.8-4,1.8-5.9,2.9c-3.2,1.8-6.8,4.6-6.1-0.9c0.7-5.4,3.8-10.9,6.7-15.5
							c1.2-1.9-2.9-1.4-3.7-0.6c-7.5,7.3-18.5,10.3-28.7,9.4c-15.5-1.4,6-15.6,10.4-18.5c-0.9-0.5-1.8-1.1-2.7-1.6
							c-8,5.2-19,12.2-28.9,10.6c0.4,0.5,0.8,1,1.2,1.5c3.4-4.9,7.2-9.4,11.3-13.7c2.2-2.4,5.8-7.3,8.8-8.4
							c4.1-1.6,8.2-3.1,12.4-4.7c4.7-1.8,9.4-3.6,14.1-5.4c0.9-0.3,1.7-0.7,2.6-1c1.5-0.6,6.7-4.5,5.5-3.8c1-0.5,3.5-0.9,4.6-1.9
							c2.7-2.8,4.1-8.7,5.6-12.1c4-9.1,7.9-18.1,12-27.1c8.8-19.4,18.6-38.4,26.9-58.1c5.3-12.8,10.6-26.1,7.8-40
							c-3.2-15.8-11.6-30.7-17.5-45.6c-14.3-36-19.5-75.7-24.2-113.9c-1.6-12.8-2.9-25.7-3.9-38.5c-0.6,0.6-1.2,1.2-1.8,1.8
							c16.9-4.6,33.8-9.3,50.7-13.9c-0.8-0.2-1.6-0.5-2.5-0.7c3.3,18.1,6.5,36.2,9.6,54.3c4.1,24.2,8.7,48.6,10.3,73.2
							c1.6,26.6,1.7,53.3,1.9,79.9c0,5.1-1.3,12.4,0.1,17.4c1.4,4.9,2.6,10.2,2.4,15.4c-0.3,5-6.4,10.6-9.5,14.3
							c-2.3,2.8-1.9,11.1-2.5,14.5c-2.3,13.8-5.3,27.5-8.9,41.1c-6.5,24.4-14.9,48.4-24,71.9C189.8,530.8,194.1,530.4,194.7,528.9z"
							/>
					</g>
				</g>
			</g>
		</g>
	</g>
	<g>
		<g>
			<path fill="#9BCC59" d="M311.6,162.9c11.7,0.7,22.7-18.3,25.6-27.1c2.9,15.4,7.3,36.6,2.2,52.6c-5.1,16.8-27.8,28.5-43.1,33.6
				c-33.6,11-67.3,13.9-102.4,5.1c-31.4-8.8-34.4-39.5-37.3-66.5c-2.2-13.9-3.7-28.5-3.7-42.4V95.6c2.2-35.1,43.9-68.7,76-71.7
				c0,9.5-12.4,24.1-20.5,29.2c11-15.4,46.8-24.9,63.6-11.7C289.7,55.4,253.9,59,245.1,59c15.4,8,32.9,6.6,48.3,16.8
				c11,8,24.9,21.9,22.7,36.6c-9.5,0-16.8-14.6-24.1-20.5c8,11.7,23.4,31.4,22.7,46.8c-8,2.2-19.7-16.8-22.7-24.1
				c4.4,14.6,16.8,26.3,19,40.9L311.6,162.9z"/>
		</g>
		<g>
			<g>
				<path fill="#343434" d="M311.4,164.4c14-0.1,23.7-16.8,27.8-28.4c-1.4,0.1-2.8,0.2-4.2,0.3c3.6,18.6,9.6,42.6-1.6,59.6
					c-10.3,15.6-31.2,23-48.3,27.8c-23.2,6.5-47.4,8.5-71.4,5.5c-20-2.5-37.6-8.2-46.5-27.5c-6.5-13.9-6.7-29.5-9-44.3
					c-2.5-16.4-3.2-32.8-3.2-49.3c0-13.1,0.9-24.2,7.2-36.2c8.8-16.6,24.3-29.8,40.7-38.4c8-4.2,16.8-7.1,25.8-8.1
					c-0.7-0.5-1.3-1-2-1.4c-0.7,11.1-10.9,22.1-19.7,28.1c1.1,0.6,2.1,1.1,3.2,1.7c12-15.8,41.8-22.9,58.9-12.1
					c2.7,1.7,7.3,5.5,4.7,9c-2,2.6-6.6,3.5-9.6,4.3c-6.2,1.6-12.7,2.3-19.1,2.4c-1.7,0-3.4,2.1-1.4,3.1c14.6,7.2,31.4,7.3,45.6,15.2
					c12.4,6.9,25.8,21.9,24.3,36.8c1-0.6,1.9-1.2,2.9-1.7c-10.2-0.9-16.1-14-23.2-20.1c-1.3-1.1-4.8,0.4-3.6,2.2
					c9.3,13.4,22.6,28.8,22.5,46c0.8-0.6,1.6-1.2,2.3-1.7c-9,1.4-17.9-16.4-20.7-23.1c-0.8-1.9-4.9-0.9-4.2,1.1
					c3.2,9.7,9,17.9,13.9,26.8c3.8,7,5.1,13.8,5.8,21.5c0.2,2,4.4,1,4.2-1.1c-0.7-7.1-1.8-13.3-5-19.8c-4.6-9.7-11.4-18.1-14.8-28.4
					c-1.4,0.4-2.8,0.8-4.2,1.1c3.6,8.5,13,27,24.6,25.2c0.9-0.1,2.3-0.6,2.3-1.7c0.1-17.9-13.2-33.7-22.9-47.6
					c-1.2,0.7-2.4,1.5-3.6,2.2c7.9,6.8,13.5,19.8,25,20.8c1.1,0.1,2.7-0.4,2.9-1.7c1.5-15.4-10.3-27.6-21.6-36.5
					c-14.4-11.3-34.3-10.4-50.3-18.2c-0.5,1-0.9,2-1.4,3.1c8.6-0.1,45.9-4.2,30.1-19.4c-8.9-8.5-24.1-8.7-35.4-6.5
					c-12.2,2.4-25.1,7.6-32.9,17.8c-1.6,2.1,1.9,2.6,3.2,1.7c9.5-6.4,20.5-18.4,21.2-30.4c0.1-1.1-1.1-1.5-2-1.4
					C198.9,25.6,169.7,48,156.4,75c-5.4,10.9-5.6,21.7-5.6,33.5c0,15,0.6,29.9,2.5,44.9c3.6,28,4.8,62.1,35.4,74
					c18.9,7.4,42.2,7.5,62.1,5.8c19.2-1.6,39-6.1,56.6-13.9c13.4-5.9,27.5-15,33.4-28.9c7.1-16.8,1.7-38.1-1.5-55.2
					c-0.3-1.8-3.7-1-4.2,0.3c-3.4,9.6-11.6,25.6-23.4,25.7C309.3,161.3,308.6,164.5,311.4,164.4z"/>
			</g>
		</g>
	</g>
	<g>
		<g>
			<path fill="#343434" d="M308.8,156.1c0.3,2.8,0.6,5.5,0.2,8.3c0.7,0.5,0.7,0.5-0.2-0.1c-1-0.8-1.9-2-2.7-3c-3-3.8-5.3-8.4-7-12.9
				c-0.7-1.8-4.8-0.7-4.2,1.1c3.5,11.3,9.8,27.4,3.8,38.7c1.3-0.2,2.6-0.5,4-0.7c-4.6-6-4.4-13-5.7-20.1c-0.3-1.8-4.3-0.9-4.3,0.7
				c0.1,7.8,1.4,15.7-0.7,23.4c1.4-0.4,2.7-0.7,4.1-1.1c-2.6-3.7-3.9-7.2-4.2-11.7c-0.1-2.1-4.4-1.4-4.3,0.4
				c0.2,5.3,2.6,12-1.8,16.1c1.2-0.1,2.5-0.2,3.7-0.3c-2.1-3.6-3.6-7.4-4.9-11.4c-0.6-1.9-4.9-0.7-4.2,1.1c1.4,4.2,3.1,8.2,5.3,12
				c0.7,1.3,3,0.3,3.7-0.3c5.2-4.8,2.8-11.3,2.6-17.6c-1.4,0.1-2.9,0.2-4.3,0.4c0.3,5,1.7,9.1,4.6,13.2c1,1.4,3.7,0.3,4.1-1.1
				c2.1-7.7,0.9-15.6,0.7-23.4c-1.4,0.3-2.8,0.5-4.3,0.8c1.3,7.4,1.3,14.6,6,20.8c0.9,1.2,3.3,0.5,4-0.7c6.4-11.9,0.1-28.4-3.6-40.3
				c-1.4,0.4-2.8,0.8-4.2,1.1c2,5.2,6.2,16.5,12.3,18.2c7.6,2.1,6.3-8.5,5.8-12.7C312.8,153.1,308.6,154.1,308.8,156.1L308.8,156.1z
				"/>
		</g>
	</g>
	<g>
		<g>
			<path fill="#F9A461" d="M139.1,176.7c-16.8-8.8-54.8-2.9-66.5,12.4c-13.2,15.4-0.7,37.3,17.5,38.7c9.5,0.7,14.6-2.2,24.1,2.2
				c8.8,3.7,16.1,8.8,24.9,11.7c12.4,4.4,29.2,8,40.9,0c12.4-7.3,19.7-25.6,17.5-39.5C192.4,165.8,152.2,198.7,139.1,176.7z"/>
		</g>
		<g>
			<g>
				<path fill="#343434" d="M141.1,176c-19.8-9.7-52.9-4.1-68.7,11.2c-10.1,9.8-9.3,24.2,0.1,34.1c4.3,4.5,10.2,6.7,16.2,7.4
					c3.8,0.4,7.7,0,11.5-0.2c7.7-0.4,14.4,3.2,21.1,6.7c13.9,7.2,30.5,14.6,46.6,11.8c14.4-2.5,24.4-12.2,29.5-25.7
					c4.1-10.9,4.5-28.3-6.4-35.5c-7.8-5.2-19.6-2.5-28.2-1.9c-8.4,0.6-16.8-0.2-21.7-7.8c-0.7-1.1-4.6,0.6-4.2,1.1
					c10.5,16.1,32.4,3.9,47.3,8.6c12.6,4,12.6,22,10.2,32.2c-1.8,7.8-6.1,14.9-11.8,20.4c-9.4,9-22.4,7.8-34,4.9
					c-15.1-3.8-28.5-16.2-44.2-16.7c-8.7-0.3-16.1,1.3-24-3.6c-5.8-3.6-9.5-9.8-11-16.4c-3.3-15.2,11.3-25.2,23.6-29.5
					c13.3-4.6,31-6.2,44,0.2C138.2,178,141.6,176.3,141.1,176z"/>
			</g>
		</g>
	</g>
	<g>
		<g>
			<defs>
				<path id="SVGID_5_" d="M155.2,88.3c-33.6,16.8-42.4,62.9-15.4,89.9c19,19,38,10.2,54.1-8c13.2-16.1,12.4-38,4.4-56.3
					C192.4,102.2,170.5,78.8,155.2,88.3z"/>
			</defs>
			<clipPath id="SVGID_6_">
				<use xlink:href="#SVGID_5_"  overflow="visible"/>
			</clipPath>
			<g clip-path="url(#SVGID_6_)">
				<path fill="#FCB55C" d="M155.2,88.3c-33.6,16.8-42.4,62.9-15.4,89.9c19,19,38,10.2,54.1-8c13.2-16.1,12.4-38,4.4-56.3
					C192.4,102.2,170.5,78.8,155.2,88.3z"/>
				<path fill="#FCB65C" d="M155,88.5c-33.5,16.8-42.3,62.6-15.3,89.6c18.9,18.9,38.2,10.5,53.9-8C207,154.3,206.4,132,198,114
					C192.4,102.2,170.3,79.1,155,88.5z"/>
				<path fill="#FCB75C" d="M154.9,88.8c-33.4,16.7-42.1,62.4-15.2,89.2c18.9,18.9,38.1,10.4,53.7-8c13.3-15.7,12.8-37.9,4.4-55.9
					C192.2,102.4,170.1,79.4,154.9,88.8z"/>
				<path fill="#FCB75C" d="M154.7,89.1c-33.3,16.6-41.9,62.2-15.2,88.9c18.8,18.8,37.9,10.4,53.5-8c13.3-15.7,12.7-37.8,4.3-55.7
					C191.9,102.7,169.9,79.7,154.7,89.1z"/>
				<path fill="#FCB85C" d="M154.6,89.3c-33.1,16.6-41.8,61.9-15.1,88.6c18.7,18.7,37.8,10.4,53.3-7.9c13.2-15.6,12.7-37.6,4.3-55.4
					C191.6,102.9,169.7,80,154.6,89.3z"/>
				<path fill="#FCB95C" d="M154.4,89.6c-33,16.5-41.6,61.7-15.1,88.2c18.7,18.7,37.7,10.3,53.1-7.9c13.2-15.5,12.6-37.5,4.3-55.2
					C191.3,103.1,169.5,80.3,154.4,89.6z"/>
				<path fill="#FCBA5C" d="M154.3,89.8c-32.9,16.4-41.5,61.4-15,87.9c18.6,18.6,37.5,10.3,52.9-7.9c13.2-15.5,12.6-37.4,4.3-55
					C191,103.3,169.3,80.6,154.3,89.8z"/>
				<path fill="#FCBA5C" d="M154.1,90.1c-32.8,16.4-41.3,61.2-15,87.5c18.5,18.5,37.4,10.2,52.7-7.8c13.1-15.4,12.5-37.2,4.3-54.8
					C190.7,103.5,169.1,80.8,154.1,90.1z"/>
				<path fill="#FCBB5C" d="M154,90.4c-32.7,16.3-41.2,61-14.9,87.2c18.5,18.4,37.2,10.2,52.5-7.8c13.1-15.4,12.5-37.1,4.3-54.6
					C190.5,103.7,168.9,81.1,154,90.4z"/>
				<path fill="#FCBC5C" d="M153.8,90.6c-32.5,16.2-41,60.7-14.9,86.9c18.4,18.4,37.1,10.2,52.3-7.8c13-15.3,12.5-36.9,4.2-54.4
					C190.2,103.9,168.7,81.4,153.8,90.6z"/>
				<path fill="#FCBC5C" d="M153.7,90.9c-32.4,16.2-40.9,60.5-14.8,86.5c18.3,18.3,37,10.1,52.1-7.7c13-15.2,12.4-36.8,4.2-54.2
					C189.9,104.1,168.5,81.7,153.7,90.9z"/>
				<path fill="#FCBD5D" d="M153.5,91.1c-32.3,16.1-40.7,60.3-14.7,86.2c18.2,18.2,36.8,10.1,51.9-7.7c12.9-15.2,12.4-36.6,4.2-53.9
					C189.6,104.3,168.3,82,153.5,91.1z"/>
				<path fill="#FCBE5D" d="M153.4,91.4c-32.2,16.1-40.6,60-14.7,85.8c18.2,18.1,36.7,10,51.7-7.7c12.9-15.1,12.3-36.5,4.2-53.7
					C189.3,104.5,168.1,82.3,153.4,91.4z"/>
				<path fill="#FCBE5D" d="M153.2,91.7c-32,16-40.4,59.8-14.6,85.5c18.1,18.1,36.5,10,51.5-7.6c12.8-15.1,12.3-36.3,4.2-53.5
					C189,104.7,167.9,82.6,153.2,91.7z"/>
				<path fill="#FCBF5D" d="M153.1,91.9c-31.9,15.9-40.2,59.5-14.6,85.2c18,18,36.4,10,51.3-7.6c12.8-15,12.2-36.2,4.2-53.3
					C188.7,104.9,167.7,82.9,153.1,91.9z"/>
				<path fill="#FCC05D" d="M152.9,92.2c-31.8,15.9-40.1,59.3-14.5,84.8c18,17.9,36.3,9.9,51.1-7.6c12.7-14.9,12.2-36,4.1-53.1
					C188.5,105.2,167.4,83.2,152.9,92.2z"/>
				<path fill="#FCC15D" d="M152.8,92.4c-31.7,15.8-39.9,59.1-14.5,84.5c17.9,17.9,36.1,9.9,51-7.6c12.7-14.9,12.1-35.9,4.1-52.9
					C188.2,105.4,167.2,83.5,152.8,92.4z"/>
				<path fill="#FCC15D" d="M152.6,92.7c-31.5,15.7-39.8,58.8-14.4,84.1c17.8,17.8,36,9.8,50.8-7.5c12.6-14.8,12.1-35.8,4.1-52.7
					C187.9,105.6,167,83.8,152.6,92.7z"/>
				<path fill="#FCC25D" d="M152.5,93c-31.4,15.7-39.6,58.6-14.3,83.8c17.8,17.7,35.8,9.8,50.6-7.5c12.6-14.8,12-35.6,4.1-52.5
					C187.6,105.8,166.8,84.1,152.5,93z"/>
				<path fill="#FCC35D" d="M152.3,93.2c-31.3,15.6-39.5,58.3-14.3,83.4c17.7,17.6,35.7,9.8,50.4-7.5c12.5-14.7,12-35.5,4.1-52.2
					C187.3,106,166.6,84.4,152.3,93.2z"/>
				<path fill="#FCC35D" d="M152.2,93.5C121,109,112.9,151.6,138,176.6c17.6,17.6,35.6,9.7,50.2-7.4c12.5-14.6,11.9-35.3,4.1-52
					C187,106.2,166.4,84.7,152.2,93.5z"/>
				<path fill="#FCC45D" d="M152,93.8c-31.1,15.5-39.2,57.9-14.2,82.8c17.6,17.5,35.4,9.7,50-7.4c12.4-14.6,11.9-35.2,4.1-51.8
					C186.7,106.4,166.2,85,152,93.8z"/>
				<path fill="#FCC55D" d="M151.9,94c-30.9,15.4-39,57.6-14.1,82.4c17.5,17.4,35.3,9.6,49.8-7.4c12.4-14.5,11.8-35,4-51.6
					C186.5,106.6,166,85.3,151.9,94z"/>
				<path fill="#FCC55D" d="M151.7,94.3c-30.8,15.4-38.9,57.4-14.1,82.1c17.4,17.4,35.1,9.6,49.6-7.3c12.3-14.5,11.8-34.9,4-51.4
					C186.2,106.8,165.8,85.6,151.7,94.3z"/>
				<path fill="#FCC65D" d="M151.6,94.5c-30.7,15.3-38.7,57.2-14,81.7c17.3,17.3,35,9.6,49.4-7.3c12.3-14.4,11.7-34.7,4-51.2
					C185.9,107,165.6,85.9,151.6,94.5z"/>
				<path fill="#FCC75D" d="M151.5,94.8c-30.6,15.2-38.5,56.9-14,81.4c17.3,17.2,34.9,9.5,49.2-7.3c12.2-14.3,11.7-34.6,4-51
					C185.6,107.2,165.4,86.2,151.5,94.8z"/>
				<path fill="#FCC75D" d="M151.3,95.1c-30.4,15.2-38.4,56.7-13.9,81.1c17.2,17.1,34.7,9.5,49-7.2c12.2-14.3,11.7-34.5,4-50.7
					C185.3,107.5,165.2,86.5,151.3,95.1z"/>
				<path fill="#FCC85D" d="M151.2,95.3c-30.3,15.1-38.2,56.4-13.8,80.7c17.1,17.1,34.6,9.4,48.8-7.2c12.1-14.2,11.6-34.3,4-50.5
					C185,107.7,165,86.8,151.2,95.3z"/>
				<path fill="#FCC95D" d="M151,95.6c-30.2,15-38.1,56.2-13.8,80.4c17.1,17,34.4,9.4,48.6-7.2c12.1-14.2,11.6-34.2,3.9-50.3
					C184.8,107.9,164.8,87.1,151,95.6z"/>
				<path fill="#FCC95D" d="M150.9,95.8c-30.1,15-37.9,56-13.7,80c17,16.9,34.3,9.4,48.4-7.2c12-14.1,11.5-34,3.9-50.1
					C184.5,108.1,164.6,87.4,150.9,95.8z"/>
				<path fill="#FCCA5D" d="M150.7,96.1c-30,14.9-37.8,55.7-13.7,79.7c16.9,16.8,34.2,9.3,48.2-7.1c12-14,11.5-33.9,3.9-49.9
					C184.2,108.3,164.4,87.7,150.7,96.1z"/>
				<path fill="#FCCB5D" d="M150.6,96.4c-29.8,14.8-37.6,55.5-13.6,79.4c16.9,16.8,34,9.3,48-7.1c11.9-14,11.4-33.7,3.9-49.7
					C183.9,108.5,164.2,88,150.6,96.4z"/>
				<path fill="#FCCC5D" d="M150.4,96.6c-29.7,14.8-37.5,55.2-13.6,79c16.8,16.7,33.9,9.2,47.8-7.1c11.9-13.9,11.4-33.6,3.9-49.5
					C183.6,108.7,164,88.3,150.4,96.6z"/>
				<path fill="#FCCC5D" d="M150.3,96.9c-29.6,14.7-37.3,55-13.5,78.7c16.7,16.6,33.7,9.2,47.6-7c11.8-13.9,11.3-33.4,3.9-49.3
					C183.3,108.9,163.8,88.6,150.3,96.9z"/>
				<path fill="#FCCD5D" d="M150.1,97.1c-29.5,14.6-37.2,54.8-13.5,78.3c16.7,16.6,33.6,9.2,47.4-7c11.8-13.8,11.3-33.3,3.8-49
					C183,109.1,163.6,88.9,150.1,97.1z"/>
				<path fill="#FCCE5D" d="M150,97.4c-29.3,14.6-37,54.5-13.4,78c16.6,16.5,33.5,9.1,47.2-7c11.7-13.7,11.2-33.1,3.8-48.8
					C182.8,109.3,163.4,89.2,150,97.4z"/>
				<path fill="#FDCE5D" d="M149.8,97.7c-29.2,14.5-36.8,54.3-13.3,77.7c16.5,16.4,33.3,9.1,47-6.9c11.7-13.7,11.2-33,3.8-48.6
					C182.5,109.5,163.2,89.5,149.8,97.7z"/>
				<path fill="#FDCF5D" d="M149.7,97.9c-29.1,14.5-36.7,54.1-13.3,77.3c16.4,16.3,33.2,9,46.8-6.9c11.6-13.6,11.1-32.9,3.8-48.4
					C182.2,109.8,163,89.8,149.7,97.9z"/>
				<path fill="#FDD05D" d="M149.5,98.2c-29,14.4-36.5,53.8-13.2,77c16.4,16.3,33,9,46.6-6.9c11.6-13.6,11.1-32.7,3.8-48.2
					C181.9,110,162.8,90.1,149.5,98.2z"/>
				<path fill="#FDD05D" d="M149.4,98.5c-28.9,14.3-36.4,53.6-13.2,76.6c16.3,16.2,32.9,9,46.4-6.9c11.5-13.5,11-32.6,3.8-48
					C181.6,110.2,162.5,90.4,149.4,98.5z"/>
				<path fill="#FDD15D" d="M149.2,98.7C120.5,113,113,152.1,136.1,175c16.2,16.1,32.8,8.9,46.2-6.8c11.5-13.4,11-32.4,3.7-47.8
					C181.3,110.4,162.3,90.7,149.2,98.7z"/>
				<path fill="#FDD25D" d="M149.1,99c-28.6,14.2-36.1,53.1-13.1,75.9c16.2,16.1,32.6,8.9,46-6.8c11.4-13.4,10.9-32.3,3.7-47.5
					C181,110.6,162.1,90.9,149.1,99z"/>
				<path fill="#FDD25D" d="M148.9,99.2c-28.5,14.1-35.9,52.9-13,75.6c16.1,16,32.5,8.8,45.8-6.8c11.4-13.3,10.9-32.1,3.7-47.3
					C180.8,110.8,161.9,91.2,148.9,99.2z"/>
				<path fill="#FDD35D" d="M148.8,99.5c-28.4,14.1-35.8,52.6-12.9,75.3c16,15.9,32.3,8.8,45.6-6.7c11.3-13.3,10.9-32,3.7-47.1
					C180.5,111,161.7,91.5,148.8,99.5z"/>
				<path fill="#FDD45D" d="M148.6,99.8c-28.2,14-35.6,52.4-12.9,74.9c16,15.8,32.2,8.8,45.4-6.7c11.3-13.2,10.8-31.8,3.7-46.9
					C180.2,111.2,161.5,91.8,148.6,99.8z"/>
				<path fill="#FDD45D" d="M148.5,100c-28.1,13.9-35.5,52.1-12.8,74.6c15.9,15.8,32.1,8.7,45.2-6.7c11.2-13.1,10.8-31.7,3.7-46.7
					C179.9,111.4,161.3,92.1,148.5,100z"/>
				<path fill="#FDD55D" d="M148.3,100.3c-28,13.9-35.3,51.9-12.8,74.2c15.8,15.7,31.9,8.7,45-6.6c11.2-13.1,10.7-31.6,3.7-46.5
					C179.6,111.6,161.1,92.4,148.3,100.3z"/>
				<path fill="#FDD65D" d="M148.2,100.5c-27.9,13.8-35.1,51.7-12.7,73.9c15.8,15.6,31.8,8.6,44.8-6.6c11.1-13,10.7-31.4,3.6-46.3
					C179.3,111.8,160.9,92.7,148.2,100.5z"/>
				<path fill="#FDD65D" d="M148,100.8c-27.8,13.8-35,51.4-12.7,73.6c15.7,15.5,31.6,8.6,44.6-6.6c11.1-13,10.6-31.3,3.6-46
					C179,112,160.7,93,148,100.8z"/>
				<path fill="#FDD75D" d="M147.9,101.1c-27.6,13.7-34.8,51.2-12.6,73.2c15.6,15.5,31.5,8.6,44.4-6.5c11-12.9,10.6-31.1,3.6-45.8
					C178.8,112.3,160.5,93.3,147.9,101.1z"/>
				<path fill="#FDD85D" d="M147.7,101.3c-27.5,13.6-34.7,51-12.6,72.9c15.5,15.4,31.4,8.5,44.2-6.5c11-12.8,10.5-31,3.6-45.6
					C178.5,112.5,160.3,93.6,147.7,101.3z"/>
				<path fill="#FDD85D" d="M147.6,101.6c-27.4,13.6-34.5,50.7-12.5,72.5c15.5,15.3,31.2,8.5,44.1-6.5c10.9-12.8,10.5-30.8,3.6-45.4
					C178.2,112.7,160.1,93.9,147.6,101.6z"/>
				<path fill="#FDD95D" d="M147.4,101.8c-27.3,13.5-34.4,50.5-12.4,72.2c15.4,15.3,31.1,8.4,43.9-6.5c10.9-12.7,10.4-30.7,3.6-45.2
					C177.9,112.9,159.9,94.2,147.4,101.8z"/>
				<path fill="#FDDA5D" d="M147.3,102.1c-27.1,13.4-34.2,50.2-12.4,71.9c15.3,15.2,30.9,8.4,43.7-6.4c10.8-12.7,10.4-30.5,3.5-45
					C177.6,113.1,159.7,94.5,147.3,102.1z"/>
				<path fill="#FDDA5D" d="M147.2,102.4c-27,13.4-34.1,50-12.3,71.5c15.3,15.1,30.8,8.4,43.5-6.4c10.8-12.6,10.3-30.4,3.5-44.8
					C177.3,113.3,159.5,94.8,147.2,102.4z"/>
				<path fill="#FDDB5D" d="M147,102.6c-26.9,13.3-33.9,49.8-12.3,71.2c15.2,15,30.7,8.3,43.3-6.4c10.8-12.5,10.3-30.3,3.5-44.6
					C177.1,113.5,159.3,95.1,147,102.6z"/>
				<path fill="#FDDC5D" d="M146.9,102.9c-26.8,13.2-33.8,49.5-12.2,70.8c15.1,15,30.5,8.3,43.1-6.3c10.7-12.5,10.2-30.1,3.5-44.3
					C176.8,113.7,159.1,95.4,146.9,102.9z"/>
				<path fill="#FDDC5D" d="M146.7,103.2c-26.6,13.2-33.6,49.3-12.2,70.5c15.1,14.9,30.4,8.2,42.9-6.3c10.7-12.4,10.2-30,3.5-44.1
					C176.5,113.9,158.9,95.7,146.7,103.2z"/>
				<path fill="#FDDD5D" d="M146.6,103.4c-26.5,13.1-33.4,49-12.1,70.1c15,14.8,30.2,8.2,42.7-6.3c10.6-12.4,10.2-29.8,3.5-43.9
					C176.2,114.1,158.7,96,146.6,103.4z"/>
				<path fill="#FDDE5D" d="M146.4,103.7c-26.4,13.1-33.3,48.8-12.1,69.8c14.9,14.8,30.1,8.2,42.5-6.2c10.6-12.3,10.1-29.7,3.4-43.7
					C175.9,114.3,158.5,96.3,146.4,103.7z"/>
				<path fill="#FDDE5D" d="M146.3,103.9c-26.3,13-33.1,48.6-12,69.5c14.9,14.7,30,8.1,42.3-6.2c10.5-12.2,10.1-29.5,3.4-43.5
					C175.6,114.6,158.3,96.6,146.3,103.9z"/>
				<path fill="#FDDF5D" d="M146.1,104.2c-26.2,12.9-33,48.3-11.9,69.1c14.8,14.6,29.8,8.1,42.1-6.2c10.5-12.2,10-29.4,3.4-43.3
					C175.3,114.8,158.1,96.9,146.1,104.2z"/>
				<path fill="#FDE05D" d="M146,104.5c-26,12.9-32.8,48.1-11.9,68.8c14.7,14.5,29.7,8.1,41.9-6.1c10.4-12.1,10-29.2,3.4-43.1
					C175.1,115,157.9,97.2,146,104.5z"/>
				<path fill="#FEE05D" d="M145.8,104.7c-25.9,12.8-32.7,47.9-11.8,68.4c14.6,14.5,29.5,8,41.7-6.1c10.4-12.1,9.9-29.1,3.4-42.8
					C174.8,115.2,157.6,97.5,145.8,104.7z"/>
				<path fill="#FEE15D" d="M145.7,105c-25.8,12.7-32.5,47.6-11.8,68.1c14.6,14.4,29.4,8,41.5-6.1c10.3-12,9.9-28.9,3.4-42.6
					C174.5,115.4,157.4,97.8,145.7,105z"/>
				<path fill="#FEE25D" d="M145.5,105.2c-25.7,12.7-32.4,47.4-11.7,67.8c14.5,14.3,29.3,7.9,41.3-6.1c10.3-11.9,9.8-28.8,3.3-42.4
					C174.2,115.6,157.2,98.1,145.5,105.2z"/>
				<path fill="#FEE25D" d="M145.4,105.5c-25.5,12.6-32.2,47.1-11.7,67.4c14.4,14.2,29.1,7.9,41.1-6c10.2-11.9,9.8-28.7,3.3-42.2
					C173.9,115.8,157,98.4,145.4,105.5z"/>
				<path fill="#FEE35D" d="M145.2,105.8c-25.4,12.5-32.1,46.9-11.6,67.1c14.4,14.2,29,7.9,40.9-6c10.2-11.8,9.7-28.5,3.3-42
					C173.6,116,156.8,98.7,145.2,105.8z"/>
				<path fill="#FEE45D" d="M145.1,106c-25.3,12.5-31.9,46.7-11.5,66.7c14.3,14.1,28.8,7.8,40.7-6c10.1-11.8,9.7-28.4,3.3-41.8
					C173.3,116.2,156.6,99,145.1,106z"/>
				<path fill="#FEE45D" d="M144.9,106.3c-25.2,12.4-31.7,46.4-11.5,66.4c14.2,14,28.7,7.8,40.5-5.9c10.1-11.7,9.6-28.2,3.3-41.6
					C173.1,116.4,156.4,99.3,144.9,106.3z"/>
				<path fill="#FEE55D" d="M144.8,106.5c-25.1,12.4-31.6,46.2-11.4,66.1c14.2,14,28.6,7.7,40.3-5.9c10-11.6,9.6-28.1,3.3-41.3
					C172.8,116.6,156.2,99.6,144.8,106.5z"/>
				<path fill="#FEE65D" d="M144.6,106.8c-24.9,12.3-31.4,45.9-11.4,65.7c14.1,13.9,28.4,7.7,40.1-5.9c10-11.6,9.5-27.9,3.3-41.1
					C172.5,116.8,156,99.9,144.6,106.8z"/>
				<path fill="#FEE65D" d="M144.5,107.1c-24.8,12.2-31.3,45.7-11.3,65.4c14,13.8,28.3,7.7,39.9-5.8c9.9-11.5,9.5-27.8,3.2-40.9
					C172.2,117.1,155.8,100.2,144.5,107.1z"/>
				<path fill="#FEE75D" d="M144.3,107.3c-24.7,12.2-31.1,45.5-11.3,65c14,13.7,28.1,7.6,39.7-5.8c9.9-11.5,9.5-27.6,3.2-40.7
					C171.9,117.3,155.6,100.5,144.3,107.3z"/>
				<path fill="#FEE85D" d="M144.2,107.6c-24.6,12.1-31,45.2-11.2,64.7c13.9,13.7,28,7.6,39.5-5.8c9.8-11.4,9.4-27.5,3.2-40.5
					C171.6,117.5,155.4,100.7,144.2,107.6z"/>
				<path fill="#FEE85D" d="M144,107.8c-24.4,12-30.8,45-11.2,64.3c13.8,13.6,27.6,7.3,39.3-5.8c9.6-11.5,9-27.2,3.2-40.3
					C171.1,117.8,155.2,101,144,107.8z"/>
				<path fill="#FEE95E" d="M144,108.1c-24.3,12-30.6,44.7-11.1,64c13.7,13.5,27.7,7.5,39.1-5.7c9.7-11.3,9.3-27.2,3.2-40
					C171.1,117.9,155,101.4,144,108.1z"/>
				<path fill="#FEE95F" d="M143.9,108.4c-24.2,11.9-30.5,44.5-11,63.6c13.6,13.4,27.5,7.4,38.9-5.7c9.7-11.2,9.2-27,3.2-39.8
					C170.9,118.1,154.9,101.7,143.9,108.4z"/>
				<path fill="#FEE960" d="M143.8,108.7c-24,11.8-30.3,44.2-11,63.2c13.6,13.4,27.4,7.4,38.6-5.7c9.6-11.1,9.2-26.9,3.1-39.6
					C170.6,118.4,154.7,102,143.8,108.7z"/>
				<path fill="#FEE961" d="M143.7,109c-23.9,11.7-30.1,43.9-10.9,62.8c13.5,13.3,27.2,7.4,38.4-5.6c9.5-11.1,9.1-26.7,3.1-39.3
					C170.4,118.6,154.6,102.3,143.7,109z"/>
				<path fill="#FEE962" d="M143.6,109.3c-23.7,11.7-29.9,43.7-10.8,62.4c13.4,13.2,27,7.3,38.2-5.6c9.5-11,9.1-26.5,3.1-39.1
					C170.1,118.8,154.4,102.7,143.6,109.3z"/>
				<path fill="#FEE963" d="M143.5,109.5c-23.6,11.6-29.7,43.4-10.8,62c13.3,13.1,26.9,7.3,37.9-5.5c9.4-10.9,9-26.4,3.1-38.8
					C169.9,119,154.3,103,143.5,109.5z"/>
				<path fill="#FEE964" d="M143.4,109.8c-23.4,11.5-29.5,43.1-10.7,61.7c13.2,13,26.7,7.2,37.7-5.5c9.4-10.9,9-26.2,3.1-38.6
					C169.6,119.3,154.1,103.3,143.4,109.8z"/>
				<path fill="#FEE965" d="M143.4,110.1c-23.3,11.5-29.4,42.8-10.6,61.3c13.2,13,26.5,7.2,37.4-5.5c9.3-10.8,8.9-26,3-38.4
					C169.4,119.5,154,103.6,143.4,110.1z"/>
				<path fill="#FEE966" d="M143.3,110.4c-23.1,11.4-29.2,42.6-10.6,60.9c13.1,12.9,26.4,7.1,37.2-5.4c9.2-10.7,8.9-25.9,3-38.1
					C169.1,119.7,153.8,104,143.3,110.4z"/>
				<path fill="#FEEA67" d="M143.2,110.7c-23,11.3-29,42.3-10.5,60.5c13,12.8,26.2,7.1,37-5.4c9.2-10.7,8.8-25.7,3-37.9
					C168.9,119.9,153.7,104.3,143.2,110.7z"/>
				<path fill="#FEEA68" d="M143.1,111c-22.8,11.2-28.8,42-10.4,60.1c12.9,12.7,26,7,36.7-5.4c9.1-10.6,8.7-25.6,3-37.6
					C168.6,120.2,153.5,104.6,143.1,111z"/>
				<path fill="#FDEA69" d="M143,111.2c-22.7,11.2-28.6,41.8-10.4,59.7c12.8,12.6,25.9,7,36.5-5.3c9.1-10.5,8.7-25.4,3-37.4
					C168.4,120.4,153.4,104.9,143,111.2z"/>
				<path fill="#FDEA6A" d="M142.9,111.5c-22.6,11.1-28.4,41.5-10.3,59.4c12.7,12.5,25.7,6.9,36.3-5.3c9-10.5,8.6-25.2,2.9-37.2
					C168.1,120.6,153.2,105.3,142.9,111.5z"/>
				<path fill="#FDEA6B" d="M142.8,111.8c-22.4,11-28.3,41.2-10.2,59c12.7,12.5,25.5,6.9,36-5.3c9-10.4,8.6-25.1,2.9-36.9
					C167.9,120.8,153.1,105.6,142.8,111.8z"/>
				<path fill="#FDEA6C" d="M142.8,112.1c-22.3,11-28.1,41-10.2,58.6c12.6,12.4,25.4,6.9,35.8-5.2c8.9-10.3,8.5-24.9,2.9-36.7
					C167.6,121.1,152.9,105.9,142.8,112.1z"/>
				<path fill="#FDEA6D" d="M142.7,112.4c-22.1,10.9-27.9,40.7-10.1,58.2c12.5,12.3,25.2,6.8,35.6-5.2c8.8-10.3,8.5-24.7,2.9-36.4
					C167.4,121.3,152.8,106.2,142.7,112.4z"/>
				<path fill="#FDEA6E" d="M142.6,112.7c-22,10.8-27.7,40.4-10,57.8c12.4,12.2,25,6.8,35.3-5.2c8.8-10.2,8.4-24.6,2.9-36.2
					C167.1,121.5,152.6,106.6,142.6,112.7z"/>
				<path fill="#FDEB6F" d="M142.5,113c-21.8,10.7-27.5,40.2-10,57.5c12.3,12.1,24.9,6.7,35.1-5.1c8.7-10.1,8.4-24.4,2.8-36
					C166.9,121.7,152.5,106.9,142.5,113z"/>
				<path fill="#FDEB70" d="M142.4,113.2c-21.7,10.7-27.3,39.9-9.9,57.1c12.3,12.1,24.7,6.7,34.9-5.1c8.7-10.1,8.3-24.3,2.8-35.7
					C166.6,122,152.3,107.2,142.4,113.2z"/>
				<path fill="#FDEB71" d="M142.3,113.5c-21.5,10.6-27.1,39.6-9.8,56.7c12.2,12,24.5,6.6,34.6-5.1c8.6-10,8.2-24.1,2.8-35.5
					C166.4,122.2,152.2,107.5,142.3,113.5z"/>
				<path fill="#FDEB72" d="M142.2,113.8c-21.4,10.5-27,39.4-9.8,56.3c12.1,11.9,24.4,6.6,34.4-5c8.5-9.9,8.2-23.9,2.8-35.2
					C166.1,122.4,152,107.9,142.2,113.8z"/>
				<path fill="#FDEB73" d="M142.2,114.1c-21.2,10.5-26.8,39.1-9.7,55.9c12,11.8,24.2,6.5,34.2-5c8.5-9.9,8.1-23.8,2.8-35
					C165.9,122.6,151.9,108.2,142.2,114.1z"/>
				<path fill="#FDEB74" d="M142.1,114.4c-21.1,10.4-26.6,38.8-9.6,55.5c11.9,11.7,24.1,6.5,33.9-5c8.4-9.8,8.1-23.6,2.8-34.8
					C165.6,122.9,151.7,108.5,142.1,114.4z"/>
				<path fill="#FDEB75" d="M142,114.7c-21,10.3-26.4,38.6-9.6,55.2c11.8,11.7,23.9,6.5,33.7-4.9c8.4-9.7,8-23.4,2.7-34.5
					C165.4,123.1,151.6,108.8,142,114.7z"/>
				<path fill="#FDEB76" d="M141.9,114.9c-20.8,10.2-26.2,38.3-9.5,54.8c11.8,11.6,23.7,6.4,33.5-4.9c8.3-9.6,8-23.3,2.7-34.3
					C165.2,123.3,151.4,109.1,141.9,114.9z"/>
				<path fill="#FDEB77" d="M141.8,115.2c-20.7,10.2-26,38-9.4,54.4c11.7,11.5,23.6,6.4,33.2-4.9c8.3-9.6,7.9-23.1,2.7-34
					C164.9,123.5,151.3,109.5,141.8,115.2z"/>
				<path fill="#FDEC78" d="M141.7,115.5c-20.5,10.1-25.9,37.8-9.4,54c11.6,11.4,23.4,6.3,33-4.8c8.2-9.5,7.9-23,2.7-33.8
					C164.7,123.8,151.1,109.8,141.7,115.5z"/>
				<path fill="#FDEC78" d="M141.7,115.8c-20.4,10-25.7,37.5-9.3,53.6c11.5,11.3,23.2,6.3,32.8-4.8c8.1-9.4,7.8-22.8,2.7-33.6
					C164.4,124,151,110.1,141.7,115.8z"/>
				<path fill="#FDEC79" d="M141.6,116.1c-20.2,10-25.5,37.2-9.2,53.2c11.4,11.3,23.1,6.2,32.5-4.8c8.1-9.4,7.7-22.6,2.6-33.3
					C164.2,124.2,150.8,110.4,141.6,116.1z"/>
				<path fill="#FCEC7A" d="M141.5,116.4c-20.1,9.9-25.3,37-9.2,52.9c11.3,11.2,22.9,6.2,32.3-4.7c8-9.3,7.7-22.5,2.6-33.1
					C163.9,124.4,150.6,110.8,141.5,116.4z"/>
				<path fill="#FCEC7B" d="M141.4,116.6c-19.9,9.8-25.1,36.7-9.1,52.5c11.3,11.1,22.7,6.1,32.1-4.7c8-9.2,7.6-22.3,2.6-32.8
					C163.7,124.7,150.5,111.1,141.4,116.6z"/>
				<path fill="#FCEC7C" d="M141.3,116.9c-19.8,9.7-24.9,36.4-9,52.1c11.2,11,22.6,6.1,31.8-4.7c7.9-9.2,7.6-22.1,2.6-32.6
					C163.4,124.9,150.3,111.4,141.3,116.9z"/>
				<path fill="#FCEC7D" d="M141.2,117.2c-19.6,9.7-24.8,36.2-9,51.7c11.1,10.9,22.4,6.1,31.6-4.6c7.9-9.1,7.5-22,2.6-32.4
					C163.2,125.1,150.2,111.7,141.2,117.2z"/>
				<path fill="#FCEC7E" d="M141.1,117.5c-19.5,9.6-24.6,35.9-8.9,51.3c11,10.8,22.2,6,31.4-4.6c7.8-9,7.5-21.8,2.5-32.1
					C162.9,125.3,150,112.1,141.1,117.5z"/>
				<path fill="#FCED7E" d="M141.1,117.8c-19.4,9.5-24.4,35.6-8.8,50.9c10.9,10.8,22.1,6,31.1-4.6c7.7-9,7.4-21.7,2.5-31.9
					C162.7,125.6,149.9,112.4,141.1,117.8z"/>
				<path fill="#FCED7F" d="M141,118.1c-19.2,9.5-24.2,35.3-8.8,50.6c10.9,10.7,21.9,5.9,30.9-4.5c7.7-8.9,7.4-21.5,2.5-31.7
					C162.4,125.8,149.7,112.7,141,118.1z"/>
				<path fill="#FCED80" d="M140.9,118.3c-19.1,9.4-24,35.1-8.7,50.2c10.8,10.6,21.7,5.9,30.7-4.5c7.6-8.8,7.3-21.3,2.5-31.4
					C162.2,126,149.6,113,140.9,118.3z"/>
				<path fill="#FCED81" d="M140.8,118.6c-18.9,9.3-23.8,34.8-8.6,49.8c10.7,10.5,21.6,5.8,30.4-4.5c7.6-8.8,7.2-21.2,2.5-31.2
					C161.9,126.2,149.4,113.4,140.8,118.6z"/>
				<path fill="#FCED82" d="M140.7,118.9c-18.8,9.2-23.7,34.5-8.6,49.4c10.6,10.4,21.4,5.8,30.2-4.4c7.5-8.7,7.2-21,2.4-30.9
					C161.7,126.5,149.3,113.7,140.7,118.9z"/>
				<path fill="#FCED83" d="M140.6,119.2c-18.6,9.2-23.5,34.3-8.5,49c10.5,10.4,21.2,5.7,30-4.4c7.4-8.6,7.1-20.8,2.4-30.7
					C161.4,126.7,149.1,114,140.6,119.2z"/>
				<path fill="#FCED84" d="M140.5,119.5c-18.5,9.1-23.3,34-8.4,48.6c10.4,10.3,21.1,5.7,29.7-4.3c7.4-8.6,7.1-20.7,2.4-30.5
					C161.2,126.9,149,114.3,140.5,119.5z"/>
				<path fill="#FCEE84" d="M140.5,119.8c-18.3,9-23.1,33.7-8.4,48.3c10.4,10.2,20.9,5.6,29.5-4.3c7.3-8.5,7-20.5,2.4-30.2
					C160.9,127.1,148.8,114.7,140.5,119.8z"/>
				<path fill="#FCEE85" d="M140.4,120c-18.2,9-22.9,33.5-8.3,47.9c10.3,10.1,20.7,5.6,29.3-4.3c7.3-8.4,7-20.4,2.4-30
					C160.7,127.4,148.7,115,140.4,120z"/>
				<path fill="#FCEE86" d="M140.3,120.3c-18,8.9-22.7,33.2-8.2,47.5c10.2,10,20.6,5.6,29-4.2c7.2-8.4,6.9-20.2,2.4-29.7
					C160.4,127.6,148.5,115.3,140.3,120.3z"/>
				<path fill="#FCEE87" d="M140.2,120.6c-17.9,8.8-22.6,32.9-8.2,47.1c10.1,10,20.4,5.5,28.8-4.2c7.2-8.3,6.8-20,2.3-29.5
					C160.2,127.8,148.4,115.6,140.2,120.6z"/>
				<path fill="#FCEE88" d="M140.1,120.9c-17.8,8.7-22.4,32.7-8.1,46.7c10,9.9,20.2,5.5,28.6-4.2c7.1-8.2,6.8-19.9,2.3-29.3
					C159.9,128,148.2,115.9,140.1,120.9z"/>
				<path fill="#FCEE88" d="M140,121.2c-17.6,8.7-22.2,32.4-8,46.3c9.9,9.8,20.1,5.4,28.3-4.1c7-8.2,6.7-19.7,2.3-29
					C159.7,128.3,148.1,116.3,140,121.2z"/>
				<path fill="#FBEE89" d="M139.9,121.5c-17.5,8.6-22,32.1-8,46c9.9,9.7,19.9,5.4,28.1-4.1c7-8.1,6.7-19.5,2.3-28.8
					C159.5,128.5,147.9,116.6,139.9,121.5z"/>
				<path fill="#FBEE8A" d="M139.9,121.7c-17.3,8.5-21.8,31.9-7.9,45.6c9.8,9.6,19.7,5.3,27.9-4.1c6.9-8,6.6-19.4,2.3-28.5
					C159.2,128.7,147.8,116.9,139.9,121.7z"/>
				<path fill="#FBEF8B" d="M139.8,122c-17.2,8.5-21.6,31.6-7.8,45.2c9.7,9.6,19.6,5.3,27.6-4c6.9-8,6.6-19.2,2.2-28.3
					C159,128.9,147.6,117.2,139.8,122z"/>
				<path fill="#FBEF8C" d="M139.7,122.3c-17,8.4-21.5,31.3-7.8,44.8c9.6,9.5,19.4,5.2,27.4-4c6.8-7.9,6.5-19,2.2-28.1
					C158.7,129.2,147.5,117.6,139.7,122.3z"/>
				<path fill="#FBEF8C" d="M139.6,122.6c-16.9,8.3-21.3,31.1-7.7,44.4c9.5,9.4,19.2,5.2,27.1-4c6.7-7.8,6.5-18.9,2.2-27.8
					C158.5,129.4,147.3,117.9,139.6,122.6z"/>
				<path fill="#FBEF8D" d="M139.5,122.9c-16.7,8.2-21.1,30.8-7.6,44c9.5,9.3,19.1,5.2,26.9-3.9c6.7-7.8,6.4-18.7,2.2-27.6
					C158.2,129.6,147.2,118.2,139.5,122.9z"/>
				<path fill="#FBEF8E" d="M139.4,123.2c-16.6,8.2-20.9,30.5-7.6,43.7c9.4,9.2,18.9,5.1,26.7-3.9c6.6-7.7,6.3-18.6,2.2-27.3
					C158,129.8,147,118.5,139.4,123.2z"/>
				<path fill="#FBEF8F" d="M139.4,123.4c-16.4,8.1-20.7,30.3-7.5,43.3c9.3,9.1,18.7,5.1,26.4-3.9c6.6-7.6,6.3-18.4,2.1-27.1
					C157.7,130.1,146.9,118.9,139.4,123.4z"/>
				<path fill="#FBEF90" d="M139.3,123.7c-16.3,8-20.5,30-7.4,42.9c9.2,9.1,18.6,5,26.2-3.8c6.5-7.6,6.2-18.2,2.1-26.9
					C157.5,130.3,146.7,119.2,139.3,123.7z"/>
				<path fill="#FBF091" d="M139.2,124c-16.1,8-20.4,29.7-7.4,42.5c9.1,9,18.4,5,26-3.8c6.5-7.5,6.2-18.1,2.1-26.6
					C157.2,130.5,146.6,119.5,139.2,124z"/>
				<path fill="#FBF091" d="M139.1,124.3c-16,7.9-20.2,29.5-7.3,42.1c9,8.9,18.2,4.9,25.7-3.8c6.4-7.4,6.1-17.9,2.1-26.4
					C157,130.7,146.4,119.8,139.1,124.3z"/>
				<path fill="#FBF092" d="M139,124.6c-15.9,7.8-20,29.2-7.2,41.7c9,8.8,18.1,4.9,25.5-3.7c6.3-7.4,6.1-17.7,2.1-26.1
					C156.7,131,146.2,120.2,139,124.6z"/>
				<path fill="#FBF093" d="M138.9,124.9c-15.7,7.7-19.8,28.9-7.2,41.4c8.9,8.7,17.9,4.8,25.3-3.7c6.3-7.3,6-17.6,2.1-25.9
					C156.5,131.2,146.1,120.5,138.9,124.9z"/>
				<path fill="#FBF094" d="M138.8,125.1c-15.6,7.7-19.6,28.7-7.1,41c8.8,8.7,17.7,4.8,25-3.7c6.2-7.2,6-17.4,2-25.7
					C156.2,131.4,145.9,120.8,138.8,125.1z"/>
				<path fill="#FBF095" d="M138.8,125.4c-15.4,7.6-19.4,28.4-7,40.6c8.7,8.6,17.6,4.8,24.8-3.6c6.2-7.2,5.9-17.3,2-25.4
					C156,131.6,145.8,121.1,138.8,125.4z"/>
				<path fill="#FBF195" d="M138.7,125.7c-15.3,7.5-19.3,28.1-7,40.2c8.6,8.5,17.4,4.7,24.6-3.6c6.1-7.1,5.8-17.1,2-25.2
					C155.7,131.9,145.6,121.5,138.7,125.7z"/>
				<path fill="#FBF196" d="M138.6,126c-15.1,7.4-19.1,27.8-6.9,39.8c8.6,8.4,17.3,4.7,24.3-3.6c6-7,5.8-16.9,2-24.9
					C155.5,132.1,145.5,121.8,138.6,126z"/>
				<path fill="#FAF197" d="M138.5,126.3c-15,7.4-18.9,27.6-6.8,39.4c8.5,8.3,17.1,4.6,24.1-3.5c6-7,5.7-16.8,2-24.7
					C155.2,132.3,145.3,122.1,138.5,126.3z"/>
				<path fill="#FAF198" d="M138.4,126.6c-14.8,7.3-18.7,27.3-6.8,39.1c8.4,8.3,16.9,4.6,23.9-3.5c5.9-6.9,5.7-16.6,1.9-24.5
					C155,132.5,145.2,122.4,138.4,126.6z"/>
				<path fill="#FAF199" d="M138.3,126.8c-14.7,7.2-18.5,27-6.7,38.7c8.3,8.2,16.8,4.5,23.6-3.5c5.9-6.8,5.6-16.4,1.9-24.2
					C154.7,132.8,145,122.8,138.3,126.8z"/>
				<path fill="#FAF199" d="M138.2,127.1c-14.6,7.2-18.3,26.8-6.6,38.3c8.2,8.1,16.6,4.5,23.4-3.4c5.8-6.7,5.6-16.3,1.9-24
					C154.5,133,144.9,123.1,138.2,127.1z"/>
				<path fill="#FAF29A" d="M138.2,127.4c-14.4,7.1-18.2,26.5-6.6,37.9c8.1,8,16.4,4.4,23.2-3.4c5.8-6.7,5.5-16.1,1.9-23.7
					C154.2,133.2,144.7,123.4,138.2,127.4z"/>
				<path fill="#FAF29B" d="M138.1,127.7c-14.3,7-18,26.2-6.5,37.5c8.1,7.9,16.3,4.4,22.9-3.4c5.7-6.6,5.5-16,1.9-23.5
					C154,133.4,144.6,123.7,138.1,127.7z"/>
				<path fill="#FAF29C" d="M138,128c-14.1,6.9-17.8,26-6.4,37.2c8,7.9,16.1,4.3,22.7-3.3c5.6-6.5,5.4-15.8,1.8-23.3
					C153.8,133.7,144.4,124,138,128z"/>
				<path fill="#FAF29D" d="M137.9,128.3c-14,6.9-17.6,25.7-6.4,36.8c7.9,7.8,15.9,4.3,22.5-3.3c5.6-6.5,5.3-15.6,1.8-23
					C153.5,133.9,144.3,124.4,137.9,128.3z"/>
				<path fill="#FAF29E" d="M137.8,128.5c-13.8,6.8-17.4,25.4-6.3,36.4c7.8,7.7,15.8,4.3,22.2-3.3c5.5-6.4,5.3-15.5,1.8-22.8
					C153.3,134.1,144.1,124.7,137.8,128.5z"/>
				<path fill="#FAF39E" d="M137.7,128.8c-13.7,6.7-17.2,25.2-6.2,36c7.7,7.6,15.6,4.2,22-3.2c5.5-6.3,5.2-15.3,1.8-22.5
					C153,134.3,144,125,137.7,128.8z"/>
				<path fill="#FAF39F" d="M137.6,129.1c-13.5,6.7-17.1,24.9-6.2,35.6c7.6,7.5,15.4,4.2,21.8-3.2c5.4-6.3,5.2-15.1,1.8-22.3
					C152.8,134.6,143.8,125.3,137.6,129.1z"/>
				<path fill="#FAF3A0" d="M137.6,129.4c-13.4,6.6-16.9,24.6-6.1,35.2c7.6,7.5,15.3,4.1,21.5-3.2c5.4-6.2,5.1-15,1.7-22.1
					C152.5,134.8,143.7,125.7,137.6,129.4z"/>
				<path fill="#FAF3A1" d="M137.5,129.7c-13.2,6.5-16.7,24.4-6,34.9c7.5,7.4,15.1,4.1,21.3-3.1c5.3-6.1,5.1-14.8,1.7-21.8
					C152.3,135,143.5,126,137.5,129.7z"/>
				<path fill="#FAF3A2" d="M137.4,130c-13.1,6.4-16.5,24.1-6,34.5c7.4,7.3,14.9,4,21.1-3.1c5.2-6.1,5-14.7,1.7-21.6
					C152,135.2,143.4,126.3,137.4,130z"/>
				<path fill="#FAF4A2" d="M137.3,130.2c-12.9,6.4-16.3,23.8-5.9,34.1c7.3,7.2,14.8,4,20.8-3c5.2-6,5-14.5,1.7-21.3
					C151.8,135.5,143.2,126.6,137.3,130.2z"/>
				<path fill="#FAF4A3" d="M137.2,130.5c-12.8,6.3-16.1,23.6-5.8,33.7c7.2,7.1,14.5,3.8,20.6-3c5-6,4.7-14.2,1.7-21.1
					C151.4,135.7,143.1,127,137.2,130.5z"/>
			</g>
		</g>
		<g>
			<g>
				<path fill="#343434" d="M154.2,87.1c-20.5,10.7-34.1,32.6-32.4,56c1.7,23.9,21.3,53.2,48.5,46c12.7-3.4,24.4-15,30.6-26.2
					c7.3-13.2,6.3-29.5,1.9-43.4C197.4,102.5,174,76.2,154.2,87.1c-2.5,1.4-0.2,3.5,1.8,2.4c10.3-5.6,21.4,3.2,28.6,10.1
					c6.9,6.6,11.7,14.1,14.6,23.2c8.1,25.7-4,56.6-31.7,64c-13.8,3.7-25.9-7.9-33-18.3c-5.9-8.7-8.5-19.3-8.6-29.7
					c-0.2-20.7,11.9-39.9,30.1-49.4C158.6,88.1,156.3,86,154.2,87.1z"/>
			</g>
		</g>
		<g>
			<path fill="#343434" d="M167.7,162.5c-4.9,2.4-6.2,9-2.2,12.9c2.8,2.7,5.5,1.5,7.9-1.2c1.9-2.3,1.8-5.5,0.6-8.1
				C173.2,164.4,170,161.1,167.7,162.5z"/>
		</g>
		<g>
			
				<ellipse transform="matrix(0.9163 -0.4006 0.4006 0.9163 -34.3822 81.2303)" fill="#FBFEFF" cx="177.1" cy="122.9" rx="7.7" ry="12.8"/>
		</g>
		<g>
			
				<ellipse transform="matrix(0.9163 -0.4005 0.4005 0.9163 -41.2586 88.6733)" fill="#FBFEFF" cx="191.5" cy="143" rx="4.4" ry="8.6"/>
		</g>
	</g>
	<g>
		<g>
			<path fill="#343434" d="M127.9,184.4c1,3.1,0.7,6.2,0.7,9.4c0,2.3,4.3,1.7,4.3-0.3c0-3.5,0.3-7-0.8-10.3
				C131.5,181.2,127.3,182.4,127.9,184.4L127.9,184.4z"/>
		</g>
	</g>
	<g>
		<g>
			<path fill="#343434" d="M161.6,192c-4.2,3.3-9.4,5-13.7,8.3c-2.3,1.8,1.2,3,2.8,1.8c4.2-3.3,9.4-5,13.7-8.3
				C166.7,192,163.2,190.8,161.6,192L161.6,192z"/>
		</g>
	</g>
</g>
</svg>
