<svg xmlns="http://www.w3.org/2000/svg" xmlns:xlink="http://www.w3.org/1999/xlink" id="Layer_1" x="0" y="0" enable-background="new 0 0 76.5 42.3" version="1.1" viewBox="0 0 76.5 42.3" xml:space="preserve"><path fill="#EF3E3D" d="M74.7,3.5c-1.1-0.6-3.2-0.4-5.7,0.1c-1.2,1.1-2.3,2.2-3.2,3.3c-6.3,3.7-7.9,7.6-14,11.8	c-2.6,2-4.8,3.8-7,5.6l-1.1,0.9c-0.2,0.2-0.4,0.3-0.6,0.5c-0.4,0.3-0.9,0.6-1.2,0.7c-0.6,1.2-1.3,2-2.1,2.7c-0.7,0.6-1.4,1-1.9,1.2	c0.5-0.9,0.9-1.7,1.1-2.2c0.2-0.5,0.2-0.8,0-1c0.1-0.2,0-0.2,0-0.2c0,0-0.1-0.1-0.1-0.2c-0.1-0.1-0.2-0.2-0.3-0.3	c-0.2-0.2-0.5-0.1-1.1,0.9c0.3-0.8,0.6-1.3,0.8-1.7c0.1-0.2,0.2-0.3,0.3-0.5c0.1-0.2,0.2-0.3,0.3-0.5c0.2-0.3,0.4-0.6,0.6-1	c0.1-0.2,0.2-0.5,0.3-0.8c0.1-0.4,0.3-0.8,0.5-1.3c0,0,0,0.4,0,0.9c0,0.4,0.1,0.7,0.1,0.7c0.2-0.4,0.8-1.4,1.4-2.5	c0.5-1.1,1.1-2.3,1.6-3.5c0,0,0.1-0.6,0.1-1.1c0-0.5,0-0.9,0-0.9c0.5-0.9,0.9-1.7,1.2-2.4c0.3-0.7,0.6-1.3,0.8-1.9	c0.5-1.1,0.8-2.1,1-2.9c0.3-0.9,0.5-1.6,0.8-2.6c0.4-1,0.9-2.2,1.8-4l0,0c0,0,0,0,0,0c-1.7,3.2-1.4,2.4-1.4,1.9	c-0.8,0.8-1.6,1.7-2,2.4c0.1-0.5-2.1,1.4-0.9,0c-1.6,1.3-3.8,3.7-5.4,5.3c-1.7,1.7-2.8,2.8-3.6,2.9l-1.4,1.7c-1.1,1.3-2,2-3,2.8	c-0.5,0.4-1,0.7-1.5,1.1c-0.5,0.3-0.9,0.6-1.4,1l0,0.5c-0.9,1.1-3.2,3.1-4.1,3.4c-1.3,1-2.5,2.4-4.2,4.2c-0.9,1-1.8,2-2.7,3	c-0.2,0.3-0.5,0.6-0.7,0.8c-0.2,0.2-0.5,0.5-0.7,0.7c-0.4,0.4-0.9,0.8-1.3,1.2c-0.2,0.1-0.3,0.3-0.5,0.4c-0.2,0-0.4,0-0.6,0	c-0.1,0-0.2,0-0.3,0l-0.1,0c0,0-0.1,0-0.1,0c0-0.1,0.1-0.2,0.1-0.3c0.1-0.4,0.1-0.5,0-0.5c-0.1-0.1-0.3,0-0.5-1	c0.1-0.3,0.1-0.6,0.1-0.9c0.6-1.5,1.1-3.1,1.6-4.6c0.5-1.5,1-2.9,1.6-3.7c-0.6,1.8-0.6,2.7-0.6,3.3c0,0.7,0.1,1.2-0.5,2.7	c-0.1,0.2-0.1,0.3-0.2,0.5c0.5-1,0.2,0.2,0,1c-0.2,0.8-0.2,1.2,0.8-0.7c0-0.5,0.2-1.1,0.4-2c0.6-2.2,1.6-5.1,2.5-7.8	c0.4-1.3,0.9-2.8,1.2-4.2c0.3-1.4,0.6-2.8,0.7-4c0.2,0.2,0.6-0.3,0.9-1.1l0.2,0l2-2.6l0,0.5L25.9,6l-3.3-1.3c0-0.5,0.1-0.9,0.1-1.4	l0.1-1.2l-0.7,1c-0.3,0.4-0.5,0.7-0.7,0.9l-0.3,0c0,0-0.1,0.1-0.1,0.1L17.9,3l0,0.1c-0.1,1.9,0.2,2.2,0.4,2.6	c-0.1,0.8-0.2,1.5-0.3,2.2c-0.1,0.2-0.3,0.4-0.4,0.6l-0.1-1.1L16.9,9c0.2-0.4,0.2-0.3,0.2,0.1c-0.2,0.3-0.4,0.7-0.7,1.1	c-2.6,3.5-5.2,7-7.9,9.5c-3.9,3.8-7,9.6-7.9,11.9c4.8-4.7,7.5-10.5,11.9-13.4c-3.1,3.5-3,3.9-4.8,7L9.1,24l-0.8,1.3	c0.8-0.4-0.2,1.4,0.2,1.4l3.4-4.4c-2.1,2.1-1.2,0.3-1-0.6l1.9-2.2c-0.6,0.4-1.8,1.7-0.7-0.1c0.8-0.9,1.5-2.2,2.5-3L14,18.8	c0.2-0.4,0.5-0.8,0.8-1.2c-0.1,0.4-0.3,0.9-0.4,1.3c-0.2,0.6-0.4,1.1-0.6,1.7c-0.7,2.1-1.3,3.7-0.9,3.6c-0.4,1.1-0.9,2.2-1.3,3.3	c-0.5,1.1-0.9,2.3-1.4,3.5c-1,2.5-2,4.9-3,7.4c0.5,0,0.9,0.1,1.4,0.1c0.3,0,0.7,0.1,1,0.1c0.2,0,0.5,0,0.7,0.1l0.1,0l0.3,0l0.6,0	l0.5,0l0.2,0c0,0,1.3-0.6,1.3-0.6c0.2,0,0.3,0,0.5,0c0.2,0,0.4,0,0.6,0l0.3,0l0.1,0l0.2-0.1c0.3-0.1,0.5-0.2,0.8-0.3	c0.5-0.2,1-0.4,1.6-0.7c0.1-0.1,0.2-0.1,0.4-0.2l0.5-0.5l1-1c2.8-2.7,5.5-5.3,9.1-8.7l-0.5,0.7c0,0,0.2-0.3,0.6-0.6	c0.2-0.2,0.4-0.5,0.6-0.8c0.5-0.6,0.9-1.2,0.9-1.2c0.8-0.6,1.5-1.2,2.1-1.8c0.1-0.1,0.3-0.3,0.4-0.4l0.2-0.2c0.1-0.1,0-0.1,0.1-0.1	l0.2-0.3c0.2-0.4,0.7-0.9,1-0.9c0.4-0.2,0.7-0.6,1.4-1.5c1.1-1.6,2-2.8,2.9-4c0.9-1.1,1.5-1.6,1.8-1.7c-0.6,1.1-1.3,2.3-1.5,2.9	c0,0-0.5,0.3-0.5,0.3l-1.1,1.7c0,0.3-0.2,0.7-0.4,1c-0.1,0.2-0.1,0.3-0.2,0.5c0,0,0,0.1,0,0.1c0,0,0,0,0,0c0,0,0.1,0,0.1,0	c-0.2,0.2-0.2,0.2-0.1,0.3c0.1,0.1,0.2,0.1,0.3,0.4c0,0.9,0.3,1.4,0.1,2.7c0,0-0.2,0.3-0.5,0.8c-0.4,0.7-0.9,1.7-1.4,2.7	c-1.2,2.3-2.4,4.5-2.4,4.5l0.4-0.4c0,0.2-0.1,0.4-0.1,0.6c0,0.1,0,0.3,0,0.4c0,0.3-0.1,0.5-0.1,0.7c-0.1,0.4-0.2,0.9-0.5,1.5	c-0.5,1.2-1.5,3.3-3.1,7.2c0.3-0.3,0.8-0.6,1.3-1l0.9-1.4c0.6,0,1.7-1,2.9-2.1c1.2-1.1,2.5-2.3,4-3.5c0.7-0.6,2.1-1.3,3.8-2.5	c0.9-0.6,1.8-1.2,2.7-1.9c0.9-0.7,1.8-1.5,2.1-2c5-3.1,6.3-6.2,10.3-9.2c2.7-1.5,3.8-3.6,4.8-3.2l-0.4,0.3l1.5,0l-0.3-0.6	c1.6-0.9,3.5-2.7,5.2-3.1l2.6-3.5c-0.8,0.7-1.7,1.4-2.7,2l0.2,0.1c-0.9,0.7-2.9,2.4-4.1,3l1.1-1.1c-1.5,0.9-0.5-0.2-0.2-0.6	c3-1.9,1.8-1.8,3.9-3.6c0.5-0.3,1.5-0.9,1.3-0.5c1.2-1.1,4.8-3.2,4.5-3.8C74.5,3.6,74.6,3.6,74.7,3.5z"/></svg>