<svg xmlns="http://www.w3.org/2000/svg" xmlns:xlink="http://www.w3.org/1999/xlink" id="Layer_1" x="0" y="0" enable-background="new 0 0 350.3 600" version="1.1" viewBox="0 0 350.3 600" xml:space="preserve"><g><g><path fill="#FFF" d="M333.8,433.8c-4.3-2.1-8.5-3-13.2-1.9c1.2,0.9,2.3,1.8,3.5,2.6c-1.2-10.5-4.3-20.6-7.3-30.7 c-3.4-11.5-7.1-22.8-10.8-34.2c-3.5-10.6-7.1-21.1-10.6-31.6c-3.3-10-7.7-20.2-9.5-30.6c-0.4-2.3-4-2.6-5-0.7 c-0.1,0.2-0.3,0.5-0.4,0.7c1.7,0.7,3.3,1.4,5,2.1c1.5-4.3-1.5-7.7-5.9-7.3c0.9,0.9,1.8,1.8,2.7,2.7c0-0.5,0-1.1,0-1.6 c-0.5,0.8-0.9,1.6-1.4,2.4c29.9-18.7,48.7-51.2,49.9-86.5c0.6-19.4-2.7-39.1-11.1-56.6c-8.5-17.8-23-32.2-39.8-42.3 c0,1.6,0,3.1,0,4.7c6.1-2.6,12.7-5,17.9-9.2c4.1-3.3,5.5-10.1,0.6-13.4c-3-2.1-6.7-2.6-10-4c-4.4-1.9-9.1-3.2-13.7-4.6 c-10.4-3.2-21-5.9-31.6-8.7c0.7,0.9,1.3,1.8,2,2.6c0.2-11.1,0.5-22.2,0.6-33.3c0-9.9,0.2-22.4-4.2-31.5 c-3.7-7.7-10.8-11.9-18.6-14.7c-4.2-1.5-9.2-3.1-13.5-3.9c-2.1-0.4-4-0.2-6.2-0.1c-3.4,0.2-7.1-0.4-10.5-0.5 c-23.7-0.3-46.2,4.1-66.4,17c-16.1,10.3-15.8,30.5-17.4,47.4c0.9-0.9,1.8-1.8,2.7-2.7c-11.6,0.1-24-1-35.4,0.7 c-3.7,0.6-7.1,4-9.8,6.2c-4.3,3.5-8.2,7.6-11.7,12c-14.3,18.2-15.5,41.1-7,62.1c0.2-0.9,0.5-1.8,0.7-2.7 c-19.8,21.3-28.6,50.6-27.5,79.4c0.6,14.2,3.9,28.1,9.5,41.2c1.4,3.4,3.1,6.6,4.9,9.8c1.7,3,6.8,8.1,6.9,11.5 c0.2,7.6,1.8,15.1,4.8,22.1c1.2,2.7,5,1.1,5.1-1.4c0.3-4.8,1-9.5,2-14.1c-1.5,0.4-3,0.8-4.6,1.2c1.9,1.9,6.1,4.7,6.5,7.5 c0.7,4.5,1.3,9,1.6,13.6c0.4,7.5-4.8,14.2-7.6,21.1c-1.5,3.6-2.8,7.2-4.1,10.8c-1.3,3.8-2,7.8-4.6,10.9 c-4.7,5.7-10.3,10.7-16.7,14.5c-3.1,1.8-0.4,6.2,2.8,4.7c4.5-2.1,8.9-2.3,13.7-1.8c-0.9-1.2-1.8-2.3-2.6-3.5 c-4,14.5-7.8,29-13.7,42.8c1-0.4,2.1-0.8,3.1-1.3c-2.4-1-5.1-1.7-7.7-1.1c-2.3,0.6-4.1,2.3-6.2,2.8c-4.3,1-7.4,3.9-9,8.1 c-3.5,9.6-1.1,21.7,6.8,28.3c8.4,7.1,21.2,4.4,27.8-3.8c7.5-9.2,1.2-23.2-6.1-30.5c0.1,1.1,0.3,2.2,0.4,3.3 c6.4-14.9,10.5-30.6,14.7-46.2c-1.1,0.6-2.2,1.3-3.4,1.9c8,2.2,15.6,5.5,23.7,7.2c-0.7-0.9-1.3-1.8-2-2.6 c0.1,27,1.3,54.8-2.3,81.6c-0.5,3.7-1.9,7.8,1.9,10.2c4.6,3,6.5,13.3,8,18.4c3.9,12.6,5.9,25.7,6.2,38.9c0.7-0.9,1.3-1.8,2-2.6 c-3.7,1-7.9-2.3-11.7-1.3c-3.6,1-4.1,4.1-4.3,7.3c-0.8,11.7-1.6,23.4-2.4,35.1c1.2-0.9,2.3-1.8,3.5-2.6 c-7.9-1.3-16.6-1.2-23.6,3.2c-3.1,1.9-5.1,4.8-6.3,8.1c-1.3,3.4-1.7,10,1.1,12.7c3.6,3.5,12.5,2.4,16.9,2.3c1.4,0,8-1.5,8.9-0.7 c1.9,1.6,4.9,1.1,7.2,1.1c3.3,0,6.7,0,10,0c3.3,0,7.6,0.8,10.8-0.1c6.1-1.7,4.7-8.1,4.7-13.2c-0.7,0.9-1.3,1.8-2,2.6 c1.7-0.6,3.5-1.3,5.2-1.9c-1.1-0.6-2.2-1.3-3.4-1.9c0.6,2.3,1.2,4.7,1.8,7c0.5,2.2,4,2.8,5,0.7c1-2.2,2-4.4,3-6.5 c-1.2,0.3-2.5,0.7-3.7,1c2.1,1.2,4.1,2.5,6.2,3.7c1.9,1.2,4.9-0.8,4-3.1c-0.8-2.3-1.6-4.5-2.5-6.8c-0.6,1.1-1.3,2.2-1.9,3.4 c2.3-0.6,4.7-1.2,7-1.8c2.2-0.5,2.8-4,0.7-5c-2.2-1-4.4-2-6.5-3c0.3,1.2,0.7,2.5,1,3.7c1.2-2.1,2.5-4.1,3.7-6.2 c1.2-1.9-0.8-4.9-3.1-4c-2.3,0.8-4.5,1.6-6.8,2.5c1.1,0.6,2.2,1.3,3.4,1.9c-0.6-2.3-1.2-4.7-1.8-7c-0.5-2.2-4-2.8-5-0.7 c-1,2.2-2,4.4-3,6.5c1.2-0.3,2.5-0.7,3.7-1c-2.1-1.2-4.1-2.5-6.2-3.7c-1.9-1.2-4.9,0.8-4,3.1c0.8,2.3,1.6,4.5,2.5,6.8 c0.6-1.1,1.3-2.2,1.9-3.4c-0.9,0.2-1.8,0.4-2.6,0.7c1.2,0.9,2.3,1.8,3.5,2.6c0-10.8,0-21.6,0-32.4c0-3.9,0.7-7.5-1.9-10.6 c-1.9-2.2-5.3-1.1-7.5-0.5c1.2,0.9,2.3,1.8,3.5,2.6c-0.5-18.4-4.4-36.2-11.1-53.4c-1.3,1-2.7,2.1-4,3.1 c29.8,13.9,64.4,19.4,96.9,22.5c17.7,1.7,35.4,1.9,53.1,0c15.3-1.6,30.9-4.9,44-13.5c-1.4-0.8-2.7-1.6-4.1-2.4 c0.7,14.4,1.9,28.8,2.8,43.2c1.2-0.9,2.3-1.8,3.5-2.6c-4.5-1.3-21.7-9.6-21.7,0.9c0,13.8,0,27.6,0,41.4c0.5-0.8,0.9-1.6,1.4-2.4 c-5.2,3.8-8.8,8.1-10.9,14.2c-1.5,4.4-3.6,13.7,1.3,16.6c2,1.2,4.1,0.6,6.1,0.1c5.1-1.2,10.3-2,15.5-2.6c4.8-0.5,9.6-0.8,14.4-1 c2.8-0.1,8.4,1,10.8-0.8c4.8-3.6,3.9-11.5,3.9-16.9c0-9.9,0-19.8,0-29.6c0-4.2,0-8.5,0-12.7c0-3.1,0.7-6.7-1-9.5 c-3.4-5.6-11.6,0.2-15.7,2c1.2,0.9,2.3,1.8,3.5,2.6c-0.5-8.6-1.1-17.1-1.7-25.7c-0.3-4.3-0.6-8.6-0.8-12.8 c-0.1-2.1-0.2-4.3-0.3-6.4c-0.1-1.2,0.8-1.7,1.4-2.8c1.3-2.3,1.2-5.9,1.5-8.5c0.6-4.8,1.1-9.6,1.5-14.4c0.7-9,1-18,1.3-27 c1.3-37.4,0.5-75-0.6-112.4c-1.8,0.2-3.6,0.5-5.4,0.7c7.6,24.4,16.3,48.4,24,72.8c3.9,12.2,8,24.4,10.8,36.9c0.6,3,1,6,1.2,9 c0.1,1.6-2.2,3.1-3.2,4.4c-2.8,3.7-4.6,7.9-5.5,12.5c-1.4,7,0.5,15.7,6.4,20.1c6.6,4.9,14.5,2.7,21-1.3 c6.2-3.8,13.1-10.7,13.5-18.4C346,445.3,341,438.2,333.8,433.8c-3-1.8-5.8,2.9-2.8,4.7c7.5,4.5,11.7,12.9,6.7,21 c-3.6,5.9-11.5,11.3-18.4,11.5c-10.2,0.3-10.5-13.7-8.4-20.4c1.2-3.7,3.5-6.8,6.3-9.4c2.8-2.6,1.5-6,1-9.3 c-2.7-19.2-10.2-38.3-16.3-56.7c-6.4-19.6-13.4-39.1-19.5-58.8c-0.9-2.9-5.5-2.4-5.4,0.7c1,36.7,1.7,73.5,0.6,110.2 c-0.2,8.3-0.6,16.7-1.1,25c-0.3,4.1-0.6,8.3-1.1,12.4c-0.3,3.2,0.1,10.6-2.4,12.8c-2,1.9-1.3,4.2-1.2,6.8c0.2,5,0.6,10,0.9,15 c0.6,9.3,1.3,18.5,1.9,27.8c0.1,1.6,1.7,3.4,3.5,2.6c3.3-1.4,6.5-2.7,9.8-4.1c-0.7,0.3,0,11.4,0,12.7c0,8.5,0,16.9,0,25.4 c0,3.7-0.9,8.4-0.4,12c0.6,4.5,1.4,10.6-4.7,10.7c-7.8,0.1-15.6,0.6-23.3,1.7c-4.1,0.6-8.1,1.3-12.2,2.2c-3.8,0.8-1.1-8.6-0.7-10 c1.1-3.8,3.5-6.8,6.4-9.4c2.8-2.5,3.4-2.2,3.4-6.1c0-8.7,0-17.4,0-26.1c0-1.4-0.9-13.3,1.9-12.5c4.3,1.3,8.6,2.6,13,3.8 c1.6,0.5,3.6-0.9,3.5-2.6c-0.9-14.4-2.1-28.8-2.8-43.2c-0.1-2-2.3-3.6-4.1-2.4c-12.9,8.5-28.2,11.4-43.4,13 c-16.2,1.7-32.6,1.3-48.9,0c-16.3-1.4-32.6-3.8-48.6-7.2c-16.1-3.4-32.6-7.7-47.6-14.7c-1.9-0.9-5,0.6-4,3.1 c6.6,16.7,10.4,34,10.9,51.9c0.1,1.8,1.7,3.1,3.5,2.6c3.9-1,2.5,13.7,2.5,16.6c0,7.2,0,14.4,0,21.6c0,1.8,1.7,3.1,3.5,2.6 c0.9-0.2,1.7-0.4,2.6-0.7c1.4-0.3,2.4-2,1.9-3.4c-0.8-2.3-1.6-4.5-2.5-6.8c-1.3,1-2.7,2.1-4,3.1c2.1,1.2,4.1,2.5,6.2,3.7 c1.2,0.7,3.1,0.4,3.7-1c1-2.2,2-4.4,3-6.5c-1.7-0.2-3.3-0.4-5-0.7c0.6,2.3,1.2,4.7,1.8,7c0.3,1.4,2,2.4,3.4,1.9 c2.3-0.8,4.5-1.6,6.8-2.5c-1-1.3-2.1-2.7-3.1-4c-1.2,2.1-2.5,4.1-3.7,6.2c-0.7,1.2-0.4,3.1,1,3.7c2.2,1,4.4,2,6.5,3 c0.2-1.7,0.4-3.3,0.7-5c-2.3,0.6-4.7,1.2-7,1.8c-1.4,0.3-2.4,2-1.9,3.4c0.8,2.3,1.6,4.5,2.5,6.8c1.3-1,2.7-2.1,4-3.1 c-2.1-1.2-4.1-2.5-6.2-3.7c-1.2-0.7-3.1-0.4-3.7,1c-1,2.2-2,4.4-3,6.5c1.7,0.2,3.3,0.4,5,0.7c-0.6-2.3-1.2-4.7-1.8-7 c-0.3-1.4-2-2.4-3.4-1.9c-1.7,0.6-3.5,1.3-5.2,1.9c-1.2,0.4-2,1.3-2,2.6c0,2,0,3.9,0,5.9c0,2.8-4.6,2-6,2c-4.7,0-9.4,0-14,0 c-3.8,0-6.3-1.1-10.2-0.8c-4.6,0.4-9.2,0.6-13.8,0.3c-10.2-0.5-4.3-11.2,0.8-13.9c5.1-2.7,12-2.5,17.6-1.6 c1.8,0.3,3.3-0.7,3.5-2.6c0.6-8.3,1.1-16.5,1.7-24.8c0.1-1.7-0.3-12.6,2.7-12.1c3.3,0.6,6.7,1.8,10,1c1.2-0.3,2-1.4,2-2.6 c-0.3-11.7-1.9-23.3-4.8-34.7c-1.6-6.4-3.8-12.6-6.2-18.7c-0.8-2-1.6-5.2-3.1-6.7c-0.5-0.4-1.1-0.8-1.7-1.2 c-1.7-1.1-0.5-5.3-0.3-6.8c3.6-26.6,2.3-54.3,2.2-81.1c0-1.2-0.8-2.4-2-2.6c-8.1-1.7-15.7-5-23.7-7.2c-1.4-0.4-3,0.5-3.4,1.9 c-4.1,15.2-8,30.4-14.2,44.9c-0.5,1.2-0.5,2.4,0.4,3.3c5.1,5.2,9,12.9,7.2,20.3c-2.2,8.7-14.1,10.6-20.7,6.6 c-6.4-3.9-8-13.1-6.9-19.9c0.5-3.1,2-6.2,5-7.3c4.1-1.5,7.6-3.9,12.1-2.1c1,0.4,2.7-0.2,3.1-1.3c6.1-14.3,10.2-29.2,14.3-44.1 c0.5-1.9-0.9-3.3-2.6-3.5c-5.9-0.7-11.1,0-16.5,2.5c0.9,1.6,1.8,3.1,2.8,4.7c6.8-4,12.6-9.3,17.8-15.3c2.7-3.2,3.5-5.7,4.8-9.7 c1.7-5.3,3.6-10.5,5.8-15.6c1.8-4.1,3.8-8.2,6-12.1c2-3.6,1.5-7.3,1.2-11.3c-0.3-4.4-1-8.7-1.6-13c-0.7-4.4-5-6.8-7.9-9.9 c-1.4-1.4-4.1-0.8-4.6,1.2c-1.2,5.1-1.9,10.3-2.2,15.6c1.7-0.5,3.4-0.9,5.1-1.4c-1.5-3.4-2.4-7-3.2-10.7 c-0.7-3.6-0.1-7.8-1.1-11.3c-0.8-2.7-4-5.9-5.6-8.3c-2.1-3.3-3.9-6.7-5.5-10.2c-5.9-12.3-9-26.1-9.9-39.7 c-1.8-27.6,6.7-56.6,25.8-77.1c0.6-0.7,1.1-1.8,0.7-2.7c-7.8-19.2-7.2-38.9,5-56c2.8-3.9,6.2-7.4,9.7-10.6c3.4-3.1,7.2-7,12.1-7.2 c10.6-0.5,21.3-0.2,31.9-0.3c1.6,0,2.6-1.2,2.7-2.7c1.5-15.9,1-33.9,16.1-43.5c8.6-5.5,18.6-9.6,28.3-12.3 c10.2-2.9,21.4-3,31.9-3.1c15.1-0.2,41.5,1,46.9,18.9c2.9,9.6,2.8,20.4,2.7,30.3c-0.1,9.8-0.4,19.6-0.5,29.4c0,1.2,0.8,2.3,2,2.6 c14.4,3.8,28.8,7.6,42.9,12.4c2.8,1,5.2,2.1,8,2.8c6.4,1.6,1.6,6.4-1.3,8.2c-4.3,2.7-9.5,4.6-14.2,6.6c-2,0.8-1.6,3.8,0,4.7 c16.3,9.7,29.3,23.3,37.8,40.3c8.8,17.4,11.2,38,10.3,57.2c-0.9,17.1-6.8,33.6-15.9,47.9c-4.5,7.1-10.1,13.4-16.2,19.2 c-3.4,3.2-7.1,6-10.9,8.6c-3.1,2.1-5.5,2.6-5.4,6.6c0,1.4,1.2,2.8,2.7,2.7c0.2,0.1,0.4,0.3,0.7,0.4c-1,2.9,3.6,4.8,5,2.1 c0.1-0.2,0.3-0.5,0.4-0.7c-1.7-0.2-3.3-0.4-5-0.7c1.7,9.7,5.7,19.3,8.8,28.6c3.5,10.5,7.1,21,10.6,31.6c3.5,10.7,7,21.4,10.3,32.1 c3.3,10.9,7,22,8.3,33.3c0.2,1.8,1.6,3.1,3.5,2.6c3.3-0.7,6-0.1,9,1.4C334.2,440.1,337,435.4,333.8,433.8z"/><path fill="#FFF" d="M94.8,571.6c-0.7,1.2-1.4,2.4-2.2,3.6c1.7,0.5,3.4,0.9,5.1,1.4c0-1.5,0-3.1,0-4.6 c-1.4,0.8-2.7,1.6-4.1,2.4c0.7,0.3,1.4,0.7,2.2,1c1.4,0.6,2.9,0.4,3.7-1c0.7-1.2,0.4-3.1-1-3.7c-0.7-0.3-1.4-0.7-2.2-1 c-1.8-0.9-4.1,0.1-4.1,2.4c0,1.5,0,3.1,0,4.6c0,2.7,3.7,3.7,5.1,1.4c0.7-1.2,1.4-2.4,2.2-3.6C101.4,571.4,96.6,568.6,94.8,571.6z"/><path fill="#FFF" d="M229.7,488.9c-27.1,3.7-55.1,1.4-82-2.9c-13.1-2.1-26.1-5-38.9-8.5c-12.1-3.3-24.2-7.2-35-13.8 c0.4,1,0.8,2.1,1.3,3.1c4.2-28.2,3.1-57.5,2.9-85.9c-0.9,0.9-1.8,1.8-2.7,2.7c28.8-0.6,48.1-34.3,51.6-59.6 c-0.9,0.7-1.8,1.3-2.6,2c13.9,0.4,27.9,0.2,41.8,0.2c-0.9-0.7-1.8-1.3-2.6-2c3,20.8,15.5,44,34.1,54.8c8.8,5.1,18.7,5.5,28.4,2.9 c11.8-3.2,24.7-11,36.9-5.2c3.1,1.5,5.8-2.9,2.8-4.7c-17-10-31.8-30.7-33-50.8c-0.7,0.9-1.3,1.8-2,2.6c7.8-1.8,15.3-4.5,23.1-6.4 c7.7-1.9,15-5,22-8.6c-1.4-0.8-2.7-1.6-4.1-2.4c0.9,27.3,1.4,54.6,1.3,81.9c-0.1,28,0.5,56.6-3.8,84.4c0.9-0.7,1.8-1.3,2.6-2 c-2,0.3-4.8,1.1-5.2,3.5c-0.8,4.2-5.6,5.9-9.1,7.6C248.8,485.8,239,487.5,229.7,488.9c-3.5,0.5-2,5.8,1.5,5.3 c8.6-1.3,17.1-3,25.2-6.1c3.5-1.3,6.7-3,9.9-4.9c1.7-1,3.2-2.2,4.7-3.4c0.4-0.3,1.4-3.6,0.8-3.6c1.1-0.1,2.4-0.7,2.6-2 c4.1-26.9,3.8-54.4,4-81.5c0.2-28.8-0.4-57.5-1.3-86.2c-0.1-2.1-2.3-3.3-4.1-2.4c-6.6,3.4-13.5,6.1-20.7,8.1 c-7.7,2.1-15.3,4.6-23.1,6.4c-1.1,0.3-2.1,1.5-2,2.6c1.3,22,16.9,44.5,35.7,55.5c0.9-1.6,1.8-3.1,2.8-4.7 c-20.2-9.6-38.8,10.7-59.2,4.9c-21.2-6-34.9-34.2-37.7-54.1c-0.2-1.2-1.5-2-2.6-2c-13.9,0-27.9,0.2-41.8-0.2c-1.1,0-2.5,0.8-2.6,2 c-3.2,22.6-20.1,55-46.4,55.6c-1.5,0-2.7,1.2-2.7,2.7c0.2,27.9,1.4,56.8-2.7,84.5c-0.2,1.3,0.1,2.4,1.3,3.1 c10.1,6.2,21.3,10.1,32.6,13.4c14,4,28.2,7.2,42.6,9.5c27.9,4.6,56.8,6.7,84.9,2.9C234.6,493.7,233.1,488.4,229.7,488.9z"/></g><g><polygon fill="#D7DDE6" points="110.8 580 104.6 576.3 101.6 582.9 99.8 575.9 93 578.3 96.7 572.1 90.2 569.1 97.2 567.3 94.7 560.6 100.9 564.2 104 557.7 105.7 564.7 112.5 562.2 108.8 568.4 115.4 571.5 108.4 573.2"/><g><defs><path id="SVGID_1_" d="M273.5,476.2c-36.4,36.4-148.8,18-204.5-9.7c7.7-43.8-1.2-233.2-1.2-233.2h205.7 C273.5,233.3,283.3,421.5,273.5,476.2z"/></defs><clipPath id="SVGID_2_"><use overflow="visible" xlink:href="#SVGID_1_"/></clipPath><rect width="310.9" height="254.1" x="29.4" y="258.2" fill="#BF2032" clip-path="url(#SVGID_2_)"/><g clip-path="url(#SVGID_2_)"><polygon fill="#263A7C" points="169.6 408.5 57.7 507.4 34 480.6 145.9 381.8 47 269.9 73.8 246.2 172.7 358.1 284.5 259.2 308.2 286 196.3 384.9 295.2 496.7 268.4 520.4"/><path fill="#FFF" d="M73.6,249.3l98.9,111.9l111.9-98.9l20.8,23.5l-111.9,98.9l98.9,111.9l-23.5,20.8l-98.9-111.9L57.9,504.3 l-20.8-23.5L149,382L50.1,270.1L73.6,249.3 M74,243.2l-3.3,2.9l-23.5,20.8l-3.3,2.9l2.9,3.3l96,108.6l-108.6,96l-3.3,2.9 l2.9,3.3l20.8,23.5l2.9,3.3l3.3-2.9l108.6-96l96,108.6l2.9,3.3l3.3-2.9l23.5-20.8l3.3-2.9l-2.9-3.3l-96-108.6l108.6-96l3.3-2.9 l-2.9-3.3l-20.8-23.5l-2.9-3.3l-3.3,2.9l-108.6,96l-96-108.6L74,243.2L74,243.2z"/></g><polygon fill="#E9E9E1" points="174.2 369.4 177.5 377.5 186.1 379.2 179.5 385 180.4 393.7 172.9 389.1 165 392.7 167 384.2 161.1 377.7 169.8 377" clip-path="url(#SVGID_2_)"/><polygon fill="#E9E9E1" points="203.2 343.8 206.5 351.8 215.1 353.6 208.5 359.3 209.4 368 202 363.5 194 367.1 196 358.5 190.1 352.1 198.8 351.3" clip-path="url(#SVGID_2_)"/><polygon fill="#E9E9E1" points="231.3 316.8 234.7 324.9 243.3 326.7 236.6 332.4 237.6 341.1 230.1 336.5 222.1 340.1 224.1 331.6 218.3 325.1 227 324.4" clip-path="url(#SVGID_2_)"/><polygon fill="#E9E9E1" points="259.3 292 262.7 300.1 271.3 301.9 264.6 307.6 265.6 316.3 258.1 311.8 250.1 315.4 252.1 306.8 246.3 300.4 255 299.6" clip-path="url(#SVGID_2_)"/><polygon fill="#E9E9E1" points="87.9 446.3 91.3 454.4 99.9 456.2 93.3 461.9 94.2 470.6 86.7 466.1 78.8 469.6 80.8 461.1 74.9 454.6 83.6 453.9" clip-path="url(#SVGID_2_)"/><polygon fill="#E9E9E1" points="116.1 419.4 119.5 427.4 128.1 429.2 121.4 434.9 122.4 443.6 114.9 439.1 106.9 442.7 108.9 434.2 103 427.7 111.8 427" clip-path="url(#SVGID_2_)"/><polygon fill="#E9E9E1" points="144.1 394.6 147.5 402.7 156.1 404.5 149.4 410.2 150.4 418.9 142.9 414.3 134.9 417.9 136.9 409.4 131 402.9 139.8 402.2" clip-path="url(#SVGID_2_)"/><polygon fill="#E9E9E1" points="194.4 396.2 197.8 404.3 206.4 406.1 199.7 411.8 200.7 420.5 193.2 415.9 185.2 419.5 187.2 411 181.4 404.5 190.1 403.8" clip-path="url(#SVGID_2_)"/><polygon fill="#E9E9E1" points="219.1 423.5 222.4 431.6 231 433.4 224.4 439.1 225.3 447.8 217.8 443.3 209.9 446.8 211.9 438.3 206 431.8 214.7 431.1" clip-path="url(#SVGID_2_)"/><polygon fill="#E9E9E1" points="242.9 451.4 246.3 459.5 254.9 461.3 248.2 467 249.2 475.7 241.7 471.1 233.7 474.7 235.7 466.2 229.9 459.7 238.6 459" clip-path="url(#SVGID_2_)"/><polygon fill="#E9E9E1" points="94.1 283.4 97.5 291.4 106.1 293.2 99.4 298.9 100.4 307.6 92.9 303.1 84.9 306.7 86.9 298.1 81.1 291.7 89.8 290.9" clip-path="url(#SVGID_2_)"/><polygon fill="#E9E9E1" points="118.7 310.7 122.1 318.7 130.7 320.5 124.1 326.2 125 334.9 117.5 330.4 109.5 334 111.6 325.5 105.7 319 114.4 318.3" clip-path="url(#SVGID_2_)"/><polygon fill="#E9E9E1" points="142.6 338.5 146 346.6 154.5 348.4 147.9 354.1 148.9 362.8 141.4 358.3 133.4 361.8 135.4 353.3 129.5 346.9 138.3 346.1" clip-path="url(#SVGID_2_)"/></g><g><path fill="#230F17" d="M271.5,474.3c-10.9,10.6-27,14.3-41.6,16.4c-19.9,2.9-40.3,2-60.3,0.1c-19.7-1.9-39.3-5.5-58.5-10.6 c-13.9-3.7-28.7-8-40.8-16.1c0.4,1,0.8,2.1,1.3,3.1c2.2-12.7,2.5-25.9,2.8-38.7c0.5-18.9,0.4-37.9,0.2-56.8 c-0.4-37.1-1.6-74.3-3.1-111.4c-0.4-9-0.7-18-1.1-27c-0.9,0.9-1.8,1.8-2.7,2.7c54.5,0,109.1,0,163.6,0c14,0,28,0,42.1,0 c-0.9-0.9-1.8-1.8-2.7-2.7c3.3,62.7,5.5,125.7,4,188.5c-0.4,17.8-0.8,36-3.9,53.6c-0.6,3.4,4.7,4.9,5.3,1.5 c2.6-14.5,3.2-29.3,3.8-43.9c0.8-20,0.8-40,0.6-60.1c-0.3-37.8-1.5-75.6-3.1-113.3c-0.4-8.8-0.8-17.5-1.2-26.3 c-0.1-1.5-1.2-2.7-2.7-2.7c-54.5,0-109.1,0-163.6,0c-14,0-28,0-42.1,0c-1.4,0-2.8,1.2-2.7,2.7c2.9,61.1,5.1,122.5,4.2,183.7 c-0.2,16.1-0.1,32.8-2.9,48.7c-0.2,1.3,0.1,2.4,1.3,3.1c12.5,8.3,27.8,12.7,42.1,16.6c20,5.4,40.6,8.9,61.3,10.9 c20.4,2,41.2,2.3,61.5-0.6c15.2-2.2,31.6-6.6,42.9-17.6C277.9,475.7,274.1,471.8,271.5,474.3z"/></g><g><path fill="#362219" d="M324.9,216.7c0,53.9-43.7,97.6-97.6,97.6h-85c-53.9,0-97.6-43.7-97.6-97.6v-8.4 c0-53.9,43.7-97.6,97.6-97.6h85c53.9,0,97.6,43.7,97.6,97.6V216.7z"/><g><path fill="#230F17" d="M322.2,216.7c-0.4,51.7-42.9,94.8-94.9,94.8c-26.9,0-53.7,0-80.6,0c-19,0-36.9-3.9-53.4-13.7 c-21.4-12.7-36.7-34.1-42.9-58.1c-5.4-20.9-4-45.6,3.5-65.7c8.7-23.2,27.2-41.9,49.6-52.3c15.4-7.1,31.6-8.3,48.2-8.3 c16.6,0,33.1,0,49.7,0c12.1,0,24.5-0.6,36.6,0.6c25,2.5,47.9,15.9,63.6,35.2c8.5,10.5,14.4,23,17.8,36 C322,195.6,322.2,206.1,322.2,216.7c0,3.5,5.5,3.5,5.5,0c0-21.5-3.2-41.4-14.4-60.2c-11.9-20-31.1-35.1-52.9-42.9 c-14.5-5.2-29.3-5.5-44.4-5.5c-16.8,0-33.6,0-50.5,0c-12.3,0-25.1-0.8-37.3,1c-23.6,3.5-45.1,15.2-61,33 c-29.6,33.3-33.3,87-11.3,125.2c11.6,20.2,30.6,35.5,52.3,43.6c14.6,5.5,29.7,6,45,6c16.7,0,33.5,0,50.2,0 c12.5,0,25.2,0.7,37.6-0.9c49.4-6.5,86.3-50,86.7-99.4C327.7,213.2,322.2,213.2,322.2,216.7z"/></g></g><g><path fill="#230F17" d="M69.8,469.9c8,17.8,12.6,36.3,13.4,55.8c0.8,18.5-1.4,37.1-2.8,55.5c-0.3,3.5,5.2,3.5,5.5,0 c1.5-19.6,3.7-39.2,2.7-58.8c-1-19.3-6-37.7-14-55.2C73.1,463.9,68.3,466.7,69.8,469.9L69.8,469.9z"/></g><g><path fill="#230F17" d="M268.5,475.1c0.5,18.2,2.3,36.3,3.2,54.4c1,18.6,0,37-3.1,55.3c-0.6,3.4,4.7,4.9,5.3,1.5 c3.1-18.3,4.2-36.6,3.4-55.2c-0.8-18.7-2.8-37.3-3.3-56.1C273.9,471.6,268.4,471.6,268.5,475.1L268.5,475.1z"/></g><g><polygon fill="#B46029" points="287.6 524.9 274.6 530.4 256.1 524.9 256.1 573.6 287.6 573.6"/><g><path fill="#230F17" d="M286.8,522.2c-2.5,1-5,2.1-7.5,3.1c-1.6,0.7-3.2,1.3-4.7,2c-1.6,0.7,1.8,0.7-0.4,0 c-5.8-1.7-11.6-3.4-17.4-5.1c-1.7-0.5-3.5,0.9-3.5,2.6c0,16.2,0,32.5,0,48.7c0,1.5,1.2,2.7,2.7,2.7c10.5,0,21,0,31.5,0 c1.5,0,2.7-1.2,2.7-2.7c0-16.2,0-32.5,0-48.7c0-3.5-5.5-3.5-5.5,0c0,16.2,0,32.5,0,48.7c0.9-0.9,1.8-1.8,2.7-2.7 c-10.5,0-21,0-31.5,0c0.9,0.9,1.8,1.8,2.7,2.7c0-16.2,0-32.5,0-48.7c-1.2,0.9-2.3,1.8-3.5,2.6c6,1.8,11.9,3.5,17.9,5.3 c2.1,0.6,3.8-0.5,5.8-1.4c3.1-1.3,6.2-2.6,9.3-3.9C291.5,526.2,290.1,520.9,286.8,522.2z"/></g></g><g><path fill="#B46029" d="M245,590c13.1-3.3,28.4-4.4,41.6-4.4c8.8-33.9-44.9-26.5-41.6,4.1V590z"/><g><path fill="#230F17" d="M245.7,592.6c13.4-3.2,27.1-4.2,40.8-4.3c1.2,0,2.4-0.8,2.6-2c1.7-7.1,1.6-14.6-3.6-20.3 c-4.3-4.7-11.3-5.9-17.4-5.4c-7,0.6-13.6,3.8-18.7,8.6c-6,5.7-7.3,12.8-7.3,20.7c0,3.5,5.5,3.5,5.5,0c0-5.9,0.5-10.8,4.5-15.5 c3.6-4.3,8.9-6.9,14.3-8c4.7-1,10.3-0.5,14.2,2.5c4.8,3.8,4.5,10.5,3.2,15.9c0.9-0.7,1.8-1.3,2.6-2c-14.2,0.1-28.5,1.1-42.3,4.5 C240.9,588.2,242.3,593.4,245.7,592.6z"/></g></g><g><path fill="#A47054" d="M306.3,221.1c0,53.9-43.7,98.7-97.6,98.7h-85c-53.9,0-97.6-44.8-97.6-98.7v-8.4 c0-53.9,43.7-97.6,97.6-97.6h85c53.9,0,97.6,43.7,97.6,97.6V221.1z"/><g><path fill="#230F17" d="M303.6,221.1c-0.4,51.6-42.6,95.9-94.9,95.9c-26.9,0-53.7,0-80.6,0c-19.1,0-37-4-53.4-14 c-21.4-13-36.7-34.7-42.9-58.8c-5.4-20.9-4-45.6,3.5-65.7c8.7-23.2,27.2-41.9,49.6-52.3c15.4-7.1,31.6-8.3,48.2-8.3 c16.6,0,33.1,0,49.7,0c12.1,0,24.5-0.6,36.6,0.6c25,2.5,47.9,15.9,63.6,35.2c8.5,10.5,14.4,23,17.8,36 C303.4,200,303.6,210.5,303.6,221.1c0,3.5,5.5,3.5,5.5,0c0-21.5-3.2-41.4-14.4-60.2c-11.9-20-31.1-35.1-52.9-42.9 c-14.5-5.2-29.3-5.5-44.4-5.5c-16.8,0-33.6,0-50.5,0c-12.3,0-25.1-0.8-37.3,1c-23.6,3.5-45.1,15.2-61,33 C18.7,179.9,15.3,233.5,37.2,272c11.6,20.4,30.5,36,52.3,44.3c14.6,5.6,29.7,6.2,45,6.2c16.8,0,33.5,0,50.2,0 c12.2,0,24.8,0.8,36.8-0.9c49.8-6.7,87.1-50.6,87.5-100.5C309.1,217.5,303.6,217.5,303.6,221.1z"/></g></g><path fill="#27152C" stroke="#230F17" stroke-miterlimit="10" d="M101,174.8c-2.2,6.7-1.4,14.6-1.4,21c0.4,2.8,1.2,5.3,2.3,7.2 c2.3,3.9,5.7,5.5,8.8,2.3c1.5-1.6,2.9-4.4,4.1-8.7c1.3-4.4,1.7-9.2,1.2-14L101,174.8z"/><path fill="#27152C" stroke="#230F17" stroke-miterlimit="10" d="M152.1,182.3c-0.3,5.2,0,10.4,0,15c0.4,3.2,1.4,6.1,2.7,8.4 c2.6,4.5,6.6,6.4,10.2,2.7c1.8-1.9,3.4-5.1,4.7-10.1c2.2-7.7,2.2-16.7-0.4-24.5L152.1,182.3z"/><g><path fill="#230F17" d="M68.3,335.1c0,0.7,0,1.5,0,2.2c0,1.5,1.2,2.7,2.7,2.7c1.5,0,2.7-1.2,2.7-2.7c0-0.7,0-1.5,0-2.2 c0-1.5-1.2-2.7-2.7-2.7C69.6,332.3,68.3,333.6,68.3,335.1L68.3,335.1z"/></g><g><path fill="#230F17" d="M68,308C40.2,343.2,42,391.1,19.5,428.9c1.7,0.5,3.4,0.9,5.1,1.4c0-2.2,0-4.4,0-6.6c0-3.5-5.5-3.5-5.5,0 c0,2.2,0,4.4,0,6.6c0,2.7,3.7,3.7,5.1,1.4c22.2-37.3,20.3-85.2,47.7-119.8C74.1,309.1,70.2,305.2,68,308L68,308z"/></g><g><path fill="#230F17" d="M277.7,305.2c-1.1,1.6-0.1,4.2,0.3,5.9c1,3.9,2.3,7.7,3.5,11.5c4.2,12.9,8.6,25.8,12.9,38.6 c4.9,14.6,9.7,29.1,14,43.8c2.9,9.8,6.6,20.3,7.2,30.6c0.2,3.5,5.7,3.5,5.5,0c-0.5-9.5-3.6-19-6.2-28 c-4.1-14.2-8.7-28.2-13.3-42.2c-4.4-13.2-8.9-26.3-13.2-39.5c-1.5-4.5-2.9-8.9-4.3-13.5c-0.4-1.3-0.8-2.7-1.1-4.1 c-0.4-1.7,0.2-1.6-0.6-0.5C284.4,305,279.6,302.3,277.7,305.2L277.7,305.2z"/></g><g><path fill="#27152C" d="M317.2,440.1c-14.2,10.9-8.8,40.5,12,26.3c29.5-19.7-13.1-43.8-13.1-21.9"/><g><path fill="#230F17" d="M315.3,438.2c-8.2,6.7-12.2,21.1-5.3,30.1c8.4,11,24.1,0,29.7-8.2c6.2-9,1-19.8-7.7-24.7 c-8.6-4.8-18.3-1.4-18.6,9.1c-0.1,3.5,5.4,3.5,5.5,0c0.2-6.9,6.1-6.8,11-4c6.3,3.5,8.9,10.5,5.1,16.8c-3.6,6-16.5,15.3-21.5,6.3 c-4-7,0-16.9,5.8-21.5C321.9,439.8,318,435.9,315.3,438.2L315.3,438.2z"/></g></g><g><path fill="#27152C" d="M18.5,419.3c-16.4-4.4-12,32.8,5.5,29.5c31.7-5.5-4.4-52.5-9.8-23"/><g><path fill="#230F17" d="M19.3,416.7C5.7,413.6,4,429.8,7.1,439.2c4.2,12.7,18,16.5,28.2,7.5c8.5-7.5,3.3-20.9-3.1-27.8 c-2.9-3.2-7.3-5.9-11.8-5.2c-5.6,0.9-7.9,6.7-8.9,11.5c-0.7,3.4,4.6,4.9,5.3,1.5c0.6-2.8,1.4-6.8,4.6-7.6c2.5-0.6,5.4,2.1,7,3.7 c4.4,4.4,7.9,12.4,4.5,18.4c-2,3.5-6.9,5-10.6,5.3c-4.4,0.3-7.3-3.3-9.1-6.8c-2.4-4.7-4.5-19.7,4.7-17.6 C21.2,422.7,22.7,417.4,19.3,416.7L19.3,416.7z"/></g></g><path fill="#4C1825" d="M164.6,243.5c2.9-7.3,19.7,2.2,22.6,8.8c8,16-13.9,30.6-19,45.2c-5.8,16-2.9,32.8,4.4,47.4 c8,16.8,22.6,35.7,43,35c15.3-0.7,32.8-14.6,48.1-6.6c-16.8-9.5-32.8-32.8-34.3-52.5c-1.5-19,8-37.2,0.7-56.2 c4.4,15.3,9.5,24.8,10.2,40.8c8.8-19,5.1-55.4-13.1-69.3c5.8,2.9,10.2,6.6,13.9,10.2c-5.1-16.8-29.9-35-46.7-35.7 c-12.4-0.7-21.9,4.4-32.8,9.5h-34c-10.9-5.1-20.4-10.2-32.8-9.5c-16.8,0.7-41.6,19-46.7,35.7c3.6-3.6,8-7.3,13.9-10.2 c-18.2,13.9-21.9,50.3-13.1,69.3c0.7-16,5.8-25.5,10.2-40.8c-7.3,19,2.2,37.2,0.7,56.2c-1.5,19.7-17.5,43-34.3,52.5 c15.3-8,32.8,5.8,48.1,6.6c20.4,0.7,35-18.2,43-35c7.3-14.6,10.2-31.4,4.4-47.4c-5.1-14.6-27-29.2-19-45.2 c2.9-6.6,19.7-16,22.6-8.8c0,0,4.4-4.2,19.9-4.4C157.7,238.8,164.6,243.5,164.6,243.5z"/><g><path fill="#230F17" d="M179.2,262c-18.5-18.6-54.7-14.3-66.3,10c-1.2,2.4,1.2,5.1,3.7,3.7c4.9-2.7,9.8-4.7,15.4-5.6 c-1.1-1.1-2.2-2.2-3.4-3.4c-2.5,7.1-2.4,14.5,4.9,18.4c3.1,1.7,5.9-3.1,2.8-4.7c-5.2-2.7-4-7.6-2.4-12.2c0.8-2.2-1.5-3.7-3.4-3.4 c-6,0.9-11.4,3.2-16.7,6.1c1.2,1.2,2.5,2.5,3.7,3.7c10.1-21.1,41.5-25.2,57.7-8.9C177.8,268.4,181.7,264.5,179.2,262L179.2,262z"/></g><g><g><path fill="#3F2413" d="M138.9,69.8l-62.5,0.6c0,0-29.9,18.3-29.4,47.4c0.5,29.1,18.1,53.5,40.7,56.7s117-38.9,133.5-41.7 c16.6-2.8,74.8-20.1,69.8-27.4C286,98.3,155.4,68.1,138.9,69.8z"/><g><path fill="#230F17" d="M138.9,67.1c-12.9,0.1-25.9,0.3-38.8,0.4c-7,0.1-13.9,0.1-20.9,0.2c-3.3,0-4.8,0.7-7.5,2.7 c-15.2,11.2-27.4,28-27.4,47.5c0,23.4,12.4,48.4,34.9,57.4c14.1,5.6,30.6-0.6,44.2-4.8c19.8-6.1,39.2-13.6,58.6-21 c12.8-4.9,26.3-11.5,39.9-13.9c17.6-3.1,35.1-8.8,51.7-15.2c4.1-1.6,28.8-10.8,17.6-18.1c-3.4-2.2-7.8-3.4-11.6-4.7 c-6.8-2.3-13.7-4.2-20.6-6.1c-34.4-9.4-69.5-17.8-104.8-23.1C149.3,67.7,143.9,66.6,138.9,67.1c-3.5,0.3-3.5,5.8,0,5.5 c11.1-1,23.4,2.6,34.2,4.7c18.7,3.6,37.3,7.7,55.7,12.2c16.1,3.9,32.2,7.9,48,13c3.9,1.3,8.1,2.5,11.7,4.6 c0.6,0.4,0.3,0.3,0.1-0.2c-0.3-0.8-0.1-0.3-1,0.5c-2.3,2.1-5.6,3.5-8.4,4.8c-16.9,7.9-35.6,13.1-53.8,17.2 c-12.8,2.9-24.9,7.3-37.2,12c-19.4,7.3-38.7,14.8-58.3,21.3c-8.6,2.8-17.2,5.5-26,7.5c-6.5,1.5-12.8,2.6-19.4,1 c-23.8-5.7-35.5-34.1-34.7-56.3c0.6-17.1,13.5-32.3,27.1-41.5c1.9-1.3-1.6-0.2,0.4-0.2c1.8,0,3.7,0,5.5-0.1 C90,73,97.2,73,104.4,72.9c11.5-0.1,23-0.2,34.5-0.4C142.4,72.5,142.4,67,138.9,67.1z"/></g></g><g><path fill="#3F2413" d="M109.6,103.5c-2,15.5,50.2,17.3,61.2,16c21.6-2.7,44.2-5.5,63.8-14.1l4.5-3.2v-5.5 c0-23.7,1.5-40.2-1-63.9c-1.5-13.2-8-17.8-21.6-21.5c-10.5-3.2-19.8-3-31.4-2.5c-13.6,0.5-23.8,0.2-35.4,5.7 c-12,5.9-26.6,9.1-31.6,22.8c-4,10-3,23.7-4.5,34.2c-1.5,9.6-4,20.5-3.5,30.1L109.6,103.5z"/><g><path fill="#230F17" d="M106.8,103.5c-1.3,14.9,26.4,17,35.9,18c21.4,2.4,42.3-0.4,63.3-4.6c11.9-2.4,24.4-5.3,34.4-12.4 c2.2-1.6,1.4-5.5,1.4-7.8c0-8.5,0.2-17,0.4-25.5c0.2-14.5,1.2-30.5-2.5-44.6c-2.7-10.1-11.6-14.7-20.9-17.4 c-15.9-4.7-33.2-3.7-49.6-2.3c-13.7,1.1-27.3,7.3-39.2,13.9c-13.1,7.1-16.6,19.6-17.7,33.6c-0.7,8.7-1.3,17.2-2.8,25.9 c-0.7,4.1-1.3,8.1-1.7,12.2c-0.4,3.4,0.2,7.1-0.7,10.4c-0.9,3.4,4.3,4.9,5.3,1.5c1.2-4.4,0.6-9.2,1.1-13.8 c0.7-6.4,2.2-12.6,3-18.9c1.5-11.8,0.1-24.6,5.4-35.6c4.4-9.2,15.5-12.9,24.1-16.6c5.3-2.3,10.3-4.7,15.9-6 c5.8-1.3,11.8-1.4,17.7-1.6c18.1-0.6,52.6-3.5,55.8,21.1c3,22.9,1,46.4,1,69.4c0.5-0.8,0.9-1.6,1.4-2.4 c-11.6,8.2-26.9,10.8-40.7,13.3c-11.9,2.1-24,4.1-36,4.1c-10-0.1-20.1-0.9-29.9-2.8c-5.1-1-19.3-3.3-18.7-10.8 C112.6,100,107.1,100,106.8,103.5z"/></g></g><path fill="#FFF" d="M239.5,121.4c-84.7,22.4-130,0-130,0v-19.8c0,0,45.3,22.4,130,0V121.4z"/><g><path fill="#230F17" d="M146.9,32.9c0.2-7.2,16-12.1,21.1-14c12.4-4.5,25.6-6.9,38.8-7.6c3.5-0.2,3.5-5.7,0-5.5 c-15.7,0.8-31.4,4.1-46,10.1c-6.9,2.8-19.1,8-19.3,17C141.4,36.4,146.8,36.4,146.9,32.9L146.9,32.9z"/></g><g><path fill="#230F17" d="M162.3,18.4c0,0-7.7,0.5-13,3.7c-5.4,3.2-8.4,8-6.7,10.8c1.6,2.7,7.3,2.4,12.7-0.8 C160.6,28.9,162.3,18.4,162.3,18.4z"/><g><path fill="#231017" d="M162.3,15.7c-5.9,0.5-11.8,2.1-16.6,5.6c-4.1,3-9.6,10.2-4.1,14.6c5.1,4.1,14.3,0.2,18-4.1 c2.9-3.4,4.6-8.3,5.3-12.6c0.6-3.4-4.7-4.9-5.3-1.5c-1.2,6.9-4,12.4-11.3,14.2c-2.8,0.7-4.2-0.2-2.8-2.8c1.3-2.3,3.8-3.9,6-5.1 c3.1-1.7,7.1-2.5,10.6-2.8C165.8,20.9,165.8,15.4,162.3,15.7z"/></g></g><g><path fill="#3F2413" d="M100.5,174.3c0,0,134.2-76.6,187.3-70.2C340.9,110.4,106.5,171,100.5,174.3z"/><g><path fill="#230F17" d="M101.8,176.6c21.8-12.4,44.3-23.7,67-34.4c19.2-9,38.8-17.3,58.8-24.3c16.7-5.8,34.3-11.1,52.1-11.6 c3.9-0.1,9.6,0,12.6,1.4c1.2,0.5,0.6,0.6,0.5-0.4c0-0.2,0.3-0.2-0.6,0.7c-5.3,5.3-15,8.3-22,11c-28.8,11.3-58.7,20-88.4,28.7 c-18.7,5.5-37.4,10.8-56.2,16.1c-8.5,2.4-18.6,3.9-26.6,7.9C95.9,173.5,98.7,178.2,101.8,176.6c-0.7,0.3,0.5-0.2,1.1-0.4 c1.2-0.4,2.4-0.8,3.6-1.1c3.9-1.2,7.8-2.3,11.7-3.4c12.4-3.5,24.9-7,37.3-10.6c31.2-8.9,62.4-18,93.2-28.4 c11.8-4,23.6-8.2,34.9-13.3c4.2-1.9,13.7-5.4,14.6-10.9c1.1-7.7-12.4-7.5-16.8-7.5c-17.1-0.2-34.5,4.9-50.6,10.2 c-45.7,15-90,36.9-131.7,60.7C96,173.6,98.8,178.4,101.8,176.6z"/></g></g></g><g><path fill="#3F2413" d="M112.5,78.2c0,0-4.5,38.1-2.9,43.1"/><g><path fill="#230F17" d="M109.7,78.2c-0.8,6.7-1.5,13.5-2.1,20.2c-0.7,7.3-2.6,16.4-0.7,23.6c0.9,3.4,6.1,2,5.3-1.5 c-0.7-2.8-0.2-6.1-0.1-8.9c0.2-4.8,0.7-9.6,1.1-14.4c0.6-6.4,1.3-12.7,2-19.1C115.6,74.7,110.1,74.8,109.7,78.2L109.7,78.2z"/></g></g><g><path fill="#B46029" d="M82.2,531.6l-10-1.7l-2.8,40.5c-13.4-3.8-30.3-0.9-26.8,14.1c7.7,1.7,16.6,0.5,25.3-0.3l-0.1,1.4h24.1 v-56.5L82.2,531.6z"/><g><path fill="#230F17" d="M82.9,529c-3.3-0.6-6.7-1.2-10-1.7c-1.8-0.3-3.3,0.7-3.5,2.6c-0.9,13.5-1.9,27-2.8,40.5 c1.2-0.9,2.3-1.8,3.5-2.6c-13.4-3.5-33.8-1-30.1,17.5c0.2,0.9,1,1.7,1.9,1.9c8.7,1.6,17.3,0.6,26-0.2c-0.9-0.9-1.8-1.8-2.7-2.7 c0,0.5-0.1,0.9-0.1,1.4c-0.2,1.5,1.4,2.7,2.7,2.7c8,0,16,0,24.1,0c1.5,0,2.7-1.2,2.7-2.7c0-18.8,0-37.7,0-56.5 c0-1.8-1.7-3.1-3.5-2.6c-3.2,0.8-6.5,1.7-9.7,2.5c-3.4,0.9-2,6.2,1.5,5.3c3.2-0.8,6.5-1.7,9.7-2.5c-1.2-0.9-2.3-1.8-3.5-2.6 c0,18.8,0,37.7,0,56.5c0.9-0.9,1.8-1.8,2.7-2.7c-8,0-16,0-24.1,0c0.9,0.9,1.8,1.8,2.7,2.7c0-0.5,0.1-0.9,0.1-1.4 c0.1-1.4-1.4-2.9-2.7-2.7c-8.2,0.8-16.4,1.9-24.6,0.4c0.6,0.6,1.3,1.3,1.9,1.9c-2.7-13.7,14.6-13,23.4-10.7 c1.8,0.5,3.3-0.9,3.5-2.6c0.9-13.5,1.9-27,2.8-40.5c-1.2,0.9-2.3,1.8-3.5,2.6c3.3,0.6,6.7,1.2,10,1.7 C84.9,534.8,86.4,529.6,82.9,529z"/></g></g></g></g></svg>