<svg xmlns="http://www.w3.org/2000/svg" xmlns:xlink="http://www.w3.org/1999/xlink" width="100%" height="100%" version="1.1" viewBox="0 0 24 24" xml:space="preserve" style="fill-rule:evenodd;clip-rule:evenodd;stroke-linejoin:round;stroke-miterlimit:2"><g id="Layer-3"><g><path d="M0,44.627L-3.239,45.004L-4.505,20.931L0,44.627ZM26.608,29.511L24.952,31.425L-2.458,20.135L26.608,29.511ZM32.891,6.933L33.671,9.182L-0.493,18.363L32.891,6.933ZM-4.965,45.776C6.189,44.973 15.312,40.497 22.057,35.083C30.221,28.527 33.626,18.961 34.589,12.939C35.646,6.342 27.876,-1.88 27.876,-1.88L-4.88,21.058L-31.318,39.338C-25.763,43.233 -15.104,46.507 -4.965,45.776" style="fill-rule:nonzero" transform="matrix(0.281219,0,0,0.281219,-2.06524,-2.03557) matrix(1,0,0,1,47.522,22.9091)"/></g><g><path d="M0,-72.874C5.299,-66.563 8.424,-54.149 6.455,-46.687C3.621,-35.957 -5.251,-27.113 -10.679,-23.952C-14.733,-21.013 -27.976,-14.925 -40.921,-13.799C-54.145,-12.65 -64.264,-16.215 -72.888,-22.539L-67.254,-26.22L-7.497,-67.615C-7.52,-67.638 -7.539,-67.657 -7.562,-67.679L-7.497,-67.615L0,-72.874L-7.776,-67.897C-26.165,-54.998 -71.727,-23.286 -73.693,-22.078C-73.693,-22.078 -73.695,-17.249 -58.974,-8.279C-42.991,0 -25.397,-3.565 -18.957,-6.67C-14.817,-8.624 -2.515,-12.65 6.225,-32.772C14.57,-55.175 5.01,-67.596 0,-72.874" style="fill-rule:nonzero" transform="matrix(0.281219,0,0,0.281219,-2.06524,-2.03557) matrix(1,0,0,1,81.9834,87.3149)"/></g></g></svg>