<?xml version="1.0" encoding="utf-8"?>
<!-- Generator: Adobe Illustrator 18.1.0, SVG Export Plug-In . SVG Version: 6.00 Build 0)  -->
<svg version="1.2" baseProfile="tiny" xmlns="http://www.w3.org/2000/svg" xmlns:xlink="http://www.w3.org/1999/xlink" x="0px" y="0px" viewBox="0 0 50 50" xml:space="preserve">
  <path d="M16.6,14.8c0.7,0.2,3.2-6.2,10.2-6.5c3.5-0.1,6.1,2.8,6.4,2.3c0.3-0.5-1.3-2.9-6.8-3.1C20.1,7.5,15.9,14.6,16.6,14.8z"/>
  <path d="M16.6,12.5c0,0,3.1-7.1,9.9-7.6c4.3-0.1,5.4,2.5,5.4,2.5S31,6.1,26.4,5.9C19.9,6.3,16.6,12.5,16.6,12.5z"/>
  <ellipse cx="31.5" cy="20.3" rx="0.9" ry="1.5"/>
  <ellipse cx="26.8" cy="20" rx="0.7" ry="1.2"/>
  <path d="M40.1,35.9c-6,0.1-12.2,4.8-14.4,6.7c-1.5-1.4-2.4-3.2-1.8-5.6c0-1.3,3.3-5.6,6.7-6.9c0.9,1.1,2.4,2.7,3,2.5c0.6-0.2,1.6-2.4,2.1-3.8c1.2-0.2,2.5-0.3,3.6-0.4c0.6,1.2,1.8,3.5,2.5,3.4c0.7-0.1,2.4-2.4,3.2-3.5c0.7,0,1.1,0,1.1,0c-0.1-0.4-0.3-0.8-0.5-1.3c-1-2.2-2.2-4.3-3.8-6.1c-1.1-1.2-2.3-2.2-3.7-3.1c-1.3-0.9-3-1.5-4.2-2.5c-0.5-0.5-1.1-1.3-1.8-1.6c-0.7-0.3-1.7-0.2-2.2,0.2c-0.4,0.3-0.4,0.5-0.8,0.2c-0.8-0.4-1.2-1.3-1.9-1.8c-1.7-1.3-4.1-0.8-5.5,0.7c-0.7,0.8-1.1,1.8-1.8,2.6c-0.8,1-2.1,1.3-3.1,2.2c-1.8,1.7-3.4,3.5-4.6,5.7c-1,2-1.6,4.2-1.8,6.4c-0.7,6.3,0.9,12.5,11.6,18.8c9.6,4.3,19.1-1.3,19.1-1.3s-8.5-0.4-13.6-3.4c0.9-0.7,2.4-1.9,5.2-3c4.8-1.9,9.5,0.5,10.1,1.9c0.6,1.4,0.6,4.5,0.6,4.5s1.6-1.7,1.4-3.6c-0.2-1.9-0.9-3.8-0.9-3.8s1.3,0.3,2.7,1.7c1.3,1.4,1.7,4.2,1.7,4.2s1.2-2.2,1.1-4.1C49.5,39.9,47.5,35.8,40.1,35.9z M22.7,28.7c-2.8-0.5-4.4-4.5-3.5-8.9c0.9-4.4,3.8-7.5,6.6-6.9c1.5,0.3,2.7,1.6,3.3,3.5c0.3-1,1-1.8,1.8-2c1.8-0.4,3.8,1.6,4.6,4.7c0.8,3-0.1,5.8-1.8,6.3c-1.6,0.4-3.4-1.2-4.3-3.7c0,0.1,0,0.1,0,0.2C28.4,26.2,25.5,29.3,22.7,28.7z"/>
</svg>
