<?xml version="1.0" encoding="UTF-8" standalone="no"?>
<!DOCTYPE svg PUBLIC "-//W3C//DTD SVG 1.1//EN" "http://www.w3.org/Graphics/SVG/1.1/DTD/svg11.dtd">
<svg width="100%" height="100%" viewBox="0 0 24 24" version="1.1" xmlns="http://www.w3.org/2000/svg" xmlns:xlink="http://www.w3.org/1999/xlink" xml:space="preserve" xmlns:serif="http://www.serif.com/" style="fill-rule:evenodd;clip-rule:evenodd;stroke-linejoin:round;stroke-miterlimit:2;">
    <g transform="matrix(0.515547,0,0,0.515547,-2.19497,-2.40304)">
        <path d="M16.6,14.8C17.3,15 19.8,8.6 26.8,8.3C30.3,8.2 32.9,11.1 33.2,10.6C33.5,10.1 31.9,7.7 26.4,7.5C20.1,7.5 15.9,14.6 16.6,14.8Z" style="fill-rule:nonzero;"/>
    </g>
    <g transform="matrix(0.515547,0,0,0.515547,-2.19497,-2.40304)">
        <path d="M16.6,12.5C16.6,12.5 19.7,5.4 26.5,4.9C30.8,4.8 31.9,7.4 31.9,7.4C31.9,7.4 31,6.1 26.4,5.9C19.9,6.3 16.6,12.5 16.6,12.5Z" style="fill-rule:nonzero;"/>
    </g>
    <g transform="matrix(0.515547,0,0,0.515547,-2.19497,-2.40304)">
        <ellipse cx="31.5" cy="20.3" rx="0.9" ry="1.5"/>
    </g>
    <g transform="matrix(0.515547,0,0,0.515547,-2.19497,-2.40304)">
        <ellipse cx="26.8" cy="20" rx="0.7" ry="1.2"/>
    </g>
    <g transform="matrix(0.515547,0,0,0.515547,-2.19497,-2.40304)">
        <path d="M40.1,35.9C34.1,36 27.9,40.7 25.7,42.6C24.2,41.2 23.3,39.4 23.9,37C23.9,35.7 27.2,31.4 30.6,30.1C31.5,31.2 33,32.8 33.6,32.6C34.2,32.4 35.2,30.2 35.7,28.8C36.9,28.6 38.2,28.5 39.3,28.4C39.9,29.6 41.1,31.9 41.8,31.8C42.5,31.7 44.2,29.4 45,28.3L46.1,28.3C46,27.9 45.8,27.5 45.6,27C44.6,24.8 43.4,22.7 41.8,20.9C40.7,19.7 39.5,18.7 38.1,17.8C36.8,16.9 35.1,16.3 33.9,15.3C33.4,14.8 32.8,14 32.1,13.7C31.4,13.4 30.4,13.5 29.9,13.9C29.5,14.2 29.5,14.4 29.1,14.1C28.3,13.7 27.9,12.8 27.2,12.3C25.5,11 23.1,11.5 21.7,13C21,13.8 20.6,14.8 19.9,15.6C19.1,16.6 17.8,16.9 16.8,17.8C15,19.5 13.4,21.3 12.2,23.5C11.2,25.5 10.6,27.7 10.4,29.9C9.7,36.2 11.3,42.4 22,48.7C31.6,53 41.1,47.4 41.1,47.4C41.1,47.4 32.6,47 27.5,44C28.4,43.3 29.9,42.1 32.7,41C37.5,39.1 42.2,41.5 42.8,42.9C43.4,44.3 43.4,47.4 43.4,47.4C43.4,47.4 45,45.7 44.8,43.8C44.6,41.9 43.9,40 43.9,40C43.9,40 45.2,40.3 46.6,41.7C47.9,43.1 48.3,45.9 48.3,45.9C48.3,45.9 49.5,43.7 49.4,41.8C49.5,39.9 47.5,35.8 40.1,35.9ZM22.7,28.7C19.9,28.2 18.3,24.2 19.2,19.8C20.1,15.4 23,12.3 25.8,12.9C27.3,13.2 28.5,14.5 29.1,16.4C29.4,15.4 30.1,14.6 30.9,14.4C32.7,14 34.7,16 35.5,19.1C36.3,22.1 35.4,24.9 33.7,25.4C32.1,25.8 30.3,24.2 29.4,21.7L29.4,21.9C28.4,26.2 25.5,29.3 22.7,28.7Z" style="fill-rule:nonzero;"/>
    </g>
</svg>
