<svg xmlns="http://www.w3.org/2000/svg" xmlns:xlink="http://www.w3.org/1999/xlink" x="0" y="0" baseProfile="tiny" version="1.2" viewBox="0 0 400 400" xml:space="preserve"><circle cx="200" cy="200" r="189.7" fill="none" stroke="#010101" stroke-miterlimit="10" stroke-width="13"/><g class="ballpit"><path fill="#07090A" d="M124.4,118.5c4.1,1,19-36.4,59.9-38.4c20.5-0.5,35.9,16.4,37.9,13.3c2-3.1-7.7-16.9-40-18.4C144.9,75.4,120.4,117.4,124.4,118.5z"/><path fill="#07090A" d="M124,104.6c0,0,18.4-42,58.3-44.6c25.1-0.5,31.8,14.9,31.8,14.9s-5.1-7.7-31.8-9.2C143.9,68.3,124,104.6,124,104.6z"/><ellipse cx="212.2" cy="136.3" fill="#07090A" rx="5.6" ry="8.7"/><ellipse cx="184.2" cy="134.1" fill="#07090A" rx="3.8" ry="7.2"/><path fill="#07090A" d="M262.8,243.1c-35.1,0.6-71.9,28.6-84.8,39.3c-9.1-8.3-14-19.1-10.5-33c-0.1-7.7,19.4-33.2,39.7-40.8c5.3,6.4,14.2,16,17.7,14.6c3.5-1.4,9.3-14.2,12.7-22.4c7.3-1.2,14.6-2,21.4-2.6c3.5,7.3,10.6,20.5,14.6,19.9c4-0.6,14-13.9,18.9-20.8c4,0.1,6.2,0.3,6.2,0.3c-0.8-2.5-1.7-5-2.8-7.4c-5.7-12.9-12.9-25.2-22.4-35.7c-6.4-7.1-13.7-13.3-21.6-18.5c-7.7-5.1-17.8-8.7-24.6-15c-3.2-3-6.4-7.6-10.5-9.4c-3.9-1.8-10.1-1.2-13.3,1.2c-2.4,1.9-2.2,2.7-4.9,1.2c-4.4-2.4-7.3-7.5-11.4-10.4c-10.1-7.4-24.3-4.6-32.7,4.1c-4.3,4.5-6.7,10.4-10.6,15.2c-4.9,6-12.6,7.8-18,12.9c-10.7,10-20.2,20.6-27,33.7c-6,11.6-9.4,25-10.8,37.9c-4.1,37.4,5,73.6,68.6,110.6c56.5,25.3,112.7-7.7,112.7-7.7s-49.9-2.6-80.3-20c5-4.4,14.4-11,30.6-17.7c28-11.4,56.1,3.2,59.6,11.4c3.6,8.3,3.6,26.5,3.6,26.5s9.5-10.3,8.3-21.3c-1.2-11.1-5.5-22.5-5.5-22.5s7.9,2,15.8,10.3c7.9,8.3,10.3,24.9,10.3,24.9s7.1-13,6.7-24.1C318.1,266.8,306.2,242.3,262.8,243.1z M160,200.7c-16.5-3.2-25.9-26.7-20.8-52.5c5-25.8,22.5-44,39.1-40.8c9,1.8,15.9,9.6,19.4,20.4c2-6.1,5.7-10.5,10.6-11.7c10.5-2.6,22.6,9.7,27.1,27.5c4.5,17.9-0.3,34.5-10.8,37.1c-9.3,2.3-19.9-7.2-25.3-21.9c-0.1,0.3-0.1,0.7-0.2,1C194,185.7,176.5,204,160,200.7z"/></g></svg>