<svg xmlns="http://www.w3.org/2000/svg" xmlns:xlink="http://www.w3.org/1999/xlink" id="Layer_2" x="0" y="0" baseProfile="tiny" version="1.2" viewBox="0 0 50 50" xml:space="preserve"><path fill="#454546" d="M3,5.7v30.5H9L3,46.8l29.2-10.6l14.9,0V5.7H3z M16.4,29.7c-0.1,0.3-0.3,0.5-0.5,0.7	c-0.2,0.2-0.4,0.3-0.7,0.5C15,30.9,14.7,31,14.4,31c-0.3,0-0.6-0.1-0.9-0.2c-0.3-0.1-0.5-0.3-0.7-0.5c-0.2-0.2-0.3-0.4-0.5-0.7	s-0.2-0.6-0.2-0.9c0-0.3,0.1-0.6,0.2-0.9s0.3-0.5,0.5-0.7c0.2-0.2,0.4-0.3,0.7-0.5c0.3-0.1,0.6-0.2,0.9-0.2c0.3,0,0.6,0.1,0.9,0.2	c0.3,0.1,0.5,0.3,0.7,0.5c0.2,0.2,0.4,0.4,0.5,0.7c0.1,0.3,0.2,0.6,0.2,0.9C16.6,29.1,16.5,29.4,16.4,29.7z M17.2,18.2	c-0.1,0.9-0.3,1.7-0.4,2.6c-0.2,0.8-0.4,1.7-0.7,2.7h-2.3c0-0.2,0-0.4,0-0.6c0-0.2,0-0.4,0-0.6c0-0.7,0-1.4,0.1-2.1	c0-0.7,0.1-1.4,0.2-2l1-8.3h3.2L17.2,18.2z M26.1,29.7c-0.1,0.3-0.3,0.5-0.5,0.7c-0.2,0.2-0.4,0.3-0.7,0.5C24.6,30.9,24.4,31,24,31	c-0.3,0-0.6-0.1-0.9-0.2c-0.3-0.1-0.5-0.3-0.7-0.5c-0.2-0.2-0.3-0.4-0.5-0.7s-0.2-0.6-0.2-0.9c0-0.3,0.1-0.6,0.2-0.9	s0.3-0.5,0.5-0.7c0.2-0.2,0.4-0.3,0.7-0.5c0.3-0.1,0.6-0.2,0.9-0.2c0.3,0,0.6,0.1,0.9,0.2c0.3,0.1,0.5,0.3,0.7,0.5	c0.2,0.2,0.4,0.4,0.5,0.7c0.1,0.3,0.2,0.6,0.2,0.9C26.2,29.1,26.2,29.4,26.1,29.7z M26.8,18.2c-0.1,0.9-0.3,1.7-0.4,2.6	c-0.2,0.8-0.4,1.7-0.7,2.7h-2.3c0-0.2,0-0.4,0-0.6c0-0.2,0-0.4,0-0.6c0-0.7,0-1.4,0.1-2.1c0-0.7,0.1-1.4,0.2-2l1-8.3h3.2L26.8,18.2z M35.7,29.7c-0.1,0.3-0.3,0.5-0.5,0.7c-0.2,0.2-0.4,0.3-0.7,0.5S34,31,33.7,31c-0.3,0-0.6-0.1-0.9-0.2s-0.5-0.3-0.7-0.5	c-0.2-0.2-0.3-0.4-0.5-0.7c-0.1-0.3-0.2-0.6-0.2-0.9c0-0.3,0.1-0.6,0.2-0.9c0.1-0.3,0.3-0.5,0.5-0.7c0.2-0.2,0.4-0.3,0.7-0.5	c0.3-0.1,0.6-0.2,0.9-0.2c0.3,0,0.6,0.1,0.9,0.2c0.3,0.1,0.5,0.3,0.7,0.5c0.2,0.2,0.4,0.4,0.5,0.7c0.1,0.3,0.2,0.6,0.2,0.9	C35.9,29.1,35.8,29.4,35.7,29.7z M36.4,18.2c-0.1,0.9-0.3,1.7-0.4,2.6c-0.2,0.8-0.4,1.7-0.7,2.7H33c0-0.2,0-0.4,0-0.6	c0-0.2,0-0.4,0-0.6c0-0.7,0-1.4,0.1-2.1c0-0.7,0.1-1.4,0.2-2l1-8.3h3.2L36.4,18.2z"/></svg>