<svg xmlns="http://www.w3.org/2000/svg" xmlns:xlink="http://www.w3.org/1999/xlink" x="0" y="0" baseProfile="tiny" version="1.2" viewBox="0 0 100 100" xml:space="preserve"><path d="M72.9,61.3H40.4v-7.1h32.4L72.9,61.3L72.9,61.3z M72.9,45.9H40.4v-7.1h32.4L72.9,45.9L72.9,45.9z M72.9,30.4H40.4v-7.1h32.4L72.9,30.4L72.9,30.4z M17,89.4V11.1H83c0,0,0,44,0,51.5c0,14.9-18.4,8.9-18.4,8.9s5.6,18-8.3,18C48.7,89.4,45,89.4,17,89.4z M92.4,63.4V1.7H7.6v97.2h48.9C72.5,98.9,92.4,77.9,92.4,63.4z M30.5,22.8c-2.3,0-4.1,1.8-4.1,4.1c0,2.3,1.8,4.1,4.1,4.1c2.3,0,4.1-1.8,4.1-4.1C34.5,24.6,32.7,22.8,30.5,22.8z M30.5,38.4c-2.3,0-4.1,1.8-4.1,4.1c0,2.3,1.8,4.1,4.1,4.1c2.3,0,4.1-1.8,4.1-4.1C34.5,40.2,32.7,38.4,30.5,38.4z M30.5,53.6c-2.3,0-4.1,1.8-4.1,4.1c0,2.3,1.8,4.1,4.1,4.1c2.3,0,4.1-1.8,4.1-4.1C34.5,55.5,32.7,53.6,30.5,53.6z"/></svg>