<svg xmlns="http://www.w3.org/2000/svg" xmlns:xlink="http://www.w3.org/1999/xlink" x="0" y="0" baseProfile="tiny" class="download" version="1.2" viewBox="0 0 100 100" xml:space="preserve"><path d="M96.2,47.4c0,11.4-9.3,20.7-20.7,20.7h-8.3v-9h8.3c6.5,0,11.7-5.3,11.7-11.7c0-8-5.4-12.1-11.1-12.1C75.8,22,67,16.2,58.4,16.2c-11.3,0-16,8.6-17.1,11.8c-4.6-6.7-17.1-1.6-14.5,7.3c-7.8-1.4-14,4.4-14,12.1c0,6.5,5.3,11.7,12,11.7h11.4v9H24.8c-11.7,0-21-9.3-21-20.7c0-9.3,6.2-17.3,14.9-19.9c2.4-8.3,11.2-13.2,19.5-11c5-5.9,12.3-9.4,20.2-9.4c12.8,0,23.7,9.2,26,21.5C91.6,32.1,96.2,39.3,96.2,47.4z M68.2,76.3h-7.6V59.1H42.7v17.1h-7.6l16.5,16.6L68.2,76.3z"/></svg>