<svg xmlns="http://www.w3.org/2000/svg" xmlns:xlink="http://www.w3.org/1999/xlink" x="0" y="0" baseProfile="tiny" version="1.2" viewBox="0 0 50 50" xml:space="preserve"><path d="M38.8,33.2l-10.3,7.9l-10.3-7.8L6.7,44.7l0,3.5c0,1,0.9,1.8,1.9,1.8l39.7-0.1c1.1,0,1.9-0.8,1.9-1.8l0-3.5L38.8,33.2z"/><polygon points="15.8 31.4 6.7 24.5 6.7 40.4"/><polygon points="41.2 31.4 50.3 40.4 50.3 24.4"/><path d="M48.3,18.5L8.6,18.6c-1.1,0-1.9,0.8-1.9,1.8v0.8l21.8,16.6l21.8-16.7v-0.8C50.3,19.4,49.4,18.5,48.3,18.5zM35,26.8c-0.2,0.6-0.5,1.1-0.9,1.5c-0.4,0.4-0.8,0.8-1.3,1.1c-0.5,0.3-1.1,0.4-1.7,0.4c-0.7,0-1.3-0.2-1.7-0.5c-0.3,0.1-0.6,0.3-0.9,0.4c-0.3,0.1-0.7,0.2-1.2,0.2c-0.3,0-0.6,0-0.9-0.1c-0.3-0.1-0.5-0.2-0.7-0.4c-0.2-0.2-0.4-0.4-0.5-0.7c-0.1-0.3-0.2-0.6-0.2-1c0-0.6,0.1-1.2,0.3-1.7c0.2-0.5,0.5-1,0.9-1.4c0.4-0.4,0.8-0.7,1.3-0.9c0.5-0.2,1.1-0.3,1.7-0.3c0.4,0,0.9,0,1.3,0.1c0.4,0.1,0.8,0.2,1.2,0.3l-1,4.7c0.1,0.1,0.3,0.1,0.5,0.1c0.4,0,0.7-0.1,1-0.3c0.3-0.2,0.5-0.5,0.7-0.8c0.2-0.3,0.3-0.7,0.4-1.1c0.1-0.4,0.1-0.8,0.1-1.2c0-1.1-0.4-1.9-1-2.5c-0.7-0.6-1.7-0.8-2.9-0.8c-1,0-1.8,0.2-2.6,0.5c-0.8,0.3-1.4,0.7-1.9,1.3c-0.5,0.5-0.9,1.1-1.2,1.8c-0.3,0.7-0.4,1.4-0.4,2.1c0,0.7,0.1,1.2,0.3,1.7c0.2,0.5,0.5,0.9,0.9,1.2c0.4,0.3,0.8,0.5,1.3,0.7c0.5,0.1,1,0.2,1.6,0.2c0.5,0,1,0,1.4-0.1c0.4-0.1,0.8-0.2,1.2-0.3c0.1,0.2,0.2,0.4,0.3,0.6c0.1,0.2,0.2,0.4,0.2,0.7c-0.2,0.1-0.4,0.2-0.6,0.2c-0.3,0.1-0.5,0.1-0.8,0.2c-0.3,0-0.6,0.1-0.9,0.1c-0.3,0-0.6,0-1,0c-0.8,0-1.5-0.1-2.2-0.3c-0.7-0.2-1.3-0.5-1.8-0.9c-0.5-0.4-0.9-1-1.2-1.6c-0.3-0.6-0.5-1.4-0.5-2.3c0-0.8,0.2-1.7,0.5-2.5c0.3-0.9,0.8-1.6,1.5-2.3c0.7-0.7,1.5-1.2,2.5-1.7c1-0.4,2.3-0.7,3.7-0.7c0.8,0,1.5,0.1,2.1,0.3c0.7,0.2,1.3,0.5,1.8,0.9c0.5,0.4,0.9,0.9,1.2,1.5c0.3,0.6,0.4,1.3,0.4,2.1C35.3,25.7,35.2,26.2,35,26.8z"/><path d="M29,24.7c-0.3,0-0.6,0.1-0.9,0.2c-0.3,0.1-0.5,0.3-0.7,0.6c-0.2,0.2-0.3,0.5-0.4,0.8c-0.1,0.3-0.1,0.6-0.1,1c0,0.4,0.1,0.7,0.3,0.9c0.2,0.2,0.5,0.3,0.8,0.3c0.2,0,0.4,0,0.5,0c0.1,0,0.3-0.1,0.5-0.1l0.6-3.5c-0.1,0-0.2,0-0.3-0.1C29.2,24.7,29.1,24.7,29,24.7z"/></svg>