<?xml version="1.0" encoding="utf-8"?>
<!-- Generator: Adobe Illustrator 18.1.0, SVG Export Plug-In . SVG Version: 6.00 Build 0)  -->
<svg version="1.2" baseProfile="tiny" xmlns="http://www.w3.org/2000/svg" xmlns:xlink="http://www.w3.org/1999/xlink" x="0px" y="0px" viewBox="0 0 100 100" xml:space="preserve">
  <path d="M92.1,3.3H8.5c-2.9,0-5.2,2.3-5.2,5.2v83.6c0,2.9,2.3,5.2,5.2,5.2h45V60.9H41.3V46.7h12.2V36.3c0-12.1,7.4-18.7,18.2-18.7c5.2,0,9.6,0.4,10.9,0.6v12.7l-7.5,0c-5.9,0-7,2.8-7,6.9v9.1h14l-1.8,14.2H68.2v36.4h23.9c2.9,0,5.2-2.3,5.2-5.2V8.5C97.3,5.7,95,3.3,92.1,3.3z"/>
</svg>
