<svg xmlns="http://www.w3.org/2000/svg" xmlns:xlink="http://www.w3.org/1999/xlink" id="Layer_1" x="0" y="0" baseProfile="tiny" version="1.2" viewBox="0 0 400 400" xml:space="preserve"><circle cx="200" cy="200" r="189.7" fill="none" stroke="#010101" stroke-miterlimit="10" stroke-width="13"/><path d="M170.7,92.7c-52.2,0-78.7,30.1-78.7,86l0,0v39.1v78.3l51-51v-59.6c0-23.3,6.1-38,26.8-41.2l0,0c7.2-1.4,22.1-0.9,31.7-0.9	l0,0v35.4c0,0.2,0,0.9,0.2,1.2l0,0c0.5,1.4,1.6,2.6,3.3,2.6l0,0c0.9,0,1.6-0.5,2.6-1.2l0,0l88.3-88.5h-59.4H170.7z"/><path d="M255.5,152.4V212c0,23.3-6.1,38-26.8,41.2l0,0c-7.2,1.4-22.1,0.9-31.7,0.9l0,0V219c0-0.2,0-0.9-0.2-1.2l0,0	c-0.5-1.4-1.6-2.6-3.3-2.6l0,0c-0.9,0-1.6,0.5-2.6,1.2l0,0L102.7,305h59.4h65.9c52.2,0,78.7-30.1,78.7-86l0,0v-39.1v-78.5	L255.5,152.4z"/></svg>