<?xml version="1.0" encoding="utf-8"?>
<!-- Generator: Adobe Illustrator 18.1.1, SVG Export Plug-In . SVG Version: 6.00 Build 0)  -->
<svg version="1.2" baseProfile="tiny" id="Layer_1" xmlns="http://www.w3.org/2000/svg" xmlns:xlink="http://www.w3.org/1999/xlink"
	 x="0px" y="0px" viewBox="0 0 400 400" xml:space="preserve">
<path fill="#010101" d="M164.5,70.5c-63.6,0-96,36.6-96,104.8l0,0V223v95.4l62.2-62.2v-72.7c0-28.4,7.4-46.3,32.6-50.3l0,0
	c8.8-1.7,27-1.1,38.6-1.1l0,0v43.2c0,0.3,0,1.1,0.3,1.4l0,0c0.6,1.7,2,3.1,4,3.1l0,0c1.1,0,2-0.6,3.1-1.4l0,0L316.9,70.5h-72.4
	H164.5z"/>
<path fill="#010101" d="M267.8,143.2v72.7c0,28.4-7.4,46.3-32.6,50.3l0,0c-8.8,1.7-27,1.1-38.6,1.1l0,0v-42.9c0-0.3,0-1.1-0.3-1.4
	l0,0c-0.6-1.7-2-3.1-4-3.1l0,0c-1.1,0-2,0.6-3.1,1.4l0,0L81.6,329.2H154h80.3c63.6,0,96-36.6,96-104.8l0,0v-47.7V81L267.8,143.2z"/>
</svg>
