<?xml version="1.0" encoding="utf-8"?>
<!-- Generator: Adobe Illustrator 19.1.0, SVG Export Plug-In . SVG Version: 6.00 Build 0)  -->
<svg version="1.1" xmlns="http://www.w3.org/2000/svg" xmlns:xlink="http://www.w3.org/1999/xlink" x="0px" y="0px"
	 viewBox="0 0 100 100" style="enable-background:new 0 0 100 100;" xml:space="preserve">
<g id="Layer_1">
	<g>
		<polygon points="50.6,28.3 60.8,24.7 50,20.9 39.3,24.6 		"/>
		<polygon points="32,36 32,34.8 34.3,34.1 43.8,30.7 32.7,27 20.9,31.1 20.9,39.3 32,43.6 		"/>
		<polygon points="67.5,27 57.8,30.6 66.7,33.5 69.7,34.5 69.7,35.8 69.7,42.1 79.1,38 79.1,31.1 		"/>
		<polygon points="62.1,36.9 51,33.1 39.6,37.3 39.6,46.5 50,50.5 62.1,45.3 		"/>
	</g>
</g>
<g id="Layer_2">
	<g>
		<g>
			<polygon points="60.9,47.4 50,52.2 40.8,48.6 40.8,73.5 50,79.1 60.9,72 			"/>
			<polygon points="33.2,45.6 22.3,41.4 22.3,62.4 33.2,69 			"/>
			<polygon points="68.5,44 68.5,67.1 77.7,61.1 77.7,39.9 			"/>
		</g>
	</g>
</g>
</svg>
