<?xml version="1.0" encoding="utf-8"?>
<!-- Generator: Adobe Illustrator 18.1.0, SVG Export Plug-In . SVG Version: 6.00 Build 0)  -->
<svg version="1.2" baseProfile="tiny" xmlns="http://www.w3.org/2000/svg" xmlns:xlink="http://www.w3.org/1999/xlink" x="0px" y="0px" viewBox="0 0 100 100" xml:space="preserve">
  <path d="M49.1,32.4c-1-7.2-5.6-13.1-11.1-13.3c-5.5-0.2-9.2,5.4-8.2,12.6c0.9,7.2,6.2,12.3,11.7,12.4C46.9,44.2,50.1,39.6,49.1,32.4z"/>
  <path d="M91.9,3.3H9.2C6,3.3,3.3,6,3.3,9.2v82.7c0,3.3,2.6,5.9,5.9,5.9h82.7c3.3,0,5.9-2.6,5.9-5.9V9.2C97.8,6,95.2,3.3,91.9,3.3zM39.2,85.3c-11.8,0-21.7-5.1-21.7-13.7c0-6.6,4.2-15.2,23.8-15.2c-2.9-2.4-3.6-5.7-1.8-9.3c-11.5,0-17.4-6.7-17.4-15.3c0-8.4,6.2-16,19-16c3.2,0,20.4,0,20.4,0l-4.6,4.6h-5.3c3.8,2.3,5.8,6.7,5.8,11.6c0,4.5-2.5,8.2-6,11c-6.3,4.9-4.7,7.6,1.9,12.4c6.5,4.9,8.6,8.6,8.6,14.4C61.8,76.7,55.4,85.3,39.2,85.3z M84.1,49.4h-8v8h-4.8v-8h-7.7v-4.8h7.7v-7.7h4.8v7.7h8V49.4z"/>
  <path d="M40.3,58.8c-8.2-0.1-15.1,5.2-15.1,11.3c0,6.2,5.9,11.4,14.1,11.4c10.5,0,15.5-4.9,15.5-11.1C54.8,64.5,49.4,58.8,40.3,58.8z"/>
</svg>
