<svg xmlns="http://www.w3.org/2000/svg" xmlns:xlink="http://www.w3.org/1999/xlink" id="GooglePlus" x="0" y="0" version="1.1" viewBox="0 0 100 100" xml:space="preserve" style="enable-background:new 0 0 100 100"><style type="text/css">.st0{fill:#010101}</style><g id="XMLID_10_"><path id="XMLID_9_" d="M49,37.8c-0.7-4.8-3.7-8.7-7.3-8.8s-6.1,3.6-5.4,8.3c0.6,4.8,4.1,8.1,7.7,8.2 C47.5,45.6,49.7,42.6,49,37.8z" class="st0"/><path id="XMLID_13_" d="M77.3,18.6H22.6c-2.1,0-3.9,1.8-3.9,3.9v54.6c0,2.2,1.7,3.9,3.9,3.9h54.6 c2.2,0,3.9-1.7,3.9-3.9V22.5C81.2,20.4,79.4,18.6,77.3,18.6z M42.5,72.7c-7.8,0-14.3-3.4-14.3-9c0-4.4,2.8-10,15.7-10 c-1.9-1.6-2.4-3.8-1.2-6.1c-7.6,0-11.5-4.4-11.5-10.1c0-5.5,4.1-10.6,12.5-10.6c2.1,0,13.5,0,13.5,0l-3,3h-3.5 c2.5,1.5,3.8,4.4,3.8,7.7c0,3-1.7,5.4-4,7.3c-4.2,3.2-3.1,5,1.3,8.2c4.3,3.2,5.7,5.7,5.7,9.5C57.4,67.1,53.2,72.7,42.5,72.7z M72.1,49h-5.3v5.3h-3.2V49h-5.1v-3.2h5.1v-5.1h3.2v5.1h5.3V49z" class="st0"/><path id="XMLID_5_" d="M43.2,55.2c-5.4-0.1-10,3.4-10,7.5c0,4.1,3.9,7.5,9.3,7.5c6.9,0,10.2-3.2,10.2-7.3 C52.8,59,49.2,55.2,43.2,55.2z" class="st0"/></g></svg>