<?xml version="1.0" encoding="utf-8"?>
<!-- Generator: Adobe Illustrator 19.0.0, SVG Export Plug-In . SVG Version: 6.00 Build 0)  -->
<!DOCTYPE svg PUBLIC "-//W3C//DTD SVG 1.1//EN" "http://www.w3.org/Graphics/SVG/1.1/DTD/svg11.dtd">
<svg version="1.1" xmlns="http://www.w3.org/2000/svg" xmlns:xlink="http://www.w3.org/1999/xlink" x="0px" y="0px"
	 viewBox="0 0 100 100" style="enable-background:new 0 0 100 100;" xml:space="preserve">
<style type="text/css">
	.st0{fill:#ED1F24;}
	.st1{fill:#69BD45;}
	.st2{fill:#020202;}
</style>
<g id="Flattr">
	<path id="XMLID_14_" class="st0" d="M41.4,21.5c-13.7,0-20.6,7.9-20.6,22.5l0,0v10.2v20.5l13.3-13.3V45.8c0-6.1,1.6-9.9,7-10.8l0,0
		c1.9-0.4,5.8-0.2,8.3-0.2l0,0V44c0,0.1,0,0.2,0.1,0.3l0,0c0.1,0.4,0.4,0.7,0.9,0.7l0,0c0.2,0,0.4-0.1,0.7-0.3l0,0l23.1-23.2H58.6
		L41.4,21.5L41.4,21.5z"/>
	<path id="XMLID_3_" class="st1" d="M63.6,37.1v15.6c0,6.1-1.6,9.9-7,10.8l0,0c-1.9,0.4-5.8,0.2-8.3,0.2l0,0v-9.2
		c0-0.1,0-0.2-0.1-0.3l0,0c-0.1-0.4-0.4-0.7-0.9-0.7l0,0c-0.2,0-0.4,0.1-0.7,0.3l0,0L23.6,77.1h15.5h17.2c13.7,0,20.6-7.9,20.6-22.5
		l0,0V44.3V23.8L63.6,37.1z"/>
</g>
<g id="RSS">
	<g id="XMLID_57_">
		<path id="XMLID_60_" class="st2" d="M24.6,69.7c0,4.1,3.2,7.4,7,7.4c3.9,0,7.1-3.3,7.1-7.4c0-4.1-3.2-7.4-7.1-7.4
			C27.8,62.3,24.6,65.7,24.6,69.7z"/>
		<path id="XMLID_59_" class="st2" d="M24.6,51c6.6,0,12.8,2.7,17.5,7.6s7.3,11.5,7.3,18.4h10.2c0-20.3-15.7-36.7-35-36.7
			C24.6,40.3,24.6,51,24.6,51z"/>
		<path id="XMLID_58_" class="st2" d="M24.6,32.1c23.6,0,42.8,20.2,42.8,44.9h10.2c0-30.7-23.8-55.6-53-55.6
			C24.6,21.4,24.6,32.1,24.6,32.1z"/>
	</g>
</g>
</svg>
