<?xml version="1.0" encoding="utf-8"?>
<!-- Generator: Adobe Illustrator 19.0.0, SVG Export Plug-In . SVG Version: 6.00 Build 0)  -->
<!DOCTYPE svg PUBLIC "-//W3C//DTD SVG 1.1//EN" "http://www.w3.org/Graphics/SVG/1.1/DTD/svg11.dtd">
<svg version="1.1" xmlns="http://www.w3.org/2000/svg" xmlns:xlink="http://www.w3.org/1999/xlink" x="0px" y="0px"
	 viewBox="0 0 100 100" style="enable-background:new 0 0 100 100;" xml:space="preserve">
<style type="text/css">
	.st0{fill:#020202;}
	.st1{display:none;}
	.st2{display:inline;}
	.st3{fill:#0A0C0D;}
	.st4{fill:#ED1F24;}
	.st5{fill:#69BD45;}
	.st6{display:inline;fill:#010101;}
</style>
<g id="Circle">
	<g id="XMLID_2_">
		<path id="XMLID_34_" class="st0" d="M50,4c25.4,0,46,20.6,46,46S75.4,96,50,96S4,75.4,4,50S24.6,4,50,4 M50,0C22.4,0,0,22.4,0,50
			s22.4,50,50,50s50-22.4,50-50S77.6,0,50,0L50,0z"/>
	</g>
</g>
<g id="Twitter" class="st1">
	<g id="XMLID_4_" class="st2">
		<path id="XMLID_1_" class="st0" d="M80.2,30.5c-2.3,1-4.8,1.8-7.4,2c2.6-1.6,4.7-4.1,5.7-7.1c-2.5,1.5-5.2,2.6-8.2,3.2
			c-2.3-2.5-5.7-4.1-9.5-4.1c-7.1,0-13,5.8-13,13c0,1,0.1,2,0.3,2.9c-10.8-0.6-20.3-5.7-26.7-13.6c-1.2,1.9-1.8,4.1-1.8,6.6
			c0,4.5,2.3,8.5,5.8,10.8c-2,0-4.1-0.7-5.8-1.6v0.1c0,6.3,4.5,11.5,10.4,12.7c-1.2,0.3-2.2,0.4-3.4,0.4c-0.9,0-1.6,0-2.5-0.3
			c1.6,5.1,6.4,8.9,12.1,9c-4.5,3.5-10.1,5.5-16,5.5c-1,0-2,0-3.1-0.1c5.7,3.7,12.6,5.8,20,5.8c23.9,0,36.9-19.8,36.9-36.9
			c0-0.6,0-1.2,0-1.8C76.3,35.4,78.5,33,80.2,30.5z"/>
	</g>
</g>
<g id="Layer_3" class="st1">
	<g id="XMLID_63_" class="st2">
		<path id="XMLID_70_" class="st3" d="M30,30.8c1,0.2,4.6-8.8,14.4-9.2c4.9-0.1,8.6,3.9,9.1,3.2s-1.9-4.1-9.6-4.4
			C35,20.4,29.1,30.5,30,30.8z"/>
		<path id="XMLID_69_" class="st3" d="M29.9,27.5c0,0,4.4-10.1,14-10.7c6-0.1,7.7,3.6,7.7,3.6s-1.2-1.9-7.7-2.2
			C34.7,18.7,29.9,27.5,29.9,27.5z"/>
		<ellipse id="XMLID_68_" class="st3" cx="51.2" cy="35.1" rx="1.3" ry="2.1"/>
		<ellipse id="XMLID_67_" class="st3" cx="44.4" cy="34.6" rx="0.9" ry="1.7"/>
		<path id="XMLID_64_" class="st3" d="M63.3,60.8c-8.4,0.1-17.3,6.9-20.4,9.5c-2.2-2-3.4-4.6-2.5-7.9c0-1.9,4.7-8,9.6-9.8
			c1.3,1.5,3.4,3.8,4.3,3.5c0.8-0.3,2.2-3.4,3.1-5.4c1.8-0.3,3.5-0.5,5.1-0.6c0.8,1.8,2.6,4.9,3.5,4.8s3.4-3.3,4.5-5
			c1,0,1.5,0.1,1.5,0.1c-0.2-0.6-0.4-1.2-0.7-1.8c-1.4-3.1-3.1-6.1-5.4-8.6c-1.5-1.7-3.3-3.2-5.2-4.5c-1.9-1.2-4.3-2.1-5.9-3.6
			c-0.8-0.7-1.5-1.8-2.5-2.3c-0.9-0.4-2.4-0.3-3.2,0.3c-0.6,0.5-0.5,0.6-1.2,0.3c-1.1-0.6-1.8-1.8-2.7-2.5c-2.4-1.8-5.8-1.1-7.9,1
			c-1,1.1-1.6,2.5-2.6,3.7c-1.2,1.4-3,1.9-4.3,3.1c-2.6,2.4-4.9,5-6.5,8.1c-1.4,2.8-2.3,6-2.6,9.1c-1,9,1.2,17.7,16.5,26.6
			C51.4,84.9,64.9,77,64.9,77s-12-0.6-19.3-4.8c1.2-1.1,3.5-2.6,7.4-4.3c6.7-2.7,13.5,0.8,14.3,2.7c0.9,2,0.9,6.4,0.9,6.4
			s2.3-2.5,2-5.1c-0.3-2.7-1.3-5.4-1.3-5.4s1.9,0.5,3.8,2.5c1.9,2,2.5,6,2.5,6s1.7-3.1,1.6-5.8C76.6,66.5,73.8,60.6,63.3,60.8z
			 M38.6,50.6c-4-0.8-6.2-6.4-5-12.6c1.2-6.2,5.4-10.6,9.4-9.8c2.2,0.4,3.8,2.3,4.7,4.9c0.5-1.5,1.4-2.5,2.6-2.8
			c2.5-0.6,5.4,2.3,6.5,6.6c1.1,4.3-0.1,8.3-2.6,8.9c-2.2,0.6-4.8-1.7-6.1-5.3c0,0.1,0,0.2,0,0.2C46.8,47,42.6,51.4,38.6,50.6z"/>
	</g>
</g>
<g id="Flattr">
	<path id="XMLID_14_" class="st4" d="M41.4,21.5c-13.7,0-20.6,7.9-20.6,22.5l0,0v10.2v20.5l13.3-13.3V45.8c0-6.1,1.6-9.9,7-10.8l0,0
		c1.9-0.4,5.8-0.2,8.3-0.2l0,0V44c0,0.1,0,0.2,0.1,0.3l0,0c0.1,0.4,0.4,0.7,0.9,0.7l0,0c0.2,0,0.4-0.1,0.7-0.3l0,0l23.1-23.2H58.6
		L41.4,21.5L41.4,21.5z"/>
	<path id="XMLID_3_" class="st5" d="M63.6,37.1v15.6c0,6.1-1.6,9.9-7,10.8l0,0c-1.9,0.4-5.8,0.2-8.3,0.2l0,0v-9.2
		c0-0.1,0-0.2-0.1-0.3l0,0c-0.1-0.4-0.4-0.7-0.9-0.7l0,0c-0.2,0-0.4,0.1-0.7,0.3l0,0L23.6,77.1h15.5h17.2c13.7,0,20.6-7.9,20.6-22.5
		l0,0V44.3V23.8L63.6,37.1z"/>
</g>
<g id="RSS">
	<g id="XMLID_57_">
		<path id="XMLID_60_" class="st0" d="M24.6,69.7c0,4.1,3.2,7.4,7,7.4c3.9,0,7.1-3.3,7.1-7.4c0-4.1-3.2-7.4-7.1-7.4
			C27.8,62.3,24.6,65.7,24.6,69.7z"/>
		<path id="XMLID_59_" class="st0" d="M24.6,51c6.6,0,12.8,2.7,17.5,7.6s7.3,11.5,7.3,18.4h10.2c0-20.3-15.7-36.7-35-36.7
			C24.6,40.3,24.6,51,24.6,51z"/>
		<path id="XMLID_58_" class="st0" d="M24.6,32.1c23.6,0,42.8,20.2,42.8,44.9h10.2c0-30.7-23.8-55.6-53-55.6
			C24.6,21.4,24.6,32.1,24.6,32.1z"/>
	</g>
</g>
<g id="Facebook" class="st1">
	<path id="XMLID_21_" class="st6" d="M76.8,18.3H21.9c-1.9,0-3.4,1.5-3.4,3.4v54.9c0,1.9,1.5,3.4,3.4,3.4h29.5V56.1h-8v-9.3h8V40
		c0-7.9,4.9-12.3,12-12.3c3.4,0,6.3,0.3,7.2,0.4v8.3h-4.9c-3.9,0-4.6,1.8-4.6,4.5v6h9.2L69,56.3h-7.9v23.9h15.7
		c1.9,0,3.4-1.5,3.4-3.4v-55C80.2,19.9,78.7,18.3,76.8,18.3z"/>
</g>
<g id="GooglePlus" class="st1">
	<path id="XMLID_52_" class="st6" d="M77.2,18.6h-55c-2.1,0-3.9,1.8-3.9,3.9v55c0,2.2,1.7,3.9,3.9,3.9h55c2.2,0,3.9-1.7,3.9-3.9v-55
		C81.2,20.4,79.4,18.6,77.2,18.6z M42.2,73.1c-7.8,0-14.4-3.4-14.4-9.1c0-4.4,2.8-10.1,15.8-10.1c-1.9-1.6-2.4-3.8-1.2-6.2
		c-7.6,0-11.6-4.5-11.6-10.2c0-5.6,4.1-10.6,12.6-10.6c2.1,0,13.6,0,13.6,0L54,30h-3.5c2.5,1.5,3.9,4.5,3.9,7.7c0,3-1.7,5.5-4,7.3
		c-4.2,3.3-3.1,5.1,1.3,8.2c4.3,3.3,5.7,5.7,5.7,9.6C57.2,67.4,53,73.1,42.2,73.1z M72.1,49.2h-5.3v5.3h-3.2v-5.3h-5.1V46h5.1v-5.1
		h3.2V46h5.3V49.2z"/>
</g>
<g id="Document" class="st1">
	<path id="XMLID_33_" class="st6" d="M65.3,57H44.2v-4.6h21L65.3,57L65.3,57z M65.3,47H44.2v-4.6h21L65.3,47L65.3,47z M65.3,37H44.2
		v-4.6h21L65.3,37L65.3,37z M29.1,75.3V24.4h42.8c0,0,0,28.6,0,33.4c0,9.7-11.9,5.8-11.9,5.8s3.6,11.7-5.4,11.7
		C49.6,75.3,47.2,75.3,29.1,75.3z M78,58.4V18.3H23v63.1h31.7C65.1,81.4,78,67.8,78,58.4z M37.8,32c-1.5,0-2.7,1.2-2.7,2.7
		c0,1.5,1.2,2.7,2.7,2.7s2.7-1.2,2.7-2.7C40.4,33.2,39.2,32,37.8,32z M37.8,42.1c-1.5,0-2.7,1.2-2.7,2.7c0,1.5,1.2,2.7,2.7,2.7
		s2.7-1.2,2.7-2.7C40.4,43.3,39.2,42.1,37.8,42.1z M37.8,52c-1.5,0-2.7,1.2-2.7,2.7c0,1.5,1.2,2.7,2.7,2.7s2.7-1.2,2.7-2.7
		C40.4,53.2,39.2,52,37.8,52z"/>
</g>
<g id="Download" class="st1">
	<path id="XMLID_40_" class="st6" d="M81.2,49.4c0,7.7-6.3,13.9-13.9,13.9h-5.6v-6.1h5.6c4.4,0,7.9-3.6,7.9-7.9
		c0-5.4-3.6-8.2-7.5-8.2c-0.2-9-6.1-12.9-11.9-12.9c-7.6,0-10.8,5.8-11.5,8c-3.1-4.5-11.5-1.1-9.8,4.9c-5.3-0.9-9.4,3-9.4,8.2
		c0,4.4,3.6,7.9,8.1,7.9h7.7v6.1h-7.7c-7.9,0-14.2-6.3-14.2-13.9c0-6.3,4.2-11.7,10-13.4c1.6-5.6,7.5-8.9,13.1-7.4
		c3.4-4,8.3-6.3,13.6-6.3c8.6,0,16,6.2,17.5,14.5C78.1,39.1,81.2,43.9,81.2,49.4z M62.3,68.8h-5.1V57.3H45.1v11.5H40L51.1,80
		L62.3,68.8z"/>
</g>
</svg>
