<svg xmlns="http://www.w3.org/2000/svg" xmlns:xlink="http://www.w3.org/1999/xlink" x="0" y="0" version="1.1" viewBox="0 0 100 100" xml:space="preserve" style="enable-background:new 0 0 100 100"><style type="text/css">.st0{fill-rule:evenodd;clip-rule:evenodd}</style><g id="IconCircle_1_"><g id="IconCircle"><path d="M50,4c25.4,0,46,20.6,46,46S75.4,96,50,96S4,75.4,4,50S24.6,4,50,4 M50,0C22.4,0,0,22.4,0,50s22.4,50,50,50s50-22.4,50-50 S77.6,0,50,0z"/></g></g><g id="IconBallpit_1_"><g id="IconBallpit"><path d="M30,30.8c1,0.2,4.6-8.8,14.4-9.2c4.9-0.1,8.6,3.9,9.1,3.2s-1.9-4.1-9.6-4.4C35,20.4,29.1,30.5,30,30.8z"/><path d="M29.9,27.5c0,0,4.4-10.1,14-10.7c6-0.1,7.7,3.6,7.7,3.6s-1.2-1.9-7.7-2.2C34.7,18.7,29.9,27.5,29.9,27.5z"/><ellipse cx="51.2" cy="35.1" rx="1.3" ry="2.1"/><ellipse cx="44.4" cy="34.6" rx=".9" ry="1.7"/><path d="M63.3,60.8c-8.4,0.1-17.3,6.9-20.4,9.5c-2.2-2-3.4-4.6-2.5-7.9c0-1.9,4.7-8,9.6-9.8c1.3,1.5,3.4,3.8,4.3,3.5 c0.8-0.3,2.2-3.4,3.1-5.4c1.8-0.3,3.5-0.5,5.1-0.6c0.8,1.8,2.6,4.9,3.5,4.8s3.4-3.3,4.5-5c1,0,1.5,0.1,1.5,0.1 c-0.2-0.6-0.4-1.2-0.7-1.8c-1.4-3.1-3.1-6.1-5.4-8.6c-1.5-1.7-3.3-3.2-5.2-4.5c-1.9-1.2-4.3-2.1-5.9-3.6c-0.8-0.7-1.5-1.8-2.5-2.3 c-0.9-0.4-2.4-0.3-3.2,0.3c-0.6,0.5-0.5,0.6-1.2,0.3c-1.1-0.6-1.8-1.8-2.7-2.5c-2.4-1.8-5.8-1.1-7.9,1c-1,1.1-1.6,2.5-2.6,3.7 c-1.2,1.4-3,1.9-4.3,3.1c-2.6,2.4-4.9,5-6.5,8.1c-1.4,2.8-2.3,6-2.6,9.1c-1,9,1.2,17.7,16.5,26.6c13.6,6,27.1-1.9,27.1-1.9 s-12-0.6-19.3-4.8c1.2-1.1,3.5-2.6,7.4-4.3c6.7-2.7,13.5,0.8,14.3,2.7c0.9,2,0.9,6.4,0.9,6.4s2.3-2.5,2-5.1 c-0.3-2.7-1.3-5.4-1.3-5.4s1.9,0.5,3.8,2.5s2.5,6,2.5,6s1.7-3.1,1.6-5.8C76.6,66.5,73.8,60.6,63.3,60.8L63.3,60.8z M38.6,50.6 c-4-0.8-6.2-6.4-5-12.6S39,27.4,43,28.2c2.2,0.4,3.8,2.3,4.7,4.9c0.5-1.5,1.4-2.5,2.6-2.8c2.5-0.6,5.4,2.3,6.5,6.6 s-0.1,8.3-2.6,8.9c-2.2,0.6-4.8-1.7-6.1-5.3v0.2C46.8,47,42.6,51.4,38.6,50.6z"/></g></g><g id="IconTwitter"><g id="IconTwitter_1_"><path d="M80.2,30.5c-2.3,1-4.8,1.8-7.4,2c2.6-1.6,4.7-4.1,5.7-7.1c-2.5,1.5-5.2,2.6-8.2,3.2c-2.3-2.5-5.7-4.1-9.5-4.1 c-7.1,0-13,5.8-13,13c0,1,0.1,2,0.3,2.9c-10.8-0.6-20.3-5.7-26.7-13.6c-1.2,1.9-1.8,4.1-1.8,6.6c0,4.5,2.3,8.5,5.8,10.8 c-2,0-4.1-0.7-5.8-1.6v0.1c0,6.3,4.5,11.5,10.4,12.7c-1.2,0.3-2.2,0.4-3.4,0.4c-0.9,0-1.6,0-2.5-0.3c1.6,5.1,6.4,8.9,12.1,9 C31.7,68,26.1,70,20.2,70c-1,0-2,0-3.1-0.1c5.7,3.7,12.6,5.8,20,5.8C61,75.7,74,55.9,74,38.8V37C76.3,35.4,78.5,33,80.2,30.5z"/></g></g><g id="IconFlattr_1_"><g id="IconFlattr"><path id="FlattrTopLeft" d="M41.4,21.5c-13.7,0-20.6,7.9-20.6,22.5v30.7l13.3-13.3V45.8c0-6.1,1.6-9.9,7-10.8 c1.9-0.4,5.8-0.2,8.3-0.2V44c0,0.1,0,0.2,0.1,0.3c0.1,0.4,0.4,0.7,0.9,0.7c0.2,0,0.4-0.1,0.7-0.3l23.1-23.2H41.4z"/><path id="FlattrBottomRight" d="M63.6,37.1v15.6c0,6.1-1.6,9.9-7,10.8c-1.9,0.4-5.8,0.2-8.3,0.2v-9.2c0-0.1,0-0.2-0.1-0.3 c-0.1-0.4-0.4-0.7-0.9-0.7c-0.2,0-0.4,0.1-0.7,0.3l-23,23.3h32.7c13.7,0,20.6-7.9,20.6-22.5V23.8L63.6,37.1z"/></g></g><g id="IconRSS_1_"><g id="IconRSS"><path d="M24.6,69.7c0,4.1,3.2,7.4,7,7.4c3.9,0,7.1-3.3,7.1-7.4s-3.2-7.4-7.1-7.4C27.8,62.3,24.6,65.7,24.6,69.7z"/><path d="M24.6,51c6.6,0,12.8,2.7,17.5,7.6s7.3,11.5,7.3,18.4h10.2c0-20.3-15.7-36.7-35-36.7C24.6,40.3,24.6,51,24.6,51z"/><path d="M24.6,32.1c23.6,0,42.8,20.2,42.8,44.9h10.2c0-30.7-23.8-55.6-53-55.6C24.6,21.4,24.6,32.1,24.6,32.1z"/></g></g><g id="IconFacebook_1_"><g id="IconFacebook"><path d="M76.8,18.3H21.9c-1.9,0-3.4,1.5-3.4,3.4v54.9c0,1.9,1.5,3.4,3.4,3.4h29.5V56.1h-8v-9.3h8V40c0-7.9,4.9-12.3,12-12.3 c3.4,0,6.3,0.3,7.2,0.4v8.3h-4.9c-3.9,0-4.6,1.8-4.6,4.5v6h9.2L69,56.3h-7.9v23.9h15.7c1.9,0,3.4-1.5,3.4-3.4v-55 C80.2,19.9,78.7,18.3,76.8,18.3z"/></g></g><g id="IconGooglePlus_1_"><g id="IconGooglePlus"><path d="M49,37.8c-0.7-4.8-3.7-8.7-7.3-8.8s-6.1,3.6-5.4,8.3c0.6,4.8,4.1,8.1,7.7,8.2C47.5,45.6,49.7,42.6,49,37.8z"/><path d="M77.3,18.6H22.6c-2.1,0-3.9,1.8-3.9,3.9v54.6c0,2.2,1.7,3.9,3.9,3.9h54.6c2.2,0,3.9-1.7,3.9-3.9V22.5 C81.2,20.4,79.4,18.6,77.3,18.6z M42.5,72.7c-7.8,0-14.3-3.4-14.3-9c0-4.4,2.8-10,15.7-10c-1.9-1.6-2.4-3.8-1.2-6.1 c-7.6,0-11.5-4.4-11.5-10.1c0-5.5,4.1-10.6,12.5-10.6h13.5l-3,3h-3.5c2.5,1.5,3.8,4.4,3.8,7.7c0,3-1.7,5.4-4,7.3 c-4.2,3.2-3.1,5,1.3,8.2c4.3,3.2,5.7,5.7,5.7,9.5C57.4,67.1,53.2,72.7,42.5,72.7z M72.1,49h-5.3v5.3h-3.2V49h-5.1v-3.2h5.1v-5.1 h3.2v5.1h5.3V49z"/><path d="M43.2,55.2c-5.4-0.1-10,3.4-10,7.5s3.9,7.5,9.3,7.5c6.9,0,10.2-3.2,10.2-7.3C52.8,59,49.2,55.2,43.2,55.2z"/></g></g><g id="IconGithub"><path d="M50,15.3c-19,0-34.3,15.4-34.3,34.3c0,15.2,9.8,28,23.5,32.6c1.7,0.3,2.3-0.7,2.3-1.7c0-0.8,0-3,0-5.8 c-9.5,2.1-11.6-4.6-11.6-4.6c-1.6-4-3.8-5-3.8-5C23,63,26.3,63,26.3,63c3.4,0.2,5.3,3.5,5.3,3.5c3.1,5.2,8,3.7,10,2.9 c0.3-2.2,1.2-3.7,2.2-4.6c-7.6-0.9-15.6-3.8-15.6-17c0-3.7,1.3-6.8,3.5-9.2c-0.4-0.9-1.5-4.4,0.3-9.1c0,0,2.9-0.9,9.4,3.5 c2.7-0.8,5.7-1.1,8.6-1.2c2.9,0,5.9,0.4,8.6,1.2c6.6-4.4,9.4-3.5,9.4-3.5c1.9,4.7,0.7,8.2,0.3,9.1c2.2,2.4,3.5,5.5,3.5,9.2 c0,13.2-8,16.1-15.7,16.9c1.2,1.1,2.3,3.2,2.3,6.4c0,4.6,0,8.3,0,9.4c0,0.9,0.6,2,2.4,1.7c13.6-4.5,23.5-17.4,23.5-32.6 C84.3,30.7,69,15.3,50,15.3z" class="st0"/></g><g id="IconDownload_1_"><g id="IconDownload"><path d="M81.2,49.4c0,7.7-6.3,13.9-13.9,13.9h-5.6v-6.1h5.6c4.4,0,7.9-3.6,7.9-7.9c0-5.4-3.6-8.2-7.5-8.2 c-0.2-9-6.1-12.9-11.9-12.9c-7.6,0-10.8,5.8-11.5,8c-3.1-4.5-11.5-1.1-9.8,4.9c-5.3-0.9-9.4,3-9.4,8.2c0,4.4,3.6,7.9,8.1,7.9h7.7 v6.1h-7.7C25.3,63.3,19,57,19,49.4c0-6.3,4.2-11.7,10-13.4c1.6-5.6,7.5-8.9,13.1-7.4c3.4-4,8.3-6.3,13.6-6.3 c8.6,0,16,6.2,17.5,14.5C78.1,39.1,81.2,43.9,81.2,49.4z M62.3,68.8h-5.1V57.3H45.1v11.5H40L51.1,80L62.3,68.8z"/></g></g><g id="IconDocument_1_"><g id="IconDocument"><path d="M65.3,57H44.2v-4.6h21C65.2,52.4,65.3,57,65.3,57z M65.3,47H44.2v-4.6h21C65.2,42.4,65.3,47,65.3,47z M65.3,37H44.2v-4.6 h21C65.2,32.4,65.3,37,65.3,37z M29.1,75.3V24.4h42.8v33.4c0,9.7-11.9,5.8-11.9,5.8s3.6,11.7-5.4,11.7H29.1z M78,58.4V18.3H23 v63.1h31.7C65.1,81.4,78,67.8,78,58.4z M37.8,32c-1.5,0-2.7,1.2-2.7,2.7s1.2,2.7,2.7,2.7s2.7-1.2,2.7-2.7 C40.4,33.2,39.2,32,37.8,32z M37.8,42.1c-1.5,0-2.7,1.2-2.7,2.7s1.2,2.7,2.7,2.7s2.7-1.2,2.7-2.7C40.4,43.3,39.2,42.1,37.8,42.1z M37.8,52c-1.5,0-2.7,1.2-2.7,2.7s1.2,2.7,2.7,2.7s2.7-1.2,2.7-2.7C40.4,53.2,39.2,52,37.8,52z"/></g></g></svg>