<svg xmlns="http://www.w3.org/2000/svg" viewBox="0 0 100 100">
	<defs>
		<g id="IconCircle">
      <path d="M50 4c25.4 0 46 20.6 46 46S75.4 96 50 96 4 75.4 4 50 24.6 4 50 4m0-4C22.4 0 0 22.4 0 50s22.4 50 50 50 50-22.4 50-50S77.6 0 50 0z"/>
		</g>
		<g id="IconTwitter">
				<path class="st0" d="M80.2 30.5c-2.3 1-4.8 1.8-7.4 2 2.6-1.6 4.7-4.1 5.7-7.1-2.5 1.5-5.2 2.6-8.2 3.2-2.3-2.5-5.7-4.1-9.5-4.1-7.1 0-13 5.8-13 13 0 1 .1 2 .3 2.9-10.8-.6-20.3-5.7-26.7-13.6-1.2 1.9-1.8 4.1-1.8 6.6 0 4.5 2.3 8.5 5.8 10.8-2 0-4.1-.7-5.8-1.6v.1c0 6.3 4.5 11.5 10.4 12.7-1.2.3-2.2.4-3.4.4-.9 0-1.6 0-2.5-.3 1.6 5.1 6.4 8.9 12.1 9-4.5 3.5-10.1 5.5-16 5.5-1 0-2 0-3.1-.1 5.7 3.7 12.6 5.8 20 5.8C61 75.7 74 55.9 74 38.8V37c2.3-1.6 4.5-4 6.2-6.5z"/>
		</g>
		<g id="IconBallpit">
			<path d="M30 30.8c1 .2 4.6-8.8 14.4-9.2 4.9-.1 8.6 3.9 9.1 3.2s-1.9-4.1-9.6-4.4C35 20.4 29.1 30.5 30 30.8z"/>
			<path d="M29.9 27.5s4.4-10.1 14-10.7c6-.1 7.7 3.6 7.7 3.6s-1.2-1.9-7.7-2.2c-9.2.5-14 9.3-14 9.3z"/>
			<ellipse cx="51.2" cy="35.1" rx="1.3" ry="2.1"/>
			<ellipse cx="44.4" cy="34.6" rx=".9" ry="1.7"/>
			<path d="M63.3 60.8c-8.4.1-17.3 6.9-20.4 9.5-2.2-2-3.4-4.6-2.5-7.9 0-1.9 4.7-8 9.6-9.8 1.3 1.5 3.4 3.8 4.3 3.5.8-.3 2.2-3.4 3.1-5.4 1.8-.3 3.5-.5 5.1-.6.8 1.8 2.6 4.9 3.5 4.8s3.4-3.3 4.5-5c1 0 1.5.1 1.5.1-.2-.6-.4-1.2-.7-1.8-1.4-3.1-3.1-6.1-5.4-8.6-1.5-1.7-3.3-3.2-5.2-4.5-1.9-1.2-4.3-2.1-5.9-3.6-.8-.7-1.5-1.8-2.5-2.3-.9-.4-2.4-.3-3.2.3-.6.5-.5.6-1.2.3-1.1-.6-1.8-1.8-2.7-2.5-2.4-1.8-5.8-1.1-7.9 1-1 1.1-1.6 2.5-2.6 3.7-1.2 1.4-3 1.9-4.3 3.1-2.6 2.4-4.9 5-6.5 8.1-1.4 2.8-2.3 6-2.6 9.1-1 9 1.2 17.7 16.5 26.6 13.6 6 27.1-1.9 27.1-1.9s-12-.6-19.3-4.8c1.2-1.1 3.5-2.6 7.4-4.3 6.7-2.7 13.5.8 14.3 2.7.9 2 .9 6.4.9 6.4s2.3-2.5 2-5.1c-.3-2.7-1.3-5.4-1.3-5.4s1.9.5 3.8 2.5 2.5 6 2.5 6 1.7-3.1 1.6-5.8c-.2-2.7-3-8.6-13.5-8.4zM38.6 50.6c-4-.8-6.2-6.4-5-12.6 1.2-6.2 5.4-10.6 9.4-9.8 2.2.4 3.8 2.3 4.7 4.9.5-1.5 1.4-2.5 2.6-2.8 2.5-.6 5.4 2.3 6.5 6.6 1.1 4.3-.1 8.3-2.6 8.9-2.2.6-4.8-1.7-6.1-5.3v.2c-1.3 6.3-5.5 10.7-9.5 9.9z"/>
		</g>
		<g id="IconFlattr">
			<path id="FlattrTopLeft" class="orange" d="M40.6 18.4c-15.2 0-22.9 8.8-22.9 25v34.2l14.8-14.8V45.4c0-6.8 1.8-11.1 7.8-12 2.1-.4 6.4-.3 9.2-.3v10.3c0 .1 0 .3.1.3.1.4.5.8 1 .8.3 0 .5-.1.8-.3L77 18.4H40.6z"/>
			<path id="FlattrBottomRight" class="green" d="M65.3 35.8v17.3c0 6.8-1.8 11.1-7.8 12-2.1.4-6.4.3-9.2.3V55.1c0-.1 0-.3-.1-.3-.1-.4-.5-.8-1-.8-.3 0-.5.1-.8.3L20.8 80.2h36.5c15.2 0 22.9-8.8 22.9-25V20.9L65.3 35.8z"/>
		</g>
		<g id="IconRSS">
      <path d="M20.8 72.7c0 4.7 3.6 8.4 8.1 8.4s8.1-3.8 8.1-8.4c0-4.6-3.6-8.5-8.1-8.5s-8.1 3.8-8.1 8.5z"/>
      <path d="M20.8 51.3c7.6 0 14.7 3.1 20 8.7s8.3 13.1 8.3 21.1h11.7c0-23.2-18-42-40-42v12.2z"/>
      <path d="M20.8 29.6c27 0 49 23.1 49 51.4h11.7c0-35.1-27.2-63.6-60.6-63.6-.1 0-.1 12.2-.1 12.2z"/>
  	</g>
		<g id="IconFacebook">
			<path d="M76.8 18.3H21.9c-1.9 0-3.4 1.5-3.4 3.4v54.9c0 1.9 1.5 3.4 3.4 3.4h29.5V56.1h-8v-9.3h8V40c0-7.9 4.9-12.3 12-12.3 3.4 0 6.3.3 7.2.4v8.3h-4.9c-3.9 0-4.6 1.8-4.6 4.5v6h9.2L69 56.3h-7.9v23.9h15.7c1.9 0 3.4-1.5 3.4-3.4v-55c0-1.9-1.5-3.5-3.4-3.5z"/>
		</g>
		<g id="IconGooglePlus">
			<path d="M77.2 18.6h-55c-2.1 0-3.9 1.8-3.9 3.9v55c0 2.2 1.7 3.9 3.9 3.9h55c2.2 0 3.9-1.7 3.9-3.9v-55c.1-2.1-1.7-3.9-3.9-3.9zm-35 54.5c-7.8 0-14.4-3.4-14.4-9.1 0-4.4 2.8-10.1 15.8-10.1-1.9-1.6-2.4-3.8-1.2-6.2-7.6 0-11.6-4.5-11.6-10.2 0-5.6 4.1-10.6 12.6-10.6H57L54 30h-3.5c2.5 1.5 3.9 4.5 3.9 7.7 0 3-1.7 5.5-4 7.3-4.2 3.3-3.1 5.1 1.3 8.2 4.3 3.3 5.7 5.7 5.7 9.6-.2 4.6-4.4 10.3-15.2 10.3zm29.9-23.9h-5.3v5.3h-3.2v-5.3h-5.1V46h5.1v-5.1h3.2V46h5.3v3.2z"/>
		</g>
		<g id="IconDocument">
			<path d="M65.3 57H44.2v-4.6h21l.1 4.6zm0-10H44.2v-4.6h21l.1 4.6zm0-10H44.2v-4.6h21l.1 4.6zM29.1 75.3V24.4h42.8v33.4c0 9.7-11.9 5.8-11.9 5.8s3.6 11.7-5.4 11.7H29.1zM78 58.4V18.3H23v63.1h31.7c10.4 0 23.3-13.6 23.3-23zM37.8 32c-1.5 0-2.7 1.2-2.7 2.7 0 1.5 1.2 2.7 2.7 2.7s2.7-1.2 2.7-2.7c-.1-1.5-1.3-2.7-2.7-2.7zm0 10.1c-1.5 0-2.7 1.2-2.7 2.7 0 1.5 1.2 2.7 2.7 2.7s2.7-1.2 2.7-2.7c-.1-1.5-1.3-2.7-2.7-2.7zm0 9.9c-1.5 0-2.7 1.2-2.7 2.7 0 1.5 1.2 2.7 2.7 2.7s2.7-1.2 2.7-2.7c-.1-1.5-1.3-2.7-2.7-2.7z"/>
		</g>
		<g id="IconDownload">
			<path d="M81.2 49.4c0 7.7-6.3 13.9-13.9 13.9h-5.6v-6.1h5.6c4.4 0 7.9-3.6 7.9-7.9 0-5.4-3.6-8.2-7.5-8.2-.2-9-6.1-12.9-11.9-12.9-7.6 0-10.8 5.8-11.5 8-3.1-4.5-11.5-1.1-9.8 4.9-5.3-.9-9.4 3-9.4 8.2 0 4.4 3.6 7.9 8.1 7.9h7.7v6.1h-7.7C25.3 63.3 19 57 19 49.4c0-6.3 4.2-11.7 10-13.4 1.6-5.6 7.5-8.9 13.1-7.4 3.4-4 8.3-6.3 13.6-6.3 8.6 0 16 6.2 17.5 14.5 4.9 2.3 8 7.1 8 12.6zM62.3 68.8h-5.1V57.3H45.1v11.5H40L51.1 80l11.2-11.2z"/>
		</g>
	</defs>
</svg>