<?xml version="1.0" encoding="utf-8"?>
<!-- Generator: Adobe Illustrator 23.0.1, SVG Export Plug-In . SVG Version: 6.00 Build 0)  -->
<svg version="1.1" id="Layer_1" xmlns="http://www.w3.org/2000/svg" xmlns:xlink="http://www.w3.org/1999/xlink" x="0px" y="0px"
	 viewBox="0 0 400 149.5" style="enable-background:new 0 0 400 149.5;" xml:space="preserve">
<style type="text/css">
	.st0{fill:#222221;}
</style>
<g>
	<path class="st0" d="M37.2,10.2H24.9v135.9h-8.4V10.2H4V2.6h33.4L37.2,10.2z M78.3,2.6v143.6h-8.4V62.4H53.3v83.7h-8.2V2.6h8.2
		v52.2h16.6V2.6H78.3z M122.1,54.7v7.7H96.8v76h25.3v7.7H88.7V2.6h33.4v7.7H96.8v44.5H122.1z M191.3,54.7v7.7h-24.8v83.7h-8.2V2.6
		h32.9v7.7h-24.8v44.5H191.3z M261.6,17.5V47c0,8.4-7.7,15.6-16.6,15.6h-8.2v83.4h-8.2V2.6h16.6C253.9,2.6,261.6,9.3,261.6,17.5
		L261.6,17.5z M253.1,17.5c0-3.8-3.6-7.2-8.4-7.2h-8.2v44.5h8.2c4.8,0,8.4-3.4,8.4-7.7V17.5z M302.4,138.4v7.7H269V2.6h8.2v135.9
		H302.4z M352.7,2.6V131c0,8.2-7.5,15.2-16.8,15.2c-9.4,0-16.8-6.5-16.8-15.2V2.6h8.4V131c0,4.1,3.6,7.7,8.4,7.7
		c4.6,0,8.2-3.6,8.2-7.7V2.6H352.7z M387.6,17v-0.5c0-4.1-3.6-7.5-8.4-7.5c-4.6,0-8.2,3.4-8.2,7.5V47c0,4.1,3.4,7.5,8.2,7.5
		c9.4,0,16.8,6,16.8,15.2v61.1c0,8.4-7.7,15.2-16.8,15.2c-8.9,0-16.6-6.3-16.6-15.2v-0.5h8.4v0.5c0,4.1,3.6,7.7,8.2,7.7
		c4.8,0,8.4-3.6,8.4-7.7V69.9c0-4.1-3.6-7.2-8.2-7.7c-10.1-0.7-16.8-5.3-16.8-15.4V16.7c0-8.2,7.5-15.2,16.6-15.2
		c8.9,0,16.8,6,16.8,15.2V17H387.6z"/>
</g>
</svg>
