<?xml version="1.0" encoding="utf-8"?>
<!-- Generator: Adobe Illustrator 19.0.0, SVG Export Plug-In . SVG Version: 6.00 Build 0)  -->
<!DOCTYPE svg PUBLIC "-//W3C//DTD SVG 1.1//EN" "http://www.w3.org/Graphics/SVG/1.1/DTD/svg11.dtd">
<svg version="1.1" id="Layer_1" xmlns="http://www.w3.org/2000/svg" xmlns:xlink="http://www.w3.org/1999/xlink" x="0px" y="0px"
	 viewBox="0 0 273 80" style="enable-background:new 0 0 273 80;" xml:space="preserve">
<style type="text/css">
	.st0{fill:#222221;}
	.st1{fill:#C0282D;}
</style>
<g>
	<path class="st0" d="M118,14.2h-5.1v56.5h-3.5V14.2h-5.2V11h13.9L118,14.2z M135.1,11v59.7h-3.5V35.9h-6.9v34.8h-3.4V11h3.4v21.7
		h6.9V11H135.1z M153.3,32.7v3.2h-10.5v31.6h10.5v3.2h-13.9V11h13.9v3.2h-10.5v18.5H153.3z M182.1,32.7v3.2h-10.3v34.8h-3.4V11h13.7
		v3.2h-10.3v18.5H182.1z M211.3,17.2v12.3c0,3.5-3.2,6.5-6.9,6.5H201v34.7h-3.4V11h6.9C208.1,11,211.3,13.8,211.3,17.2L211.3,17.2z
		 M207.8,17.2c0-1.6-1.5-3-3.5-3h-3.4v18.5h3.4c2,0,3.5-1.4,3.5-3.2V17.2z M228.3,67.5v3.2h-13.9V11h3.4v56.5H228.3z M249.2,11v53.4
		c0,3.4-3.1,6.3-7,6.3s-7-2.7-7-6.3V11h3.5v53.4c0,1.7,1.5,3.2,3.5,3.2c1.9,0,3.4-1.5,3.4-3.2V11H249.2z M263.7,17v-0.2
		c0-1.7-1.5-3.1-3.5-3.1c-1.9,0-3.4,1.4-3.4,3.1v12.7c0,1.7,1.4,3.1,3.4,3.1c3.9,0,7,2.5,7,6.3v25.4c0,3.5-3.2,6.3-7,6.3
		c-3.7,0-6.9-2.6-6.9-6.3v-0.2h3.5v0.2c0,1.7,1.5,3.2,3.4,3.2c2,0,3.5-1.5,3.5-3.2V39c0-1.7-1.5-3-3.4-3.2c-4.2-0.3-7-2.2-7-6.4
		V16.9c0-3.4,3.1-6.3,6.9-6.3c3.7,0,7,2.5,7,6.3V17H263.7z"/>
	<path id="XMLID_28_" class="st0" d="M234.1,70.7h-3.4v-3h3.4V70.7z"/>
</g>
<g>
	<path class="st1" d="M57.8,0.6c-11.7,0-22.2,5.1-29.4,13.2h46.5l-3.4,3.7c-1.7,1.8-1.7,1.8-3.1,4.1c-1.2,1.8-0.9,3.8-0.9,3.8
		l0.5,2.3H55.1l1.6-3.2h-8.5l-5.7,14h7.3l3.8-8.5h13.2L63,38.5h10l-5.1,11.9H57.6l-4,8.9H40.4l4-8.9h-7.2l-5.5,12.3
		c-0.7,1.6-1.7,3-2.8,4.3c7.2,7.7,17.4,12.5,28.8,12.5c21.8,0,39.4-17.7,39.4-39.4S79.5,0.6,57.8,0.6z"/>
</g>
<path class="st0" d="M70.1,40.3H60l3.8-8.5h-9L51,40.3H39.6l7.2-17.8l12.8-0.1l-1.5,3.2h7.5c0,0-0.5-2.6,1.1-5.2
	c1.7-2.6,1.7-2.5,3.8-4.8H16.8c0,0-2.3,1.4-2.3,3.7s2,3.2,2,3.2l17.8-0.1l-7.7,17.8c-7.8,3-13.4,8.1-16.7,15.5l-3.8,8.4
	c-0.3,0.6-0.4,1.2-0.4,1.8c0,1.6,1.1,3,3.3,3.9c1.8,0.8,3.8,1.2,5.9,1.2c3.2,0,6.1-0.7,8.6-2.2c2.9-1.7,5-4,6.4-7l6-13.4h11.3
	l-4,8.9h9l4-8.9h10.3L70.1,40.3z M16.3,63.6c-0.5,0.9-1.1,1.4-2,1.4c-0.8,0-1.2-0.3-1.2-0.9c0-0.1,0-0.2,0.1-0.3l3.6-8
	c1.9-4.3,4-6.8,6.3-7.3C19.9,55.2,17.7,60.3,16.3,63.6z"/>
</svg>
