<svg xmlns="http://www.w3.org/2000/svg" xmlns:xlink="http://www.w3.org/1999/xlink" id="Layer_1" width="253.282" height="80" x="0" y="0" baseProfile="tiny" version="1.2" viewBox="0 0 253.282 80" xml:space="preserve"><g><circle cx="42.264" cy="40.002" r="33.265" fill="#BCBEC0"/><circle cx="42.264" cy="40.002" r="32.04" fill="#C1272D"/><g><path d="M56.996,36.587h-8.692l3.281-7.332l-7.747,0.02l-3.273,7.312h-9.82l6.21-15.316l11.056-0.054l-1.375,2.778h6.499 c0,0-0.459-2.278,0.975-4.487c1.433-2.209,1.435-2.159,3.249-4.12H11.1c0,0-1.994,1.25-1.994,3.198 c0,1.951,1.752,2.738,1.752,2.738l15.36-0.052L19.56,36.581c-6.768,2.55-11.576,7.015-14.42,13.394l-3.237,7.215 c-0.244,0.537-0.369,1.053-0.369,1.543c0,1.422,0.957,2.553,2.872,3.384c1.569,0.688,3.26,1.032,5.076,1.032 c2.746,0,5.223-0.638,7.43-1.912c2.503-1.424,4.341-3.432,5.518-6.029l5.205-11.536l9.773-0.034l-3.427,7.653l7.75-0.019 l3.43-7.662l8.854-0.032L56.996,36.587z M10.584,56.746c-0.392,0.786-0.981,1.178-1.764,1.178c-0.688,0-1.03-0.246-1.03-0.734 c0-0.102,0.023-0.198,0.073-0.295l3.089-6.916c1.62-3.728,3.434-5.838,5.445-6.328C13.748,49.486,11.811,53.854,10.584,56.746z"/><path fill="#FFF" d="M56.996,35.82h-8.692l0.7,1.082l3.283-7.332l0.486-1.085l-1.189,0.004l-7.747,0.019l-0.497,0.001 l-0.203,0.452l-3.275,7.313l0.703-0.453h-9.82l0.71,1.056l6.211-15.316l-0.708,0.48l11.056-0.054l-0.691-1.109l-1.375,2.778 l-0.55,1.108h1.238h6.499h0.939l-0.187-0.92c-0.003-0.016-0.369-2.016,0.867-3.917c1.294-1.994,1.35-2.055,2.801-3.62l0.367-0.396 l1.195-1.291h-1.759H11.1h-0.221l-0.188,0.118c-0.095,0.06-2.354,1.502-2.354,3.849c0,2.419,2.116,3.398,2.204,3.438l0.152,0.069 l0.167-0.002l15.36-0.052l-0.707-1.076l-6.656,15.309l0.434-0.412c-6.937,2.615-11.935,7.258-14.851,13.8 c0.001,0-3.238,7.209-3.238,7.209c-0.288,0.638-0.435,1.265-0.435,1.86c0,1.75,1.12,3.125,3.33,4.09 c1.659,0.727,3.471,1.095,5.385,1.095c2.871,0,5.5-0.677,7.814-2.017c2.628-1.494,4.592-3.641,5.833-6.377l5.204-11.535 l-0.697,0.451l9.773-0.035l-0.704-1.08l-3.427,7.65l-0.484,1.086l1.189-0.002l7.748-0.019l0.497-0.002l0.202-0.452l3.431-7.662 l-0.699,0.452l8.855-0.03l0.505-0.002l0.2-0.464l2.979-6.989l0.457-1.069H56.996z M54.011,42.809l-8.854,0.032h-0.496 l-0.203,0.453l-3.431,7.662l0.702-0.453l-7.75,0.017l0.704,1.084l3.424-7.654l0.488-1.086l-1.19,0.005l-9.774,0.034l-0.493,0.002 l-0.204,0.451l-5.205,11.533c-1.103,2.434-2.851,4.346-5.196,5.68c-2.083,1.203-4.454,1.813-7.051,1.813 c-1.702,0-3.307-0.326-4.77-0.969c-1.621-0.705-2.408-1.584-2.408-2.682c0-0.377,0.1-0.789,0.299-1.229 c0.002-0.003,3.238-7.212,3.238-7.212c2.745-6.156,7.452-10.526,13.992-12.99l0.303-0.114l0.128-0.298l6.658-15.311L27.39,20.5 l-1.176,0.004l-15.358,0.053l0.317,0.067c-0.047-0.023-1.298-0.625-1.298-2.038c0-1.49,1.621-2.539,1.636-2.549l-0.41,0.119 h46.258l-0.565-1.29l-0.366,0.396c-1.478,1.593-1.598,1.722-2.963,3.828c-1.586,2.443-1.105,4.952-1.083,5.058l0.752-0.92h-6.499 l0.688,1.108l1.375-2.776l0.55-1.115l-1.242,0.005L36.95,20.503l-0.515,0.002l-0.193,0.476l-6.21,15.317l-0.428,1.057h1.141h9.82 h0.497l0.204-0.454l3.274-7.313l-0.699,0.456l7.747-0.02l-0.703-1.082l-3.281,7.331l-0.484,1.083h1.186h8.692l-0.705-1.07 l-2.981,6.989L54.011,42.809z"/><path fill="#FFF" d="M9.898,56.402c-0.332,0.664-0.73,0.752-1.078,0.752c-0.25,0-0.332-0.043-0.332-0.043 c0.028,0.016,0.065,0.065,0.069,0.099c0,0-0.001-0.009-0.001-0.021c0,0.024-0.005,0.047-0.009,0.052l0.005-0.009 c0.008-0.019,0.01-0.025,0.01-0.025l3.091-6.916c1.515-3.484,3.169-5.465,4.925-5.896l-0.881-1.062 c-2.637,5.813-4.595,10.226-5.819,13.112L9.898,56.402z M16.215,42.904c-2.279,0.555-4.231,2.77-5.967,6.768 c0.002-0.009-3.087,6.909-3.087,6.909l0.016-0.035c-0.103,0.207-0.155,0.423-0.155,0.644c0,0.727,0.472,1.504,1.798,1.504 c0.753,0,1.791-0.279,2.451-1.604l0.012-0.021l0.01-0.021c1.218-2.879,3.172-7.276,5.803-13.079l0.653-1.438L16.215,42.904z"/></g></g><g><path fill="#F4DE0F" d="M92.217,13.442h-5.145v56.536h-3.52V13.442h-5.235v-3.201h13.899V13.442z"/><path fill="#F4DE0F" d="M109.276,10.241v59.736h-3.52V35.187h-6.95v34.791h-3.43V10.241h3.43v21.745h6.95V10.241H109.276z"/><path fill="#F4DE0F" d="M127.51,31.986v3.201H117.04v31.59h10.471v3.2h-13.9V10.241h13.9v3.201H117.04v18.544H127.51z"/><path fill="#F4DE0F" d="M156.301,31.986v3.201h-10.289v34.791h-3.432V10.241h13.721v3.201h-10.289v18.544H156.301z"/><path fill="#F4DE0F" d="M185.454,16.478v12.309c0,3.528-3.158,6.482-6.949,6.482h-3.43v34.709h-3.43V10.241h6.859 C182.295,10.241,185.454,13.113,185.454,16.478z M182.024,16.478c0-1.641-1.535-3.036-3.52-3.036h-3.43v18.544h3.43 c1.984,0,3.52-1.395,3.52-3.2V16.478z"/><path fill="#F4DE0F" d="M202.512,66.777v3.2h-13.898V10.241h3.43v56.536H202.512z"/><path fill="#F4DE0F" d="M223.326,10.241V63.66c0,3.363-3.07,6.317-6.951,6.317s-7.039-2.707-7.039-6.317V10.241h3.52V63.66 c0,1.722,1.535,3.2,3.52,3.2c1.896,0,3.43-1.479,3.43-3.2V10.241H223.326z"/><path fill="#F4DE0F" d="M237.855,16.314V16.15c0-1.724-1.533-3.119-3.52-3.119c-1.895,0-3.43,1.395-3.43,3.119v12.718 c0,1.723,1.443,3.118,3.43,3.118c3.881,0,7.041,2.543,7.041,6.318V63.66c0,3.528-3.16,6.317-7.041,6.317 c-3.699,0-6.949-2.625-6.949-6.317v-0.165h3.52v0.165c0,1.722,1.535,3.2,3.43,3.2c1.986,0,3.52-1.479,3.52-3.2V38.304 c0-1.723-1.533-3.036-3.428-3.2c-4.152-0.329-7.041-2.215-7.041-6.4V16.15c0-3.365,3.068-6.319,6.949-6.319 c3.701,0,7.041,2.544,7.041,6.319v0.164H237.855z"/></g><g><path fill="#F4DE0F" d="M208.322,69.978h-3.431v-2.963h3.431V69.978z"/></g></svg>