<svg xmlns="http://www.w3.org/2000/svg" viewBox="0 0 271 80"><path fill="#C1282D" d="M56.9 1.2c-11.7 0-22.2 5.1-29.4 13.2H74L70.6 18c-1.7 1.8-1.7 1.8-3.1 4.1-1.2 1.8-.9 3.8-.9 3.8l.5 2.3h-13l1.6-3.2h-8.5l-5.7 13.9h7.3l3.8-8.5h13.2L62 38.9h10l-5 11.9H56.7l-4 8.9H39.5l4-8.9h-7.1l-5.5 12.3c-.7 1.6-1.7 3-2.8 4.3C35.3 75.2 45.5 80 56.9 80c21.8 0 39.4-17.6 39.4-39.4S78.7 1.2 56.9 1.2z"/><path fill="#DEDCEE" d="M69.2 40.8H59.1l3.8-8.5h-9l-3.8 8.5H38.8L46 23.1l12.8-.1-1.6 3.2h7.5s-.5-2.6 1.1-5.2c1.7-2.6 1.7-2.5 3.8-4.8H16s-2.3 1.4-2.3 3.7c0 2.3 2 3.2 2 3.2l17.8-.1-7.7 17.7C18 43.8 12.4 49 9.1 56.4l-3.8 8.4c-.3.6-.4 1.2-.4 1.8 0 1.6 1.1 3 3.3 3.9 1.8.8 3.8 1.2 5.9 1.2 3.2 0 6.1-.7 8.6-2.2 2.9-1.7 5-4 6.4-7l6-13.4h11.3l-4 8.9h9l4-8.9h10.3l3.5-8.3zM15.4 64.2c-.5.9-1.1 1.4-2 1.4-.8 0-1.2-.3-1.2-.9 0-.1 0-.2.1-.3l3.6-8c1.9-4.3 4-6.8 6.3-7.3-3.1 6.7-5.4 11.8-6.8 15.1z"/><path fill="#ED2024" d="M27.5 14.4H74l-.1.1h12.4C79.1 6.3 68.6 1.2 56.9 1.2S34.7 6.3 27.5 14.4z"/><g fill="#F26422"><path d="M46.3 27.3h8.3l1.1-2.4-8.4.1M86 14.1H27.8l-.3.3H74L70.6 18c-1.7 1.8-1.7 1.8-3.1 4.1-1.2 1.8-.9 3.8-.9 3.8l.3 1.4H94c-1.8-4.9-4.5-9.4-8-13.2z"/></g><path fill="#F6EB14" d="M67.1 28.2h-13l.4-.8h-8.2L41.6 39h7.3l3.8-8.5h13.2L62.1 39h10l-.7 1.7h24.9c0-4.6-.8-9.1-2.3-13.2H66.9l.2.7z"/><g fill="#0B8140"><path d="M42.3 53.7l1.3-2.8-7.2.1-1.2 2.7M67 50.8H56.7l-1.3 2.9H94c1.5-4.1 2.3-8.5 2.3-13.2v-.1H71.4L67 50.8z"/></g><path fill="#3953A4" d="M86.4 66.8c3.4-3.8 6.1-8.3 7.8-13.2H55.6l-2.8 6.3H39.6l2.8-6.3h-7.1l-4.4 9.7c-.6 1.3-1.3 2.5-2.1 3.5h57.6z"/><path fill="#4D2A7C" d="M86.4 66.8H28.7c-.2.3-.4.5-.6.8C35.3 75.2 45.5 80 56.9 80c11.7 0 22.2-5.1 29.5-13.2z"/><g fill="#DEDCEE"><path d="M115.3 14.2h-5.1v56.5h-3.5V14.2h-5.2V11h13.9l-.1 3.2zM132.4 11v59.7h-3.5V35.9H122v34.8h-3.4V11h3.4v21.7h6.9V11h3.5zM150.6 32.7v3.2h-10.5v31.6h10.5v3.2h-13.9V11h13.9v3.2h-10.5v18.5h10.5zM179.4 32.7v3.2h-10.3v34.8h-3.4V11h13.7v3.2h-10.3v18.5h10.3zM208.6 17.2v12.3c0 3.5-3.2 6.5-6.9 6.5h-3.4v34.7h-3.4V11h6.9c3.6 0 6.8 2.8 6.8 6.2zm-3.5 0c0-1.6-1.5-3-3.5-3h-3.4v18.5h3.4c2 0 3.5-1.4 3.5-3.2V17.2zM225.6 67.5v3.2h-13.9V11h3.4v56.5h10.5zM246.5 11v53.4c0 3.4-3.1 6.3-7 6.3s-7-2.7-7-6.3V11h3.5v53.4c0 1.7 1.5 3.2 3.5 3.2 1.9 0 3.4-1.5 3.4-3.2V11h3.6zM261 17v-.2c0-1.7-1.5-3.1-3.5-3.1-1.9 0-3.4 1.4-3.4 3.1v12.7c0 1.7 1.4 3.1 3.4 3.1 3.9 0 7 2.5 7 6.3v25.4c0 3.5-3.2 6.3-7 6.3-3.7 0-6.9-2.6-6.9-6.3v-.2h3.5v.2c0 1.7 1.5 3.2 3.4 3.2 2 0 3.5-1.5 3.5-3.2V39c0-1.7-1.5-3-3.4-3.2-4.2-.3-7-2.2-7-6.4V16.9c0-3.4 3.1-6.3 6.9-6.3 3.7 0 7 2.5 7 6.3v.1H261z"/></g><path fill="#DEDCEE" d="M231.4 70.7H228v-3h3.4v3z"/></svg>