<?xml version="1.0" encoding="utf-8"?>
<!-- Generator: Adobe Illustrator 19.1.0, SVG Export Plug-In . SVG Version: 6.00 Build 0)  -->
<!DOCTYPE svg PUBLIC "-//W3C//DTD SVG 1.1//EN" "http://www.w3.org/Graphics/SVG/1.1/DTD/svg11.dtd">
<svg version="1.1" xmlns="http://www.w3.org/2000/svg" xmlns:xlink="http://www.w3.org/1999/xlink" x="0px" y="0px"
	 viewBox="0 0 500 500" style="enable-background:new 0 0 500 500;" xml:space="preserve">
<style type="text/css">
	.st0{fill:#C0282D;}
</style>
<g id="Layer_2">
	<g>
		<path class="st0" d="M250,463.3c-1,0-2-0.4-2.8-1.2c-1.6-1.6-1.6-4.1,0-5.7L453.6,250L247.2,43.6c-1.6-1.6-1.6-4.1,0-5.7
			c1.6-1.6,4.1-1.6,5.7,0l209.3,209.3c1.6,1.6,1.6,4.1,0,5.7L252.8,462.1C252,462.9,251,463.3,250,463.3z"/>
	</g>
</g>
<g id="Layer_4">
	<g>
		<path class="st0" d="M42.5,157.4h8.7L75,198.9l7.1,13.7h0.4c-0.2-3.4-0.4-6.8-0.7-10.4c-0.2-3.6-0.4-7.1-0.4-10.6v-34.1h8v66h-8.7
			l-24-41.6l-7.1-13.6h-0.4c0.3,3.4,0.5,6.8,0.8,10.2c0.2,3.5,0.4,6.9,0.4,10.4v34.5h-8V157.4z"/>
		<path class="st0" d="M123.7,157.4h38.1v7h-29.7v20.7h25.1v7.1h-25.1v24h30.7v7.1h-39.1V157.4z"/>
		<path class="st0" d="M204.6,189.3l-17.9-31.9h9.3l9,16.9c0.9,1.5,1.7,3,2.5,4.5c0.8,1.4,1.7,3.1,2.7,5.1h0.4
			c0.9-1.9,1.8-3.6,2.5-5.1c0.7-1.4,1.5-2.9,2.3-4.5l8.8-16.9h8.9l-18,32.3l19.2,33.7h-9.3l-9.7-17.8c-0.9-1.6-1.8-3.3-2.7-5
			c-0.9-1.7-1.9-3.6-3-5.6H209c-0.9,2-1.8,3.9-2.7,5.6c-0.9,1.7-1.7,3.4-2.5,5l-9.6,17.8h-8.9L204.6,189.3z"/>
		<path class="st0" d="M272.3,164.5h-19.9v-7h48.3v7h-19.9v59h-8.5V164.5z"/>
	</g>
	<g>
		<path class="st0" d="M42.5,275.4h20.2c3.6,0,6.9,0.3,10,1c3,0.7,5.6,1.8,7.7,3.3c2.1,1.5,3.8,3.5,4.9,6c1.2,2.5,1.8,5.5,1.8,9.2
			c0,3.5-0.6,6.5-1.8,9.1c-1.2,2.6-2.8,4.7-5,6.3c-2.1,1.7-4.7,2.9-7.7,3.8c-3,0.8-6.3,1.3-9.9,1.3H50.8v26.2h-8.4V275.4z
			 M61.7,308.4c5.8,0,10-1.1,12.8-3.3c2.8-2.2,4.2-5.6,4.2-10.3c0-4.8-1.4-8.1-4.2-9.9c-2.8-1.8-7.1-2.8-12.8-2.8H50.8v26.3H61.7z"
			/>
		<path class="st0" d="M141.7,321.3h-24.1l-6.3,20.1h-8.6l22.3-66h9.5l22.3,66h-9L141.7,321.3z M139.6,314.5l-3.1-10.1
			c-1.2-3.7-2.4-7.4-3.4-11c-1.1-3.7-2.1-7.4-3.2-11.2h-0.4c-1,3.8-2,7.6-3.1,11.2c-1.1,3.7-2.2,7.3-3.4,11l-3.1,10.1H139.6z"/>
		<path class="st0" d="M177.6,308.4c0-5.3,0.8-10.1,2.3-14.3c1.5-4.2,3.6-7.8,6.3-10.8c2.7-3,5.9-5.2,9.6-6.8
			c3.7-1.6,7.8-2.4,12.2-2.4c4.6,0,8.4,0.9,11.4,2.6c3.1,1.7,5.6,3.6,7.5,5.6l-4.7,5.3c-1.7-1.7-3.6-3.2-5.8-4.4
			c-2.2-1.2-5-1.8-8.3-1.8c-3.4,0-6.4,0.6-9.1,1.9c-2.7,1.2-5,3-6.8,5.3c-1.9,2.3-3.3,5.1-4.4,8.4c-1,3.3-1.6,7-1.6,11.1
			c0,4.2,0.5,7.9,1.5,11.2c1,3.3,2.4,6.2,4.2,8.5c1.8,2.4,4.1,4.2,6.8,5.4c2.7,1.3,5.9,1.9,9.4,1.9c2.3,0,4.6-0.4,6.7-1.1
			c2.1-0.7,3.8-1.7,5.2-2.9v-17.2h-14v-6.9h21.6V335c-2.1,2.2-5,4-8.5,5.5s-7.5,2.2-11.9,2.2c-4.4,0-8.4-0.8-12-2.3
			s-6.7-3.8-9.4-6.7c-2.6-2.9-4.7-6.5-6.1-10.8C178.3,318.6,177.6,313.8,177.6,308.4z"/>
		<path class="st0" d="M259.6,275.4h38.1v7H268v20.7H293v7.1H268v24h30.7v7.1h-39.1V275.4z"/>
	</g>
</g>
</svg>
