<svg xmlns="http://www.w3.org/2000/svg" xmlns:xlink="http://www.w3.org/1999/xlink" width="100%" height="100%" version="1.1" viewBox="0 0 24 24" xml:space="preserve" style="fill-rule:evenodd;clip-rule:evenodd;stroke-linejoin:round;stroke-miterlimit:2"><g><path d="M49.6,15.8C30.8,15.8 15.5,31 15.5,49.9C15.5,68.7 30.7,84 49.6,84C68.5,84 83.7,68.8 83.7,49.9C83.7,31 68.4,15.8 49.6,15.8ZM49.6,79.1C46.3,79.1 43.1,78.5 40.1,77.5L40.1,70.1C43,71.5 46.2,72.3 49.6,72.3C61.6,72.3 71.4,62.5 71.4,50.5C71.4,38.5 61.6,28.7 49.6,28.7C37.6,28.7 27.8,38.5 27.8,50.5L27.8,69.4C23.1,64.2 20.3,57.4 20.3,49.8C20.3,33.6 33.4,20.5 49.6,20.5C65.8,20.5 78.9,33.6 78.9,49.8C78.9,66 65.8,79.1 49.6,79.1Z" style="fill-rule:nonzero" transform="matrix(0.319058,0,0,0.321733,-3.68822,-3.83814)"/></g></svg>