<?xml version="1.0" encoding="utf-8"?>
<!-- Generator: Adobe Illustrator 19.1.0, SVG Export Plug-In . SVG Version: 6.00 Build 0)  -->
<!DOCTYPE svg PUBLIC "-//W3C//DTD SVG 1.1//EN" "http://www.w3.org/Graphics/SVG/1.1/DTD/svg11.dtd">
<svg version="1.1" id="Layer_4" xmlns="http://www.w3.org/2000/svg" xmlns:xlink="http://www.w3.org/1999/xlink" x="0px" y="0px"
	 viewBox="0 0 300 100" style="enable-background:new 0 0 300 100;" xml:space="preserve">
<style type="text/css">
	.st0{fill:#C0282D;}
</style>
<g>
	<path class="st0" d="M63.3,35.5h9.6c1.7,0,3.3,0.2,4.8,0.5c1.4,0.3,2.7,0.8,3.7,1.6c1,0.7,1.8,1.7,2.4,2.9c0.6,1.2,0.8,2.6,0.8,4.4
		c0,1.7-0.3,3.1-0.8,4.3c-0.6,1.2-1.4,2.2-2.4,3c-1,0.8-2.2,1.4-3.7,1.8c-1.4,0.4-3,0.6-4.7,0.6h-5.7V67h-4V35.5z M72.4,51.2
		c2.8,0,4.8-0.5,6.1-1.6c1.3-1,2-2.7,2-4.9c0-2.3-0.7-3.8-2-4.7c-1.3-0.9-3.4-1.3-6.1-1.3h-5.2v12.5H72.4z"/>
	<path class="st0" d="M108.2,67l-7.6-13.3h-5.7V67h-4V35.5h9.8c1.6,0,3.1,0.2,4.4,0.5c1.4,0.3,2.5,0.8,3.5,1.5
		c1,0.7,1.7,1.6,2.3,2.7c0.5,1.1,0.8,2.5,0.8,4.1c0,2.5-0.6,4.4-1.9,5.9c-1.3,1.5-3,2.5-5.1,3l8,13.7H108.2z M94.9,50.4h5.3
		c2.5,0,4.4-0.5,5.7-1.5c1.3-1,2-2.5,2-4.6c0-2.1-0.7-3.5-2-4.4c-1.3-0.8-3.2-1.2-5.7-1.2h-5.3V50.4z"/>
	<path class="st0" d="M118.8,35.5H137v3.4h-14.2v9.9h12v3.4h-12v11.4h14.6V67h-18.6V35.5z"/>
	<path class="st0" d="M139.8,35.5h4.3l5,17c0.6,1.9,1.1,3.6,1.5,5.2c0.4,1.6,1,3.3,1.6,5.2h0.2c0.6-1.9,1.1-3.6,1.5-5.2
		c0.4-1.6,0.9-3.3,1.5-5.2l5-17h4.1l-10,31.5h-4.7L139.8,35.5z"/>
	<path class="st0" d="M178.5,35.5h9.6c1.7,0,3.3,0.2,4.8,0.5c1.4,0.3,2.7,0.8,3.7,1.6c1,0.7,1.8,1.7,2.4,2.9
		c0.6,1.2,0.8,2.6,0.8,4.4c0,1.7-0.3,3.1-0.8,4.3c-0.6,1.2-1.4,2.2-2.4,3c-1,0.8-2.2,1.4-3.7,1.8c-1.4,0.4-3,0.6-4.7,0.6h-5.7V67h-4
		V35.5z M187.7,51.2c2.8,0,4.8-0.5,6.1-1.6c1.3-1,2-2.7,2-4.9c0-2.3-0.7-3.8-2-4.7c-1.3-0.9-3.4-1.3-6.1-1.3h-5.2v12.5H187.7z"/>
	<path class="st0" d="M218.2,57.4h-11.5l-3,9.6h-4.1l10.7-31.5h4.5L225.4,67h-4.3L218.2,57.4z M217.2,54.1l-1.5-4.8
		c-0.6-1.8-1.1-3.5-1.6-5.3c-0.5-1.7-1-3.5-1.5-5.4h-0.2c-0.5,1.8-1,3.6-1.5,5.4c-0.5,1.7-1.1,3.5-1.6,5.3l-1.5,4.8H217.2z"/>
	<path class="st0" d="M227.6,51.2c0-2.5,0.4-4.8,1.1-6.8s1.7-3.7,3-5.1c1.3-1.4,2.8-2.5,4.6-3.2c1.8-0.8,3.7-1.1,5.8-1.1
		c2.2,0,4,0.4,5.4,1.2c1.5,0.8,2.6,1.7,3.6,2.7l-2.3,2.5c-0.8-0.8-1.7-1.5-2.8-2.1c-1-0.6-2.4-0.8-4-0.8c-1.6,0-3,0.3-4.3,0.9
		c-1.3,0.6-2.4,1.4-3.3,2.5c-0.9,1.1-1.6,2.4-2.1,4c-0.5,1.6-0.7,3.3-0.7,5.3c0,2,0.2,3.8,0.7,5.4c0.5,1.6,1.1,2.9,2,4.1
		c0.9,1.1,2,2,3.3,2.6c1.3,0.6,2.8,0.9,4.5,0.9c1.1,0,2.2-0.2,3.2-0.5s1.8-0.8,2.5-1.4V54h-6.7v-3.3h10.3v13.2
		c-1,1.1-2.4,1.9-4.1,2.6c-1.7,0.7-3.6,1-5.7,1c-2.1,0-4-0.4-5.7-1.1c-1.7-0.7-3.2-1.8-4.5-3.2c-1.2-1.4-2.2-3.1-2.9-5.1
		C227.9,56.1,227.6,53.8,227.6,51.2z"/>
	<path class="st0" d="M259,35.5h18.1v3.4H263v9.9h12v3.4h-12v11.4h14.6V67H259V35.5z"/>
</g>
<g>
	<path class="st0" d="M60.6,90.2c-0.5,0-1-0.2-1.4-0.6L21,51.4c-0.8-0.8-0.8-2,0-2.8l38.2-38.2c0.8-0.8,2-0.8,2.8,0
		c0.8,0.8,0.8,2,0,2.8L25.2,49.9l36.8,36.8c0.8,0.8,0.8,2,0,2.8C61.7,90,61.2,90.2,60.6,90.2z"/>
</g>
</svg>
