<?xml version="1.0" encoding="utf-8"?>
<!-- Generator: Adobe Illustrator 19.1.0, SVG Export Plug-In . SVG Version: 6.00 Build 0)  -->
<!DOCTYPE svg PUBLIC "-//W3C//DTD SVG 1.1//EN" "http://www.w3.org/Graphics/SVG/1.1/DTD/svg11.dtd">
<svg version="1.1" xmlns="http://www.w3.org/2000/svg" xmlns:xlink="http://www.w3.org/1999/xlink" x="0px" y="0px"
	 viewBox="0 0 500 500" style="enable-background:new 0 0 500 500;" xml:space="preserve">
<style type="text/css">
	.st0{fill:#C0282D;}
</style>
<g id="Layer_3">
	<g>
		<path class="st0" d="M202.8,159.4H223c3.6,0,6.9,0.3,10,1c3,0.7,5.6,1.8,7.7,3.3c2.1,1.5,3.8,3.5,4.9,6c1.2,2.5,1.8,5.5,1.8,9.2
			c0,3.5-0.6,6.5-1.8,9.1c-1.2,2.6-2.8,4.7-5,6.3c-2.1,1.7-4.7,2.9-7.7,3.8c-3,0.8-6.3,1.3-9.9,1.3h-11.9v26.2h-8.4V159.4z
			 M222,192.4c5.8,0,10-1.1,12.8-3.3c2.8-2.2,4.2-5.6,4.2-10.3c0-4.8-1.4-8.1-4.2-9.9c-2.8-1.8-7.1-2.8-12.8-2.8h-10.9v26.3H222z"/>
		<path class="st0" d="M313.1,225.5l-15.9-27.9h-12v27.9h-8.4v-66h20.6c3.4,0,6.5,0.3,9.3,1c2.9,0.6,5.3,1.7,7.3,3.2
			c2,1.5,3.6,3.4,4.8,5.7c1.1,2.4,1.7,5.2,1.7,8.7c0,5.2-1.3,9.3-4,12.4c-2.7,3.1-6.3,5.2-10.8,6.3l16.7,28.8H313.1z M285.2,190.7
			h11.1c5.2,0,9.1-1.1,11.9-3.2c2.8-2.1,4.1-5.3,4.1-9.6c0-4.4-1.4-7.4-4.1-9.2c-2.8-1.7-6.7-2.6-11.9-2.6h-11.1V190.7z"/>
		<path class="st0" d="M351.5,159.4h38.1v7h-29.7v20.7h25.1v7.1h-25.1v24h30.7v7.1h-39.1V159.4z"/>
		<path class="st0" d="M411.6,159.4h9l10.6,35.6c1.2,4,2.3,7.6,3.2,11c0.9,3.4,2,7,3.3,10.9h0.4c1.2-3.9,2.3-7.5,3.2-10.9
			c0.9-3.4,2-7,3.1-11l10.6-35.6h8.6l-20.9,66h-9.8L411.6,159.4z"/>
	</g>
	<g>
		<path class="st0" d="M202.3,273.4h20.2c3.6,0,6.9,0.3,10,1c3,0.7,5.6,1.8,7.7,3.3c2.1,1.5,3.8,3.5,4.9,6c1.2,2.5,1.8,5.5,1.8,9.2
			c0,3.5-0.6,6.5-1.8,9.1c-1.2,2.6-2.8,4.7-5,6.3c-2.1,1.7-4.7,2.9-7.7,3.8c-3,0.8-6.3,1.3-9.9,1.3h-11.9v26.2h-8.4V273.4z
			 M221.5,306.4c5.8,0,10-1.1,12.8-3.3c2.8-2.2,4.2-5.6,4.2-10.3c0-4.8-1.4-8.1-4.2-9.9c-2.8-1.8-7.1-2.8-12.8-2.8h-10.9v26.3H221.5
			z"/>
		<path class="st0" d="M301.5,319.3h-24.1l-6.3,20.1h-8.6l22.3-66h9.5l22.3,66h-9L301.5,319.3z M299.4,312.5l-3.1-10.1
			c-1.2-3.7-2.4-7.4-3.4-11c-1.1-3.7-2.1-7.4-3.2-11.2h-0.4c-1,3.8-2,7.6-3.1,11.2c-1.1,3.7-2.2,7.3-3.4,11l-3.1,10.1H299.4z"/>
		<path class="st0" d="M337.4,306.4c0-5.3,0.8-10.1,2.3-14.3c1.5-4.2,3.6-7.8,6.3-10.8s5.9-5.2,9.6-6.8c3.7-1.6,7.8-2.4,12.2-2.4
			c4.6,0,8.4,0.9,11.4,2.6c3.1,1.7,5.6,3.6,7.5,5.6l-4.7,5.3c-1.7-1.7-3.6-3.2-5.8-4.4c-2.2-1.2-5-1.8-8.3-1.8
			c-3.4,0-6.4,0.6-9.1,1.9c-2.7,1.2-5,3-6.8,5.3c-1.9,2.3-3.3,5.1-4.4,8.4c-1,3.3-1.6,7-1.6,11.1c0,4.2,0.5,7.9,1.5,11.2
			c1,3.3,2.4,6.2,4.2,8.5c1.8,2.4,4.1,4.2,6.8,5.4c2.7,1.3,5.9,1.9,9.4,1.9c2.3,0,4.6-0.4,6.7-1.1c2.1-0.7,3.8-1.7,5.2-2.9v-17.2
			h-14v-6.9h21.6V333c-2.1,2.2-5,4-8.5,5.5s-7.5,2.2-11.9,2.2c-4.4,0-8.4-0.8-12-2.3s-6.7-3.8-9.4-6.7c-2.6-2.9-4.7-6.5-6.1-10.8
			C338.1,316.6,337.4,311.8,337.4,306.4z"/>
		<path class="st0" d="M419.4,273.4h38.1v7h-29.7v20.7h25.1v7.1h-25.1v24h30.7v7.1h-39.1V273.4z"/>
	</g>
</g>
<g id="Layer_6">
	<g>
		<path class="st0" d="M250,463.3c-1,0-2-0.4-2.8-1.2L37.9,252.8c-1.6-1.6-1.6-4.1,0-5.7L247.2,37.9c1.6-1.6,4.1-1.6,5.7,0
			c1.6,1.6,1.6,4.1,0,5.7L46.4,250l206.4,206.4c1.6,1.6,1.6,4.1,0,5.7C252,462.9,251,463.3,250,463.3z"/>
	</g>
</g>
</svg>
