<svg xmlns="http://www.w3.org/2000/svg" xmlns:xlink="http://www.w3.org/1999/xlink" x="0" y="0" baseProfile="tiny" version="1.2" viewBox="0 0 400 400" xml:space="preserve"><circle cx="200" cy="200" r="189.7" fill="none" stroke="#010101" stroke-miterlimit="10" stroke-width="13"/><g class="rss"><path fill="#010101" d="M112.1,266.4c0,16.3,12.6,29.4,28.1,29.4c15.6,0,28.2-13.1,28.2-29.4c0-16.2-12.6-29.5-28.2-29.5C124.7,236.9,112.1,250.2,112.1,266.4z"/><path fill="#010101" d="M112.1,191.8c26.4,0,51.2,10.8,69.9,30.4c18.7,19.6,29,45.7,29,73.5l40.7,0c0-80.8-62.6-146.5-139.6-146.5V191.8z"/><path fill="#010101" d="M112.1,116.4c94.1,0,170.7,80.5,170.7,179.3l40.7,0c0-122.3-94.8-221.9-211.4-221.9V116.4z"/></g></svg>