<svg xmlns="http://www.w3.org/2000/svg" xmlns:xlink="http://www.w3.org/1999/xlink" x="0" y="0" version="1.1" viewBox="0 0 100 100" xml:space="preserve" style="enable-background:new 0 0 100 100"><style type="text/css">.st0{filter:url(#Adobe_OpacityMaskFilter)}.st1,.st2{fill-rule:evenodd;clip-rule:evenodd}.st1{fill:#fff}.st2{mask:url(#mask-4_1_)}.st3{fill:none}</style><g id="GitHub"><path d="M50,20.9c-16.5,0-29.9,13.4-29.9,29.9c0,13.2,8.6,24.4,20.4,28.4c1.5,0.3,2-0.6,2-1.4c0-0.7,0-2.6,0-5.1 c-8.3,1.8-10.1-4-10.1-4c-1.4-3.4-3.3-4.4-3.3-4.4c-2.7-1.9,0.2-1.8,0.2-1.8c3,0.2,4.6,3.1,4.6,3.1c2.7,4.6,7,3.3,8.7,2.5 c0.3-1.9,1-3.3,1.9-4c-6.6-0.7-13.6-3.3-13.6-14.8c0-3.3,1.2-5.9,3.1-8c-0.3-0.8-1.3-3.8,0.3-7.9c0,0,2.5-0.8,8.2,3.1 c2.4-0.7,4.9-1,7.5-1c2.5,0,5.1,0.3,7.5,1c5.7-3.9,8.2-3.1,8.2-3.1c1.6,4.1,0.6,7.2,0.3,7.9c1.9,2.1,3.1,4.8,3.1,8 c0,11.5-7,14-13.6,14.7c1,0.9,2,2.7,2,5.5c0,4,0,7.2,0,8.2c0,0.8,0.5,1.7,2.1,1.4c12-3.9,20.5-15.1,20.5-28.3 C79.9,34.2,66.5,20.9,50,20.9"/></g><g id="iTunes"><path d="M49.8,79.7c0,0,6.5,0,6.5-19.3c0-3.6-2.9-6.5-6.5-6.5s-6.5,2.9-6.5,6.5C43.3,79.7,49.8,79.7,49.8,79.7z M57.8,73.1 c0.3-1.1,0.5-2.2,0.7-3.3l0.1-0.9c0.3-0.1,0.6-0.2,0.9-0.4c4.5-2,8.3-5.5,10.8-9.9c1.1-2,1.9-4.1,2.4-6.4c0.6-2.5,0.7-5.1,0.4-7.6 c-0.3-2.4-0.9-4.7-1.9-6.9c-1.2-2.6-2.7-4.9-4.8-6.9c-2-2-4.5-3.7-7.1-4.9c-2.7-1.2-5.7-1.9-8.7-1.9c-3-0.1-6,0.4-8.9,1.5 c-2.7,1-5.2,2.6-7.4,4.5c-2,1.9-3.8,4.1-5.1,6.6c-1.1,2.1-1.8,4.4-2.2,6.7c-0.4,2.4-0.4,4.9,0,7.4c0.3,2.2,1,4.3,1.9,6.3 c2.2,4.7,5.9,8.5,10.5,10.9c0.6,0.3,1.1,0.5,1.7,0.8c0,0.3,0.1,0.6,0.1,1c0.2,1.1,0.4,2.2,0.7,3.3c-1-0.3-2-0.7-3-1.2 c-5.3-2.4-9.8-6.6-12.6-11.8c-1.3-2.3-2.2-4.8-2.7-7.4c-0.6-2.9-0.7-5.9-0.4-8.8c0.4-2.8,1.2-5.5,2.3-8c1.4-2.9,3.3-5.7,5.6-7.9 c2.3-2.3,5.1-4.2,8.2-5.5c3.2-1.4,6.7-2.1,10.2-2.1c3.5,0,7,0.6,10.2,1.9c3.1,1.2,6,3.1,8.5,5.4c2.4,2.2,4.4,4.9,5.8,7.8 c1.2,2.5,2.1,5.1,2.5,7.9c0.4,2.8,0.4,5.7,0,8.5c-0.4,2.6-1.3,5.2-2.4,7.6c-2.6,5.2-6.9,9.6-12.2,12.2 C60.7,72.1,59.3,72.6,57.8,73.1C57.9,73.1,57.8,73.1,57.8,73.1z M59.1,62.5l0-1.2c0-0.8,0-1.6-0.1-2.3c0-0.3-0.1-0.6-0.2-0.9 c1.4-1.1,2.5-2.5,3.4-4.1c0.6-1.2,1.1-2.5,1.4-3.8c0.3-1.5,0.4-3.1,0.2-4.6c-0.2-1.4-0.6-2.7-1.1-4c-0.7-1.5-1.7-2.9-2.9-4.1 c-1.2-1.2-2.6-2.2-4.2-2.9c-1.7-0.7-3.6-1.2-5.4-1.2c-1.9,0-3.8,0.3-5.5,1c-1.6,0.6-3,1.5-4.3,2.7c-1.3,1.2-2.3,2.5-3.1,4 c-0.6,1.2-1.1,2.5-1.3,3.9c-0.3,1.4-0.3,2.9-0.1,4.3c0.2,1.4,0.6,2.7,1.1,4c0.9,1.9,2.1,3.6,3.7,5l-0.2,1c-0.1,0.8-0.1,1.5-0.1,2.3 v1c-2.6-1.6-4.8-3.9-6.2-6.6c-0.9-1.5-1.5-3.2-1.8-4.9c-0.4-1.9-0.5-3.9-0.2-5.8c0.2-1.7,0.7-3.5,1.4-5c0.9-1.9,2.1-3.7,3.6-5.2 c1.5-1.5,3.3-2.8,5.2-3.6c2.2-1,4.5-1.5,6.8-1.6c2.4,0,4.8,0.4,7,1.2c2,0.8,3.8,1.9,5.4,3.4c1.6,1.5,2.9,3.2,3.9,5.1 c0.8,1.6,1.4,3.2,1.7,4.9c0.3,1.8,0.4,3.6,0.1,5.4c-0.2,1.7-0.7,3.5-1.5,5.1c-1.4,3.2-3.9,6-7,7.9C58.8,62.8,59.1,62.5,59.1,62.5z M49.8,38.8c3.6,0,6.6,2.9,6.6,6.6c0,3.6-2.9,6.6-6.6,6.6c-3.6,0-6.6-2.9-6.6-6.6S46.2,38.9,49.8,38.8L49.8,38.8z"/></g><g id="RSS"><path d="M67.8,79.7c0-26.1-21.4-47.5-47.5-47.5V20.3c32.6,0,59.4,26.8,59.4,59.4H67.8z M28.5,63.4c4.5,0,8.1,3.7,8.1,8.2 c0,4.5-3.7,8.1-8.2,8.1c-4.5,0-8.1-3.6-8.1-8.1S24,63.4,28.5,63.4z M59.7,79.7H48.1c0-15.3-12.6-27.8-27.8-27.8V40.3 C41.9,40.3,59.7,58.1,59.7,79.7z"/></g><g id="Twitter"><path d="M79.8,31.5c-2.2,1-4.6,1.6-7,1.9c2.5-1.5,4.5-3.9,5.4-6.8c-2.4,1.4-5,2.4-7.8,2.9c-2.2-2.4-5.4-3.9-8.9-3.9 c-6.8,0-12.3,5.5-12.3,12.2c0,1,0.1,1.9,0.3,2.8C39.3,40.3,30.2,35.4,24.2,28c-1.1,1.8-1.7,3.9-1.7,6.2c0,4.3,2.2,8,5.4,10.2 c-2-0.1-3.9-0.6-5.5-1.5V43c0,5.9,4.2,10.9,9.8,12c-1,0.3-2.1,0.4-3.2,0.4c-0.8,0-1.5-0.1-2.3-0.2c1.6,4.9,6.1,8.4,11.5,8.5 C34,67,28.7,69,23,69c-1,0-1.9-0.1-2.9-0.2c5.5,3.5,11.9,5.5,18.8,5.5c22.5,0,34.9-18.7,34.9-34.8c0-0.5,0-1,0-1.6 c2.4-1.7,4.5-3.9,6.1-6.3C79.9,31.5,79.8,31.5,79.8,31.5z"/></g><g id="YouTube"><path d="M78.6,35.6c-0.7-2.5-2.7-4.5-5.2-5.2C68.8,29.1,50,29.1,50,29.1s-18.7,0-23.4,1.2c-2.5,0.7-4.5,2.7-5.2,5.2 c-0.9,4.8-1.3,9.6-1.3,14.5c0,4.8,0.4,9.7,1.3,14.4c0.7,2.5,2.7,4.5,5.2,5.2c4.7,1.3,23.4,1.3,23.4,1.3s18.7,0,23.4-1.3 c2.5-0.7,4.5-2.7,5.2-5.2c0.9-4.8,1.3-9.6,1.2-14.4C79.9,45.2,79.5,40.3,78.6,35.6z M44,59V41.1l15.6,9L44,59z"/></g><g id="PayPal"><path d="M37.2,80.1h-7.8c-1.7,0-2.7-1.3-2.3-3l0.4-1.7h5.2c1.7,0,3.4-1.3,3.7-3L39.1,61c0.4-1.6,2-3,3.7-3H45 c9.5,0,16.9-2,22.2-5.9s7.9-9,7.9-15.4c0-2.8-0.5-5.2-1.5-7c0,0,0-0.1,0-0.1l0.3,0.2c1.9,1.2,3.3,2.7,4.3,4.5c1,1.9,1.5,4.2,1.5,7 c0,6.4-2.6,11.5-7.9,15.4c-5.3,3.9-12.7,5.8-22.2,5.8h-2.3c-1.7,0-3.3,1.3-3.7,3l-2.7,11.5C40.6,78.7,38.9,80,37.2,80.1L37.2,80.1z M30.5,73.3h-7.8c-1.7,0-2.7-1.3-2.3-3l11-47.5c0.4-1.6,2-3,3.7-3h16.2c3.5,0,6.5,0.2,9.1,0.7c2.6,0.5,4.8,1.3,6.7,2.5 c1.8,1.2,3.3,2.7,4.3,4.6c1,1.9,1.5,4.2,1.5,7c0,6.4-2.6,11.5-7.9,15.3c-5.3,3.9-12.7,5.8-22.2,5.8h-2.2c-1.7,0-3.3,1.3-3.7,2.9 l-2.7,11.5C33.8,71.9,32.2,73.2,30.5,73.3L30.5,73.3z M49.2,29.8h-2.5c-1.7,0-3.3,1.3-3.7,3l-2.3,10.1c-0.4,1.6,0.7,3,2.3,3h1.9 c4.2,0,7.4-0.9,9.8-2.6c2.3-1.7,3.5-4.1,3.5-7.3c0-2.1-0.8-3.6-2.3-4.6C54.4,30.3,52.1,29.8,49.2,29.8L49.2,29.8z"/></g><g id="Pocket_Casts"><defs><filter id="Adobe_OpacityMaskFilter" width="63.1" height="63.1" x="18.4" y="18.4" filterUnits="userSpaceOnUse"><feColorMatrix type="matrix" values="1 0 0 0 0 0 1 0 0 0 0 0 1 0 0 0 0 0 1 0"/></filter></defs><mask id="mask-4_1_" width="63.1" height="63.1" x="18.4" y="18.4" maskUnits="userSpaceOnUse"><g class="st0"><path id="path-3_1_" d="M49.3,71.2C37.9,70.8,28.8,61.5,28.8,50c0-11.6,9.6-21.2,21.2-21.2 c11.5,0,20.8,9.1,21.2,20.5c0,0.4,0.3,0.7,0.8,0.7h6.2c0.4,0,0.8-0.4,0.8-0.8C78.4,33.6,65.7,21.1,50,21.1 C34,21.1,21.1,34,21.1,50c0,15.7,12.5,28.4,28.1,28.8c0.4,0,0.8-0.3,0.8-0.8v-6.2C50,71.5,49.7,71.2,49.3,71.2L49.3,71.2z M50,33.3c-9.2,0-16.7,7.4-16.7,16.7c0,9,7,16.3,15.9,16.7c0.4,0,0.8-0.3,0.8-0.8V61c0-0.4-0.3-0.7-0.7-0.7 c-5.4-0.4-9.6-4.8-9.6-10.3c0-5.7,4.6-10.3,10.3-10.3c5.5,0,9.9,4.2,10.3,9.6c0,0.4,0.4,0.7,0.7,0.7h4.9c0.4,0,0.8-0.4,0.8-0.8 C66.3,40.4,58.9,33.3,50,33.3L50,33.3z" class="st1"/></g></mask><polygon id="Fill-7" points="18.4 18.4 81.6 18.4 81.6 81.6 18.4 81.6" class="st2"/></g><g id="Ball_Pit"><g><path d="M32.8,32.8c0.9,0.2,4.4-8.4,13.8-8.8c4.7-0.1,8.3,3.8,8.7,3.1c0.5-0.7-1.8-3.9-9.2-4.2C37.5,22.9,31.9,32.6,32.8,32.8z"/><path d="M32.7,29.6c0,0,4.2-9.7,13.4-10.3c5.8-0.1,7.3,3.4,7.3,3.4s-1.2-1.8-7.3-2.1C37.3,21.3,32.7,29.6,32.7,29.6z"/><ellipse cx="53" cy="36.9" rx="1.3" ry="2"/><ellipse cx="46.6" cy="36.4" rx=".9" ry="1.7"/><path d="M64.7,61.5c-8.1,0.1-16.5,6.6-19.5,9c-2.1-1.9-3.2-4.4-2.4-7.6c0-1.8,4.5-7.6,9.1-9.4c1.2,1.5,3.3,3.7,4.1,3.4 c0.8-0.3,2.1-3.3,2.9-5.2c1.7-0.3,3.4-0.5,4.9-0.6c0.8,1.7,2.4,4.7,3.4,4.6s3.2-3.2,4.3-4.8c0.9,0,1.4,0.1,1.4,0.1 c-0.2-0.6-0.4-1.2-0.6-1.7c-1.3-3-3-5.8-5.2-8.2c-1.5-1.6-3.2-3.1-5-4.3c-1.8-1.2-4.1-2-5.7-3.5c-0.7-0.7-1.5-1.7-2.4-2.2 c-0.9-0.4-2.3-0.3-3.1,0.3c-0.6,0.4-0.5,0.6-1.1,0.3c-1-0.6-1.7-1.7-2.6-2.4c-2.3-1.7-5.6-1.1-7.5,0.9c-1,1-1.5,2.4-2.4,3.5 c-1.1,1.4-2.9,1.8-4.1,3c-2.5,2.3-4.6,4.7-6.2,7.8c-1.4,2.7-2.2,5.8-2.5,8.7c-0.9,8.6,1.2,16.9,15.8,25.4 c13,5.8,25.9-1.8,25.9-1.8s-11.5-0.6-18.5-4.6c1.2-1,3.3-2.5,7-4.1c6.4-2.6,12.9,0.7,13.7,2.6c0.8,1.9,0.8,6.1,0.8,6.1 s2.2-2.4,1.9-4.9c-0.3-2.6-1.3-5.2-1.3-5.2s1.8,0.5,3.6,2.4c1.8,1.9,2.4,5.7,2.4,5.7s1.6-3,1.5-5.5C77.4,67,74.7,61.3,64.7,61.5z M41,51.7c-3.8-0.7-6-6.1-4.8-12.1c1.2-5.9,5.2-10.1,9-9.4c2.1,0.4,3.7,2.2,4.5,4.7c0.5-1.4,1.3-2.4,2.4-2.7 c2.4-0.6,5.2,2.2,6.2,6.3c1,4.1-0.1,7.9-2.5,8.5c-2.1,0.5-4.6-1.7-5.8-5c0,0.1,0,0.2,0,0.2C48.8,48.3,44.8,52.5,41,51.7z"/></g></g><g id="Lemon"><g><g><polygon points="23.5 58.4 24.4 59 43.7 45.8 67.9 28.8 67.2 27.8 67.2 27.8" class="st3"/><path d="M67.2,27.8C67.2,27.8,67.2,27.8,67.2,27.8L67.2,27.8L67.2,27.8z" class="st3"/><polygon points="72.2 35.7 46.9 43.8 72.2 36.5" class="st3"/><path d="M67.2,27.8c1.3,1.4,6.4,7.1,5.6,11.9c-0.7,4.5-3.2,11.5-9.3,16.4c-5,4-11.7,7.3-20,7.9 c-8.2,0.6-16.9-2.4-20.6-5.6l-4.2,2.7c6.4,4.7,13.9,7.3,23.6,6.5c9.6-0.8,19.4-5.3,22.4-7.5c2.9-2.1,10.6-8.9,12.7-16.8 c1.5-5.5-0.9-14.7-4.8-19.4L67.2,27.8L67.2,27.8z" class="st3"/><polygon points="46.5 63.2 43.9 45.7 45.4 63.2" class="st3"/><polygon points="66.6 52.4 45.4 45.1 65.9 53.1" class="st3"/><g><path d="M43.6,64c8.3-0.6,15-3.9,20-7.9c6-4.8,8.6-11.9,9.3-16.4c0.8-4.9-5-11-5-11l-24.2,17L24.1,59.3 C28.2,62.2,36.1,64.6,43.6,64z M71.6,35.3l0.6,1.7l-25.3,6.8L71.6,35.3z M66.9,52l-1.2,1.4l-20.3-8.4L66.9,52z M47.3,63.2 l-2.4,0.3l-0.9-17.8L47.3,63.2z"/><path d="M72.8,23.9c3.9,4.7,6.2,13.9,4.8,19.4c-2.1,7.9-8.7,14.5-12.7,16.8c-3,2.2-12.8,6.7-22.4,7.5 c-9.8,0.9-17.3-1.8-23.6-6.5l4.2-2.7l44.2-30.6c0,0,0,0,0,0l0,0L72.8,23.9L67,27.6c-13.6,9.5-47.3,33-48.8,33.9 c0,0,0,3.6,10.9,10.2C41,77.8,54,75.2,58.7,72.9c3.1-1.4,12.2-4.4,18.6-19.3C83.5,37,76.5,27.8,72.8,23.9z"/><path d="M24.1,59.3C24.1,59.3,24.1,59.3,24.1,59.3L24.1,59.3L24.1,59.3z"/></g></g></g></g></svg>