<?xml version="1.0" encoding="utf-8"?>
<!-- Generator: Adobe Illustrator 24.1.1, SVG Export Plug-In . SVG Version: 6.00 Build 0)  -->
<svg version="1.1" id="Layer_1" xmlns="http://www.w3.org/2000/svg" xmlns:xlink="http://www.w3.org/1999/xlink" x="0px" y="0px"
	 viewBox="0 0 100 100" style="enable-background:new 0 0 100 100;" xml:space="preserve">
<path d="M5.2,51c-0.2,0-0.4,0.2-0.4,0.4l-1,8.9l1,8.7c0,0.2,0.2,0.4,0.4,0.4c0.2,0,0.4-0.2,0.4-0.4l1.1-8.7l-1.1-8.9
	C5.6,51.2,5.4,51,5.2,51 M1.5,54.4c-0.2,0-0.4,0.2-0.4,0.4l-0.7,5.5l0.7,5.4c0,0.2,0.2,0.4,0.4,0.4s0.4-0.2,0.4-0.4l0.9-5.4
	l-0.9-5.5C1.9,54.4,1.7,54.3,1.5,54.4 M9,49.3c-0.3,0-0.5,0.2-0.5,0.4L7.7,60.3l0.9,10.1c0,0.2,0.2,0.5,0.5,0.5
	c0.3,0,0.4-0.3,0.5-0.5l1-10.2l-1-10.5C9.5,49.4,9.3,49.2,9,49.3 M13,48.8c-0.3,0-0.6,0.2-0.6,0.6l-0.8,10.9l0.9,10.5
	c0.1,0.3,0.3,0.6,0.6,0.6c0.3,0,0.6-0.3,0.6-0.6l1-10.4l-1-10.8c0-0.3-0.2-0.6-0.6-0.6C13.1,48.9,13,48.8,13,48.8z M17.7,50.3
	c0-0.4-0.3-0.6-0.7-0.6c-0.4,0-0.7,0.2-0.7,0.6l-0.9,10l0.8,10.6c0,0.4,0.3,0.6,0.7,0.6c0.3,0,0.6-0.3,0.6-0.7l0.9-10.6l-0.9-10.1
	C17.6,50.2,17.7,50.3,17.7,50.3z M21.1,43.3c-0.4,0-0.7,0.4-0.7,0.7l-0.9,16.3l0.8,10.6c0,0.4,0.3,0.7,0.7,0.7
	c0.4,0,0.7-0.4,0.7-0.7l0.9-10.6l-0.9-16.4c0-0.4-0.4-0.7-0.7-0.7 M24.9,39.4c-0.4,0-0.8,0.4-0.8,0.8l-0.7,20.1L24,70.8
	c0,0.5,0.4,0.9,0.8,0.9c0.4,0,0.8-0.4,0.9-0.9l0.8-10.5l-0.8-20C25.6,39.7,25.3,39.4,24.9,39.4 M28.9,37.5c-0.5,0-0.9,0.4-0.9,0.9
	l-0.7,21.7L28,70.5c0.1,0.5,0.4,0.9,0.9,0.9c0.5,0,0.9-0.4,0.9-0.9l0.8-10.4l-0.8-21.7C29.8,37.9,29.4,37.5,28.9,37.5 M34,37.6
	c0-0.6-0.4-1-1-1c-0.5,0-1,0.4-1,1l-0.6,22.4l0.6,10.3c0.1,0.6,0.5,1,1.1,1s1-0.4,1-1l0.7-10.3L34,37.6C34.1,37.6,34,37.6,34,37.6z
	 M37.1,37.1c-0.6,0-1.1,0.5-1.1,1l-0.6,21.9l0.6,10.2c0,0.6,0.5,1.1,1.1,1.1s1.1-0.5,1.1-1.1L38.8,60l-0.7-21.9
	c0-0.6-0.5-1.1-1.1-1.1 M41.1,37.7c-0.7,0-1.2,0.6-1.2,1.2l-0.4,21.2l0.6,10.2c0,0.6,0.5,1.1,1.2,1.1c0.6,0,1.1-0.5,1.2-1.2
	l0.5-10.1l-0.6-21.1c0-0.7-0.6-1.2-1.2-1.2 M46.1,34c-0.2-0.1-0.4-0.2-0.7-0.2c-0.2,0-0.5,0.1-0.7,0.2c-0.4,0.2-0.6,0.6-0.6,1.1v0.3
	l-0.4,24.9l0.5,10.1v0c0,0.2,0.1,0.6,0.3,0.7c0.2,0.3,0.6,0.4,1,0.4c0.3,0,0.7-0.2,0.9-0.4c0.2-0.2,0.4-0.6,0.4-0.9l0.1-1l0.5-9.1
	l-0.6-25.1C46.7,34.7,46.4,34.3,46.1,34C46.1,34.1,46.1,34,46.1,34z M50.2,31.8c-0.2-0.2-0.4-0.3-0.6-0.3c-0.3,0-0.6,0.1-0.9,0.3
	c-0.3,0.3-0.5,0.6-0.5,1v0.1l-0.6,27.2l0.3,5l0.3,4.9c0,0.7,0.6,1.3,1.4,1.3c0.7,0,1.4-0.6,1.4-1.4l0.6-9.9L51,32.7
	c0-0.5-0.3-0.9-0.7-1.1 M87.1,47.1c-1.7,0-3.3,0.4-4.7,1c-1-10.9-10.1-19.5-21.4-19.5c-2.7,0-5.4,0.6-7.8,1.5
	c-0.9,0.4-1.1,0.7-1.2,1.5v38.6c0.1,0.7,0.6,1.4,1.4,1.4h33.7c6.7,0.1,12.1-5.3,12.1-12s-5.4-12.2-12.1-12.2"/>
</svg>
