<svg xmlns="http://www.w3.org/2000/svg" xmlns:xlink="http://www.w3.org/1999/xlink" x="0" y="0" baseProfile="tiny" class="social twitter" version="1.2" viewBox="0 0 400 400" xml:space="preserve"><circle cx="200" cy="200" r="189.7" fill="none" stroke="#010101" stroke-miterlimit="10" stroke-width="13"/><g class="bird"><path fill="#010101" d="M306.9,132.7c-8,3.5-16.4,6-25.4,7c9-5.5,16-14,19.4-24.4c-8.5,5-17.9,9-27.9,11c-8-8.5-19.4-14-32.4-14c-24.4,0-44.4,19.9-44.4,44.4c0,3.5,0.5,7,1,10c-36.9-2-69.3-19.4-91.2-46.4c-4,6.5-6,14-6,22.4c0,15.5,8,28.9,19.9,36.9c-7,0-14-2.5-19.9-5.5v0.5c0,21.4,15.5,39.4,35.4,43.4c-4,1-7.5,1.5-11.5,1.5c-3,0-5.5,0-8.5-1c5.5,17.4,21.9,30.4,41.4,30.9c-15.5,12-34.4,18.9-54.8,18.9c-3.5,0-7,0-10.5-0.5c19.4,12.5,42.9,19.9,68.3,19.9c81.7,0,126.1-67.8,126.1-126.1c0-2,0-4,0-6C293.4,149.2,300.9,141.2,306.9,132.7z"/></g></svg>