<?xml version="1.0" encoding="utf-8"?>
<!-- Generator: Adobe Illustrator 18.1.0, SVG Export Plug-In . SVG Version: 6.00 Build 0)  -->
<svg version="1.2" baseProfile="tiny" xmlns="http://www.w3.org/2000/svg" xmlns:xlink="http://www.w3.org/1999/xlink" x="0px" y="0px" viewBox="0 0 50 50" xml:space="preserve">
  <path d="M50,19c-1.6,0.7-3.3,1.2-5.1,1.4c1.8-1.1,3.2-2.8,3.9-4.9c-1.7,1-3.6,1.8-5.6,2.2c-1.6-1.7-3.9-2.8-6.5-2.8c-4.9,0-8.9,4-8.9,8.9c0,0.7,0.1,1.4,0.2,2c-7.4-0.4-13.9-3.9-18.3-9.3c-0.8,1.3-1.2,2.8-1.2,4.5c0,3.1,1.6,5.8,4,7.4c-1.4,0-2.8-0.5-4-1.1c0,0,0,0.1,0,0.1c0,4.3,3.1,7.9,7.1,8.7c-0.8,0.2-1.5,0.3-2.3,0.3c-0.6,0-1.1,0-1.7-0.2c1.1,3.5,4.4,6.1,8.3,6.2c-3.1,2.4-6.9,3.8-11,3.8c-0.7,0-1.4,0-2.1-0.1c3.9,2.5,8.6,4,13.7,4c16.4,0,25.3-13.6,25.3-25.3c0-0.4,0-0.8,0-1.2C47.3,22.3,48.8,20.7,50,19z"/>
</svg>
