<?xml version="1.0" encoding="utf-8"?>
<!-- Generator: Adobe Illustrator 19.1.0, SVG Export Plug-In . SVG Version: 6.00 Build 0)  -->
<svg version="1.1" id="Layer_1" xmlns="http://www.w3.org/2000/svg" xmlns:xlink="http://www.w3.org/1999/xlink" x="0px" y="0px"
	 viewBox="0 0 100 100" style="enable-background:new 0 0 100 100;" xml:space="preserve">
<style type="text/css">
	.st0{fill:#010101;}
</style>
<g id="Lozenge">
	<g>
		<path class="st0" d="M81.3,37.9c0,0-0.6-4.3-2.5-6.2c-2.4-2.5-5.1-2.5-6.3-2.7c-8.8-0.6-22-0.6-22-0.6h0c0,0-13.2,0-22,0.6
			c-1.2,0.1-3.9,0.2-6.3,2.7c-1.9,1.9-2.5,6.2-2.5,6.2s-0.6,5.1-0.6,10.2v4.8c0,5.1,0.6,10.2,0.6,10.2s0.6,4.3,2.5,6.2
			c2.4,2.5,5.5,2.4,6.9,2.7c5,0.5,21.4,0.6,21.4,0.6s13.2,0,22-0.7c1.2-0.1,3.9-0.2,6.3-2.7c1.9-1.9,2.5-6.2,2.5-6.2
			s0.6-5.1,0.6-10.2v-4.8C81.9,43,81.3,37.9,81.3,37.9z M44,58.7L44,41l17,8.9L44,58.7z"/>
	</g>
</g>
</svg>
