<?xml version="1.0" encoding="utf-8"?>
<!-- Generator: Adobe Illustrator 19.1.0, SVG Export Plug-In . SVG Version: 6.00 Build 0)  -->
<!DOCTYPE svg PUBLIC "-//W3C//DTD SVG 1.1//EN" "http://www.w3.org/Graphics/SVG/1.1/DTD/svg11.dtd">
<svg version="1.1" id="Layer_1" xmlns="http://www.w3.org/2000/svg" xmlns:xlink="http://www.w3.org/1999/xlink" x="0px" y="0px"
	 viewBox="0 0 100 71" style="enable-background:new 0 0 100 71;" xml:space="preserve">
<style type="text/css">
	.st0{fill:#FFFFFF;}
</style>
<g id="Lozenge">
	<g>
		<path class="st0" d="M97.7,15.7c0,0-1-6.7-3.9-9.7c-3.7-3.9-7.9-3.9-9.8-4.1c-13.6-1-34.1-1-34.1-1h0c0,0-20.4,0-34.1,1
			C14,2.1,9.9,2.2,6.2,6c-2.9,3-3.9,9.7-3.9,9.7s-1,7.9-1,15.8v7.4c0,7.9,1,15.8,1,15.8s1,6.7,3.9,9.7c3.7,3.9,8.6,3.8,10.7,4.2
			c7.8,0.7,33.1,1,33.1,1s20.5,0,34.1-1c1.9-0.2,6.1-0.2,9.8-4.1c2.9-3,3.9-9.7,3.9-9.7s1-7.9,1-15.8v-7.4
			C98.7,23.6,97.7,15.7,97.7,15.7z M39.9,47.8l0-27.4l26.3,13.7L39.9,47.8z"/>
	</g>
</g>
</svg>
