<svg viewBox="0 0 600 600" xmlns="http://www.w3.org/2000/svg" xml:space="preserve" style="fill-rule:evenodd;clip-rule:evenodd;stroke-linejoin:round;stroke-miterlimit:2"><path d="M0-344.819c-51.158 0-97.104 22.289-128.679 57.677H74.813l-14.832 16.033c-7.239 7.809-7.377 7.958-13.723 17.739-5.188 7.992-3.781 16.485-3.765 16.568l2.013 9.987h-56.579l6.94-14.022-36.971.181-24.739 61.017h32.013l16.591-37.066 57.58-.149-16.653 37.215H66.52l-22.221 52.112-45.006.162-17.396 38.861-57.598.142 17.373-38.796-31.273.108-24.187 53.609c-3.171 6.995-7.228 13.265-12.121 18.795C-94.446-21.022-49.681 0 0 0c95.219 0 172.41-77.19 172.41-172.409 0-95.22-77.191-172.41-172.41-172.41" style="fill:#c1282e;fill-rule:nonzero" transform="matrix(1.37754 0 0 1.37754 336.782 543.229)"/><path d="M0 177.26c-1.988 3.986-4.975 5.974-8.945 5.974-3.489 0-5.224-1.248-5.224-3.722 0-.518.117-1.005.371-1.496l15.664-35.072c8.215-18.905 17.414-29.605 27.612-32.09C16.045 140.444 6.222 162.594 0 177.26M235.36 75.032h-44.078l16.638-37.181-39.286.101-16.598 37.08h-49.798L133.73-2.637l56.066-.274-6.973 14.088h32.957s-2.328-11.552 4.944-22.754c7.267-11.202 7.277-10.949 16.476-20.893H2.617S-7.495-26.131-7.495-16.253c0 9.894 8.884 13.885 8.884 13.885l77.892-.264-33.763 77.633c-34.321 12.932-58.703 35.574-73.125 67.923l-16.415 36.588c-1.238 2.723-1.871 5.339-1.871 7.824 0 7.211 4.853 12.947 14.564 17.161 7.956 3.489 16.532 5.233 25.741 5.233 13.925 0 26.486-3.235 37.678-9.696 12.693-7.221 22.013-17.404 27.982-30.573l26.395-58.5 49.56-.173-17.379 38.809 39.301-.096 17.394-38.855 44.9-.162 15.117-35.452Z" style="fill:#212121;fill-rule:nonzero" transform="matrix(1.37754 0 0 1.37754 86.812 203.899)"/></svg>