<svg version="1" xmlns="http://www.w3.org/2000/svg" width="800" height="800" viewBox="0 0 600.000000 600.000000"><path d="M310.8 50.5c-.2.1-3.4.5-7.3.8-17.5 1.6-25.6 3.1-44 8.2-29.4 8.2-58.7 23.3-83.3 42.8-8.1 6.4-29.2 26.5-29.2 27.8 0 .4 63.2.7 140.5.6 77.3-.1 140.5 0 140.5.3 0 1.1-1.9 3.2-12.6 14.6-14 14.9-17.4 19-23 27.6-8 12.4-9.6 21.4-6.4 34.9.7 2.8 1 5.2.7 5.5-.4.5-58.8.8-74 .5l-3.7-.1 4.6-9.1c2.5-5 4.3-9.3 4-9.6-.8-.8-50-.3-50.8.5-.3.4-3.9 8.8-7.8 18.7-4 9.9-7.8 19.3-8.5 21-4.8 10.8-17.4 42.5-17.5 44 0 .9 43.6 1.3 44.3.4.2-.2 1.6-3.3 3.1-6.9 1.6-3.6 4.4-9.8 6.2-13.8 1.9-4 3.4-7.5 3.4-7.7 0-.3 2.3-5.3 5-11.1 2.8-5.8 5-10.9 5-11.3 0-.5 76.4-.7 79.1-.2.6.1-9.5 23.5-17.3 40.1-4.5 9.6-4.9 11-3.6 11.1.7 0 14.2.1 30.1.1 15.8.1 28.7.4 28.7.8 0 .7-4.1 10.8-7.5 18.5-.8 1.6-3.2 7.5-5.5 13s-5 11.8-5.9 14c-1 2.2-3.8 8.5-6.1 14s-4.6 10.5-5 11c-.6.7-11.9 1-31.5 1-19.7 0-30.9.3-31.4 1-.4.5-2.9 5.9-5.6 12-2.6 6-5.6 12.8-6.6 15-1 2.2-4 8.9-6.8 15l-4.9 11-39.6.2-39.7.2.7-2.1c.3-1.2 2.4-6 4.6-10.7 7.1-15.4 17.8-39.7 17.8-40.4 0-.4-9.9-.7-22-.7-13.2 0-22 .4-22 .9 0 .6-2.4 6.3-5.4 12.8-2.9 6.5-6.4 14-7.6 16.8-1.2 2.7-3.5 7.9-5.1 11.4-1.6 3.5-5.3 11.6-8.1 18-7.9 17.9-12.7 26.9-18 33.8-2.6 3.5-4.8 6.8-4.8 7.2 0 1.3 8 9.2 21.6 21.2 3.4 3 16.1 12.3 21.9 16 32.6 21 67 33.3 105.3 37.6 8.1.9 42.4.9 50.5 0 98.8-11.1 178.8-78.3 206.1-173.2 1.9-6.6 3.6-13.4 3.9-15 4.2-24.4 5.1-33.8 5-51.8-.1-12.8-.6-20.8-1.9-29.6-.3-2-.7-5.1-.9-6.9-1.8-12.6-8.1-36.6-12-45.7-.7-1.7-2.3-5.5-3.5-8.5-20.8-50.7-59.9-93.8-109-119.8-22.5-12-43.9-19.4-71.6-24.6-2.2-.4-10.1-1.5-16.9-2.3-4.7-.5-38.2-1.2-38.7-.8z"/><path d="M71.4 146.5c-6 6.2-8.5 11.6-8.5 17.9 0 6.7 2.1 11.4 7.1 16l4.1 3.7 54-.2c29.7-.1 54.1 0 54.4.2.2.2-1.2 4-3.1 8.4-2 4.4-5.6 12.7-8.1 18.5-2.5 5.8-5.1 11.9-5.8 13.5-.8 1.7-2.3 5.3-3.5 8-1.2 2.7-2.8 6.3-3.5 8-.7 1.6-4.6 10.4-8.5 19.5-4 9.1-7.8 17.8-8.5 19.5-.7 1.6-2.2 5-3.3 7.5-1.7 4-2.5 4.8-7.8 6.9-22.1 8.9-42.7 22.3-58.9 38.5-5 5-10.2 10.5-11.5 12.1C49.1 358 41.5 370.6 33.7 388c-1.3 3-7.2 16.1-13 29-5.8 12.9-10.9 25.2-11.2 27.2-.4 2.1-.2 6 .5 8.8 3.5 14.5 28 25.9 55.4 25.8 10 0 14.1-.4 24.1-2.2 11.4-2.1 28.3-10 39.2-18.2 15.3-11.7 21.7-21 36-52.8 15-33 14.3-31.7 21.8-48.4 3.8-8.3 7.3-15.2 7.9-15.3 4.7-.3 66.2-.5 66.8-.2.3.2-4.7 12.1-11.1 26.6-6.5 14.4-11.7 26.5-11.5 26.8.5.9 53.6.1 54.5-.8.4-.4 3.5-7.1 6.9-14.8 3.4-7.7 7.5-16.7 9-20 1.5-3.3 4-8.8 5.5-12.2l2.8-6.3 17.6.1H366l13.5-.1 1.4-3.3c1.3-3 2.9-6.7 7.1-16.2 4.7-10.6 12-28.4 12-29.2 0-.4-13.5-.8-30-.8s-30-.3-30-.7c0-.3 1.3-3.5 2.9-7 1.6-3.5 4.5-10.1 6.6-14.8 2.1-4.7 5.8-12.9 8.2-18.3 2.5-5.4 4.2-10.1 3.9-10.4-.5-.5-10.1-.6-41.1-.4l-13.1.1-11.4 25.7-11.5 25.8h-33.8c-18.6 0-34-.3-34.3-.6-.2-.3 1.9-6.2 4.7-13 2.8-6.8 10.2-25.2 16.6-40.9 14.6-36.3 17.5-43.3 20.4-49.9l1.5-3.4 38.2-.2c21.9 0 38.2.3 38.2.8s-2 4.9-4.5 9.8L327 203h45.7l.5-8.8c.4-5.2 1.4-10.8 2.6-14 2.4-6.2 13.3-22.8 19.3-29.2 2.3-2.5 5.1-5.5 6.2-6.8l2-2.2H75.7l-4.3 4.5zm41.1 198.2c-1.1 2.4-6.7 14.7-17.7 39.3-1.2 2.5-3.1 6.7-4.3 9.5-1.3 2.7-4.4 9.9-7 16-11.9 27.6-12.3 28.4-16.7 30.7-5.9 3.2-12.8 1.8-13-2.7-.1-2 23.8-56 28.7-65 7.3-13.2 15.5-22.6 24-27.6 6.4-3.7 7.8-3.8 6-.2z"/></svg>