<?xml version="1.0" standalone="no"?>
<!DOCTYPE svg PUBLIC "-//W3C//DTD SVG 20010904//EN"
 "http://www.w3.org/TR/2001/REC-SVG-20010904/DTD/svg10.dtd">
<svg version="1.0" xmlns="http://www.w3.org/2000/svg"
 width="600.000000pt" height="600.000000pt" viewBox="0 0 600.000000 600.000000"
 preserveAspectRatio="xMidYMid meet">
<metadata>
Created by potrace 1.14, written by Peter Selinger 2001-2017
</metadata>
<g transform="translate(0.000000,600.000000) scale(0.100000,-0.100000)"
fill="#000000" stroke="none">
<path d="M3277 5324 c-1 -1 -40 -5 -87 -8 -110 -9 -171 -16 -190 -21 -8 -3
-33 -7 -55 -10 -22 -4 -76 -15 -120 -26 -319 -80 -583 -205 -850 -404 -63 -47
-92 -71 -174 -142 -30 -26 -35 -25 92 -25 75 0 78 1 125 39 107 88 273 191
424 263 99 46 320 126 376 136 15 3 43 9 62 14 132 34 322 54 505 54 830 -2
1589 -479 1956 -1229 152 -310 228 -645 223 -985 -1 -118 -10 -257 -19 -290
-2 -8 -7 -35 -10 -60 -16 -115 -74 -318 -132 -460 -225 -551 -671 -991 -1228
-1213 -90 -36 -309 -101 -375 -112 -301 -47 -534 -52 -770 -14 -229 36 -409
94 -625 200 -186 91 -274 149 -452 296 -95 78 -91 77 -153 23 l-35 -30 50 -45
c28 -25 93 -78 145 -118 52 -39 97 -74 100 -77 9 -9 173 -107 240 -143 190
-102 507 -205 715 -233 28 -4 57 -8 66 -9 90 -16 362 -22 479 -10 30 3 80 8
110 11 153 16 417 83 547 140 17 8 34 14 37 14 12 0 205 96 286 143 298 172
574 432 764 722 106 161 146 238 236 450 43 103 102 323 124 465 37 233 38
500 5 710 -6 36 -13 79 -15 95 -14 89 -68 277 -117 405 -24 65 -125 278 -149
315 -166 259 -258 376 -418 528 -230 219 -500 388 -797 498 -123 45 -351 104
-443 114 -36 4 -68 9 -71 11 -12 7 -374 24 -382 18z"/>
<path d="M952 4426 c-33 -18 -80 -74 -104 -122 -42 -83 -25 -170 45 -236 l39
-38 529 0 c291 0 529 -1 529 -3 0 -1 -36 -86 -81 -187 -44 -102 -146 -336
-226 -520 l-146 -336 -46 -18 c-88 -35 -264 -128 -339 -178 -249 -168 -440
-391 -579 -678 -61 -127 -248 -545 -258 -579 -34 -111 31 -215 176 -284 109
-52 200 -70 359 -70 203 0 319 27 480 111 206 107 328 250 450 527 12 28 33
73 45 100 13 28 67 147 120 265 53 118 108 239 121 268 l25 52 212 1 c117 0
266 1 333 2 l121 2 -17 -40 c-27 -62 -95 -215 -118 -265 -75 -165 -92 -204
-92 -212 0 -4 117 -7 262 -6 l262 3 46 100 c25 56 56 125 69 155 36 80 90 200
107 235 l14 30 300 1 c165 1 302 3 304 5 6 8 196 458 196 466 0 5 -132 8 -293
8 l-294 0 48 107 c26 58 54 121 62 140 79 173 107 238 107 247 0 8 -516 9
-523 1 -4 -5 -78 -167 -174 -385 l-49 -110 -336 0 -336 0 18 45 c11 25 53 131
95 235 72 180 95 234 115 280 5 11 23 56 40 100 17 44 37 94 44 110 8 17 35
85 62 152 l49 123 60 0 c33 1 202 2 376 4 l317 2 -8 -22 c-5 -12 -25 -54 -45
-93 -19 -39 -32 -71 -28 -72 29 -4 416 -3 422 1 5 3 11 41 14 85 3 44 14 103
24 131 25 65 147 244 214 312 28 28 45 52 37 53 -83 7 -3144 2 -3156 -5z m365
-1933 c-3 -5 -14 -29 -26 -55 -11 -27 -30 -67 -40 -90 -30 -68 -221 -499 -238
-538 -81 -188 -101 -227 -132 -253 -44 -36 -113 -38 -136 -4 -14 22 -11 32 54
178 37 85 79 179 93 209 14 30 38 84 54 120 78 177 163 305 248 372 60 48 138
86 123 61z"/>
</g>
</svg>
