<?xml version="1.0" encoding="utf-8"?>
<!-- Generator: Adobe Illustrator 19.0.0, SVG Export Plug-In . SVG Version: 6.00 Build 0)  -->
<!DOCTYPE svg PUBLIC "-//W3C//DTD SVG 1.1//EN" "http://www.w3.org/Graphics/SVG/1.1/DTD/svg11.dtd">
<svg version="1.1" id="Layer_1" xmlns="http://www.w3.org/2000/svg" xmlns:xlink="http://www.w3.org/1999/xlink" x="0px" y="0px"
	 viewBox="0 0 200 200" style="enable-background:new 0 0 200 200;" xml:space="preserve">
<style type="text/css">
	.st0{fill:#C1282D;}
	.st1{fill:#C6C5D3;}
</style>
<g id="XMLID_10_">
	<path id="XMLID_11_" class="st0" d="M101.5,30.6c-20.5,0-39,8.9-51.6,23.1h81.6l-6,6.4c-2.9,3.1-3,3.2-5.5,7.1
		c-2.1,3.2-1.5,6.6-1.5,6.6l0.8,4H96.7l2.8-5.6l-14.8,0.1l-9.9,24.5h12.8L94.2,82l23.1-0.1l-6.7,14.9h17.6l-8.9,20.9l-18.1,0.1
		l-7,15.6l-23.1,0.1l7-15.6l-12.5,0l-9.7,21.5c-1.3,2.8-2.9,5.3-4.9,7.5c12.6,13.5,30.6,21.9,50.5,21.9c38.2,0,69.2-31,69.2-69.2
		S139.7,30.6,101.5,30.6z"/>
</g>
<path id="XMLID_6_" class="st1" d="M123.1,100.3h-17.7l6.7-14.9l-15.8,0l-6.7,14.9h-20l12.6-31.2l22.5-0.1l-2.8,5.7h13.2
	c0,0-0.9-4.6,2-9.1c2.9-4.5,2.9-4.4,6.6-8.4H29.7c0,0-4.1,2.5-4.1,6.5c0,4,3.6,5.6,3.6,5.6l31.3-0.1L47,100.3
	c-13.8,5.2-23.6,14.3-29.3,27.3L11,142.2c-0.5,1.1-0.8,2.1-0.8,3.1c0,2.9,1.9,5.2,5.8,6.9c3.2,1.4,6.6,2.1,10.3,2.1
	c5.6,0,10.6-1.3,15.1-3.9c5.1-2.9,8.8-7,11.2-12.3l10.6-23.5l19.9-0.1l-7,15.6l15.8,0l7-15.6l18-0.1L123.1,100.3z M28.7,141.3
	c-0.8,1.6-2,2.4-3.6,2.4c-1.4,0-2.1-0.5-2.1-1.5c0-0.2,0-0.4,0.1-0.6l6.3-14.1c3.3-7.6,7-11.9,11.1-12.9
	C35.1,126.5,31.2,135.4,28.7,141.3z"/>
</svg>
