<svg xmlns="http://www.w3.org/2000/svg" xmlns:xlink="http://www.w3.org/1999/xlink" id="Layer_2" x="0" y="0" version="1.1" viewBox="0 0 666 208" xml:space="preserve" style="enable-background:new 0 0 666 208"><style type="text/css">.st0{fill:#dedcee}.st1{fill:#c0282d}</style><g id="XMLID_73_"><path id="XMLID_74_" d="M286.19,41.05h-12.64v140.04h-8.68V41.05h-12.89v-7.93h34.45L286.19,41.05z M328.57,33.12 v147.98h-8.68V94.84h-17.1v86.26h-8.43V33.12h8.43v53.79h17.1V33.12H328.57z M373.68,86.91v7.93h-26.03v78.33h26.03v7.93h-34.45 V33.12h34.45v7.93h-26.03v45.85H373.68z M445.07,86.91v7.93h-25.53v86.26h-8.43V33.12h33.96v7.93h-25.53v45.85H445.07z M517.44,48.49v30.49c0,8.68-7.93,16.11-17.1,16.11h-8.43v86.01h-8.43V33.12h17.1C509.51,33.12,517.44,40.06,517.44,48.49 L517.44,48.49z M508.77,48.49c0-3.97-3.72-7.44-8.68-7.44h-8.43v45.85h8.43c4.96,0,8.68-3.47,8.68-7.93V48.49z M559.58,173.16v7.93 h-34.45V33.12h8.43v140.04H559.58z M611.38,33.12v132.36c0,8.43-7.68,15.62-17.35,15.62c-9.67,0-17.35-6.69-17.35-15.62V33.12h8.68 v132.36c0,4.21,3.72,7.93,8.68,7.93c4.71,0,8.43-3.72,8.43-7.93V33.12H611.38z M647.32,47.99v-0.5c0-4.21-3.72-7.68-8.68-7.68 c-4.71,0-8.43,3.47-8.43,7.68v31.48c0,4.21,3.47,7.68,8.43,7.68c9.67,0,17.35,6.2,17.35,15.62v62.96c0,8.68-7.93,15.62-17.35,15.62 c-9.17,0-17.1-6.44-17.1-15.62v-0.5h8.68v0.5c0,4.21,3.72,7.93,8.43,7.93c4.96,0,8.68-3.72,8.68-7.93v-62.71 c0-4.21-3.72-7.44-8.43-7.93c-10.41-0.74-17.35-5.45-17.35-15.86V47.74c0-8.43,7.68-15.62,17.1-15.62c9.17,0,17.35,6.2,17.35,15.62 v0.25H647.32z" class="st0"/></g><path id="XMLID_71_" d="M573.96,181.09h-8.43v-7.44h8.43V181.09z" class="st0"/><g id="XMLID_70_"><path id="XMLID_69_" d="M136.95,7.26c-29,0-55.05,12.64-72.94,32.7h115.35l-8.41,9.09c-4.1,4.43-4.18,4.51-7.78,10.06 c-2.94,4.53-2.14,9.35-2.13,9.39l1.14,5.66h-32.07l3.93-7.95l-20.96,0.1L99.06,100.9h18.15l9.41-21.01l32.64-0.08l-9.44,21.1h24.85 l-12.6,29.54l-25.51,0.09l-9.86,22.03l-32.65,0.08l9.85-21.99l-17.73,0.06L72.45,161.1c-1.8,3.97-4.1,7.52-6.87,10.65 c17.84,19.06,43.21,30.98,71.37,30.98c53.98,0,97.74-43.76,97.74-97.74S190.93,7.26,136.95,7.26z" class="st1"/></g><path id="XMLID_67_" d="M167.51,105.63h-24.99l9.43-21.08l-22.27,0.06l-9.41,21.02H92.04l17.85-44.03l31.78-0.16	l-3.95,7.99h18.68c0,0-1.32-6.55,2.8-12.9c4.12-6.35,4.13-6.21,9.34-11.84H35.57c0,0-5.73,3.59-5.73,9.19	c0,5.61,5.04,7.87,5.04,7.87l44.16-0.15l-19.14,44.01c-19.46,7.33-33.28,20.17-41.45,38.5l-9.31,20.74	c-0.7,1.54-1.06,3.03-1.06,4.44c0,4.09,2.75,7.34,8.26,9.73c4.51,1.98,9.37,2.97,14.59,2.97c7.89,0,15.01-1.83,21.36-5.5	c7.2-4.09,12.48-9.87,15.86-17.33L83.1,126l28.09-0.1l-9.85,22l22.28-0.05l9.86-22.03l25.45-0.09L167.51,105.63z M34.09,163.58	c-1.13,2.26-2.82,3.39-5.07,3.39c-1.98,0-2.96-0.71-2.96-2.11c0-0.29,0.07-0.57,0.21-0.85l8.88-19.88	c4.66-10.72,9.87-16.78,15.65-18.19C43.18,142.71,37.61,155.27,34.09,163.58z" class="st0"/></svg>