<?xml version="1.0" encoding="utf-8"?>
<!-- Generator: Adobe Illustrator 19.0.0, SVG Export Plug-In . SVG Version: 6.00 Build 0)  -->
<!DOCTYPE svg PUBLIC "-//W3C//DTD SVG 1.1//EN" "http://www.w3.org/Graphics/SVG/1.1/DTD/svg11.dtd">
<svg version="1.1" id="Layer_1" xmlns="http://www.w3.org/2000/svg" xmlns:xlink="http://www.w3.org/1999/xlink" x="0px" y="0px"
	 viewBox="120 -24 271 80" style="enable-background:new 120 -24 271 80;" xml:space="preserve">
<style type="text/css">
	.st0{fill:#212221;}
	.st1{fill:#C0272D;}
</style>
<g>
	<path class="st0" d="M233.9-9.8h-5.1v56.5h-3.5V-9.8h-5.2V-13H234C234-13,233.9-9.8,233.9-9.8z M251-13v59.7h-3.5V11.9h-6.9v34.8
		h-3.4V-13h3.4V8.7h6.9V-13H251z M269.2,8.7v3.2h-10.5v31.6h10.5v3.2h-13.9V-13h13.9v3.2h-10.5V8.7H269.2z M298,8.7v3.2h-10.3v34.8
		h-3.4V-13H298v3.2h-10.3V8.7H298z M327.2-6.8V5.5c0,3.5-3.2,6.5-6.9,6.5h-3.4v34.7h-3.4V-13h6.9C324-13,327.2-10.2,327.2-6.8
		L327.2-6.8z M323.7-6.8c0-1.6-1.5-3-3.5-3h-3.4V8.7h3.4c2,0,3.5-1.4,3.5-3.2V-6.8z M344.2,43.5v3.2h-13.9V-13h3.4v56.5H344.2z
		 M365.1-13v53.4c0,3.4-3.1,6.3-7,6.3s-7-2.7-7-6.3V-13h3.5v53.4c0,1.7,1.5,3.2,3.5,3.2c1.9,0,3.4-1.5,3.4-3.2V-13H365.1z M379.6-7
		v-0.2c0-1.7-1.5-3.1-3.5-3.1c-1.9,0-3.4,1.4-3.4,3.1V5.5c0,1.7,1.4,3.1,3.4,3.1c3.9,0,7,2.5,7,6.3v25.4c0,3.5-3.2,6.3-7,6.3
		c-3.7,0-6.9-2.6-6.9-6.3v-0.2h3.5v0.2c0,1.7,1.5,3.2,3.4,3.2c2,0,3.5-1.5,3.5-3.2V15c0-1.7-1.5-3-3.4-3.2c-4.2-0.3-7-2.2-7-6.4
		V-7.1c0-3.4,3.1-6.3,6.9-6.3c3.7,0,7,2.5,7,6.3V-7H379.6z"/>
</g>
<path class="st0" d="M350,46.7h-3.4v-3h3.4V46.7z"/>
<g>
	<path class="st1" d="M173.7-23.4c-11.7,0-22.2,5.1-29.4,13.2h46.5l-3.4,3.7c-1.7,1.8-1.7,1.8-3.1,4.1c-1.2,1.8-0.9,3.8-0.9,3.8
		l0.5,2.3h-12.9l1.6-3.2l-8.5,0l-5.7,14h7.3l3.8-8.5l13.2,0l-3.8,8.5h10l-5.1,11.9l-10.3,0l-4,8.9l-13.2,0l4-8.9l-7.2,0l-5.5,12.3
		c-0.7,1.6-1.7,3-2.8,4.3c7.2,7.7,17.4,12.5,28.8,12.5c21.8,0,39.4-17.7,39.4-39.4S195.4-23.4,173.7-23.4z"/>
</g>
<path class="st0" d="M186,16.3h-10.1l3.8-8.5l-9,0l-3.8,8.5h-11.4l7.2-17.8l12.8-0.1L174,1.6h7.5c0,0-0.5-2.6,1.1-5.2
	c1.7-2.6,1.7-2.5,3.8-4.8h-53.7c0,0-2.3,1.4-2.3,3.7c0,2.3,2,3.2,2,3.2l17.8-0.1l-7.7,17.8c-7.8,3-13.4,8.1-16.7,15.5l-3.8,8.4
	c-0.3,0.6-0.4,1.2-0.4,1.8c0,1.6,1.1,3,3.3,3.9c1.8,0.8,3.8,1.2,5.9,1.2c3.2,0,6.1-0.7,8.6-2.2c2.9-1.7,5-4,6.4-7l6-13.4l11.3,0
	l-4,8.9l9,0l4-8.9l10.3,0L186,16.3z M132.2,39.6c-0.5,0.9-1.1,1.4-2,1.4c-0.8,0-1.2-0.3-1.2-0.9c0-0.1,0-0.2,0.1-0.3l3.6-8
	c1.9-4.3,4-6.8,6.3-7.3C135.8,31.2,133.6,36.3,132.2,39.6z"/>
</svg>
