<?xml version="1.0" encoding="utf-8"?>
<!-- Generator: Adobe Illustrator 21.0.0, SVG Export Plug-In . SVG Version: 6.00 Build 0)  -->
<!DOCTYPE svg PUBLIC "-//W3C//DTD SVG 1.1//EN" "http://www.w3.org/Graphics/SVG/1.1/DTD/svg11.dtd">
<svg version="1.1" id="Android" xmlns="http://www.w3.org/2000/svg" xmlns:xlink="http://www.w3.org/1999/xlink" x="0px" y="0px"
	 viewBox="0 0 100 100" enable-background="new 0 0 100 100" xml:space="preserve">
<g>
	<path fill="#A4C639" d="M15.7,33.4c-3.3,0-6,2.7-6,6v24.9c0,3.3,2.7,6,6,6s6-2.7,6-6V39.4C21.7,36.1,19,33.4,15.7,33.4L15.7,33.4z
		 M85.6,33.4c-3.3,0-6,2.7-6,6v24.9c0,3.3,2.7,6,6,6s6-2.7,6-6V39.4C91.5,36.1,88.9,33.4,85.6,33.4L85.6,33.4z"/>
	<path fill="#A4C639" d="M40.6,61.9c-3.3,0-6,2.7-6,6v24.9c0,3.3,2.7,6,6,6s6-2.7,6-6V67.9C46.6,64.5,44,61.9,40.6,61.9L40.6,61.9z
		 M60.6,61.9c-3.3,0-6,2.7-6,6v24.9c0,3.3,2.7,6,6,6c3.3,0,6-2.7,6-6V67.9C66.6,64.5,63.9,61.9,60.6,61.9L60.6,61.9z"/>
	<path fill="#A4C639" d="M34,2c-0.1,0-0.3,0-0.4,0.1c-0.4,0.2-0.6,0.7-0.3,1.2l4.2,7.6c-8.1,4.2-13.6,12.3-13.6,21.5h53.4
		c0-9.2-5.5-17.2-13.6-21.5l4.2-7.6c0.2-0.4,0.1-0.9-0.3-1.2C67.5,2,67.3,2,67.2,2c-0.3,0-0.6,0.1-0.8,0.4l-4.3,7.7
		c-3.5-1.6-7.4-2.4-11.6-2.4s-8.1,0.9-11.6,2.4l-4.3-7.7C34.6,2.1,34.3,2,34,2L34,2z M40.8,20.3c0,1.5-1.2,2.8-2.8,2.8
		s-2.8-1.2-2.8-2.8c0-1.5,1.2-2.8,2.8-2.8S40.8,18.8,40.8,20.3z M65.8,20.3c0,1.5-1.2,2.8-2.8,2.8c-1.5,0-2.8-1.2-2.8-2.8
		c0-1.5,1.2-2.8,2.8-2.8C64.6,17.6,65.8,18.8,65.8,20.3z M23.9,34.4v38.7c0,3.6,2.9,6.5,6.5,6.5h40.5c3.6,0,6.5-2.9,6.5-6.5V34.4
		H23.9L23.9,34.4z"/>
</g>
</svg>
