<?xml version="1.0" encoding="utf-8"?>
<!-- Generator: Adobe Illustrator 21.0.0, SVG Export Plug-In . SVG Version: 6.00 Build 0)  -->
<!DOCTYPE svg PUBLIC "-//W3C//DTD SVG 1.1//EN" "http://www.w3.org/Graphics/SVG/1.1/DTD/svg11.dtd">
<svg version="1.1" xmlns="http://www.w3.org/2000/svg" xmlns:xlink="http://www.w3.org/1999/xlink" x="0px" y="0px"
	 viewBox="0 0 16 16" enable-background="new 0 0 16 16" xml:space="preserve">
<g id="Layer_1" display="none">
	<g display="inline">
		<path fill="#2DABE2" d="M1,2.8l5.8-0.8l0,5.6L1,7.7L1,2.8z M6.7,8.3l0,5.6L1,13.1l0-4.8L6.7,8.3z M7.4,2l7.7-1.1v6.7L7.4,7.6V2z
			 M15.1,8.3l0,6.7l-7.7-1.1l0-5.6L15.1,8.3z"/>
	</g>
	<g display="inline">
		<defs>
			<circle id="SVGID_1_" cx="8" cy="7.9" r="7.4"/>
		</defs>
		<clipPath id="SVGID_2_">
			<use xlink:href="#SVGID_1_"  overflow="visible"/>
		</clipPath>
		<path clip-path="url(#SVGID_2_)" fill="#3E2823" fill-opacity="0.15" d="M5.1,9.5L1.8,3.8L1.8,3.9L5,9.6L5.1,9.5z"/>
	</g>
	<g display="inline">
		<defs>
			<circle id="SVGID_3_" cx="8" cy="7.9" r="7.4"/>
		</defs>
		<clipPath id="SVGID_4_">
			<use xlink:href="#SVGID_3_"  overflow="visible"/>
		</clipPath>
		<path clip-path="url(#SVGID_4_)" fill="#273339" fill-opacity="0.15" d="M10.8,9.6L10.8,9.6l-3.3,5.6h0.1L10.8,9.6L10.8,9.6z"/>
	</g>
</g>
<g id="Layer_12" display="none">
	<g display="inline">
		<g>
			<path fill="#672A7A" d="M1,2.8l5.8-0.8l0,5.6L1,7.7L1,2.8z M6.7,8.3l0,5.6L1,13.1l0-4.8L6.7,8.3z M7.4,2l7.7-1.1v6.7L7.4,7.6V2z
				 M15.1,8.3l0,6.7l-7.7-1.1l0-5.6L15.1,8.3z"/>
		</g>
	</g>
</g>
<g id="Layer_11" display="none">
	<g display="inline">
		<path fill="#A4C639" d="M2.6,5.3c-0.5,0-0.9,0.4-0.9,0.9v3.9c0,0.5,0.4,0.9,0.9,0.9s0.9-0.4,0.9-0.9V6.3C3.6,5.7,3.1,5.3,2.6,5.3
			L2.6,5.3z M13.6,5.3c-0.5,0-0.9,0.4-0.9,0.9v3.9c0,0.5,0.4,0.9,0.9,0.9s0.9-0.4,0.9-0.9V6.3C14.6,5.7,14.2,5.3,13.6,5.3L13.6,5.3z
			"/>
		<path fill="#A4C639" d="M6.5,9.8c-0.5,0-0.9,0.4-0.9,0.9v3.9c0,0.5,0.4,0.9,0.9,0.9s0.9-0.4,0.9-0.9v-3.9
			C7.5,10.2,7.1,9.8,6.5,9.8L6.5,9.8z M9.7,9.8c-0.5,0-0.9,0.4-0.9,0.9v3.9c0,0.5,0.4,0.9,0.9,0.9s0.9-0.4,0.9-0.9v-3.9
			C10.6,10.2,10.2,9.8,9.7,9.8L9.7,9.8z"/>
		<path fill="#A4C639" d="M5.5,0.4C5.5,0.4,5.5,0.4,5.5,0.4C5.4,0.4,5.4,0.5,5.4,0.6l0.7,1.2C4.8,2.4,3.9,3.7,3.9,5.1h8.4
			c0-1.5-0.9-2.7-2.1-3.4l0.7-1.2c0-0.1,0-0.1-0.1-0.2c0,0,0,0-0.1,0c0,0-0.1,0-0.1,0.1L9.9,1.6C9.4,1.4,8.8,1.3,8.1,1.3
			S6.9,1.4,6.3,1.6L5.6,0.4C5.6,0.4,5.6,0.4,5.5,0.4L5.5,0.4z M6.6,3.2c0,0.2-0.2,0.4-0.4,0.4S5.7,3.5,5.7,3.2s0.2-0.4,0.4-0.4
			S6.6,3,6.6,3.2z M10.5,3.2c0,0.2-0.2,0.4-0.4,0.4S9.7,3.5,9.7,3.2s0.2-0.4,0.4-0.4S10.5,3,10.5,3.2z M3.9,5.5v6.1c0,0.6,0.5,1,1,1
			h6.4c0.6,0,1-0.5,1-1V5.5H3.9L3.9,5.5z"/>
	</g>
</g>
<g id="iOS" display="none">
	<g display="inline">
		<path fill="#010101" d="M1,3.8C1,4,0.9,4.1,0.7,4.1C0.6,4.1,0.5,4,0.5,3.8c0-0.2,0.1-0.3,0.3-0.3C0.9,3.5,1,3.7,1,3.8L1,3.8L1,3.8
			z M0.6,12.6V5.9h0.3v6.7H0.6L0.6,12.6z"/>
		<path fill="#010101" d="M10.1,7.8c0,3.4-1.9,4.9-3.9,4.9C4,12.8,2.3,11.1,2.3,8c0-3.2,1.8-4.9,4-4.9C8.4,3,10.1,4.7,10.1,7.8
			L10.1,7.8L10.1,7.8z M2.6,7.9c0,2.6,1.2,4.6,3.5,4.6c2.3,0,3.6-2.1,3.6-4.6c0-2.4-1.1-4.5-3.5-4.5S2.6,5.4,2.6,7.9L2.6,7.9
			L2.6,7.9z"/>
		<path fill="#010101" d="M11.1,11.9c0.5,0.3,1.3,0.6,1.9,0.6c1.3,0,2.5-0.9,2.5-2.3c0-1.2-0.8-1.9-2.1-2.5c-1.2-0.5-2.2-1-2.2-2.4
			c0-1.4,1.1-2.4,2.6-2.4c0.8,0,1.4,0.2,1.7,0.4l-0.1,0.2c-0.2-0.2-0.9-0.4-1.6-0.4c-1.6,0-2.3,1.2-2.3,2.1c0,1.2,0.9,1.6,2.1,2.2
			c1.4,0.7,2.1,1.3,2.1,2.6c0,1.4-1,2.6-2.8,2.6c-0.7,0-1.6-0.3-2-0.6L11.1,11.9L11.1,11.9z"/>
	</g>
</g>
<g id="Layer_9" display="none">
	<g id="_228026664" display="inline">
		<g id="g4158">
			<path id="_226915152" fill="#8294C9" d="M1,2.1h8C6.6,6.6,6.9,8.6,6.9,8.6h2.6c-0.1,0.2-0.8,2.9-0.1,5H1V2.1L1,2.1z"/>
			<path id="_137919136" fill="#CAD4EC" d="M15.1,13.6H9.3c-0.7-1.8,0-4.7,0.1-5H6.8c0,0-0.1-2.5,2.1-6.5h6.2V13.6L15.1,13.6z"/>
			<polygon id="_226601952" fill="#010101" points="10.5,5.5 10.5,3.9 11.3,3.9 11.3,5.5 			"/>
			<polygon id="_22274024" fill="#33448F" points="4.5,5.5 4.5,3.9 5.2,3.9 5.2,5.5 			"/>
			<path id="_228133648" fill="#33448F" d="M8.7,10.8c-2.3,0.1-3.9-0.3-5.2-1l-0.3,0.6c1.4,0.8,3.5,1.2,5.6,1.1V10.8z"/>
			<path id="_140071192" fill="#010101" d="M9.7,15.5C8.6,13.3,8.5,10.8,8.9,9H6.4c0.1-3.8,2-7,3.5-8.8l0.5,0.4
				c-1.2,1.5-3,4.2-3.3,7.8h2.6c-0.2,0.7-0.4,1.5-0.4,2.4c1.5-0.1,2.3-0.3,3.3-0.9l0.4,0.6c-1,0.5-2.3,0.9-3.8,1
				c0.1,1.3,0.4,2.6,1,3.8L9.7,15.5L9.7,15.5z"/>
		</g>
	</g>
</g>
<g id="Layer_13">
	<path d="M5.2,3.7c0-0.5-0.3-1.2-1.7-1.2c-0.6,0-2.1,0-2.1,0L0.9,5.3c0,0,1.1,0,2.1,0C4.7,5.3,5.2,4.5,5.2,3.7L5.2,3.7z"/>
	<path d="M10.8,3.7c0-0.5-0.3-1.2-1.7-1.2c-0.5,0-2.1,0-2.1,0L6.5,5.3c0,0,1.1,0,2.1,0C10.3,5.3,10.8,4.5,10.8,3.7L10.8,3.7z"/>
	<path d="M4.5,7.8c0-0.5-0.3-1.2-1.7-1.2c-0.5,0-2.1,0-2.1,0L0.2,9.3c0,0,1.1,0,2.2,0C4,9.3,4.5,8.5,4.5,7.8L4.5,7.8z"/>
	<path d="M10,7.8c0-0.5-0.3-1.2-1.7-1.2c-0.6,0-2.1,0-2.1,0L5.7,9.3c0,0,1.1,0,2.1,0C9.5,9.3,10,8.5,10,7.8L10,7.8z"/>
	<path d="M15.8,6.2c0-0.5-0.3-1.2-1.7-1.2c-0.6,0-2.1,0-2.1,0l-0.6,2.7c0,0,1.1,0,2.1,0C15.4,7.7,15.8,6.9,15.8,6.2L15.8,6.2z"/>
	<path d="M15,10.4c0-0.5-0.3-1.2-1.7-1.2c-0.5,0-2.1,0-2.1,0l-0.6,2.7c0,0,1.1,0,2.1,0C14.6,11.9,15,11.1,15,10.4L15,10.4z"/>
	<path d="M9.2,12.1c0-0.5-0.3-1.2-1.7-1.2c-0.6,0-2.1,0-2.1,0l-0.6,2.7c0,0,1.1,0,2.2,0C8.8,13.6,9.2,12.8,9.2,12.1L9.2,12.1z"/>
</g>
<g id="Layer_7" display="none">
	<g display="inline">
		<path fill="#010101" d="M14.5,12.6C14.5,12.6,14.5,12.6,14.5,12.6c-0.1-0.1-0.2-0.4-0.2-0.6c-0.1-0.3-0.1-0.5-0.3-0.7c0,0,0,0,0,0
			c0,0-0.1-0.1-0.1-0.1c0,0-0.1,0-0.1-0.1c0.3-0.8,0.2-1.7-0.1-2.5c-0.4-0.9-1-1.8-1.4-2.3c-0.5-0.7-1-1.3-1-2.2
			c0-1.4,0.2-4.1-2.4-4.1c-0.1,0-0.2,0-0.3,0C5.6,0.3,6.3,3.3,6.3,4.3C6.2,5,6.1,5.6,5.6,6.3C5,7,4.2,8.1,3.8,9.3
			C3.6,9.9,3.5,10.4,3.6,11c0,0,0,0-0.1,0.1c-0.2,0.2-0.3,0.4-0.4,0.6c-0.1,0.1-0.3,0.2-0.5,0.3C2.3,11.9,2.1,12,2,12.3c0,0,0,0,0,0
			c0,0,0,0,0,0c-0.1,0.1-0.1,0.3-0.1,0.4c0,0.1,0,0.2,0,0.4c0,0.2,0.1,0.5,0,0.6c-0.2,0.4-0.2,0.8-0.1,1C2,14.9,2.2,15,2.5,15.1
			c0.5,0.1,1.3,0.1,1.8,0.4l0-0.1l0,0.1c0.6,0.3,1.2,0.4,1.7,0.3c0.4-0.1,0.7-0.3,0.8-0.6c0.4,0,0.8-0.2,1.5-0.2
			c0.5,0,1,0.2,1.7,0.1c0,0.1,0,0.1,0.1,0.2c0,0,0,0,0,0c0.3,0.5,0.7,0.8,1.3,0.7c0.5,0,1.1-0.3,1.5-0.9l-0.1-0.1l0.1,0.1
			c0.4-0.5,1.1-0.7,1.6-1c0.2-0.1,0.4-0.3,0.4-0.6C15,13.3,14.8,13,14.5,12.6z"/>
		<path fill="#D6A529" d="M14.7,13.5c0,0.2-0.1,0.3-0.3,0.4c-0.4,0.3-1.2,0.5-1.6,1c-0.4,0.5-0.9,0.8-1.4,0.8c-0.4,0-0.8-0.1-1-0.6
			l0,0l0,0c-0.1-0.3-0.1-0.7,0-1.1c0.1-0.4,0.3-0.9,0.3-1.3v0c0-0.5,0.1-0.9,0.1-1.2c0.1-0.3,0.2-0.5,0.4-0.7c0,0,0,0,0,0
			c0,0.4,0.2,0.8,0.6,0.9c0.4,0.1,1-0.2,1.2-0.5c0,0,0.1,0,0.1,0c0.2,0,0.4,0,0.6,0.2l0,0l0,0c0.1,0.1,0.2,0.3,0.3,0.6
			c0.1,0.2,0.1,0.5,0.3,0.7l0,0l0,0C14.6,13.1,14.7,13.4,14.7,13.5z"/>
		<path fill="#D6A529" d="M6.8,14.7L6.8,14.7L6.8,14.7c0,0.5-0.3,0.8-0.7,0.9c-0.4,0.1-1,0-1.6-0.3c0,0,0,0,0,0
			C3.8,14.9,3,15,2.5,14.9c-0.2-0.1-0.4-0.1-0.5-0.3C2,14.4,2,14.2,2.1,13.8l0,0l0,0c0.1-0.2,0-0.5,0-0.7c0-0.2-0.1-0.5,0-0.6l0,0
			c0.1-0.2,0.3-0.3,0.5-0.3C2.8,12,3,11.9,3.2,11.7l0,0l0,0c0.2-0.2,0.3-0.4,0.4-0.6C3.8,11,3.9,11,4.1,11c0,0,0,0,0,0
			c0,0,0.1,0,0.1,0c0.3,0,0.5,0.2,0.7,0.5l0.6,1.1l0,0l0,0c0.2,0.3,0.5,0.7,0.8,1.1C6.6,14,6.8,14.4,6.8,14.7z"/>
		<path fill="#D6A529" d="M9.8,4.4c0-0.1-0.1-0.2-0.3-0.3l0,0l0,0C9.1,4,9,4,8.8,3.8C8.5,3.6,8.2,3.6,8,3.6c-0.1,0-0.2,0-0.3,0.1
			C7.4,3.7,7.2,3.9,7.1,4l0,0c0,0,0,0,0,0c0,0-0.1,0-0.1,0.1C6.9,4.1,6.8,4.2,6.7,4.3C6.5,4.4,6.5,4.6,6.5,4.7C6.6,4.9,6.7,5,7,5.2
			l0,0l0,0c0.2,0.1,0.3,0.2,0.4,0.3c0.1,0.1,0.1,0.1,0.2,0.1c0.1,0,0.2,0.1,0.3,0.1c0.3,0,0.5-0.1,0.7-0.2c0.2-0.1,0.3-0.2,0.5-0.3
			l0,0l0,0c0.4-0.1,0.6-0.3,0.7-0.6C9.9,4.6,9.9,4.5,9.8,4.4z"/>
		<path fill="#010101" d="M9.5,4.6c-0.1,0-0.1,0-0.3,0.1C9.2,4.8,9,4.8,8.9,4.9c-0.3,0.2-0.6,0.3-1,0.3C7.5,5.3,7.2,5.1,7,4.9
			C6.9,4.8,6.9,4.8,6.8,4.7c0,0-0.1-0.1-0.1-0.1c0,0,0,0,0,0c0,0,0,0,0,0l0-0.1c0,0,0.1,0,0.1,0c0,0,0.1,0,0.1,0.1
			C6.9,4.7,7,4.8,7.1,4.8C7.3,5,7.6,5.1,7.9,5.1c0.3,0,0.6-0.2,0.9-0.3C9,4.7,9.1,4.7,9.2,4.6c0.1-0.1,0.2-0.1,0.3-0.1L9.5,4.6z"/>
		<path fill="#FFFFFF" d="M13.3,11.1c0,0-0.1,0-0.1,0c0,0,0,0,0,0c0.1-0.3-0.1-0.5-0.7-0.8c-0.6-0.3-1.1-0.2-1.2,0.3
			c0,0,0,0.1,0,0.1c0,0-0.1,0-0.1,0.1c-0.3,0.2-0.4,0.4-0.5,0.8c-0.1,0.3-0.1,0.8-0.1,1.2c0,0,0,0,0,0c0,0.2-0.1,0.6-0.2,0.9
			c-1,0.7-2.4,1-3.6,0.2c-0.1-0.1-0.2-0.3-0.3-0.4c-0.1-0.1-0.1-0.2-0.2-0.2c0.1,0,0.2,0,0.3-0.1c0.1,0,0.2-0.1,0.2-0.2
			c0.1-0.2,0-0.5-0.2-0.8c-0.2-0.3-0.6-0.7-1.2-1c0,0,0,0,0,0C5,11,4.7,10.6,4.6,10.3c-0.1-0.3-0.1-0.7,0-1.1
			c0.2-0.7,0.6-1.4,0.8-1.8c0.1-0.1,0,0.1-0.3,0.6c-0.3,0.5-0.8,1.7-0.1,2.6c0-0.6,0.2-1.3,0.4-1.9c0.4-0.9,1.2-2.3,1.2-3.5
			c0,0,0.1,0.1,0.2,0.1c0,0,0,0,0,0c0.1,0.1,0.3,0.2,0.4,0.3c0.1,0.1,0.3,0.2,0.6,0.2c0,0,0.1,0,0.1,0c0.3,0,0.5-0.1,0.7-0.2
			C8.8,5.5,9,5.4,9.1,5.4c0,0,0,0,0,0c0.3-0.1,0.6-0.3,0.7-0.5c0.2,0.9,0.8,2.3,1.2,3c0.2,0.4,0.6,1.1,0.7,2c0.1,0,0.2,0,0.3,0
			c0.4-1.1-0.4-2.3-0.7-2.6c-0.1-0.1-0.2-0.2-0.1-0.2c0.4,0.3,0.9,1,1.1,1.8c0.1,0.4,0.1,0.7,0,1.1c0,0,0.1,0,0.1,0.1
			C13.2,10.4,13.4,10.7,13.3,11.1z"/>
		<path fill="#FFFFFF" d="M9.8,3.3c0,0.2,0,0.3-0.1,0.5C9.7,3.9,9.7,4,9.6,4c0,0,0,0-0.1,0C9.5,4,9.4,4,9.3,3.9
			c-0.1,0-0.1,0-0.2-0.1c0,0,0.1-0.1,0.1-0.1c0-0.1,0.1-0.2,0.1-0.3c0,0,0,0,0,0c0-0.1,0-0.2,0-0.3C9.3,3.1,9.2,3,9.2,3
			C9.1,2.9,9.1,2.9,9,2.9c0,0,0,0,0,0c-0.1,0-0.1,0-0.2,0.1C8.8,3,8.7,3.1,8.7,3.2c0,0.1-0.1,0.2-0.1,0.3c0,0,0,0,0,0
			c0,0.1,0,0.1,0,0.2C8.5,3.5,8.4,3.5,8.3,3.5c0,0,0-0.1,0-0.2v0c0-0.2,0-0.3,0.1-0.5c0.1-0.2,0.2-0.3,0.3-0.4
			C8.8,2.3,8.9,2.3,9,2.3h0c0.1,0,0.3,0,0.4,0.1c0.1,0.1,0.2,0.2,0.3,0.4C9.8,2.9,9.8,3.1,9.8,3.3C9.8,3.3,9.8,3.3,9.8,3.3z"/>
		<path fill="#FFFFFF" d="M7.7,3.5C7.7,3.5,7.7,3.5,7.7,3.5C7.5,3.5,7.4,3.6,7.4,3.6c0-0.1,0-0.1,0-0.2c0,0,0,0,0,0
			c0-0.1,0-0.1-0.1-0.2c0-0.1-0.1-0.1-0.1-0.2C7.2,3,7.1,3,7.1,3c0,0,0,0,0,0c0,0-0.1,0-0.1,0.1c0,0-0.1,0.1-0.1,0.2
			c0,0.1,0,0.1,0,0.2c0,0,0,0,0,0c0,0.1,0,0.2,0.1,0.2C6.9,3.8,7,3.9,7,3.9c0,0,0,0,0,0C7,4,7,4,6.9,4c0,0-0.1,0-0.1,0.1
			C6.8,4,6.7,3.9,6.7,3.8C6.6,3.7,6.6,3.5,6.6,3.4v0c0-0.2,0-0.3,0.1-0.4c0-0.1,0.1-0.2,0.2-0.3C6.9,2.5,7,2.4,7.1,2.4c0,0,0,0,0,0
			c0.1,0,0.2,0,0.3,0.1c0.1,0.1,0.2,0.2,0.2,0.3C7.6,3,7.7,3.1,7.7,3.3v0C7.7,3.4,7.7,3.4,7.7,3.5z"/>
	</g>
</g>
<g id="Layer_6" display="none">
	<g display="inline">
		<defs>
			<circle id="SVGID_5_" cx="8" cy="7.9" r="7.7"/>
		</defs>
		<clipPath id="SVGID_6_">
			<use xlink:href="#SVGID_5_"  overflow="visible"/>
		</clipPath>
		<g clip-path="url(#SVGID_6_)">
			<path fill="#DC4537" d="M1.5,0.2v9.4h3.4l3-5.2h7.7V0.2H1.5z"/>
			
				<linearGradient id="SVGID_7_" gradientUnits="userSpaceOnUse" x1="2.1484" y1="11.9645" x2="6.7286" y2="14.6402" gradientTransform="matrix(1 0 0 -1 0 18)">
				<stop  offset="0" style="stop-color:#A52A22;stop-opacity:0.6"/>
				<stop  offset="0.66" style="stop-color:#A52A22;stop-opacity:0"/>
			</linearGradient>
			<path fill="url(#SVGID_7_)" d="M1.5,0.2v9.4h3.4l3-5.2h7.7V0.2H1.5z"/>
		</g>
	</g>
	<g display="inline">
		<defs>
			<circle id="SVGID_8_" cx="8" cy="7.9" r="7.7"/>
		</defs>
		<clipPath id="SVGID_9_">
			<use xlink:href="#SVGID_8_"  overflow="visible"/>
		</clipPath>
		<path clip-path="url(#SVGID_9_)" fill="#3E2823" fill-opacity="0.15" d="M5,9.6l-3.5-6L1.5,3.7l3.4,5.9L5,9.6z"/>
	</g>
	<g display="inline">
		<defs>
			<circle id="SVGID_10_" cx="8" cy="7.9" r="7.7"/>
		</defs>
		<clipPath id="SVGID_11_">
			<use xlink:href="#SVGID_10_"  overflow="visible"/>
		</clipPath>
		<g clip-path="url(#SVGID_11_)">
			<path fill="#0F9D58" d="M0.3,15.5h7.3l3.4-3.4V9.6H4.9l-4.6-8V15.5z"/>
			
				<linearGradient id="SVGID_12_" gradientUnits="userSpaceOnUse" x1="9.2604" y1="4.158" x2="4.1716" y2="7.1391" gradientTransform="matrix(1 0 0 -1 0 18)">
				<stop  offset="0" style="stop-color:#0D562B;stop-opacity:0.4"/>
				<stop  offset="0.33" style="stop-color:#0D562B;stop-opacity:0"/>
			</linearGradient>
			<path fill="url(#SVGID_12_)" d="M0.3,15.5h7.3l3.4-3.4V9.6H4.9l-4.6-8V15.5z"/>
		</g>
	</g>
	<g display="inline">
		<defs>
			<circle id="SVGID_13_" cx="8" cy="7.9" r="7.7"/>
		</defs>
		<clipPath id="SVGID_14_">
			<use xlink:href="#SVGID_13_"  overflow="visible"/>
		</clipPath>
		<path clip-path="url(#SVGID_14_)" fill="#273339" fill-opacity="0.15" d="M10.9,9.7L10.9,9.7l-3.4,5.8h0.1L10.9,9.7L10.9,9.7z"/>
	</g>
	<g display="inline">
		<defs>
			<circle id="SVGID_15_" cx="8" cy="7.9" r="7.7"/>
		</defs>
		<clipPath id="SVGID_16_">
			<use xlink:href="#SVGID_15_"  overflow="visible"/>
		</clipPath>
		<g clip-path="url(#SVGID_16_)">
			<g>
				<defs>
					<polygon id="SVGID_17_" points="0.3,15.5 7.6,15.5 11,12.1 11,9.6 4.9,9.6 0.3,1.6 					"/>
				</defs>
				<clipPath id="SVGID_18_">
					<use xlink:href="#SVGID_17_"  overflow="visible"/>
				</clipPath>
				<g clip-path="url(#SVGID_18_)">
					<path fill="#FFCE41" d="M8,4.4l3,5.2l-3.4,5.9h8V4.4H8z"/>
					
						<linearGradient id="SVGID_19_" gradientUnits="userSpaceOnUse" x1="10.2287" y1="14.1676" x2="11.5103" y2="8.5553" gradientTransform="matrix(1 0 0 -1 0 18)">
						<stop  offset="0" style="stop-color:#E86324;stop-opacity:0.3"/>
						<stop  offset="0.66" style="stop-color:#E86324;stop-opacity:0"/>
					</linearGradient>
					<path fill="url(#SVGID_19_)" d="M8,4.4l3,5.2l-3.4,5.9h8V4.4H8z"/>
				</g>
			</g>
			<g>
				<defs>
					<circle id="SVGID_20_" cx="8" cy="7.9" r="7.7"/>
				</defs>
				<clipPath id="SVGID_21_">
					<use xlink:href="#SVGID_20_"  overflow="visible"/>
				</clipPath>
				<g clip-path="url(#SVGID_21_)">
					<path fill="#FFCE41" d="M8,4.4l3,5.2l-3.4,5.9h8V4.4H8z"/>
					
						<linearGradient id="SVGID_22_" gradientUnits="userSpaceOnUse" x1="10.2287" y1="14.1676" x2="11.5103" y2="8.5553" gradientTransform="matrix(1 0 0 -1 0 18)">
						<stop  offset="0" style="stop-color:#E86324;stop-opacity:0.3"/>
						<stop  offset="0.66" style="stop-color:#E86324;stop-opacity:0"/>
					</linearGradient>
					<path fill="url(#SVGID_22_)" d="M8,4.4l3,5.2l-3.4,5.9h8V4.4H8z"/>
				</g>
			</g>
			<g>
				<defs>
					<circle id="SVGID_23_" cx="8" cy="7.9" r="7.7"/>
				</defs>
				<clipPath id="SVGID_24_">
					<use xlink:href="#SVGID_23_"  overflow="visible"/>
				</clipPath>
				<g clip-path="url(#SVGID_24_)">
					<g>
						<defs>
							<polygon id="SVGID_25_" points="8,4.4 11,9.6 7.6,15.5 15.6,15.5 15.6,4.4 							"/>
						</defs>
						<clipPath id="SVGID_26_">
							<use xlink:href="#SVGID_25_"  overflow="visible"/>
						</clipPath>
						<g clip-path="url(#SVGID_26_)">
							<path fill="#DC4537" d="M1.5,0.2v9.4h3.4l3-5.2h7.7V0.2H1.5z"/>
							
								<linearGradient id="SVGID_27_" gradientUnits="userSpaceOnUse" x1="2.1484" y1="11.9645" x2="6.7286" y2="14.6402" gradientTransform="matrix(1 0 0 -1 0 18)">
								<stop  offset="0" style="stop-color:#A52A22;stop-opacity:0.6"/>
								<stop  offset="0.66" style="stop-color:#A52A22;stop-opacity:0"/>
							</linearGradient>
							<path fill="url(#SVGID_27_)" d="M1.5,0.2v9.4h3.4l3-5.2h7.7V0.2H1.5z"/>
						</g>
					</g>
					<g>
						<defs>
							<circle id="SVGID_28_" cx="8" cy="7.9" r="7.7"/>
						</defs>
						<clipPath id="SVGID_29_">
							<use xlink:href="#SVGID_28_"  overflow="visible"/>
						</clipPath>
						
							<radialGradient id="SVGID_30_" cx="583.6303" cy="13.6289" r="7.3353" gradientTransform="matrix(1 0 0 -1 -576 18)" gradientUnits="userSpaceOnUse">
							<stop  offset="0" style="stop-color:#3E2823;stop-opacity:0.2"/>
							<stop  offset="1" style="stop-color:#3E2823;stop-opacity:0"/>
						</radialGradient>
						<path clip-path="url(#SVGID_29_)" fill="url(#SVGID_30_)" d="M8,4.4v1.8l6.8-1.8H8z"/>
					</g>
					<g>
						<defs>
							<circle id="SVGID_31_" cx="8" cy="7.9" r="7.7"/>
						</defs>
						<clipPath id="SVGID_32_">
							<use xlink:href="#SVGID_31_"  overflow="visible"/>
						</clipPath>
						<g clip-path="url(#SVGID_32_)">
							<g>
								<defs>
									<polygon id="SVGID_33_" points="1.5,0.2 1.5,3.7 4.9,9.6 8,4.4 15.6,4.4 15.6,0.2 									"/>
								</defs>
								<clipPath id="SVGID_34_">
									<use xlink:href="#SVGID_33_"  overflow="visible"/>
								</clipPath>
								<g clip-path="url(#SVGID_34_)">
									<path fill="#0F9D58" d="M0.3,15.5h7.3l3.4-3.4V9.6H4.9l-4.6-8V15.5z"/>
									
										<linearGradient id="SVGID_35_" gradientUnits="userSpaceOnUse" x1="9.2604" y1="4.158" x2="4.1716" y2="7.1391" gradientTransform="matrix(1 0 0 -1 0 18)">
										<stop  offset="0" style="stop-color:#0D562B;stop-opacity:0.4"/>
										<stop  offset="0.33" style="stop-color:#0D562B;stop-opacity:0"/>
									</linearGradient>
									<path fill="url(#SVGID_35_)" d="M0.3,15.5h7.3l3.4-3.4V9.6H4.9l-4.6-8V15.5z"/>
								</g>
							</g>
							<g>
								<defs>
									<circle id="SVGID_36_" cx="8" cy="7.9" r="7.7"/>
								</defs>
								<clipPath id="SVGID_37_">
									<use xlink:href="#SVGID_36_"  overflow="visible"/>
								</clipPath>
								
									<radialGradient id="SVGID_38_" cx="577.4971" cy="14.2771" r="6.8084" gradientTransform="matrix(1 0 0 -1 -576 18)" gradientUnits="userSpaceOnUse">
									<stop  offset="0" style="stop-color:#3E2823;stop-opacity:0.2"/>
									<stop  offset="1" style="stop-color:#3E2823;stop-opacity:0"/>
								</radialGradient>
								<path clip-path="url(#SVGID_37_)" fill="url(#SVGID_38_)" d="M1.5,3.7l5,5L4.9,9.6L1.5,3.7z"/>
							</g>
							<g>
								<defs>
									<circle id="SVGID_39_" cx="8" cy="7.9" r="7.7"/>
								</defs>
								<clipPath id="SVGID_40_">
									<use xlink:href="#SVGID_39_"  overflow="visible"/>
								</clipPath>
								
									<radialGradient id="SVGID_41_" cx="583.9496" cy="10.1227" r="7.666" gradientTransform="matrix(1 0 0 -1 -576 18)" gradientUnits="userSpaceOnUse">
									<stop  offset="0" style="stop-color:#273339;stop-opacity:0.2"/>
									<stop  offset="1" style="stop-color:#273339;stop-opacity:0"/>
								</radialGradient>
								<path clip-path="url(#SVGID_40_)" fill="url(#SVGID_41_)" d="M7.6,15.5l1.8-6.8L11,9.6L7.6,15.5z"/>
							</g>
							<g>
								<defs>
									<circle id="SVGID_42_" cx="8" cy="7.9" r="7.7"/>
								</defs>
								<clipPath id="SVGID_43_">
									<use xlink:href="#SVGID_42_"  overflow="visible"/>
								</clipPath>
								<g clip-path="url(#SVGID_43_)">
									<circle fill="#F2F2F2" cx="8" cy="7.9" r="3.5"/>
									<circle fill="#557EBF" cx="8" cy="7.9" r="2.8"/>
								</g>
							</g>
							<g>
								<defs>
									<circle id="SVGID_44_" cx="8" cy="7.9" r="7.7"/>
								</defs>
								<clipPath id="SVGID_45_">
									<use xlink:href="#SVGID_44_"  overflow="visible"/>
								</clipPath>
								<g clip-path="url(#SVGID_45_)">
									<path fill="#3E2823" fill-opacity="0.2" d="M8,4.3C6,4.3,4.5,5.9,4.5,7.8v0.1C4.5,5.9,6,4.4,8,4.3l7.7,0.1V4.3H8z"/>
									<path fill="#FFFFFF" fill-opacity="0.1" d="M11,9.6c-0.6,1-1.7,1.7-3,1.7s-2.4-0.7-3-1.7l-4.7-8v0.1l4.7,8
										c0.6,1,1.7,1.7,3,1.7S10.4,10.7,11,9.6L11,9.6z"/>
									<path opacity="0.1" fill="#3E2823" enable-background="new    " d="M8.1,4.4L8.1,4.4c1.9,0,3.4,1.6,3.4,3.5
										S9.9,11.3,8,11.4h0c1.9,0,3.5-1.6,3.5-3.5S10,4.4,8.1,4.4z"/>
									<path fill="#FFFFFF" fill-opacity="0.2" d="M11,9.7c0.3-0.5,0.5-1.1,0.5-1.7c0-0.3-0.1-0.7-0.2-1c0.1,0.3,0.1,0.6,0.1,0.9
										c0,0.6-0.2,1.2-0.5,1.7l-3.4,5.9h0.1L11,9.7L11,9.7z"/>
								</g>
							</g>
							<g>
								<defs>
									<circle id="SVGID_46_" cx="8" cy="7.9" r="7.7"/>
								</defs>
								<clipPath id="SVGID_47_">
									<use xlink:href="#SVGID_46_"  overflow="visible"/>
								</clipPath>
								<g clip-path="url(#SVGID_47_)">
									<path fill="#FFFFFF" fill-opacity="0.2" d="M8,0.3c4.2,0,7.7,3.4,7.7,7.6v0C15.6,3.6,12.2,0.2,8,0.3
										C3.7,0.2,0.3,3.6,0.3,7.9v0C0.3,3.7,3.7,0.3,8,0.3z"/>
									<path fill="#3E2823" fill-opacity="0.15" d="M8,15.5c4.2,0,7.7-3.4,7.7-7.6v0C15.6,12.1,12.2,15.5,8,15.5
										c-4.2,0.1-7.7-3.4-7.7-7.6v0C0.3,12.1,3.7,15.5,8,15.5z"/>
								</g>
							</g>
							
								<radialGradient id="SVGID_48_" cx="2.5798" cy="15.7175" r="15.42" gradientTransform="matrix(1 0 0 -1 0 18)" gradientUnits="userSpaceOnUse">
								<stop  offset="0" style="stop-color:#FFFFFF;stop-opacity:0.1"/>
								<stop  offset="1" style="stop-color:#FFFFFF;stop-opacity:0"/>
							</radialGradient>
							<circle fill="url(#SVGID_48_)" cx="8" cy="7.9" r="7.7"/>
							<path fill="none" d="M-0.4-0.5h16.8v16.8H-0.4V-0.5z"/>
						</g>
					</g>
				</g>
			</g>
		</g>
	</g>
</g>
<g id="Layer_5" display="none">
	<path display="inline" fill="#010101" d="M13.9,3.6H2.4c-1,0-1.9,0.9-1.9,1.9v4.9c0,1,0.9,1.9,1.9,1.9h11.5c1,0,1.9-0.9,1.9-1.9
		V5.5C15.8,4.5,14.9,3.6,13.9,3.6z M13.4,6.3c0.3,0,0.5,0.2,0.5,0.5c0,0.3-0.2,0.5-0.5,0.5c-0.3,0-0.5-0.2-0.5-0.5
		C12.8,6.6,13.1,6.3,13.4,6.3z M4.3,8.4h-1v1h-1v-1h-1v-1h1v-1h1v1h1L4.3,8.4L4.3,8.4z M11.1,10.4H5.2V5.5h5.9V10.4z M12.4,8.5
		c-0.3,0-0.5-0.2-0.5-0.5s0.2-0.5,0.5-0.5c0.3,0,0.5,0.2,0.5,0.5C12.9,8.2,12.7,8.5,12.4,8.5z M13.5,9.4c-0.3,0-0.5-0.2-0.5-0.5
		c0-0.3,0.2-0.5,0.5-0.5c0.3,0,0.5,0.2,0.5,0.5C14,9.2,13.8,9.4,13.5,9.4z M14.5,8.3c-0.3,0-0.5-0.2-0.5-0.5c0-0.3,0.2-0.5,0.5-0.5
		c0.3,0,0.5,0.2,0.5,0.5C15,8.1,14.7,8.3,14.5,8.3z"/>
</g>
<g id="Layer_4" display="none">
	<g display="inline">
		<g>
			<path fill="#010101" d="M12.3,4H4C2.1,4,0.5,5.6,0.5,7.6l0,0.3c0,0.4,0.1,0.7,0.2,1c0,0,0,0,0,0c0,0,0,0,0,0
				c0.4,2,1.5,5.4,3.4,5.4c0,0,0.2,0,0.2,0c2-0.3,2.3-2.2,2.4-3.6c0,0,0,0,0,0c0,0,0,0,0,0l0,0c0,0,0,0,0,0c0,0,0,0,0,0l2.7,0
				c0,0,0,0,0,0c0,0,0,0,0,0c0,0,0,0,0,0c0,0,0,0,0,0c0.1,1.4,0.4,3.3,2.4,3.6c0,0,0.2,0,0.2,0c1.9,0.1,3-3.3,3.4-5.4l0,0
				c0,0,0,0,0-0.1c0.1-0.3,0.2-0.7,0.2-1l0-0.2C15.8,5.6,14.2,4,12.3,4z M9.5,10.6C9.5,10.6,9.5,10.6,9.5,10.6
				C9.5,10.6,9.5,10.6,9.5,10.6C9.5,10.6,9.5,10.6,9.5,10.6z M15.6,7.9c0,0.4-0.1,0.7-0.2,1c0,0,0,0.1,0,0.1c-0.4,2-1.4,5.3-3.3,5.3
				c0,0-0.2,0-0.2,0C10,13.9,9.7,12,9.7,10.6c0,0,0-0.1-0.1-0.1c0,0,0,0,0,0l0,0l0,0c0,0,0,0,0,0l0,0H6.8c0,0,0,0,0,0c0,0,0,0,0,0
				c0,0,0,0,0,0c0,0,0,0,0,0c0,0,0,0,0,0c0,0-0.1,0.1-0.1,0.1c0,1.4-0.3,3.2-2.2,3.5c0,0-0.2,0-0.2,0c0,0,0,0,0,0c0,0,0,0,0,0l0,0
				c-1.8,0.1-2.8-3.3-3.3-5.3c0,0,0,0,0,0c-0.1-0.3-0.2-0.7-0.2-1l0-0.2c0-1.9,1.5-3.4,3.3-3.4h8.3c1.8,0,3.3,1.5,3.3,3.4L15.6,7.9z
				"/>
		</g>
		<path fill="#010101" d="M4.7,5.9c0.8,0,1.4,0.4,1.8,1c-0.3-0.8-1.1-1.3-2-1.3c-1.2,0-2.1,0.9-2.1,2.1c0,0.4,0.1,0.7,0.3,1.1
			C2.6,8.6,2.6,8.3,2.6,8C2.6,6.9,3.5,5.9,4.7,5.9z"/>
		<path fill="#010101" d="M12.3,6c0.8,0,1.4,0.4,1.8,1c-0.3-0.8-1.1-1.3-2-1.3c-1.2,0-2.1,0.9-2.1,2.1c0,0.4,0.1,0.7,0.3,1.1
			c-0.1-0.2-0.2-0.5-0.2-0.8C10.2,7,11.2,6,12.3,6z"/>
		<g>
			<path fill="#010101" d="M7.8,0.6C7.4,0.3,6.8,0.4,5.9,1C5.5,1.3,5.2,1.6,5.2,1.7c0,0,0,0,0,0c0,0.2,0.4,0.3,1,0.4
				c0.6,0.1,1.3,0.1,2,0.1l0.1,0l0.1,0l0-0.1C8.4,1.6,8.3,0.8,7.8,0.6z M8.3,2.2c-0.8,0-1.5-0.1-2-0.1C5.5,2,5.4,1.8,5.3,1.8
				c0,0,0,0,0,0C5.3,1.6,5.4,1.4,6,1c0.8-0.5,1.4-0.7,1.8-0.4C8.2,0.9,8.3,1.6,8.3,2.2C8.3,2.2,8.3,2.2,8.3,2.2z M8.6,2.2
				c0-0.7-0.2-1.5-0.7-1.8C7.4,0.1,6.8,0.2,5.9,0.8C5.3,1.2,5.1,1.5,5.1,1.7c0,0,0,0.1,0,0.1c0.1,0.5,1.3,0.6,3.2,0.6c0,0,0,0,0.1,0
				c0,0.7-0.1,1.2-0.1,1.2l0.2,0c0-0.1,0.1-0.6,0.1-1.3c0.8,0,1.6,0.1,2.2,0.2c0.7,0.1,1.1,0.3,1.1,0.5h0.3
				C12.1,2.4,10.4,2.3,8.6,2.2z M10.8,2.6c-0.6-0.1-1.4-0.1-2.2-0.2l-0.1,0l0,0.1c0,0.6-0.1,1-0.1,1.2c0,0-0.1,0-0.1,0
				c0-0.2,0.1-0.6,0.1-1.2l0-0.1l-0.1,0c-1.9-0.1-3-0.1-3.1-0.6c0,0,0-0.1,0-0.1c0-0.2,0.2-0.5,0.8-0.8c0.9-0.6,1.5-0.7,2-0.5
				c0.5,0.3,0.6,1.2,0.6,1.8l0,0.1l0.1,0c1.8,0.1,3.3,0.2,3.4,0.8h-0.1C11.8,2.9,11.5,2.7,10.8,2.6z"/>
		</g>
		<path fill="#010101" d="M4,6.8v0.5H3.5c-0.3,0-0.6,0.3-0.6,0.6c0,0.3,0.3,0.6,0.6,0.6H4V9c0,0.3,0.3,0.6,0.6,0.6
			c0.3,0,0.6-0.3,0.6-0.6V8.5h0.5c0.3,0,0.6-0.3,0.6-0.6c0-0.3-0.3-0.6-0.6-0.6H5.2V6.8c0-0.3-0.3-0.6-0.6-0.6C4.3,6.3,4,6.5,4,6.8z
			"/>
		<g>
			<path fill="#010101" d="M13.4,7.5c-0.3,0-0.6,0.3-0.6,0.6c0,0.3,0.3,0.6,0.6,0.6C13.7,8.6,14,8.4,14,8C14,7.7,13.7,7.5,13.4,7.5z
				 M13.7,8.4c0-0.1,0.1-0.1,0.1-0.2c0-0.2-0.2-0.4-0.5-0.4c-0.1,0-0.2,0-0.3,0.1c0.1-0.2,0.2-0.3,0.4-0.3c0.3,0,0.5,0.2,0.5,0.5
				C13.9,8.2,13.8,8.3,13.7,8.4z"/>
		</g>
		<g>
			<path fill="#010101" d="M11.1,7.5c-0.3,0-0.6,0.3-0.6,0.6c0,0.3,0.3,0.6,0.6,0.6s0.6-0.3,0.6-0.6C11.7,7.7,11.4,7.5,11.1,7.5z
				 M11.4,8.4c0-0.1,0.1-0.1,0.1-0.2c0-0.2-0.2-0.4-0.5-0.4c-0.1,0-0.2,0-0.3,0.1c0.1-0.2,0.2-0.3,0.4-0.3c0.3,0,0.5,0.2,0.5,0.5
				C11.6,8.2,11.5,8.3,11.4,8.4z"/>
		</g>
		<g>
			<path fill="#010101" d="M12.3,6.3c-0.3,0-0.6,0.3-0.6,0.6c0,0.3,0.3,0.6,0.6,0.6c0.3,0,0.6-0.3,0.6-0.6
				C12.9,6.5,12.6,6.3,12.3,6.3z M12.6,7.2c0-0.1,0.1-0.1,0.1-0.2c0-0.2-0.2-0.4-0.5-0.4c-0.1,0-0.2,0-0.3,0.1
				c0.1-0.2,0.2-0.3,0.4-0.3c0.3,0,0.5,0.2,0.5,0.5C12.8,7,12.7,7.1,12.6,7.2z"/>
		</g>
		<g>
			<path fill="#010101" d="M12.3,8.6c-0.3,0-0.6,0.3-0.6,0.6c0,0.3,0.3,0.6,0.6,0.6c0.3,0,0.6-0.3,0.6-0.6
				C12.9,8.9,12.6,8.6,12.3,8.6z M12.6,9.6c0-0.1,0.1-0.1,0.1-0.2c0-0.2-0.2-0.4-0.5-0.4c-0.1,0-0.2,0-0.3,0.1
				c0.1-0.2,0.2-0.3,0.4-0.3c0.3,0,0.5,0.2,0.5,0.5C12.8,9.3,12.7,9.5,12.6,9.6z"/>
		</g>
		<g>
			<path fill="#010101" d="M12.3,4.3H4c-1.8,0-3.2,1.5-3.2,3.3c0,0.1,0,0.2,0,0.2c0,0.3,0.1,0.7,0.2,1c0,0,0,0,0,0c0,0,0,0,0,0
				c0,0,0,0,0,0c0.4,1.9,1.4,5.2,3.1,5.2c0.1,0,0.1,0,0.2,0c1.7-0.3,2.1-1.9,2.1-3.5l0,0c0-0.1,0.1-0.1,0.1-0.2c0,0,0,0,0,0
				c0,0,0,0,0,0c0,0,0,0,0,0c0,0,0,0,0,0c0,0,0,0,0,0c0,0,0,0,0,0c0,0,0,0,0.1,0h2.7c0,0,0,0,0.1,0c0,0,0,0,0,0c0,0,0,0,0,0
				c0,0,0,0,0,0c0,0,0,0,0,0c0,0,0,0,0,0c0,0,0,0,0,0c0.1,0,0.1,0.1,0.1,0.2h0c0,1.5,0.4,3.2,2.1,3.5c0.1,0,0.1,0,0.2,0
				c1.7,0.1,2.7-3.3,3.1-5.2c0,0,0,0,0-0.1c0,0,0,0,0,0c0.1-0.3,0.2-0.6,0.2-1c0-0.1,0-0.2,0-0.2C15.5,5.8,14.1,4.3,12.3,4.3z
				 M4.3,13.6c-2,0.3-2.8-5.1-2.8-5.1l0.1,0c0.8,2.9,4.3,2,4.3,2S6.3,13.3,4.3,13.6z M4.5,10.1c-1.3,0-2.3-1-2.3-2.3
				c0-1.3,1-2.3,2.3-2.3c1.3,0,2.3,1,2.3,2.3C6.9,9,5.8,10.1,4.5,10.1z M12.2,5.6c1.3,0,2.3,1,2.3,2.3c0,1.3-1,2.3-2.3,2.3
				s-2.3-1-2.3-2.3C9.9,6.6,10.9,5.6,12.2,5.6z M12,13.5c-2.1-0.3-1.8-3-1.8-3c2.2,1.6,3.8-0.6,4.6-2L15,8.5
				C15,8.5,14.2,13.9,12,13.5z"/>
		</g>
		<path fill="#010101" d="M3.5,13.3c0.2,0.1,0.4,0.2,0.6,0.2c1.2-0.2,1.4-1.5,1.4-2.2c0,0,0,0,0,0c-1,0.1-2.4,0.1-3.4-0.7
			C2.4,11.6,2.9,12.8,3.5,13.3z"/>
		<path fill="#010101" d="M12.4,11.5c-0.6,0.1-1.2,0-1.8-0.2c0,0.7,0.3,1.8,1.5,2c1,0.1,1.7-1.5,2.1-3
			C13.7,10.9,13.1,11.4,12.4,11.5z"/>
	</g>
</g>
<g id="Layer_3" display="none">
	<ellipse display="inline" fill="#3380B2" cx="8.4" cy="10.1" rx="1.7" ry="5.6"/>
	<circle display="inline" fill="#F3AA2C" cx="8.4" cy="1.8" r="1.5"/>
</g>
<g id="Layer_2" display="none">
	<g display="inline">
		<path d="M4.5,1.9C4.7,1.7,5,1.5,5.3,1.3C5.6,1.1,5.9,1,6.2,0.8c0.3-0.1,0.7-0.2,1.1-0.3c0.4-0.1,0.8-0.1,1.3-0.1
			c0.6,0,1.2,0.1,1.7,0.3c0.5,0.2,0.9,0.4,1.3,0.7c0.4,0.3,0.6,0.7,0.8,1.1c0.2,0.4,0.3,0.9,0.3,1.5c0,0.5-0.1,1-0.2,1.3
			c-0.1,0.4-0.3,0.7-0.5,1c-0.2,0.3-0.5,0.5-0.7,0.7c-0.3,0.2-0.5,0.4-0.7,0.6C10.2,7.7,10,7.9,9.9,8C9.7,8.2,9.6,8.4,9.6,8.6
			L9.3,10H7.1L6.9,8.4c0,0,0-0.1,0-0.1c0,0,0-0.1,0-0.1c0-0.3,0.1-0.6,0.2-0.8C7.2,7.2,7.4,7,7.6,6.8c0.2-0.2,0.4-0.4,0.7-0.5
			C8.6,6.1,8.8,5.9,9,5.7C9.2,5.5,9.4,5.3,9.6,5c0.1-0.2,0.2-0.5,0.2-0.9c0-0.4-0.1-0.7-0.4-1C9.1,2.9,8.8,2.8,8.3,2.8
			c-0.4,0-0.7,0-0.9,0.1C7.2,3,6.9,3.1,6.8,3.2C6.6,3.3,6.5,3.4,6.3,3.4C6.2,3.5,6.1,3.5,5.9,3.5c-0.3,0-0.5-0.1-0.6-0.4L4.5,1.9z
			 M6.3,13.7c0-0.2,0-0.5,0.1-0.7c0.1-0.2,0.2-0.4,0.4-0.5c0.2-0.2,0.3-0.3,0.6-0.4c0.2-0.1,0.5-0.1,0.7-0.1c0.2,0,0.5,0,0.7,0.1
			c0.2,0.1,0.4,0.2,0.6,0.4c0.2,0.2,0.3,0.3,0.4,0.5c0.1,0.2,0.1,0.4,0.1,0.7c0,0.2,0,0.5-0.1,0.7c-0.1,0.2-0.2,0.4-0.4,0.6
			c-0.2,0.2-0.4,0.3-0.6,0.4c-0.2,0.1-0.4,0.1-0.7,0.1c-0.3,0-0.5,0-0.7-0.1c-0.2-0.1-0.4-0.2-0.6-0.4c-0.2-0.2-0.3-0.3-0.4-0.6
			C6.4,14.1,6.3,13.9,6.3,13.7z"/>
	</g>
</g>
</svg>
