<?xml version="1.0" encoding="utf-8"?>
<!-- Generator: Adobe Illustrator 21.0.0, SVG Export Plug-In . SVG Version: 6.00 Build 0)  -->
<!DOCTYPE svg PUBLIC "-//W3C//DTD SVG 1.1//EN" "http://www.w3.org/Graphics/SVG/1.1/DTD/svg11.dtd">
<svg version="1.1" id="Chrome" xmlns="http://www.w3.org/2000/svg" xmlns:xlink="http://www.w3.org/1999/xlink" x="0px" y="0px"
	 viewBox="0 0 100 100" enable-background="new 0 0 100 100" xml:space="preserve">
<g>
	<defs>
		<circle id="SVGID_1_" cx="49.6" cy="49.6" r="46.7"/>
	</defs>
	<clipPath id="SVGID_2_">
		<use xlink:href="#SVGID_1_"  overflow="visible"/>
	</clipPath>
	<g clip-path="url(#SVGID_2_)">
		<path fill="#DC4537" d="M10.4,2.9v57.3h20.9l18.3-31.8h46.7V2.9H10.4z"/>
		
			<linearGradient id="SVGID_3_" gradientUnits="userSpaceOnUse" x1="14.2858" y1="63.5113" x2="42.1246" y2="79.7745" gradientTransform="matrix(1 0 0 -1 0 102)">
			<stop  offset="0" style="stop-color:#A52A22;stop-opacity:0.6"/>
			<stop  offset="0.66" style="stop-color:#A52A22;stop-opacity:0"/>
		</linearGradient>
		<path fill="url(#SVGID_3_)" d="M10.4,2.9v57.3h20.9l18.3-31.8h46.7V2.9H10.4z"/>
	</g>
</g>
<g>
	<defs>
		<circle id="SVGID_4_" cx="49.6" cy="49.6" r="46.7"/>
	</defs>
	<clipPath id="SVGID_5_">
		<use xlink:href="#SVGID_4_"  overflow="visible"/>
	</clipPath>
	<path clip-path="url(#SVGID_5_)" fill="#3E2823" fill-opacity="0.15" d="M31.8,60.1L10.7,23.8l-0.3,0.5l20.7,36L31.8,60.1z"/>
</g>
<g>
	<defs>
		<circle id="SVGID_6_" cx="49.6" cy="49.6" r="46.7"/>
	</defs>
	<clipPath id="SVGID_7_">
		<use xlink:href="#SVGID_6_"  overflow="visible"/>
	</clipPath>
	<g clip-path="url(#SVGID_7_)">
		<path fill="#0F9D58" d="M3,96.3h44.4l20.7-20.7V60.2H31.2L3,11.7V96.3z"/>
		
			<linearGradient id="SVGID_8_" gradientUnits="userSpaceOnUse" x1="57.5128" y1="16.0632" x2="26.5826" y2="34.1823" gradientTransform="matrix(1 0 0 -1 0 102)">
			<stop  offset="0" style="stop-color:#0D562B;stop-opacity:0.4"/>
			<stop  offset="0.33" style="stop-color:#0D562B;stop-opacity:0"/>
		</linearGradient>
		<path fill="url(#SVGID_8_)" d="M3,96.3h44.4l20.7-20.7V60.2H31.2L3,11.7V96.3z"/>
	</g>
</g>
<g>
	<defs>
		<circle id="SVGID_9_" cx="49.6" cy="49.6" r="46.7"/>
	</defs>
	<clipPath id="SVGID_10_">
		<use xlink:href="#SVGID_9_"  overflow="visible"/>
	</clipPath>
	<path clip-path="url(#SVGID_10_)" fill="#273339" fill-opacity="0.15" d="M67.6,60.9l-0.4-0.2L46.8,96.2h0.5l20.3-35.5L67.6,60.9z"
		/>
</g>
<g>
	<defs>
		<circle id="SVGID_11_" cx="49.6" cy="49.6" r="46.7"/>
	</defs>
	<clipPath id="SVGID_12_">
		<use xlink:href="#SVGID_11_"  overflow="visible"/>
	</clipPath>
	<g clip-path="url(#SVGID_12_)">
		<g>
			<defs>
				<polygon id="SVGID_13_" points="3,96.3 47.4,96.3 68.1,75.6 68.1,60.2 31.2,60.2 3,11.7 				"/>
			</defs>
			<clipPath id="SVGID_14_">
				<use xlink:href="#SVGID_13_"  overflow="visible"/>
			</clipPath>
			<g clip-path="url(#SVGID_14_)">
				<path fill="#FFCE41" d="M49.6,28.4L68,60.2L47.5,96.3h48.8V28.4H49.6z"/>
				
					<linearGradient id="SVGID_15_" gradientUnits="userSpaceOnUse" x1="63.3984" y1="76.9017" x2="71.1879" y2="42.7898" gradientTransform="matrix(1 0 0 -1 0 102)">
					<stop  offset="0" style="stop-color:#E86324;stop-opacity:0.3"/>
					<stop  offset="0.66" style="stop-color:#E86324;stop-opacity:0"/>
				</linearGradient>
				<path fill="url(#SVGID_15_)" d="M49.6,28.4L68,60.2L47.5,96.3h48.8V28.4H49.6z"/>
			</g>
		</g>
		<g>
			<defs>
				<circle id="SVGID_16_" cx="49.6" cy="49.6" r="46.7"/>
			</defs>
			<clipPath id="SVGID_17_">
				<use xlink:href="#SVGID_16_"  overflow="visible"/>
			</clipPath>
			<g clip-path="url(#SVGID_17_)">
				<path fill="#FFCE41" d="M49.6,28.4L68,60.2L47.5,96.3h48.8V28.4H49.6z"/>
				
					<linearGradient id="SVGID_18_" gradientUnits="userSpaceOnUse" x1="63.3984" y1="76.9017" x2="71.1879" y2="42.7898" gradientTransform="matrix(1 0 0 -1 0 102)">
					<stop  offset="0" style="stop-color:#E86324;stop-opacity:0.3"/>
					<stop  offset="0.66" style="stop-color:#E86324;stop-opacity:0"/>
				</linearGradient>
				<path fill="url(#SVGID_18_)" d="M49.6,28.4L68,60.2L47.5,96.3h48.8V28.4H49.6z"/>
			</g>
		</g>
		<g>
			<defs>
				<circle id="SVGID_19_" cx="49.6" cy="49.6" r="46.7"/>
			</defs>
			<clipPath id="SVGID_20_">
				<use xlink:href="#SVGID_19_"  overflow="visible"/>
			</clipPath>
			<g clip-path="url(#SVGID_20_)">
				<g>
					<defs>
						<polygon id="SVGID_21_" points="49.6,28.4 68,60.2 47.5,96.3 96.3,96.3 96.3,28.4 						"/>
					</defs>
					<clipPath id="SVGID_22_">
						<use xlink:href="#SVGID_21_"  overflow="visible"/>
					</clipPath>
					<g clip-path="url(#SVGID_22_)">
						<path fill="#DC4537" d="M10.4,2.9v57.3h20.9l18.3-31.8h46.7V2.9H10.4z"/>
						
							<linearGradient id="SVGID_23_" gradientUnits="userSpaceOnUse" x1="14.2858" y1="63.5113" x2="42.1246" y2="79.7745" gradientTransform="matrix(1 0 0 -1 0 102)">
							<stop  offset="0" style="stop-color:#A52A22;stop-opacity:0.6"/>
							<stop  offset="0.66" style="stop-color:#A52A22;stop-opacity:0"/>
						</linearGradient>
						<path fill="url(#SVGID_23_)" d="M10.4,2.9v57.3h20.9l18.3-31.8h46.7V2.9H10.4z"/>
					</g>
				</g>
				<g>
					<defs>
						<circle id="SVGID_24_" cx="49.6" cy="49.6" r="46.7"/>
					</defs>
					<clipPath id="SVGID_25_">
						<use xlink:href="#SVGID_24_"  overflow="visible"/>
					</clipPath>
					
						<radialGradient id="SVGID_26_" cx="623.6049" cy="73.628" r="44.5846" gradientTransform="matrix(1 0 0 -1 -576 102)" gradientUnits="userSpaceOnUse">
						<stop  offset="0" style="stop-color:#3E2823;stop-opacity:0.2"/>
						<stop  offset="1" style="stop-color:#3E2823;stop-opacity:0"/>
					</radialGradient>
					<path clip-path="url(#SVGID_25_)" fill="url(#SVGID_26_)" d="M49.6,28.4v11.1l41.6-11.1H49.6z"/>
				</g>
				<g>
					<defs>
						<circle id="SVGID_27_" cx="49.6" cy="49.6" r="46.7"/>
					</defs>
					<clipPath id="SVGID_28_">
						<use xlink:href="#SVGID_27_"  overflow="visible"/>
					</clipPath>
					<g clip-path="url(#SVGID_28_)">
						<g>
							<defs>
								<polygon id="SVGID_29_" points="10.4,2.9 10.4,24.3 31.3,60.2 49.6,28.4 96.3,28.4 96.3,2.9 								"/>
							</defs>
							<clipPath id="SVGID_30_">
								<use xlink:href="#SVGID_29_"  overflow="visible"/>
							</clipPath>
							<g clip-path="url(#SVGID_30_)">
								<path fill="#0F9D58" d="M3,96.3h44.4l20.7-20.7V60.2H31.2L3,11.7V96.3z"/>
								
									<linearGradient id="SVGID_31_" gradientUnits="userSpaceOnUse" x1="57.5128" y1="16.0632" x2="26.5826" y2="34.1823" gradientTransform="matrix(1 0 0 -1 0 102)">
									<stop  offset="0" style="stop-color:#0D562B;stop-opacity:0.4"/>
									<stop  offset="0.33" style="stop-color:#0D562B;stop-opacity:0"/>
								</linearGradient>
								<path fill="url(#SVGID_31_)" d="M3,96.3h44.4l20.7-20.7V60.2H31.2L3,11.7V96.3z"/>
							</g>
						</g>
						<g>
							<defs>
								<circle id="SVGID_32_" cx="49.6" cy="49.6" r="46.7"/>
							</defs>
							<clipPath id="SVGID_33_">
								<use xlink:href="#SVGID_32_"  overflow="visible"/>
							</clipPath>
							
								<radialGradient id="SVGID_34_" cx="586.3274" cy="77.5678" r="41.3818" gradientTransform="matrix(1 0 0 -1 -576 102)" gradientUnits="userSpaceOnUse">
								<stop  offset="0" style="stop-color:#3E2823;stop-opacity:0.2"/>
								<stop  offset="1" style="stop-color:#3E2823;stop-opacity:0"/>
							</radialGradient>
							<path clip-path="url(#SVGID_33_)" fill="url(#SVGID_34_)" d="M10.4,24.4l30.3,30.3l-9.4,5.5L10.4,24.4z"/>
						</g>
						<g>
							<defs>
								<circle id="SVGID_35_" cx="49.6" cy="49.6" r="46.7"/>
							</defs>
							<clipPath id="SVGID_36_">
								<use xlink:href="#SVGID_35_"  overflow="visible"/>
							</clipPath>
							
								<radialGradient id="SVGID_37_" cx="625.5457" cy="52.3167" r="46.5943" gradientTransform="matrix(1 0 0 -1 -576 102)" gradientUnits="userSpaceOnUse">
								<stop  offset="0" style="stop-color:#273339;stop-opacity:0.2"/>
								<stop  offset="1" style="stop-color:#273339;stop-opacity:0"/>
							</radialGradient>
							<path clip-path="url(#SVGID_36_)" fill="url(#SVGID_37_)" d="M47.4,96.3l11.1-41.5l9.4,5.5L47.4,96.3z"/>
						</g>
						<g>
							<defs>
								<circle id="SVGID_38_" cx="49.6" cy="49.6" r="46.7"/>
							</defs>
							<clipPath id="SVGID_39_">
								<use xlink:href="#SVGID_38_"  overflow="visible"/>
							</clipPath>
							<g clip-path="url(#SVGID_39_)">
								<circle fill="#F2F2F2" cx="49.6" cy="49.6" r="21.2"/>
								<circle fill="#557EBF" cx="49.6" cy="49.6" r="17"/>
							</g>
						</g>
						<g>
							<defs>
								<circle id="SVGID_40_" cx="49.6" cy="49.6" r="46.7"/>
							</defs>
							<clipPath id="SVGID_41_">
								<use xlink:href="#SVGID_40_"  overflow="visible"/>
							</clipPath>
							<g clip-path="url(#SVGID_41_)">
								<path fill="#3E2823" fill-opacity="0.2" d="M49.6,27.9c-11.7,0-21.2,9.5-21.2,21.2v0.5c0-11.7,9.5-21.2,21.2-21.2h46.7v-0.5
									H49.6z"/>
								<path fill="#FFFFFF" fill-opacity="0.1" d="M68,60.2c-3.7,6.4-10.5,10.6-18.3,10.6s-14.7-4.2-18.3-10.6L3,11.7v0.5
									l28.3,48.5c3.7,6.4,10.5,10.6,18.3,10.6S64.3,67.1,68,60.7V60.2z"/>
								<path opacity="0.1" fill="#3E2823" enable-background="new    " d="M50.2,28.4h-0.3c11.7,0.2,20.9,9.5,20.9,21.2
									s-9.3,21.1-20.9,21.2h0.3c11.7,0,21.2-9.5,21.2-21.2S61.8,28.4,50.2,28.4z"/>
								<path fill="#FFFFFF" fill-opacity="0.2" d="M68.2,60.9c1.8-3.1,2.9-6.7,2.9-10.6c0-2.1-0.4-4.3-1.1-6.4
									c0.5,1.8,0.8,3.7,0.8,5.7c0,3.9-1.1,7.4-2.9,10.6L47.5,96.3H48L68.3,61L68.2,60.9z"/>
							</g>
						</g>
						<g>
							<defs>
								<circle id="SVGID_42_" cx="49.6" cy="49.6" r="46.7"/>
							</defs>
							<clipPath id="SVGID_43_">
								<use xlink:href="#SVGID_42_"  overflow="visible"/>
							</clipPath>
							<g clip-path="url(#SVGID_43_)">
								<path fill="#FFFFFF" fill-opacity="0.2" d="M49.6,3.5c25.7,0,46.5,20.7,46.7,46.4v-0.3c0-25.8-20.9-46.7-46.7-46.7
									S3,23.8,3,49.6v0.3C3.1,24.2,24,3.5,49.6,3.5z"/>
								<path fill="#3E2823" fill-opacity="0.15" d="M49.6,95.7c25.7,0,46.5-20.7,46.7-46.4v0.3c0,25.8-20.9,46.7-46.7,46.7
									S3,75.4,3,49.6v-0.3C3.1,75.1,24,95.7,49.6,95.7z"/>
							</g>
						</g>
						
							<radialGradient id="SVGID_44_" cx="16.908" cy="86.3225" r="93.7241" gradientTransform="matrix(1 0 0 -1 0 102)" gradientUnits="userSpaceOnUse">
							<stop  offset="0" style="stop-color:#FFFFFF;stop-opacity:0.1"/>
							<stop  offset="1" style="stop-color:#FFFFFF;stop-opacity:0"/>
						</radialGradient>
						<circle fill="url(#SVGID_44_)" cx="49.6" cy="49.6" r="46.7"/>
						<path fill="none" d="M-1.3-1.3h101.8v101.8H-1.3V-1.3z"/>
					</g>
				</g>
			</g>
		</g>
	</g>
</g>
</svg>
