<?xml version="1.0" encoding="utf-8"?>
<!-- Generator: Adobe Illustrator 21.0.0, SVG Export Plug-In . SVG Version: 6.00 Build 0)  -->
<!DOCTYPE svg PUBLIC "-//W3C//DTD SVG 1.1//EN" "http://www.w3.org/Graphics/SVG/1.1/DTD/svg11.dtd">
<svg version="1.1" id="iOS" xmlns="http://www.w3.org/2000/svg" xmlns:xlink="http://www.w3.org/1999/xlink" x="0px" y="0px"
	 viewBox="0 0 100 100" enable-background="new 0 0 100 100" xml:space="preserve">
<g>
	<path fill="#010101" d="M5.6,24c0,1.1-0.6,1.9-1.8,1.9c-0.9,0-1.6-0.8-1.6-1.9c0-1,0.7-1.9,1.7-1.9C5,22.2,5.6,23,5.6,24L5.6,24
		L5.6,24z M3.1,79.8V37.1h1.7v42.7H3.1L3.1,79.8z"/>
	<path fill="#010101" d="M63,49.4C63,70.9,51,80.7,38,80.7c-13.4,0-24.2-10.6-24.2-30.4C13.8,29.9,25,19,38.9,19
		C52.5,19,63,29.8,63,49.4L63,49.4L63,49.4z M15.6,49.8c0,16.3,7.9,29,22.5,29c14.7,0,23.1-13.1,23.1-29.2
		c0-14.9-6.7-28.6-22.1-28.6S15.6,33.9,15.6,49.8L15.6,49.8L15.6,49.8z"/>
	<path fill="#010101" d="M69.4,75.2c2.9,2,8,3.8,12.4,3.8c8.3,0,15.6-5.8,15.6-14.3c0-7.9-4.9-12-13.2-15.6C76.7,46,70,42.6,70,34.1
		c0-8.8,6.9-15,16.4-15c5.1,0,8.9,1.4,10.7,2.7l-0.7,1.5c-1.5-1.1-5.6-2.4-10-2.4c-10,0-14.3,7.5-14.3,13.1
		c0,7.6,5.9,10.2,13.6,13.9c8.9,4.4,13.6,8.2,13.6,16.5c0,9-6.4,16.3-17.8,16.3c-4.7,0-10.1-1.6-12.8-3.6L69.4,75.2L69.4,75.2z"/>
</g>
</svg>
