<?xml version="1.0" encoding="utf-8"?>
<!-- Generator: Adobe Illustrator 21.0.0, SVG Export Plug-In . SVG Version: 6.00 Build 0)  -->
<!DOCTYPE svg PUBLIC "-//W3C//DTD SVG 1.1//EN" "http://www.w3.org/Graphics/SVG/1.1/DTD/svg11.dtd">
<svg version="1.1" id="Linux" xmlns="http://www.w3.org/2000/svg" xmlns:xlink="http://www.w3.org/1999/xlink" x="0px" y="0px"
	 viewBox="0 0 100 100" enable-background="new 0 0 100 100" xml:space="preserve">
<path fill="#010101" d="M87.8,78.6C87.8,78.6,87.8,78.6,87.8,78.6c-0.7-0.8-1-2.2-1.4-3.8c-0.4-1.5-0.7-3.2-2-4.3c0,0,0,0,0,0
	c-0.3-0.2-0.5-0.4-0.8-0.6c-0.3-0.2-0.5-0.3-0.8-0.4c1.8-5.2,1.1-10.4-0.7-15.1c-2.2-5.8-6-10.8-8.9-14.2c-3.3-4.1-6.4-8-6.4-13.7
	c0.1-8.8,1-25.1-14.5-25.1c-0.6,0-1.3,0-2,0.1C33.1,3,37.7,21.2,37.5,27.3c-0.3,4.5-1.2,8-4.3,12.3c-3.6,4.3-8.7,11.2-11.1,18.5
	c-1.1,3.4-1.7,6.9-1.2,10.2c-0.2,0.1-0.3,0.3-0.4,0.4c-1.1,1.1-1.8,2.5-2.7,3.4c-0.8,0.8-2,1.1-3.3,1.6c-1.3,0.5-2.7,1.1-3.5,2.8
	c0,0,0,0,0,0c0,0,0,0,0,0c-0.4,0.7-0.5,1.6-0.5,2.4c0,0.8,0.1,1.5,0.2,2.3c0.2,1.5,0.5,3,0.2,4c-1,2.8-1.1,4.7-0.4,6.1
	c0.7,1.4,2.2,2,3.8,2.3c3.3,0.7,7.8,0.5,11.3,2.4l0.3-0.6l-0.3,0.6c3.8,2,7.6,2.7,10.7,2c2.2-0.5,4-1.8,4.9-3.9c2.4,0,5-1,9.2-1.3
	c2.9-0.2,6.4,1,10.5,0.8c0.1,0.4,0.3,0.9,0.5,1.3c0,0,0,0,0,0c1.6,3.2,4.5,4.6,7.7,4.4c3.2-0.2,6.5-2.1,9.2-5.3l-0.5-0.4l0.5,0.4
	c2.6-3.1,6.9-4.4,9.7-6.1c1.4-0.9,2.6-1.9,2.7-3.5C90.8,82.7,89.9,81,87.8,78.6z"/>
<path fill="#D6A529" d="M89.4,84.2c-0.1,1-0.8,1.7-2,2.5c-2.6,1.6-7.1,2.9-10,6.4c-2.5,3-5.6,4.7-8.3,4.9s-5.1-0.9-6.4-3.7l0,0l0,0
	c-0.9-1.6-0.5-4.2,0.2-6.9c0.7-2.7,1.8-5.5,1.9-7.8v0c0.1-2.9,0.3-5.4,0.8-7.4c0.5-2,1.3-3.3,2.6-4c0.1,0,0.1-0.1,0.2-0.1
	c0.2,2.5,1.4,5.1,3.6,5.6c2.4,0.6,5.9-1.4,7.3-3.1c0.3,0,0.6,0,0.9,0c1.3,0,2.4,0,3.5,1l0,0l0,0c0.8,0.7,1.2,2.1,1.6,3.6
	c0.3,1.5,0.6,3.2,1.7,4.3l0,0l0,0C88.8,81.7,89.4,83.2,89.4,84.2z"/>
<path fill="#D6A529" d="M40.5,91.3L40.5,91.3L40.5,91.3c-0.2,3.1-2,4.7-4.6,5.3c-2.6,0.6-6.2,0-9.8-1.9c0,0,0,0,0,0
	c-4-2.1-8.7-1.9-11.7-2.5c-1.5-0.3-2.5-0.8-2.9-1.7c-0.5-0.9-0.5-2.4,0.5-5l0,0l0,0c0.5-1.5,0.1-3.1-0.1-4.6
	c-0.2-1.5-0.3-2.9,0.2-3.8l0,0c0.7-1.3,1.6-1.7,2.8-2.1c1.2-0.4,2.6-0.8,3.7-1.9l0,0l0,0c1-1.1,1.8-2.5,2.7-3.4
	c0.8-0.8,1.5-1.4,2.7-1.4c0,0,0,0,0,0c0.2,0,0.4,0,0.6,0.1c1.5,0.2,2.9,1.3,4.2,3.1l3.7,6.8l0,0l0,0c1,2.1,3.1,4.4,4.9,6.7
	C39.3,87.2,40.7,89.5,40.5,91.3z"/>
<path fill="#D6A529" d="M59.1,27.9c-0.3-0.6-0.9-1.1-2-1.6l0,0l0,0c-2.2-0.9-3.1-1-4.3-1.8c-2-1.3-3.6-1.7-4.9-1.7
	c-0.7,0-1.3,0.1-1.9,0.3c-1.6,0.6-2.7,1.7-3.4,2.4l0,0c0,0,0,0,0,0c-0.1,0.1-0.3,0.2-0.7,0.6c-0.4,0.3-1.1,0.8-2,1.5
	c-0.8,0.6-1.1,1.4-0.8,2.3c0.3,0.9,1.2,2,2.8,2.9l0,0l0,0c1,0.6,1.7,1.4,2.5,2c0.4,0.3,0.8,0.6,1.3,0.8c0.5,0.2,1.1,0.4,1.8,0.4
	c1.7,0.1,3-0.4,4.1-1.1c1.1-0.6,2.1-1.4,3.2-1.8l0,0l0,0c2.2-0.7,3.8-2.1,4.3-3.4C59.4,29.1,59.4,28.5,59.1,27.9z"/>
<path fill="#010101" d="M57.4,29.2c-0.3,0-0.9,0.3-1.6,0.6c-0.7,0.4-1.5,0.9-2.4,1.4c-1.8,1-3.9,2.1-6.1,2.1c-2.2,0-4-1-5.2-2
	c-0.6-0.5-1.1-1-1.5-1.4c-0.2-0.2-0.4-0.3-0.5-0.4c-0.1-0.1-0.1-0.1-0.1-0.1c0,0,0,0,0-0.2l0-0.6c0.3,0,0.4,0.1,0.6,0.2
	c0.2,0.1,0.3,0.3,0.5,0.5c0.4,0.4,0.9,0.8,1.5,1.3c1.2,0.9,2.8,1.9,4.8,1.9c2,0,4-1,5.7-2c0.9-0.5,1.7-1,2.4-1.4
	c0.7-0.4,1.3-0.7,1.9-0.7L57.4,29.2z"/>
<path fill="#FFFFFF" d="M80.7,69.3c-0.2,0-0.5,0-0.7,0c0,0,0,0-0.1,0c0.6-1.9-0.7-3.4-4.3-5c-3.7-1.6-6.7-1.5-7.2,1.9
	c0,0.2-0.1,0.4-0.1,0.5c-0.3,0.1-0.6,0.2-0.8,0.4c-1.8,1-2.7,2.7-3.2,4.8c-0.5,2.1-0.7,4.7-0.8,7.6c0,0,0,0,0,0
	c-0.1,1.5-0.7,3.4-1.3,5.5c-6.1,4.4-14.6,6.3-21.9,1.3c-0.5-0.8-1.1-1.5-1.6-2.3c-0.4-0.5-0.7-1-1.1-1.4c0.7,0,1.4-0.1,1.9-0.4
	c0.6-0.3,1.1-0.7,1.3-1.3c0.4-1.2,0-2.9-1.4-4.8c-1.4-1.9-3.8-4.1-7.3-6.2c0,0,0,0,0,0c-2.6-1.6-4-3.6-4.7-5.7
	c-0.7-2.1-0.6-4.4-0.1-6.7c1-4.4,3.6-8.6,5.2-11.3c0.4-0.3,0.2,0.6-1.7,4c-1.6,3.1-4.7,10.2-0.5,15.7c0.1-3.9,1.1-8,2.6-11.7
	c2.3-5.2,7.1-14.3,7.5-21.5c0.2,0.1,0.9,0.6,1.2,0.8c0,0,0,0,0,0c0.9,0.5,1.5,1.3,2.4,2c0.9,0.7,1.9,1.3,3.6,1.4c0.2,0,0.3,0,0.5,0
	c1.7,0,3-0.5,4.1-1.2c1.2-0.7,2.1-1.4,3-1.7c0,0,0,0,0,0c1.9-0.6,3.4-1.6,4.3-2.9c1.5,5.8,4.9,14.2,7.1,18.3
	c1.2,2.2,3.5,6.8,4.5,12.3c0.6,0,1.3,0.1,2.1,0.3c2.6-6.8-2.2-14.2-4.5-16.2c-0.9-0.9-0.9-1.3-0.5-1.2c2.4,2.1,5.6,6.4,6.7,11.3
	c0.5,2.2,0.6,4.5,0.1,6.8c0.3,0.1,0.6,0.2,0.8,0.4C79.9,65,81.5,66.8,80.7,69.3z"/>
<path fill="#FFFFFF" d="M59.3,21.2c0,1.1-0.2,2.1-0.6,3.1c-0.2,0.6-0.5,1-0.9,1.5c-0.1-0.1-0.2-0.1-0.4-0.2
	c-0.4-0.2-0.8-0.3-1.2-0.5c-0.3-0.1-0.6-0.2-0.9-0.3c0.2-0.2,0.4-0.5,0.5-0.9c0.2-0.5,0.3-1.1,0.4-1.7c0,0,0,0,0-0.1
	c0-0.6-0.1-1.1-0.2-1.6c-0.2-0.6-0.4-1-0.8-1.3c-0.3-0.3-0.7-0.5-1.1-0.5c0,0,0,0-0.1,0c-0.4,0-0.7,0.1-1.1,0.4
	c-0.4,0.3-0.6,0.7-0.9,1.2c-0.2,0.5-0.3,1.1-0.4,1.7c0,0,0,0,0,0.1c0,0.3,0,0.7,0.1,1c-0.8-0.4-1.5-0.7-2.2-0.8
	c0-0.3-0.1-0.6-0.1-0.9v-0.1c0-1.1,0.2-2.1,0.6-3.1c0.4-1,1-1.7,1.8-2.3c0.8-0.6,1.5-0.9,2.4-0.9h0c0.9,0,1.6,0.3,2.4,0.8
	c0.8,0.6,1.3,1.3,1.8,2.3C59.1,19.1,59.3,20,59.3,21.2C59.3,21.2,59.3,21.2,59.3,21.2z"/>
<path fill="#FFFFFF" d="M46.1,22.4c-0.1,0-0.2,0.1-0.3,0.1c-0.6,0.2-1.2,0.5-1.7,0.8c0-0.3,0.1-0.7,0-1c0,0,0,0,0-0.1
	c-0.1-0.5-0.2-0.9-0.3-1.3c-0.2-0.4-0.4-0.8-0.7-1c-0.3-0.2-0.5-0.3-0.7-0.3c0,0-0.1,0-0.1,0c-0.3,0-0.5,0.2-0.8,0.5
	c-0.2,0.3-0.4,0.6-0.5,1.1c-0.1,0.5-0.1,0.9-0.1,1.4c0,0,0,0,0,0.1c0.1,0.5,0.2,0.9,0.3,1.3c0.2,0.4,0.4,0.7,0.7,1
	c0,0,0.1,0.1,0.1,0.1c-0.3,0.2-0.4,0.3-0.7,0.5c-0.2,0.1-0.3,0.2-0.5,0.4c-0.5-0.4-0.8-1-1.1-1.7c-0.4-0.8-0.6-1.7-0.6-2.7v0
	c-0.1-1,0-1.8,0.3-2.7c0.3-0.9,0.6-1.5,1.2-2c0.5-0.5,1.1-0.8,1.7-0.8c0.1,0,0.1,0,0.1,0c0.6,0,1.1,0.2,1.6,0.6
	c0.6,0.5,1,1.1,1.4,1.9c0.4,0.8,0.6,1.7,0.6,2.7v0C46.1,21.6,46.1,22,46.1,22.4z"/>
</svg>
