<?xml version="1.0" encoding="utf-8"?>
<!-- Generator: Adobe Illustrator 21.0.0, SVG Export Plug-In . SVG Version: 6.00 Build 0)  -->
<!DOCTYPE svg PUBLIC "-//W3C//DTD SVG 1.1//EN" "http://www.w3.org/Graphics/SVG/1.1/DTD/svg11.dtd">
<svg version="1.1" id="Mac_OS" xmlns="http://www.w3.org/2000/svg" xmlns:xlink="http://www.w3.org/1999/xlink" x="0px" y="0px"
	 viewBox="0 0 100 100" enable-background="new 0 0 100 100" xml:space="preserve">
<g id="_228026664">
	<g id="g4158">
		<path id="_226915152" fill="#8294C9" d="M5.8,13.4h50.8C41.2,41.4,43,54.4,43.1,54.3h16.6c-0.4,1.5-5,18.7-0.5,31.6H5.8V13.4
			L5.8,13.4z"/>
		<path id="_137919136" fill="#CAD4EC" d="M94.9,85.9H58.1c-4.5-11.5,0.1-30.1,0.5-31.6H42c-0.1,0.1-0.6-15.7,13.5-40.9h39.4V85.9
			L94.9,85.9z"/>
		<polygon id="_226601952" fill="#010101" points="65.9,34.6 65.9,24.2 70.5,24.2 70.5,34.6 		"/>
		<polygon id="_22274024" fill="#33448F" points="27.5,34.6 27.5,24.2 32.2,24.2 32.2,34.6 		"/>
		<path id="_228133648" fill="#33448F" d="M54.5,68.3C40,68.9,29.9,66.4,21.3,62l-2.1,3.6c8.6,5,22.3,7.4,35.2,6.7V68.3z"/>
		<path id="_140071192" fill="#010101" d="M60.7,98.3c-7-13.9-8-30-5.2-41.4H40c0.4-24.4,12.8-44.6,22.3-55.9l3.1,2.6
			c-7.8,9.7-19.3,26.7-21.2,49.2h16.6c-1.3,4.7-2.3,9.8-2.6,15c9.5-0.9,14.5-2.1,21.2-5.7l2.6,3.6c-6.1,3.4-14.7,5.6-23.8,6.2
			c0.4,8.2,2.3,16.2,6.2,24.3L60.7,98.3L60.7,98.3z"/>
	</g>
</g>
</svg>
