<?xml version="1.0" encoding="utf-8"?>
<!-- Generator: Adobe Illustrator 21.0.0, SVG Export Plug-In . SVG Version: 6.00 Build 0)  -->
<!DOCTYPE svg PUBLIC "-//W3C//DTD SVG 1.1//EN" "http://www.w3.org/Graphics/SVG/1.1/DTD/svg11.dtd">
<svg version="1.1" id="Layer_15" xmlns="http://www.w3.org/2000/svg" xmlns:xlink="http://www.w3.org/1999/xlink" x="0px" y="0px"
	 viewBox="0 0 100 100" enable-background="new 0 0 100 100" xml:space="preserve">
<path fill="#010101" d="M87.2,22.6H14.4c-6.6,0-12,5.4-12,12v30.8c0,6.6,5.4,12,12,12h72.8c6.6,0,12-5.4,12-12V34.6
	C99.2,28,93.8,22.6,87.2,22.6z M83.8,40c1.8,0,3.2,1.5,3.2,3.2s-1.5,3.2-3.2,3.2c-1.8,0-3.2-1.5-3.2-3.2S82,40,83.8,40z M26.2,52.9
	h-6.1V59H14v-6.1H7.8v-6.1h6.1v-6.1H20v6.1h6.1L26.2,52.9L26.2,52.9z M69.5,65.6H32V34.4h37.5V65.6z M77.8,53.5
	c-1.8,0-3.2-1.5-3.2-3.2S76,47,77.8,47s3.2,1.5,3.2,3.2S79.6,53.5,77.8,53.5z M84.8,59.5c-1.8,0-3.2-1.5-3.2-3.2S83,53,84.8,53
	s3.2,1.5,3.2,3.2S86.6,59.5,84.8,59.5z M90.8,52.5c-1.8,0-3.2-1.5-3.2-3.2S89,46,90.8,46s3.2,1.5,3.2,3.2S92.6,52.5,90.8,52.5z"/>
</svg>
