<?xml version="1.0" encoding="utf-8"?>
<!-- Generator: Adobe Illustrator 21.0.0, SVG Export Plug-In . SVG Version: 6.00 Build 0)  -->
<!DOCTYPE svg PUBLIC "-//W3C//DTD SVG 1.1//EN" "http://www.w3.org/Graphics/SVG/1.1/DTD/svg11.dtd">
<svg version="1.1" xmlns="http://www.w3.org/2000/svg" xmlns:xlink="http://www.w3.org/1999/xlink" x="0px" y="0px"
	 viewBox="0 0 100 100" enable-background="new 0 0 100 100" xml:space="preserve">
<g id="Windows" display="none">
	<g display="inline">
		<path fill="#2DABE2" d="M5.2,17.8l36.6-5l0,35.3L5.2,48.3L5.2,17.8z M41.8,52.2l0,35.3l-36.6-5l0-30.6L41.8,52.2z M46.2,12.1
			l48.5-7.1v42.6l-48.5,0.4V12.1z M94.8,52.5l0,42.4l-48.5-6.9l-0.1-35.6L94.8,52.5z"/>
	</g>
</g>
<g id="Windows_Phone" display="none">
	<g display="inline">
		<g>
			<path fill="#672A7A" d="M5.2,17.8l36.6-5l0,35.3L5.2,48.3L5.2,17.8z M41.8,52.2l0,35.3l-36.6-5l0-30.6L41.8,52.2z M46.2,12.1
				l48.5-7.1v42.6l-48.5,0.4V12.1z M94.8,52.5l0,42.4l-48.5-6.9l-0.1-35.6L94.8,52.5z"/>
		</g>
	</g>
</g>
<g id="Android" display="none">
	<g display="inline">
		<path fill="#A4C639" d="M15.7,33.4c-3.3,0-6,2.7-6,6v24.9c0,3.3,2.7,6,6,6s6-2.7,6-6V39.4C21.7,36.1,19,33.4,15.7,33.4L15.7,33.4z
			 M85.6,33.4c-3.3,0-6,2.7-6,6v24.9c0,3.3,2.7,6,6,6s6-2.7,6-6V39.4C91.5,36.1,88.9,33.4,85.6,33.4L85.6,33.4z"/>
		<path fill="#A4C639" d="M40.6,61.9c-3.3,0-6,2.7-6,6v24.9c0,3.3,2.7,6,6,6s6-2.7,6-6V67.9C46.6,64.5,44,61.9,40.6,61.9L40.6,61.9z
			 M60.6,61.9c-3.3,0-6,2.7-6,6v24.9c0,3.3,2.7,6,6,6c3.3,0,6-2.7,6-6V67.9C66.6,64.5,63.9,61.9,60.6,61.9L60.6,61.9z"/>
		<path fill="#A4C639" d="M34,2c-0.1,0-0.3,0-0.4,0.1c-0.4,0.2-0.6,0.7-0.3,1.2l4.2,7.6c-8.1,4.2-13.6,12.3-13.6,21.5h53.4
			c0-9.2-5.5-17.2-13.6-21.5l4.2-7.6c0.2-0.4,0.1-0.9-0.3-1.2C67.5,2,67.3,2,67.2,2c-0.3,0-0.6,0.1-0.8,0.4l-4.3,7.7
			c-3.5-1.6-7.4-2.4-11.6-2.4s-8.1,0.9-11.6,2.4l-4.3-7.7C34.6,2.1,34.3,2,34,2L34,2z M40.8,20.3c0,1.5-1.2,2.8-2.8,2.8
			s-2.8-1.2-2.8-2.8c0-1.5,1.2-2.8,2.8-2.8S40.8,18.8,40.8,20.3z M65.8,20.3c0,1.5-1.2,2.8-2.8,2.8c-1.5,0-2.8-1.2-2.8-2.8
			c0-1.5,1.2-2.8,2.8-2.8C64.6,17.6,65.8,18.8,65.8,20.3z M23.9,34.4v38.7c0,3.6,2.9,6.5,6.5,6.5h40.5c3.6,0,6.5-2.9,6.5-6.5V34.4
			H23.9L23.9,34.4z"/>
	</g>
</g>
<g id="iOS" display="none">
	<g display="inline">
		<path fill="#010101" d="M5.6,24c0,1.1-0.6,1.9-1.8,1.9c-0.9,0-1.6-0.8-1.6-1.9c0-1,0.7-1.9,1.7-1.9C5,22.2,5.6,23,5.6,24L5.6,24
			L5.6,24z M3.1,79.8V37.1h1.7v42.7H3.1L3.1,79.8z"/>
		<path fill="#010101" d="M63,49.4C63,70.9,51,80.7,38,80.7c-13.4,0-24.2-10.6-24.2-30.4C13.8,29.9,25,19,38.9,19
			C52.5,19,63,29.8,63,49.4L63,49.4L63,49.4z M15.6,49.8c0,16.3,7.9,29,22.5,29c14.7,0,23.1-13.1,23.1-29.2
			c0-14.9-6.7-28.6-22.1-28.6S15.6,33.9,15.6,49.8L15.6,49.8L15.6,49.8z"/>
		<path fill="#010101" d="M69.4,75.2c2.9,2,8,3.8,12.4,3.8c8.3,0,15.6-5.8,15.6-14.3c0-7.9-4.9-12-13.2-15.6
			C76.7,46,70,42.6,70,34.1c0-8.8,6.9-15,16.4-15c5.1,0,8.9,1.4,10.7,2.7l-0.7,1.5c-1.5-1.1-5.6-2.4-10-2.4
			c-10,0-14.3,7.5-14.3,13.1c0,7.6,5.9,10.2,13.6,13.9c8.9,4.4,13.6,8.2,13.6,16.5c0,9-6.4,16.3-17.8,16.3c-4.7,0-10.1-1.6-12.8-3.6
			L69.4,75.2L69.4,75.2z"/>
	</g>
</g>
<g id="OSX" display="none">
	
		<linearGradient id="SVGID_1_" gradientUnits="userSpaceOnUse" x1="0.8269" y1="101.2973" x2="0.8269" y2="100.6949" gradientTransform="matrix(117.6623 0 0 -157.5793 -47.4934 15965.7148)">
		<stop  offset="0" style="stop-color:#5AAFE2"/>
		<stop  offset="1" style="stop-color:#F0512B"/>
	</linearGradient>
	<path display="inline" fill="url(#SVGID_1_)" d="M85.3,3.4h-4.7L49.9,47.6h-0.3L19.1,3.4h-4.8l33,47.6L14.5,98.3h4.7l30.4-44.1h0.3
		l30.4,44.1H85L52.2,51L85.3,3.4L85.3,3.4z"/>
</g>
<g id="Mac_OS" display="none">
	<g id="_228026664" display="inline">
		<g id="g4158">
			<path id="_226915152" fill="#8294C9" d="M5.8,13.4h50.8C41.2,41.4,43,54.4,43.1,54.3h16.6c-0.4,1.5-5,18.7-0.5,31.6H5.8V13.4
				L5.8,13.4z"/>
			<path id="_137919136" fill="#CAD4EC" d="M94.9,85.9H58.1c-4.5-11.5,0.1-30.1,0.5-31.6H42c-0.1,0.1-0.6-15.7,13.5-40.9h39.4V85.9
				L94.9,85.9z"/>
			<polygon id="_226601952" fill="#010101" points="65.9,34.6 65.9,24.2 70.5,24.2 70.5,34.6 			"/>
			<polygon id="_22274024" fill="#33448F" points="27.5,34.6 27.5,24.2 32.2,24.2 32.2,34.6 			"/>
			<path id="_228133648" fill="#33448F" d="M54.5,68.3C40,68.9,29.9,66.4,21.3,62l-2.1,3.6c8.6,5,22.3,7.4,35.2,6.7V68.3z"/>
			<path id="_140071192" fill="#010101" d="M60.7,98.3c-7-13.9-8-30-5.2-41.4H40c0.4-24.4,12.8-44.6,22.3-55.9l3.1,2.6
				c-7.8,9.7-19.3,26.7-21.2,49.2h16.6c-1.3,4.7-2.3,9.8-2.6,15c9.5-0.9,14.5-2.1,21.2-5.7l2.6,3.6c-6.1,3.4-14.7,5.6-23.8,6.2
				c0.4,8.2,2.3,16.2,6.2,24.3L60.7,98.3L60.7,98.3z"/>
		</g>
	</g>
</g>
<g id="Blackberry" display="none">
	<g id="g27" display="inline">
		<path id="path29" inkscape:connector-curvature="0" fill="#010101" d="M32.4,24.5c0-3.2-2-7.3-10.2-7.3c-3.4,0-12.7,0-12.7,0
			L5.9,33.9c0,0,6.9,0,13.2,0C29.5,33.9,32.4,29.1,32.4,24.5z"/>
		<path id="path31" inkscape:connector-curvature="0" fill="#010101" d="M66.6,24.5c0-3.2-2-7.3-10.2-7.3c-3.4,0-12.7,0-12.7,0
			l-3.6,16.7c0,0,6.9,0,13.2,0C63.7,33.9,66.6,29.1,66.6,24.5z"/>
		<path id="path33" inkscape:connector-curvature="0" fill="#010101" d="M27.9,49.6c0-3.2-2-7.3-10.2-7.3c-3.4,0-12.7,0-12.7,0
			L1.3,59.1c0,0,6.9,0,13.2,0C24.9,59.1,27.9,54.2,27.9,49.6z"/>
		<path id="path35" inkscape:connector-curvature="0" fill="#010101" d="M62,49.6c0-3.2-2-7.3-10.2-7.3c-3.4,0-12.7,0-12.7,0
			l-3.6,16.7c0,0,6.9,0,13.2,0C59.1,59.1,62,54.2,62,49.6z"/>
		<path id="path37" inkscape:connector-curvature="0" fill="#010101" d="M97.8,39.4c0-3.2-2-7.3-10.2-7.3c-3.4,0-12.7,0-12.7,0
			l-3.6,16.7c0,0,6.9,0,13.2,0C94.9,48.9,97.8,44,97.8,39.4z"/>
		<path id="path39" inkscape:connector-curvature="0" fill="#010101" d="M92.9,65.6c0-3.2-2-7.3-10.2-7.3c-3.4,0-12.7,0-12.7,0
			L66.4,75c0,0,6.9,0,13.2,0C90,75,92.9,70.1,92.9,65.6z"/>
		<path id="path41" inkscape:connector-curvature="0" fill="#010101" d="M57.1,75.8c0-3.2-2-7.3-10.2-7.3c-3.4,0-12.7,0-12.7,0
			l-3.6,16.7c0,0,6.9,0,13.2,0C54.2,85.2,57.1,80.3,57.1,75.8z"/>
	</g>
</g>
<g id="Linux" display="none">
	<path display="inline" fill="#010101" d="M87.8,78.6C87.8,78.6,87.8,78.6,87.8,78.6c-0.7-0.8-1-2.2-1.4-3.8c-0.4-1.5-0.7-3.2-2-4.3
		c0,0,0,0,0,0c-0.3-0.2-0.5-0.4-0.8-0.6c-0.3-0.2-0.5-0.3-0.8-0.4c1.8-5.2,1.1-10.4-0.7-15.1c-2.2-5.8-6-10.8-8.9-14.2
		c-3.3-4.1-6.4-8-6.4-13.7c0.1-8.8,1-25.1-14.5-25.1c-0.6,0-1.3,0-2,0.1C33.1,3,37.7,21.2,37.5,27.3c-0.3,4.5-1.2,8-4.3,12.3
		c-3.6,4.3-8.7,11.2-11.1,18.5c-1.1,3.4-1.7,6.9-1.2,10.2c-0.2,0.1-0.3,0.3-0.4,0.4c-1.1,1.1-1.8,2.5-2.7,3.4
		c-0.8,0.8-2,1.1-3.3,1.6c-1.3,0.5-2.7,1.1-3.5,2.8c0,0,0,0,0,0c0,0,0,0,0,0c-0.4,0.7-0.5,1.6-0.5,2.4c0,0.8,0.1,1.5,0.2,2.3
		c0.2,1.5,0.5,3,0.2,4c-1,2.8-1.1,4.7-0.4,6.1c0.7,1.4,2.2,2,3.8,2.3c3.3,0.7,7.8,0.5,11.3,2.4l0.3-0.6l-0.3,0.6
		c3.8,2,7.6,2.7,10.7,2c2.2-0.5,4-1.8,4.9-3.9c2.4,0,5-1,9.2-1.3c2.9-0.2,6.4,1,10.5,0.8c0.1,0.4,0.3,0.9,0.5,1.3c0,0,0,0,0,0
		c1.6,3.2,4.5,4.6,7.7,4.4c3.2-0.2,6.5-2.1,9.2-5.3l-0.5-0.4l0.5,0.4c2.6-3.1,6.9-4.4,9.7-6.1c1.4-0.9,2.6-1.9,2.7-3.5
		C90.8,82.7,89.9,81,87.8,78.6z"/>
	<path display="inline" fill="#D6A529" d="M89.4,84.2c-0.1,1-0.8,1.7-2,2.5c-2.6,1.6-7.1,2.9-10,6.4c-2.5,3-5.6,4.7-8.3,4.9
		s-5.1-0.9-6.4-3.7l0,0l0,0c-0.9-1.6-0.5-4.2,0.2-6.9c0.7-2.7,1.8-5.5,1.9-7.8v0c0.1-2.9,0.3-5.4,0.8-7.4c0.5-2,1.3-3.3,2.6-4
		c0.1,0,0.1-0.1,0.2-0.1c0.2,2.5,1.4,5.1,3.6,5.6c2.4,0.6,5.9-1.4,7.3-3.1c0.3,0,0.6,0,0.9,0c1.3,0,2.4,0,3.5,1l0,0l0,0
		c0.8,0.7,1.2,2.1,1.6,3.6c0.3,1.5,0.6,3.2,1.7,4.3l0,0l0,0C88.8,81.7,89.4,83.2,89.4,84.2z"/>
	<path display="inline" fill="#D6A529" d="M40.5,91.3L40.5,91.3L40.5,91.3c-0.2,3.1-2,4.7-4.6,5.3c-2.6,0.6-6.2,0-9.8-1.9
		c0,0,0,0,0,0c-4-2.1-8.7-1.9-11.7-2.5c-1.5-0.3-2.5-0.8-2.9-1.7c-0.5-0.9-0.5-2.4,0.5-5l0,0l0,0c0.5-1.5,0.1-3.1-0.1-4.6
		c-0.2-1.5-0.3-2.9,0.2-3.8l0,0c0.7-1.3,1.6-1.7,2.8-2.1c1.2-0.4,2.6-0.8,3.7-1.9l0,0l0,0c1-1.1,1.8-2.5,2.7-3.4
		c0.8-0.8,1.5-1.4,2.7-1.4c0,0,0,0,0,0c0.2,0,0.4,0,0.6,0.1c1.5,0.2,2.9,1.3,4.2,3.1l3.7,6.8l0,0l0,0c1,2.1,3.1,4.4,4.9,6.7
		C39.3,87.2,40.7,89.5,40.5,91.3z"/>
	<path display="inline" fill="#D6A529" d="M59.1,27.9c-0.3-0.6-0.9-1.1-2-1.6l0,0l0,0c-2.2-0.9-3.1-1-4.3-1.8
		c-2-1.3-3.6-1.7-4.9-1.7c-0.7,0-1.3,0.1-1.9,0.3c-1.6,0.6-2.7,1.7-3.4,2.4l0,0c0,0,0,0,0,0c-0.1,0.1-0.3,0.2-0.7,0.6
		c-0.4,0.3-1.1,0.8-2,1.5c-0.8,0.6-1.1,1.4-0.8,2.3c0.3,0.9,1.2,2,2.8,2.9l0,0l0,0c1,0.6,1.7,1.4,2.5,2c0.4,0.3,0.8,0.6,1.3,0.8
		c0.5,0.2,1.1,0.4,1.8,0.4c1.7,0.1,3-0.4,4.1-1.1c1.1-0.6,2.1-1.4,3.2-1.8l0,0l0,0c2.2-0.7,3.8-2.1,4.3-3.4
		C59.4,29.1,59.4,28.5,59.1,27.9z"/>
	<path display="inline" fill="#010101" d="M57.4,29.2c-0.3,0-0.9,0.3-1.6,0.6c-0.7,0.4-1.5,0.9-2.4,1.4c-1.8,1-3.9,2.1-6.1,2.1
		c-2.2,0-4-1-5.2-2c-0.6-0.5-1.1-1-1.5-1.4c-0.2-0.2-0.4-0.3-0.5-0.4c-0.1-0.1-0.1-0.1-0.1-0.1c0,0,0,0,0-0.2l0-0.6
		c0.3,0,0.4,0.1,0.6,0.2c0.2,0.1,0.3,0.3,0.5,0.5c0.4,0.4,0.9,0.8,1.5,1.3c1.2,0.9,2.8,1.9,4.8,1.9c2,0,4-1,5.7-2
		c0.9-0.5,1.7-1,2.4-1.4c0.7-0.4,1.3-0.7,1.9-0.7L57.4,29.2z"/>
	<path display="inline" fill="#FFFFFF" d="M80.7,69.3c-0.2,0-0.5,0-0.7,0c0,0,0,0-0.1,0c0.6-1.9-0.7-3.4-4.3-5
		c-3.7-1.6-6.7-1.5-7.2,1.9c0,0.2-0.1,0.4-0.1,0.5c-0.3,0.1-0.6,0.2-0.8,0.4c-1.8,1-2.7,2.7-3.2,4.8c-0.5,2.1-0.7,4.7-0.8,7.6
		c0,0,0,0,0,0c-0.1,1.5-0.7,3.4-1.3,5.5c-6.1,4.4-14.6,6.3-21.9,1.3c-0.5-0.8-1.1-1.5-1.6-2.3c-0.4-0.5-0.7-1-1.1-1.4
		c0.7,0,1.4-0.1,1.9-0.4c0.6-0.3,1.1-0.7,1.3-1.3c0.4-1.2,0-2.9-1.4-4.8c-1.4-1.9-3.8-4.1-7.3-6.2c0,0,0,0,0,0
		c-2.6-1.6-4-3.6-4.7-5.7c-0.7-2.1-0.6-4.4-0.1-6.7c1-4.4,3.6-8.6,5.2-11.3c0.4-0.3,0.2,0.6-1.7,4c-1.6,3.1-4.7,10.2-0.5,15.7
		c0.1-3.9,1.1-8,2.6-11.7c2.3-5.2,7.1-14.3,7.5-21.5c0.2,0.1,0.9,0.6,1.2,0.8c0,0,0,0,0,0c0.9,0.5,1.5,1.3,2.4,2
		c0.9,0.7,1.9,1.3,3.6,1.4c0.2,0,0.3,0,0.5,0c1.7,0,3-0.5,4.1-1.2c1.2-0.7,2.1-1.4,3-1.7c0,0,0,0,0,0c1.9-0.6,3.4-1.6,4.3-2.9
		c1.5,5.8,4.9,14.2,7.1,18.3c1.2,2.2,3.5,6.8,4.5,12.3c0.6,0,1.3,0.1,2.1,0.3c2.6-6.8-2.2-14.2-4.5-16.2c-0.9-0.9-0.9-1.3-0.5-1.2
		c2.4,2.1,5.6,6.4,6.7,11.3c0.5,2.2,0.6,4.5,0.1,6.8c0.3,0.1,0.6,0.2,0.8,0.4C79.9,65,81.5,66.8,80.7,69.3z"/>
	<path display="inline" fill="#FFFFFF" d="M59.3,21.2c0,1.1-0.2,2.1-0.6,3.1c-0.2,0.6-0.5,1-0.9,1.5c-0.1-0.1-0.2-0.1-0.4-0.2
		c-0.4-0.2-0.8-0.3-1.2-0.5c-0.3-0.1-0.6-0.2-0.9-0.3c0.2-0.2,0.4-0.5,0.5-0.9c0.2-0.5,0.3-1.1,0.4-1.7c0,0,0,0,0-0.1
		c0-0.6-0.1-1.1-0.2-1.6c-0.2-0.6-0.4-1-0.8-1.3c-0.3-0.3-0.7-0.5-1.1-0.5c0,0,0,0-0.1,0c-0.4,0-0.7,0.1-1.1,0.4
		c-0.4,0.3-0.6,0.7-0.9,1.2c-0.2,0.5-0.3,1.1-0.4,1.7c0,0,0,0,0,0.1c0,0.3,0,0.7,0.1,1c-0.8-0.4-1.5-0.7-2.2-0.8
		c0-0.3-0.1-0.6-0.1-0.9v-0.1c0-1.1,0.2-2.1,0.6-3.1c0.4-1,1-1.7,1.8-2.3c0.8-0.6,1.5-0.9,2.4-0.9h0c0.9,0,1.6,0.3,2.4,0.8
		c0.8,0.6,1.3,1.3,1.8,2.3C59.1,19.1,59.3,20,59.3,21.2C59.3,21.2,59.3,21.2,59.3,21.2z"/>
	<path display="inline" fill="#FFFFFF" d="M46.1,22.4c-0.1,0-0.2,0.1-0.3,0.1c-0.6,0.2-1.2,0.5-1.7,0.8c0-0.3,0.1-0.7,0-1
		c0,0,0,0,0-0.1c-0.1-0.5-0.2-0.9-0.3-1.3c-0.2-0.4-0.4-0.8-0.7-1c-0.3-0.2-0.5-0.3-0.7-0.3c0,0-0.1,0-0.1,0c-0.3,0-0.5,0.2-0.8,0.5
		c-0.2,0.3-0.4,0.6-0.5,1.1c-0.1,0.5-0.1,0.9-0.1,1.4c0,0,0,0,0,0.1c0.1,0.5,0.2,0.9,0.3,1.3c0.2,0.4,0.4,0.7,0.7,1
		c0,0,0.1,0.1,0.1,0.1c-0.3,0.2-0.4,0.3-0.7,0.5c-0.2,0.1-0.3,0.2-0.5,0.4c-0.5-0.4-0.8-1-1.1-1.7c-0.4-0.8-0.6-1.7-0.6-2.7v0
		c-0.1-1,0-1.8,0.3-2.7c0.3-0.9,0.6-1.5,1.2-2c0.5-0.5,1.1-0.8,1.7-0.8c0.1,0,0.1,0,0.1,0c0.6,0,1.1,0.2,1.6,0.6
		c0.6,0.5,1,1.1,1.4,1.9c0.4,0.8,0.6,1.7,0.6,2.7v0C46.1,21.6,46.1,22,46.1,22.4z"/>
</g>
<g id="Chrome" display="none">
	<g display="inline">
		<defs>
			<circle id="SVGID_2_" cx="49.6" cy="49.6" r="46.7"/>
		</defs>
		<clipPath id="SVGID_3_">
			<use xlink:href="#SVGID_2_"  overflow="visible"/>
		</clipPath>
		<g clip-path="url(#SVGID_3_)">
			<path fill="#DC4537" d="M10.4,2.9v57.3h20.9l18.3-31.8h46.7V2.9H10.4z"/>
			
				<linearGradient id="SVGID_4_" gradientUnits="userSpaceOnUse" x1="14.2858" y1="63.5113" x2="42.1246" y2="79.7745" gradientTransform="matrix(1 0 0 -1 0 102)">
				<stop  offset="0" style="stop-color:#A52A22;stop-opacity:0.6"/>
				<stop  offset="0.66" style="stop-color:#A52A22;stop-opacity:0"/>
			</linearGradient>
			<path fill="url(#SVGID_4_)" d="M10.4,2.9v57.3h20.9l18.3-31.8h46.7V2.9H10.4z"/>
		</g>
	</g>
	<g display="inline">
		<defs>
			<circle id="SVGID_5_" cx="49.6" cy="49.6" r="46.7"/>
		</defs>
		<clipPath id="SVGID_6_">
			<use xlink:href="#SVGID_5_"  overflow="visible"/>
		</clipPath>
		<path clip-path="url(#SVGID_6_)" fill="#3E2823" fill-opacity="0.15" d="M31.8,60.1L10.7,23.8l-0.3,0.5l20.7,36L31.8,60.1z"/>
	</g>
	<g display="inline">
		<defs>
			<circle id="SVGID_7_" cx="49.6" cy="49.6" r="46.7"/>
		</defs>
		<clipPath id="SVGID_8_">
			<use xlink:href="#SVGID_7_"  overflow="visible"/>
		</clipPath>
		<g clip-path="url(#SVGID_8_)">
			<path fill="#0F9D58" d="M3,96.3h44.4l20.7-20.7V60.2H31.2L3,11.7V96.3z"/>
			
				<linearGradient id="SVGID_9_" gradientUnits="userSpaceOnUse" x1="57.5128" y1="16.0632" x2="26.5826" y2="34.1823" gradientTransform="matrix(1 0 0 -1 0 102)">
				<stop  offset="0" style="stop-color:#0D562B;stop-opacity:0.4"/>
				<stop  offset="0.33" style="stop-color:#0D562B;stop-opacity:0"/>
			</linearGradient>
			<path fill="url(#SVGID_9_)" d="M3,96.3h44.4l20.7-20.7V60.2H31.2L3,11.7V96.3z"/>
		</g>
	</g>
	<g display="inline">
		<defs>
			<circle id="SVGID_10_" cx="49.6" cy="49.6" r="46.7"/>
		</defs>
		<clipPath id="SVGID_11_">
			<use xlink:href="#SVGID_10_"  overflow="visible"/>
		</clipPath>
		<path clip-path="url(#SVGID_11_)" fill="#273339" fill-opacity="0.15" d="M67.6,60.9l-0.4-0.2L46.8,96.2h0.5l20.3-35.5L67.6,60.9z
			"/>
	</g>
	<g display="inline">
		<defs>
			<circle id="SVGID_12_" cx="49.6" cy="49.6" r="46.7"/>
		</defs>
		<clipPath id="SVGID_13_">
			<use xlink:href="#SVGID_12_"  overflow="visible"/>
		</clipPath>
		<g clip-path="url(#SVGID_13_)">
			<g>
				<defs>
					<polygon id="SVGID_14_" points="3,96.3 47.4,96.3 68.1,75.6 68.1,60.2 31.2,60.2 3,11.7 					"/>
				</defs>
				<clipPath id="SVGID_15_">
					<use xlink:href="#SVGID_14_"  overflow="visible"/>
				</clipPath>
				<g clip-path="url(#SVGID_15_)">
					<path fill="#FFCE41" d="M49.6,28.4L68,60.2L47.5,96.3h48.8V28.4H49.6z"/>
					
						<linearGradient id="SVGID_16_" gradientUnits="userSpaceOnUse" x1="63.3984" y1="76.9017" x2="71.1879" y2="42.7898" gradientTransform="matrix(1 0 0 -1 0 102)">
						<stop  offset="0" style="stop-color:#E86324;stop-opacity:0.3"/>
						<stop  offset="0.66" style="stop-color:#E86324;stop-opacity:0"/>
					</linearGradient>
					<path fill="url(#SVGID_16_)" d="M49.6,28.4L68,60.2L47.5,96.3h48.8V28.4H49.6z"/>
				</g>
			</g>
			<g>
				<defs>
					<circle id="SVGID_17_" cx="49.6" cy="49.6" r="46.7"/>
				</defs>
				<clipPath id="SVGID_18_">
					<use xlink:href="#SVGID_17_"  overflow="visible"/>
				</clipPath>
				<g clip-path="url(#SVGID_18_)">
					<path fill="#FFCE41" d="M49.6,28.4L68,60.2L47.5,96.3h48.8V28.4H49.6z"/>
					
						<linearGradient id="SVGID_19_" gradientUnits="userSpaceOnUse" x1="63.3984" y1="76.9017" x2="71.1879" y2="42.7898" gradientTransform="matrix(1 0 0 -1 0 102)">
						<stop  offset="0" style="stop-color:#E86324;stop-opacity:0.3"/>
						<stop  offset="0.66" style="stop-color:#E86324;stop-opacity:0"/>
					</linearGradient>
					<path fill="url(#SVGID_19_)" d="M49.6,28.4L68,60.2L47.5,96.3h48.8V28.4H49.6z"/>
				</g>
			</g>
			<g>
				<defs>
					<circle id="SVGID_20_" cx="49.6" cy="49.6" r="46.7"/>
				</defs>
				<clipPath id="SVGID_21_">
					<use xlink:href="#SVGID_20_"  overflow="visible"/>
				</clipPath>
				<g clip-path="url(#SVGID_21_)">
					<g>
						<defs>
							<polygon id="SVGID_22_" points="49.6,28.4 68,60.2 47.5,96.3 96.3,96.3 96.3,28.4 							"/>
						</defs>
						<clipPath id="SVGID_23_">
							<use xlink:href="#SVGID_22_"  overflow="visible"/>
						</clipPath>
						<g clip-path="url(#SVGID_23_)">
							<path fill="#DC4537" d="M10.4,2.9v57.3h20.9l18.3-31.8h46.7V2.9H10.4z"/>
							
								<linearGradient id="SVGID_24_" gradientUnits="userSpaceOnUse" x1="14.2858" y1="63.5113" x2="42.1246" y2="79.7745" gradientTransform="matrix(1 0 0 -1 0 102)">
								<stop  offset="0" style="stop-color:#A52A22;stop-opacity:0.6"/>
								<stop  offset="0.66" style="stop-color:#A52A22;stop-opacity:0"/>
							</linearGradient>
							<path fill="url(#SVGID_24_)" d="M10.4,2.9v57.3h20.9l18.3-31.8h46.7V2.9H10.4z"/>
						</g>
					</g>
					<g>
						<defs>
							<circle id="SVGID_25_" cx="49.6" cy="49.6" r="46.7"/>
						</defs>
						<clipPath id="SVGID_26_">
							<use xlink:href="#SVGID_25_"  overflow="visible"/>
						</clipPath>
						
							<radialGradient id="SVGID_27_" cx="623.6049" cy="73.628" r="44.5846" gradientTransform="matrix(1 0 0 -1 -576 102)" gradientUnits="userSpaceOnUse">
							<stop  offset="0" style="stop-color:#3E2823;stop-opacity:0.2"/>
							<stop  offset="1" style="stop-color:#3E2823;stop-opacity:0"/>
						</radialGradient>
						<path clip-path="url(#SVGID_26_)" fill="url(#SVGID_27_)" d="M49.6,28.4v11.1l41.6-11.1H49.6z"/>
					</g>
					<g>
						<defs>
							<circle id="SVGID_28_" cx="49.6" cy="49.6" r="46.7"/>
						</defs>
						<clipPath id="SVGID_29_">
							<use xlink:href="#SVGID_28_"  overflow="visible"/>
						</clipPath>
						<g clip-path="url(#SVGID_29_)">
							<g>
								<defs>
									<polygon id="SVGID_30_" points="10.4,2.9 10.4,24.3 31.3,60.2 49.6,28.4 96.3,28.4 96.3,2.9 									"/>
								</defs>
								<clipPath id="SVGID_31_">
									<use xlink:href="#SVGID_30_"  overflow="visible"/>
								</clipPath>
								<g clip-path="url(#SVGID_31_)">
									<path fill="#0F9D58" d="M3,96.3h44.4l20.7-20.7V60.2H31.2L3,11.7V96.3z"/>
									
										<linearGradient id="SVGID_32_" gradientUnits="userSpaceOnUse" x1="57.5128" y1="16.0632" x2="26.5826" y2="34.1823" gradientTransform="matrix(1 0 0 -1 0 102)">
										<stop  offset="0" style="stop-color:#0D562B;stop-opacity:0.4"/>
										<stop  offset="0.33" style="stop-color:#0D562B;stop-opacity:0"/>
									</linearGradient>
									<path fill="url(#SVGID_32_)" d="M3,96.3h44.4l20.7-20.7V60.2H31.2L3,11.7V96.3z"/>
								</g>
							</g>
							<g>
								<defs>
									<circle id="SVGID_33_" cx="49.6" cy="49.6" r="46.7"/>
								</defs>
								<clipPath id="SVGID_34_">
									<use xlink:href="#SVGID_33_"  overflow="visible"/>
								</clipPath>
								
									<radialGradient id="SVGID_35_" cx="586.3274" cy="77.5678" r="41.3818" gradientTransform="matrix(1 0 0 -1 -576 102)" gradientUnits="userSpaceOnUse">
									<stop  offset="0" style="stop-color:#3E2823;stop-opacity:0.2"/>
									<stop  offset="1" style="stop-color:#3E2823;stop-opacity:0"/>
								</radialGradient>
								<path clip-path="url(#SVGID_34_)" fill="url(#SVGID_35_)" d="M10.4,24.4l30.3,30.3l-9.4,5.5L10.4,24.4z"/>
							</g>
							<g>
								<defs>
									<circle id="SVGID_36_" cx="49.6" cy="49.6" r="46.7"/>
								</defs>
								<clipPath id="SVGID_37_">
									<use xlink:href="#SVGID_36_"  overflow="visible"/>
								</clipPath>
								
									<radialGradient id="SVGID_38_" cx="625.5457" cy="52.3167" r="46.5943" gradientTransform="matrix(1 0 0 -1 -576 102)" gradientUnits="userSpaceOnUse">
									<stop  offset="0" style="stop-color:#273339;stop-opacity:0.2"/>
									<stop  offset="1" style="stop-color:#273339;stop-opacity:0"/>
								</radialGradient>
								<path clip-path="url(#SVGID_37_)" fill="url(#SVGID_38_)" d="M47.4,96.3l11.1-41.5l9.4,5.5L47.4,96.3z"/>
							</g>
							<g>
								<defs>
									<circle id="SVGID_39_" cx="49.6" cy="49.6" r="46.7"/>
								</defs>
								<clipPath id="SVGID_40_">
									<use xlink:href="#SVGID_39_"  overflow="visible"/>
								</clipPath>
								<g clip-path="url(#SVGID_40_)">
									<circle fill="#F2F2F2" cx="49.6" cy="49.6" r="21.2"/>
									<circle fill="#557EBF" cx="49.6" cy="49.6" r="17"/>
								</g>
							</g>
							<g>
								<defs>
									<circle id="SVGID_41_" cx="49.6" cy="49.6" r="46.7"/>
								</defs>
								<clipPath id="SVGID_42_">
									<use xlink:href="#SVGID_41_"  overflow="visible"/>
								</clipPath>
								<g clip-path="url(#SVGID_42_)">
									<path fill="#3E2823" fill-opacity="0.2" d="M49.6,27.9c-11.7,0-21.2,9.5-21.2,21.2v0.5c0-11.7,9.5-21.2,21.2-21.2h46.7
										v-0.5H49.6z"/>
									<path fill="#FFFFFF" fill-opacity="0.1" d="M68,60.2c-3.7,6.4-10.5,10.6-18.3,10.6s-14.7-4.2-18.3-10.6L3,11.7v0.5
										l28.3,48.5c3.7,6.4,10.5,10.6,18.3,10.6S64.3,67.1,68,60.7V60.2z"/>
									<path opacity="0.1" fill="#3E2823" enable-background="new    " d="M50.2,28.4h-0.3c11.7,0.2,20.9,9.5,20.9,21.2
										s-9.3,21.1-20.9,21.2h0.3c11.7,0,21.2-9.5,21.2-21.2S61.8,28.4,50.2,28.4z"/>
									<path fill="#FFFFFF" fill-opacity="0.2" d="M68.2,60.9c1.8-3.1,2.9-6.7,2.9-10.6c0-2.1-0.4-4.3-1.1-6.4
										c0.5,1.8,0.8,3.7,0.8,5.7c0,3.9-1.1,7.4-2.9,10.6L47.5,96.3H48L68.3,61L68.2,60.9z"/>
								</g>
							</g>
							<g>
								<defs>
									<circle id="SVGID_43_" cx="49.6" cy="49.6" r="46.7"/>
								</defs>
								<clipPath id="SVGID_44_">
									<use xlink:href="#SVGID_43_"  overflow="visible"/>
								</clipPath>
								<g clip-path="url(#SVGID_44_)">
									<path fill="#FFFFFF" fill-opacity="0.2" d="M49.6,3.5c25.7,0,46.5,20.7,46.7,46.4v-0.3c0-25.8-20.9-46.7-46.7-46.7
										S3,23.8,3,49.6v0.3C3.1,24.2,24,3.5,49.6,3.5z"/>
									<path fill="#3E2823" fill-opacity="0.15" d="M49.6,95.7c25.7,0,46.5-20.7,46.7-46.4v0.3c0,25.8-20.9,46.7-46.7,46.7
										S3,75.4,3,49.6v-0.3C3.1,75.1,24,95.7,49.6,95.7z"/>
								</g>
							</g>
							
								<radialGradient id="SVGID_45_" cx="16.908" cy="86.3225" r="93.7241" gradientTransform="matrix(1 0 0 -1 0 102)" gradientUnits="userSpaceOnUse">
								<stop  offset="0" style="stop-color:#FFFFFF;stop-opacity:0.1"/>
								<stop  offset="1" style="stop-color:#FFFFFF;stop-opacity:0"/>
							</radialGradient>
							<circle fill="url(#SVGID_45_)" cx="49.6" cy="49.6" r="46.7"/>
							<path fill="none" d="M-1.3-1.3h101.8v101.8H-1.3V-1.3z"/>
						</g>
					</g>
				</g>
			</g>
		</g>
	</g>
</g>
<g id="Mobile_Console" display="none">
	<g display="inline">
		<path fill="#010101" d="M74.7,1H24.8C21.1,1,18,4,18,7.8v84.6c0,3.8,3.1,6.8,6.8,6.8h49.8c3.8,0,6.8-3.1,6.8-6.8V7.8
			C81.5,4,78.5,1,74.7,1z M28.9,80.4v-5.7h-5.7V71h5.7v-5.7h3.8V71h5.7v3.8h-5.7v5.7L28.9,80.4z M46.1,90.6h-9.8c-0.5,0-1-0.4-1-1
			s0.4-1,1-1h9.8c0.5,0,1,0.4,1,1S46.6,90.6,46.1,90.6z M63.2,90.6h-9.8c-0.5,0-1-0.4-1-1s0.4-1,1-1h9.8c0.5,0,1,0.4,1,1
			S63.7,90.6,63.2,90.6z M65.5,78.5c-1.6,0.1-3-1-3.1-2.6c-0.1-1.6,1-3,2.6-3.1c1.6-0.1,3,1,3.1,2.6C68.3,76.9,67.1,78.3,65.5,78.5z
			 M72.9,73c-1.6,0.1-3-1-3.1-2.6c-0.1-1.6,1-3,2.6-3.1c1.6-0.1,3,1,3.1,2.6C75.7,71.5,74.5,72.9,72.9,73z M76.6,57.3
			c0,1.5-1.2,2.7-2.7,2.7H25.6c-1.5,0-2.7-1.2-2.7-2.7V9c0-1.5,1.2-2.7,2.7-2.7h48.3c1.5,0,2.7,1.2,2.7,2.7L76.6,57.3L76.6,57.3z"/>
	</g>
</g>
<g id="Layer_15" display="none">
	<path display="inline" fill="#010101" d="M87.2,22.6H14.4c-6.6,0-12,5.4-12,12v30.8c0,6.6,5.4,12,12,12h72.8c6.6,0,12-5.4,12-12
		V34.6C99.2,28,93.8,22.6,87.2,22.6z M83.8,40c1.8,0,3.2,1.5,3.2,3.2s-1.5,3.2-3.2,3.2c-1.8,0-3.2-1.5-3.2-3.2S82,40,83.8,40z
		 M26.2,52.9h-6.1V59H14v-6.1H7.8v-6.1h6.1v-6.1H20v6.1h6.1L26.2,52.9L26.2,52.9z M69.5,65.6H32V34.4h37.5V65.6z M77.8,53.5
		c-1.8,0-3.2-1.5-3.2-3.2S76,47,77.8,47s3.2,1.5,3.2,3.2S79.6,53.5,77.8,53.5z M84.8,59.5c-1.8,0-3.2-1.5-3.2-3.2S83,53,84.8,53
		s3.2,1.5,3.2,3.2S86.6,59.5,84.8,59.5z M90.8,52.5c-1.8,0-3.2-1.5-3.2-3.2S89,46,90.8,46s3.2,1.5,3.2,3.2S92.6,52.5,90.8,52.5z"/>
</g>
<g id="Console" display="none">
	<g display="inline">
		<g>
			<path fill="#010101" d="M77.1,25.3H24.6C12.5,25.3,2.5,35.5,2.5,48l0.1,1.6c0.2,2.3,0.6,4.5,1.4,6.6c0,0,0,0,0,0
				c0,0.1,0,0.2,0,0.2c2.8,12.9,9.4,34.5,21.6,34.1c0.1,0,1.3-0.1,1.3-0.1c12.7-2,14.7-14.1,15-23.1c0-0.1,0.1-0.1,0.1-0.1
				c0,0,0.1-0.1,0.1-0.1l0,0c0,0,0.1,0,0.1,0c0,0,0.1,0,0.1,0l16.9,0c0,0,0,0,0,0c0,0,0.1,0,0.1,0c0,0,0.1,0,0.1,0
				c0,0,0.1,0.1,0.1,0.2c0.3,9,2.3,21.1,14.9,23.1c0,0,1.4,0.1,1.4,0.1c12.2,0.4,18.8-21.2,21.6-34.1l0,0c0-0.1,0.1-0.2,0.1-0.3
				c0.8-2,1.2-4.2,1.4-6.5l0.1-1.6C99.1,35.5,89.2,25.3,77.1,25.3z M59.6,67.2C59.6,67.2,59.6,67.2,59.6,67.2
				C59.6,67.2,59.6,67.2,59.6,67.2C59.6,67.2,59.6,67.2,59.6,67.2z M98.2,49.5c-0.2,2.2-0.6,4.4-1.4,6.3c0,0-0.1,0.4-0.1,0.4
				C94,68.9,87.6,90,76.1,89.7c0,0-1.3-0.1-1.3-0.1c-12.1-1.9-13.9-13.7-14.2-22.5c-0.1-0.2-0.2-0.4-0.5-0.6c0,0-0.1-0.1-0.1-0.1
				l-0.1,0l-0.1,0c0,0-0.1,0-0.2-0.1l-0.2,0h-17c0,0-0.2,0-0.3,0c0,0-0.1,0-0.1,0c0,0-0.1,0-0.1,0.1c0,0-0.1,0-0.1,0
				c0,0-0.1,0.1-0.1,0.1c-0.2,0.1-0.3,0.3-0.4,0.5c-0.3,8.8-2.2,20.6-14.2,22.5c0,0-1.2,0.1-1.2,0.1c0,0,0,0,0,0c0,0,0,0,0,0l0,0
				C14.1,90,7.7,68.9,4.9,56.2c0,0-0.1-0.3-0.1-0.3c-0.8-2-1.2-4.1-1.4-6.4L3.4,48c0-12,9.5-21.8,21.2-21.8h52.4
				c11.7,0,21.2,9.8,21.2,21.8L98.2,49.5z"/>
		</g>
		<path fill="#010101" d="M28.7,37.3c4.9,0,9.2,2.6,11.5,6.5c-2-4.8-6.8-8.3-12.4-8.3c-7.4,0-13.4,5.9-13.4,13.3
			c0,2.4,0.7,4.7,1.9,6.7c-0.6-1.5-1-3.2-1-5C15.3,43.3,21.3,37.3,28.7,37.3z"/>
		<path fill="#010101" d="M77.3,38c4.9,0,9.2,2.6,11.5,6.5c-2-4.8-6.8-8.3-12.4-8.3c-7.4,0-13.4,6-13.4,13.3c0,2.5,0.7,4.7,1.9,6.7
			c-0.6-1.5-1-3.2-1-5C63.9,44,69.9,38,77.3,38z"/>
		<g>
			<path fill="#010101" d="M48.6,3.2C46,1.6,42,2.5,36.8,6.1c-2.9,2-4.4,3.6-4.4,4.7c0,0,0,0.3,0,0.3c0.3,1.1,2.4,1.9,6.1,2.4
				c3.6,0.5,8.1,0.7,13,0.8l0.3,0l0.4,0l0-0.4C52.2,10.1,51.5,5.1,48.6,3.2z M51.6,13.8c-4.8-0.2-9.4-0.4-13-0.8
				c-4.7-0.6-5.6-1.6-5.8-2.1c0-0.1,0-0.1,0-0.2c0-0.6,0.6-1.9,4.3-4.4c5.1-3.5,8.9-4.4,11.4-2.8c2.7,1.7,3.4,6.4,3.5,10.3
				C51.9,13.8,51.7,13.8,51.6,13.8z M53.6,13.9c-0.1-4.7-1-9.7-4.2-11.7c-3-2-7.4-1-13.1,2.9c-3.4,2.3-5,4.1-5,5.7
				c0,0.2,0,0.4,0.1,0.6c0.9,3.2,8.3,3.6,20.2,4.1c0.1,0,0.3,0,0.4,0c-0.1,4.2-0.7,7.8-0.8,7.9l1.6,0.3c0.1-0.3,0.7-3.9,0.8-8.1
				c5,0.2,10,0.4,13.8,1.1c4.5,0.7,6.8,1.9,6.8,3.5h1.6C75.8,15,65.3,14.3,53.6,13.9z M67.3,16.2c-4-0.7-9-0.9-13.9-1.1l-0.4,0
				l0,0.4c-0.1,3.5-0.5,6.6-0.7,7.6c-0.3-0.1-0.5-0.1-0.8-0.1c0.2-1.1,0.6-4.1,0.7-7.5l0-0.4l-0.8,0c-11.8-0.4-19-0.9-19.8-3.8
				c0-0.2-0.1-0.4-0.1-0.5c0-1.4,1.6-3.2,4.8-5.3c5.6-3.8,9.8-4.7,12.7-2.9C52.2,4.6,53,9.9,53,14l0,0.4l0.4,0
				c11.6,0.5,21.2,1.2,21.8,5.4h-0.8C74.1,18.1,71.8,17,67.3,16.2z"/>
		</g>
		<path fill="#010101" d="M24.4,43.1v3.1h-3.1c-2,0-3.7,1.6-3.7,3.7c0,2,1.7,3.7,3.7,3.7h3.1v3.1c0,2,1.7,3.7,3.7,3.7
			c2,0,3.7-1.6,3.7-3.7v-3.1h3.1c2,0,3.7-1.6,3.7-3.7c0-2-1.7-3.7-3.7-3.7h-3.1v-3.1c0-2-1.7-3.7-3.7-3.7
			C26.1,39.4,24.4,41.1,24.4,43.1z"/>
		<g>
			<path fill="#010101" d="M83.9,47c-2.1,0-3.7,1.7-3.7,3.7c0,2,1.7,3.7,3.7,3.7c2.1,0,3.7-1.7,3.7-3.7C87.6,48.7,86,47,83.9,47z
				 M86.1,52.9c0.3-0.4,0.4-0.9,0.4-1.4c0-1.6-1.5-2.8-3.3-2.8c-0.7,0-1.3,0.2-1.8,0.5c0.5-1,1.5-1.6,2.7-1.6c1.7,0,3,1.4,3,3.1
				C87.1,51.5,86.7,52.4,86.1,52.9z"/>
		</g>
		<g>
			<path fill="#010101" d="M69.5,47c-2.1,0-3.7,1.7-3.7,3.7c0,2,1.7,3.7,3.7,3.7c2.1,0,3.7-1.7,3.7-3.7C73.3,48.7,71.6,47,69.5,47z
				 M71.7,52.9c0.3-0.4,0.4-0.9,0.4-1.4c0-1.6-1.5-2.8-3.3-2.8c-0.7,0-1.3,0.2-1.8,0.5c0.5-1,1.5-1.6,2.7-1.6c1.7,0,3,1.4,3,3.1
				C72.7,51.5,72.3,52.4,71.7,52.9z"/>
		</g>
		<g>
			<path fill="#010101" d="M77.1,39.5c-2.1,0-3.7,1.7-3.7,3.7c0,2,1.7,3.7,3.7,3.7c2.1,0,3.7-1.7,3.7-3.7
				C80.8,41.2,79.1,39.5,77.1,39.5z M79.2,45.4c0.3-0.4,0.4-0.9,0.4-1.4c0-1.6-1.5-2.8-3.3-2.8c-0.7,0-1.3,0.2-1.8,0.5
				c0.5-1,1.5-1.6,2.7-1.6c1.7,0,3,1.4,3,3.1C80.2,44.1,79.8,44.9,79.2,45.4z"/>
		</g>
		<g>
			<path fill="#010101" d="M77.1,54.5c-2.1,0-3.7,1.7-3.7,3.7c0,2,1.7,3.7,3.7,3.7c2.1,0,3.7-1.7,3.7-3.7
				C80.8,56.2,79.1,54.5,77.1,54.5z M79.2,60.4c0.3-0.4,0.4-0.9,0.4-1.4c0-1.6-1.5-2.8-3.3-2.8c-0.7,0-1.3,0.2-1.8,0.5
				c0.5-1,1.5-1.6,2.7-1.6c1.7,0,3,1.4,3,3.1C80.2,59,79.8,59.8,79.2,60.4z"/>
		</g>
		<g>
			<path fill="#010101" d="M77.1,27.1H24.6C13.4,27.1,4.3,36.4,4.3,48c0,0.5,0,1,0.1,1.5c0.1,2.1,0.6,4.2,1.3,6.1c0,0,0,0,0,0.1
				c0,0.1,0.1,0.2,0.1,0.3c0,0,0,0.1,0,0.1c2.6,12,8.8,33.1,19.9,32.8c0.4,0,0.7,0,1.1-0.1C37.7,87,40,76.5,40.3,66.8l0,0
				c0.2-0.4,0.4-0.7,0.8-1c0,0,0.1,0,0.1-0.1c0.1,0,0.1-0.1,0.2-0.1c0.1,0,0.1-0.1,0.2-0.1c0.1,0,0.1,0,0.2-0.1c0.1,0,0.1,0,0.2-0.1
				c0,0,0.1,0,0.1,0c0.1,0,0.2,0,0.4,0h17c0.1,0,0.3,0,0.4,0c0,0,0.1,0,0.1,0c0.1,0,0.2,0,0.2,0.1c0.1,0,0.1,0,0.2,0.1
				c0.1,0,0.1,0.1,0.2,0.1c0.1,0,0.1,0.1,0.2,0.1c0,0,0.1,0,0.1,0.1c0.3,0.2,0.6,0.6,0.8,1h0C61.7,76.5,64,87,74.9,88.7
				c0.4,0.1,0.7,0.1,1.1,0.1C87.1,89.1,93.3,68,95.9,56c0-0.1,0.1-0.3,0.1-0.4c0,0,0,0,0,0c0.7-1.9,1.2-4,1.3-6.1
				c0-0.5,0.1-1,0.1-1.5C97.4,36.4,88.3,27.1,77.1,27.1z M26.2,86.3c-12.8,2-17.7-32.1-17.7-32.1l0.6,0.3
				c5.2,18.2,27.6,12.6,27.6,12.6S39,84.2,26.2,86.3z M28,63.6c-8.1,0-14.7-6.5-14.7-14.6c0-8.1,6.6-14.6,14.7-14.6
				c8.1,0,14.7,6.5,14.7,14.6C42.7,57.1,36.1,63.6,28,63.6z M76.6,35.1c8.1,0,14.7,6.5,14.7,14.6c0,8.1-6.6,14.6-14.7,14.6
				s-14.7-6.5-14.7-14.6C61.9,41.6,68.5,35.1,76.6,35.1z M75.5,85.5c-13.5-2-11.1-19.2-11.1-19.2c14.3,10.4,24.4-3.6,29.1-12.5
				l0.8-0.3C94.2,53.5,89,87.6,75.5,85.5z"/>
		</g>
		<path fill="#010101" d="M21.3,83.8c1.2,0.9,2.4,1.2,3.7,1c7.7-1.2,8.7-9.4,8.7-13.8c0-0.1,0-0.2,0-0.3c-6.2,0.9-15,0.5-21.3-4.7
			C14.3,73.2,17.3,80.9,21.3,83.8z"/>
		<path fill="#010101" d="M77.8,72.8c-3.7,0.9-7.5,0.3-11.2-1.6c0.2,4.5,1.7,11.7,9.3,12.9c6.3,0.9,10.9-9.8,13.6-19.2
			C86.3,68.6,82.4,71.7,77.8,72.8z"/>
	</g>
</g>
<g id="Symbian">
	<g>
		<ellipse fill="#3380B2" cx="52.2" cy="63.9" rx="10.9" ry="35.4"/>
		<circle fill="#F3AA2C" cx="52.2" cy="11" r="9.8"/>
	</g>
</g>
<g id="Unknown" display="none">
	<g display="inline">
		<path d="M27.5,11.7c1.6-1.3,3.3-2.6,5.2-3.7c1.9-1.2,3.9-2.2,6-3c2.1-0.9,4.4-1.6,6.9-2c2.5-0.5,5.1-0.7,8-0.7
			c4,0,7.6,0.5,10.8,1.6c3.2,1.1,6,2.6,8.2,4.6c2.3,2,4,4.4,5.2,7.2c1.2,2.8,1.8,5.9,1.8,9.3c0,3.3-0.4,6.1-1.3,8.4
			c-0.9,2.3-2,4.4-3.4,6.1c-1.4,1.8-2.9,3.3-4.5,4.5c-1.6,1.3-3.2,2.4-4.7,3.6c-1.5,1.1-2.8,2.2-3.8,3.3c-1.1,1.1-1.8,2.3-2,3.6
			l-1.8,9H44.4L43,53c0-0.3-0.1-0.5-0.1-0.8c0-0.3,0-0.5,0-0.8c0-1.9,0.4-3.5,1.3-4.9s2-2.7,3.4-3.9c1.4-1.2,2.8-2.3,4.4-3.4
			c1.6-1.1,3.1-2.3,4.4-3.5c1.4-1.3,2.5-2.7,3.4-4.2c0.9-1.6,1.3-3.4,1.3-5.5c0-2.6-0.8-4.6-2.5-6.1c-1.7-1.5-4-2.3-6.9-2.3
			c-2.3,0-4.2,0.2-5.7,0.7c-1.5,0.5-2.8,1-3.9,1.6c-1.1,0.6-2,1.1-2.8,1.6c-0.8,0.5-1.6,0.7-2.4,0.7c-1.8,0-3.2-0.8-4.1-2.4
			L27.5,11.7z M39.3,86.4c0-1.5,0.3-3,0.9-4.3c0.6-1.3,1.4-2.5,2.4-3.5c1-1,2.2-1.8,3.6-2.3c1.4-0.6,2.9-0.9,4.5-0.9
			c1.6,0,3,0.3,4.4,0.9c1.4,0.6,2.6,1.4,3.6,2.3c1,1,1.8,2.1,2.4,3.5c0.6,1.3,0.9,2.8,0.9,4.3s-0.3,3-0.9,4.3
			c-0.6,1.3-1.4,2.5-2.4,3.5c-1,1-2.2,1.8-3.6,2.3c-1.4,0.6-2.8,0.8-4.4,0.8c-1.6,0-3.1-0.3-4.5-0.8c-1.4-0.6-2.6-1.3-3.6-2.3
			c-1-1-1.8-2.1-2.4-3.5C39.5,89.4,39.3,88,39.3,86.4z"/>
	</g>
</g>
</svg>
