<?xml version="1.0" encoding="utf-8"?>
<!-- Generator: Adobe Illustrator 21.0.0, SVG Export Plug-In . SVG Version: 6.00 Build 0)  -->
<!DOCTYPE svg PUBLIC "-//W3C//DTD SVG 1.1//EN" "http://www.w3.org/Graphics/SVG/1.1/DTD/svg11.dtd">
<svg version="1.1" id="Layer_1" xmlns="http://www.w3.org/2000/svg" xmlns:xlink="http://www.w3.org/1999/xlink" x="0px" y="0px"
	 viewBox="0 0 16 16" enable-background="new 0 0 16 16" xml:space="preserve">
<g>
	<path fill="#2DABE2" d="M1,2.8l5.8-0.8l0,5.6L1,7.7L1,2.8z M6.7,8.3l0,5.6L1,13.1l0-4.8L6.7,8.3z M7.4,2l7.7-1.1v6.7L7.4,7.6V2z
		 M15.1,8.3l0,6.7l-7.7-1.1l0-5.6L15.1,8.3z"/>
</g>
<g>
	<defs>
		<circle id="SVGID_1_" cx="8" cy="7.9" r="7.4"/>
	</defs>
	<clipPath id="SVGID_2_">
		<use xlink:href="#SVGID_1_"  overflow="visible"/>
	</clipPath>
	<path clip-path="url(#SVGID_2_)" fill="#3E2823" fill-opacity="0.15" d="M5.1,9.5L1.8,3.8L1.8,3.9L5,9.6L5.1,9.5z"/>
</g>
<g>
	<defs>
		<circle id="SVGID_3_" cx="8" cy="7.9" r="7.4"/>
	</defs>
	<clipPath id="SVGID_4_">
		<use xlink:href="#SVGID_3_"  overflow="visible"/>
	</clipPath>
	<path clip-path="url(#SVGID_4_)" fill="#273339" fill-opacity="0.15" d="M10.8,9.6L10.8,9.6l-3.3,5.6h0.1L10.8,9.6L10.8,9.6z"/>
</g>
</svg>
